<svg width="480" height="640" viewBox="0 0 480 640" xmlns="http://www.w3.org/2000/svg">
<rect x="0" y="0" width="479" height="639" opacity="1" fill="#FFFFFF" stroke="none"/>
<line opacity="1" stroke="#FFFFFF" stroke-width="1" x1="103" y1="599" x2="103" y2="-1"/>
<line opacity="1" stroke="#FFFFFF" stroke-width="1" x1="107" y1="599" x2="107" y2="-1"/>
<line opacity="1" stroke="#FFFFFF" stroke-width="1" x1="111" y1="599" x2="111" y2="-1"/>
<line opacity="1" stroke="#FFFFFF" stroke-width="1" x1="115" y1="599" x2="115" y2="-1"/>
<line opacity="1" stroke="#FFFFFF" stroke-width="1" x1="119" y1="599" x2="119" y2="-1"/>
<line opacity="1" stroke="#FFFFFF" stroke-width="1" x1="122" y1="599" x2="122" y2="-1"/>
<line opacity="1" stroke="#FFFFFF" stroke-width="1" x1="126" y1="599" x2="126" y2="-1"/>
<line opacity="1" stroke="#FFFFFF" stroke-width="1" x1="130" y1="599" x2="130" y2="-1"/>
<line opacity="1" stroke="#FFFFFF" stroke-width="1" x1="134" y1="599" x2="134" y2="-1"/>
<line opacity="1" stroke="#FFFFFF" stroke-width="1" x1="138" y1="599" x2="138" y2="-1"/>
<line opacity="1" stroke="#FFFFFF" stroke-width="1" x1="142" y1="599" x2="142" y2="-1"/>
<line opacity="1" stroke="#FFFFFF" stroke-width="1" x1="145" y1="599" x2="145" y2="-1"/>
<line opacity="1" stroke="#FFFFFF" stroke-width="1" x1="149" y1="599" x2="149" y2="-1"/>
<line opacity="1" stroke="#FFFFFF" stroke-width="1" x1="153" y1="599" x2="153" y2="-1"/>
<line opacity="1" stroke="#FFFFFF" stroke-width="1" x1="157" y1="599" x2="157" y2="-1"/>
<line opacity="1" stroke="#FFFFFF" stroke-width="1" x1="161" y1="599" x2="161" y2="-1"/>
<line opacity="1" stroke="#FFFFFF" stroke-width="1" x1="165" y1="599" x2="165" y2="-1"/>
<line opacity="1" stroke="#FFFFFF" stroke-width="1" x1="168" y1="599" x2="168" y2="-1"/>
<line opacity="1" stroke="#FFFFFF" stroke-width="1" x1="172" y1="599" x2="172" y2="-1"/>
<line opacity="1" stroke="#FFFFFF" stroke-width="1" x1="176" y1="599" x2="176" y2="-1"/>
<line opacity="1" stroke="#FFFFFF" stroke-width="1" x1="180" y1="599" x2="180" y2="-1"/>
<line opacity="1" stroke="#FFFFFF" stroke-width="1" x1="184" y1="599" x2="184" y2="-1"/>
<line opacity="1" stroke="#FFFFFF" stroke-width="1" x1="188" y1="599" x2="188" y2="-1"/>
<line opacity="1" stroke="#FFFFFF" stroke-width="1" x1="191" y1="599" x2="191" y2="-1"/>
<line opacity="1" stroke="#FFFFFF" stroke-width="1" x1="195" y1="599" x2="195" y2="-1"/>
<line opacity="1" stroke="#FFFFFF" stroke-width="1" x1="199" y1="599" x2="199" y2="-1"/>
<line opacity="1" stroke="#FFFFFF" stroke-width="1" x1="203" y1="599" x2="203" y2="-1"/>
<line opacity="1" stroke="#FFFFFF" stroke-width="1" x1="207" y1="599" x2="207" y2="-1"/>
<line opacity="1" stroke="#FFFFFF" stroke-width="1" x1="211" y1="599" x2="211" y2="-1"/>
<line opacity="1" stroke="#FFFFFF" stroke-width="1" x1="214" y1="599" x2="214" y2="-1"/>
<line opacity="1" stroke="#FFFFFF" stroke-width="1" x1="218" y1="599" x2="218" y2="-1"/>
<line opacity="1" stroke="#FFFFFF" stroke-width="1" x1="222" y1="599" x2="222" y2="-1"/>
<line opacity="1" stroke="#FFFFFF" stroke-width="1" x1="226" y1="599" x2="226" y2="-1"/>
<line opacity="1" stroke="#FFFFFF" stroke-width="1" x1="230" y1="599" x2="230" y2="-1"/>
<line opacity="1" stroke="#FFFFFF" stroke-width="1" x1="234" y1="599" x2="234" y2="-1"/>
<line opacity="1" stroke="#FFFFFF" stroke-width="1" x1="237" y1="599" x2="237" y2="-1"/>
<line opacity="1" stroke="#FFFFFF" stroke-width="1" x1="241" y1="599" x2="241" y2="-1"/>
<line opacity="1" stroke="#FFFFFF" stroke-width="1" x1="245" y1="599" x2="245" y2="-1"/>
<line opacity="1" stroke="#FFFFFF" stroke-width="1" x1="249" y1="599" x2="249" y2="-1"/>
<line opacity="1" stroke="#FFFFFF" stroke-width="1" x1="253" y1="599" x2="253" y2="-1"/>
<line opacity="1" stroke="#FFFFFF" stroke-width="1" x1="257" y1="599" x2="257" y2="-1"/>
<line opacity="1" stroke="#FFFFFF" stroke-width="1" x1="260" y1="599" x2="260" y2="-1"/>
<line opacity="1" stroke="#FFFFFF" stroke-width="1" x1="264" y1="599" x2="264" y2="-1"/>
<line opacity="1" stroke="#FFFFFF" stroke-width="1" x1="268" y1="599" x2="268" y2="-1"/>
<line opacity="1" stroke="#FFFFFF" stroke-width="1" x1="272" y1="599" x2="272" y2="-1"/>
<line opacity="1" stroke="#FFFFFF" stroke-width="1" x1="276" y1="599" x2="276" y2="-1"/>
<line opacity="1" stroke="#FFFFFF" stroke-width="1" x1="280" y1="599" x2="280" y2="-1"/>
<line opacity="1" stroke="#FFFFFF" stroke-width="1" x1="283" y1="599" x2="283" y2="-1"/>
<line opacity="1" stroke="#FFFFFF" stroke-width="1" x1="287" y1="599" x2="287" y2="-1"/>
<line opacity="1" stroke="#FFFFFF" stroke-width="1" x1="291" y1="599" x2="291" y2="-1"/>
<line opacity="1" stroke="#FFFFFF" stroke-width="1" x1="295" y1="599" x2="295" y2="-1"/>
<line opacity="1" stroke="#FFFFFF" stroke-width="1" x1="299" y1="599" x2="299" y2="-1"/>
<line opacity="1" stroke="#FFFFFF" stroke-width="1" x1="303" y1="599" x2="303" y2="-1"/>
<line opacity="1" stroke="#FFFFFF" stroke-width="1" x1="306" y1="599" x2="306" y2="-1"/>
<line opacity="1" stroke="#FFFFFF" stroke-width="1" x1="310" y1="599" x2="310" y2="-1"/>
<line opacity="1" stroke="#FFFFFF" stroke-width="1" x1="314" y1="599" x2="314" y2="-1"/>
<line opacity="1" stroke="#FFFFFF" stroke-width="1" x1="318" y1="599" x2="318" y2="-1"/>
<line opacity="1" stroke="#FFFFFF" stroke-width="1" x1="322" y1="599" x2="322" y2="-1"/>
<line opacity="1" stroke="#FFFFFF" stroke-width="1" x1="326" y1="599" x2="326" y2="-1"/>
<line opacity="1" stroke="#FFFFFF" stroke-width="1" x1="329" y1="599" x2="329" y2="-1"/>
<line opacity="1" stroke="#FFFFFF" stroke-width="1" x1="333" y1="599" x2="333" y2="-1"/>
<line opacity="1" stroke="#FFFFFF" stroke-width="1" x1="337" y1="599" x2="337" y2="-1"/>
<line opacity="1" stroke="#FFFFFF" stroke-width="1" x1="341" y1="599" x2="341" y2="-1"/>
<line opacity="1" stroke="#FFFFFF" stroke-width="1" x1="345" y1="599" x2="345" y2="-1"/>
<line opacity="1" stroke="#FFFFFF" stroke-width="1" x1="348" y1="599" x2="348" y2="-1"/>
<line opacity="1" stroke="#FFFFFF" stroke-width="1" x1="352" y1="599" x2="352" y2="-1"/>
<line opacity="1" stroke="#FFFFFF" stroke-width="1" x1="356" y1="599" x2="356" y2="-1"/>
<line opacity="1" stroke="#FFFFFF" stroke-width="1" x1="360" y1="599" x2="360" y2="-1"/>
<line opacity="1" stroke="#FFFFFF" stroke-width="1" x1="364" y1="599" x2="364" y2="-1"/>
<line opacity="1" stroke="#FFFFFF" stroke-width="1" x1="368" y1="599" x2="368" y2="-1"/>
<line opacity="1" stroke="#FFFFFF" stroke-width="1" x1="371" y1="599" x2="371" y2="-1"/>
<line opacity="1" stroke="#FFFFFF" stroke-width="1" x1="375" y1="599" x2="375" y2="-1"/>
<line opacity="1" stroke="#FFFFFF" stroke-width="1" x1="379" y1="599" x2="379" y2="-1"/>
<line opacity="1" stroke="#FFFFFF" stroke-width="1" x1="383" y1="599" x2="383" y2="-1"/>
<line opacity="1" stroke="#FFFFFF" stroke-width="1" x1="387" y1="599" x2="387" y2="-1"/>
<line opacity="1" stroke="#FFFFFF" stroke-width="1" x1="391" y1="599" x2="391" y2="-1"/>
<line opacity="1" stroke="#FFFFFF" stroke-width="1" x1="394" y1="599" x2="394" y2="-1"/>
<line opacity="1" stroke="#FFFFFF" stroke-width="1" x1="398" y1="599" x2="398" y2="-1"/>
<line opacity="1" stroke="#FFFFFF" stroke-width="1" x1="402" y1="599" x2="402" y2="-1"/>
<line opacity="1" stroke="#FFFFFF" stroke-width="1" x1="406" y1="599" x2="406" y2="-1"/>
<line opacity="1" stroke="#FFFFFF" stroke-width="1" x1="410" y1="599" x2="410" y2="-1"/>
<line opacity="1" stroke="#FFFFFF" stroke-width="1" x1="414" y1="599" x2="414" y2="-1"/>
<line opacity="1" stroke="#FFFFFF" stroke-width="1" x1="417" y1="599" x2="417" y2="-1"/>
<line opacity="1" stroke="#FFFFFF" stroke-width="1" x1="421" y1="599" x2="421" y2="-1"/>
<line opacity="1" stroke="#FFFFFF" stroke-width="1" x1="425" y1="599" x2="425" y2="-1"/>
<line opacity="1" stroke="#FFFFFF" stroke-width="1" x1="429" y1="599" x2="429" y2="-1"/>
<line opacity="1" stroke="#FFFFFF" stroke-width="1" x1="433" y1="599" x2="433" y2="-1"/>
<line opacity="1" stroke="#FFFFFF" stroke-width="1" x1="437" y1="599" x2="437" y2="-1"/>
<line opacity="1" stroke="#FFFFFF" stroke-width="1" x1="440" y1="599" x2="440" y2="-1"/>
<line opacity="1" stroke="#FFFFFF" stroke-width="1" x1="444" y1="599" x2="444" y2="-1"/>
<line opacity="1" stroke="#FFFFFF" stroke-width="1" x1="448" y1="599" x2="448" y2="-1"/>
<line opacity="1" stroke="#FFFFFF" stroke-width="1" x1="452" y1="599" x2="452" y2="-1"/>
<line opacity="1" stroke="#FFFFFF" stroke-width="1" x1="456" y1="599" x2="456" y2="-1"/>
<line opacity="1" stroke="#FFFFFF" stroke-width="1" x1="460" y1="599" x2="460" y2="-1"/>
<line opacity="1" stroke="#FFFFFF" stroke-width="1" x1="463" y1="599" x2="463" y2="-1"/>
<line opacity="1" stroke="#FFFFFF" stroke-width="1" x1="467" y1="599" x2="467" y2="-1"/>
<line opacity="1" stroke="#FFFFFF" stroke-width="1" x1="471" y1="599" x2="471" y2="-1"/>
<line opacity="1" stroke="#FFFFFF" stroke-width="1" x1="475" y1="599" x2="475" y2="-1"/>
<line opacity="1" stroke="#FFFFFF" stroke-width="1" x1="479" y1="599" x2="479" y2="-1"/>
<line opacity="1" stroke="#FFFFFF" stroke-width="1" x1="100" y1="559" x2="480" y2="559"/>
<line opacity="1" stroke="#FFFFFF" stroke-width="1" x1="100" y1="519" x2="480" y2="519"/>
<line opacity="1" stroke="#FFFFFF" stroke-width="1" x1="100" y1="479" x2="480" y2="479"/>
<line opacity="1" stroke="#FFFFFF" stroke-width="1" x1="100" y1="439" x2="480" y2="439"/>
<line opacity="1" stroke="#FFFFFF" stroke-width="1" x1="100" y1="399" x2="480" y2="399"/>
<line opacity="1" stroke="#FFFFFF" stroke-width="1" x1="100" y1="359" x2="480" y2="359"/>
<line opacity="1" stroke="#FFFFFF" stroke-width="1" x1="100" y1="319" x2="480" y2="319"/>
<line opacity="1" stroke="#FFFFFF" stroke-width="1" x1="100" y1="279" x2="480" y2="279"/>
<line opacity="1" stroke="#FFFFFF" stroke-width="1" x1="100" y1="239" x2="480" y2="239"/>
<line opacity="1" stroke="#FFFFFF" stroke-width="1" x1="100" y1="199" x2="480" y2="199"/>
<line opacity="1" stroke="#FFFFFF" stroke-width="1" x1="100" y1="159" x2="480" y2="159"/>
<line opacity="1" stroke="#FFFFFF" stroke-width="1" x1="100" y1="119" x2="480" y2="119"/>
<line opacity="1" stroke="#FFFFFF" stroke-width="1" x1="100" y1="79" x2="480" y2="79"/>
<line opacity="1" stroke="#FFFFFF" stroke-width="1" x1="100" y1="39" x2="480" y2="39"/>
<text x="0" y="300" dy="0.76em" text-anchor="middle" font-family="sans-serif" font-size="9.67741935483871" opacity="1" fill="#000000" transform="rotate(270, 0, 300)">
Language
</text>
<text x="290" y="640" dy="-0.5ex" text-anchor="middle" font-family="sans-serif" font-size="9.67741935483871" opacity="1" fill="#000000">
Response, ms
</text>
<line opacity="0.2" stroke="#000000" stroke-width="1" x1="138" y1="599" x2="138" y2="-1"/>
<line opacity="0.2" stroke="#000000" stroke-width="1" x1="176" y1="599" x2="176" y2="-1"/>
<line opacity="0.2" stroke="#000000" stroke-width="1" x1="214" y1="599" x2="214" y2="-1"/>
<line opacity="0.2" stroke="#000000" stroke-width="1" x1="253" y1="599" x2="253" y2="-1"/>
<line opacity="0.2" stroke="#000000" stroke-width="1" x1="291" y1="599" x2="291" y2="-1"/>
<line opacity="0.2" stroke="#000000" stroke-width="1" x1="329" y1="599" x2="329" y2="-1"/>
<line opacity="0.2" stroke="#000000" stroke-width="1" x1="368" y1="599" x2="368" y2="-1"/>
<line opacity="0.2" stroke="#000000" stroke-width="1" x1="406" y1="599" x2="406" y2="-1"/>
<line opacity="0.2" stroke="#000000" stroke-width="1" x1="444" y1="599" x2="444" y2="-1"/>
<line opacity="0.2" stroke="#000000" stroke-width="1" x1="100" y1="559" x2="480" y2="559"/>
<line opacity="0.2" stroke="#000000" stroke-width="1" x1="100" y1="519" x2="480" y2="519"/>
<line opacity="0.2" stroke="#000000" stroke-width="1" x1="100" y1="479" x2="480" y2="479"/>
<line opacity="0.2" stroke="#000000" stroke-width="1" x1="100" y1="439" x2="480" y2="439"/>
<line opacity="0.2" stroke="#000000" stroke-width="1" x1="100" y1="399" x2="480" y2="399"/>
<line opacity="0.2" stroke="#000000" stroke-width="1" x1="100" y1="359" x2="480" y2="359"/>
<line opacity="0.2" stroke="#000000" stroke-width="1" x1="100" y1="319" x2="480" y2="319"/>
<line opacity="0.2" stroke="#000000" stroke-width="1" x1="100" y1="279" x2="480" y2="279"/>
<line opacity="0.2" stroke="#000000" stroke-width="1" x1="100" y1="239" x2="480" y2="239"/>
<line opacity="0.2" stroke="#000000" stroke-width="1" x1="100" y1="199" x2="480" y2="199"/>
<line opacity="0.2" stroke="#000000" stroke-width="1" x1="100" y1="159" x2="480" y2="159"/>
<line opacity="0.2" stroke="#000000" stroke-width="1" x1="100" y1="119" x2="480" y2="119"/>
<line opacity="0.2" stroke="#000000" stroke-width="1" x1="100" y1="79" x2="480" y2="79"/>
<line opacity="0.2" stroke="#000000" stroke-width="1" x1="100" y1="39" x2="480" y2="39"/>
<polyline fill="none" opacity="1" stroke="#000000" stroke-width="1" points="99,0 99,600 "/>
<text x="90" y="559" dy="0.5ex" text-anchor="end" font-family="sans-serif" font-size="9.67741935483871" opacity="1" fill="#000000">
Rust/rocket
</text>
<polyline fill="none" opacity="1" stroke="#000000" stroke-width="1" points="94,559 99,559 "/>
<text x="90" y="519" dy="0.5ex" text-anchor="end" font-family="sans-serif" font-size="9.67741935483871" opacity="1" fill="#000000">
PyPy3/Twisted
</text>
<polyline fill="none" opacity="1" stroke="#000000" stroke-width="1" points="94,519 99,519 "/>
<text x="90" y="479" dy="0.5ex" text-anchor="end" font-family="sans-serif" font-size="9.67741935483871" opacity="1" fill="#000000">
Java/Spring Boot
</text>
<polyline fill="none" opacity="1" stroke="#000000" stroke-width="1" points="94,479 99,479 "/>
<text x="90" y="439" dy="0.5ex" text-anchor="end" font-family="sans-serif" font-size="9.67741935483871" opacity="1" fill="#000000">
Rust/warp
</text>
<polyline fill="none" opacity="1" stroke="#000000" stroke-width="1" points="94,439 99,439 "/>
<text x="90" y="399" dy="0.5ex" text-anchor="end" font-family="sans-serif" font-size="9.67741935483871" opacity="1" fill="#000000">
PHP/Swoole
</text>
<polyline fill="none" opacity="1" stroke="#000000" stroke-width="1" points="94,399 99,399 "/>
<text x="90" y="359" dy="0.5ex" text-anchor="end" font-family="sans-serif" font-size="9.67741935483871" opacity="1" fill="#000000">
Rust/Tide
</text>
<polyline fill="none" opacity="1" stroke="#000000" stroke-width="1" points="94,359 99,359 "/>
<text x="90" y="319" dy="0.5ex" text-anchor="end" font-family="sans-serif" font-size="9.67741935483871" opacity="1" fill="#000000">
Rust/hyper
</text>
<polyline fill="none" opacity="1" stroke="#000000" stroke-width="1" points="94,319 99,319 "/>
<text x="90" y="279" dy="0.5ex" text-anchor="end" font-family="sans-serif" font-size="9.67741935483871" opacity="1" fill="#000000">
Node.js
</text>
<polyline fill="none" opacity="1" stroke="#000000" stroke-width="1" points="94,279 99,279 "/>
<text x="90" y="239" dy="0.5ex" text-anchor="end" font-family="sans-serif" font-size="9.67741935483871" opacity="1" fill="#000000">
D (LDC/vibe.d)
</text>
<polyline fill="none" opacity="1" stroke="#000000" stroke-width="1" points="94,239 99,239 "/>
<text x="90" y="199" dy="0.5ex" text-anchor="end" font-family="sans-serif" font-size="9.67741935483871" opacity="1" fill="#000000">
Scala/Akka
</text>
<polyline fill="none" opacity="1" stroke="#000000" stroke-width="1" points="94,199 99,199 "/>
<text x="90" y="159" dy="0.5ex" text-anchor="end" font-family="sans-serif" font-size="9.67741935483871" opacity="1" fill="#000000">
D (DMD/vibe.d)
</text>
<polyline fill="none" opacity="1" stroke="#000000" stroke-width="1" points="94,159 99,159 "/>
<text x="90" y="119" dy="0.5ex" text-anchor="end" font-family="sans-serif" font-size="9.67741935483871" opacity="1" fill="#000000">
Go
</text>
<polyline fill="none" opacity="1" stroke="#000000" stroke-width="1" points="94,119 99,119 "/>
<text x="90" y="79" dy="0.5ex" text-anchor="end" font-family="sans-serif" font-size="9.67741935483871" opacity="1" fill="#000000">
Crystal
</text>
<polyline fill="none" opacity="1" stroke="#000000" stroke-width="1" points="94,79 99,79 "/>
<text x="90" y="39" dy="0.5ex" text-anchor="end" font-family="sans-serif" font-size="9.67741935483871" opacity="1" fill="#000000">
Rust/Actix
</text>
<polyline fill="none" opacity="1" stroke="#000000" stroke-width="1" points="94,39 99,39 "/>
<polyline fill="none" opacity="1" stroke="#000000" stroke-width="1" points="100,600 480,600 "/>
<text x="138" y="610" dy="0.76em" text-anchor="middle" font-family="sans-serif" font-size="9.67741935483871" opacity="1" fill="#000000">
5.0
</text>
<polyline fill="none" opacity="1" stroke="#000000" stroke-width="1" points="138,600 138,605 "/>
<text x="176" y="610" dy="0.76em" text-anchor="middle" font-family="sans-serif" font-size="9.67741935483871" opacity="1" fill="#000000">
10.0
</text>
<polyline fill="none" opacity="1" stroke="#000000" stroke-width="1" points="176,600 176,605 "/>
<text x="214" y="610" dy="0.76em" text-anchor="middle" font-family="sans-serif" font-size="9.67741935483871" opacity="1" fill="#000000">
15.0
</text>
<polyline fill="none" opacity="1" stroke="#000000" stroke-width="1" points="214,600 214,605 "/>
<text x="253" y="610" dy="0.76em" text-anchor="middle" font-family="sans-serif" font-size="9.67741935483871" opacity="1" fill="#000000">
20.0
</text>
<polyline fill="none" opacity="1" stroke="#000000" stroke-width="1" points="253,600 253,605 "/>
<text x="291" y="610" dy="0.76em" text-anchor="middle" font-family="sans-serif" font-size="9.67741935483871" opacity="1" fill="#000000">
25.0
</text>
<polyline fill="none" opacity="1" stroke="#000000" stroke-width="1" points="291,600 291,605 "/>
<text x="329" y="610" dy="0.76em" text-anchor="middle" font-family="sans-serif" font-size="9.67741935483871" opacity="1" fill="#000000">
30.0
</text>
<polyline fill="none" opacity="1" stroke="#000000" stroke-width="1" points="329,600 329,605 "/>
<text x="368" y="610" dy="0.76em" text-anchor="middle" font-family="sans-serif" font-size="9.67741935483871" opacity="1" fill="#000000">
35.0
</text>
<polyline fill="none" opacity="1" stroke="#000000" stroke-width="1" points="368,600 368,605 "/>
<text x="406" y="610" dy="0.76em" text-anchor="middle" font-family="sans-serif" font-size="9.67741935483871" opacity="1" fill="#000000">
40.0
</text>
<polyline fill="none" opacity="1" stroke="#000000" stroke-width="1" points="406,600 406,605 "/>
<text x="444" y="610" dy="0.76em" text-anchor="middle" font-family="sans-serif" font-size="9.67741935483871" opacity="1" fill="#000000">
45.0
</text>
<polyline fill="none" opacity="1" stroke="#000000" stroke-width="1" points="444,600 444,605 "/>
<line opacity="1" stroke="#E6194B" stroke-width="1" x1="100" y1="67" x2="100" y2="71"/>
<line opacity="1" stroke="#E6194B" stroke-width="1" x1="100" y1="69" x2="100" y2="69"/>
<rect x="100" y="64" width="30" height="10" opacity="1" fill="none" stroke="#E6194B"/>
<line opacity="1" stroke="#E6194B" stroke-width="1" x1="105" y1="64" x2="105" y2="74"/>
<line opacity="1" stroke="#E6194B" stroke-width="1" x1="130" y1="69" x2="175" y2="69"/>
<line opacity="1" stroke="#E6194B" stroke-width="1" x1="175" y1="67" x2="175" y2="71"/>
<line opacity="1" stroke="#E6194B" stroke-width="1" x1="100" y1="147" x2="100" y2="151"/>
<line opacity="1" stroke="#E6194B" stroke-width="1" x1="100" y1="149" x2="102" y2="149"/>
<rect x="102" y="144" width="34" height="10" opacity="1" fill="none" stroke="#E6194B"/>
<line opacity="1" stroke="#E6194B" stroke-width="1" x1="120" y1="144" x2="120" y2="154"/>
<line opacity="1" stroke="#E6194B" stroke-width="1" x1="136" y1="149" x2="188" y2="149"/>
<line opacity="1" stroke="#E6194B" stroke-width="1" x1="188" y1="147" x2="188" y2="151"/>
<line opacity="1" stroke="#E6194B" stroke-width="1" x1="100" y1="107" x2="100" y2="111"/>
<line opacity="1" stroke="#E6194B" stroke-width="1" x1="100" y1="109" x2="101" y2="109"/>
<rect x="101" y="104" width="31" height="10" opacity="1" fill="none" stroke="#E6194B"/>
<line opacity="1" stroke="#E6194B" stroke-width="1" x1="117" y1="104" x2="117" y2="114"/>
<line opacity="1" stroke="#E6194B" stroke-width="1" x1="132" y1="109" x2="180" y2="109"/>
<line opacity="1" stroke="#E6194B" stroke-width="1" x1="180" y1="107" x2="180" y2="111"/>
<line opacity="1" stroke="#E6194B" stroke-width="1" x1="100" y1="467" x2="100" y2="471"/>
<line opacity="1" stroke="#E6194B" stroke-width="1" x1="100" y1="469" x2="139" y2="469"/>
<rect x="139" y="464" width="30" height="10" opacity="1" fill="none" stroke="#E6194B"/>
<line opacity="1" stroke="#E6194B" stroke-width="1" x1="153" y1="464" x2="153" y2="474"/>
<line opacity="1" stroke="#E6194B" stroke-width="1" x1="169" y1="469" x2="215" y2="469"/>
<line opacity="1" stroke="#E6194B" stroke-width="1" x1="215" y1="467" x2="215" y2="471"/>
<line opacity="1" stroke="#E6194B" stroke-width="1" x1="100" y1="227" x2="100" y2="231"/>
<line opacity="1" stroke="#E6194B" stroke-width="1" x1="100" y1="229" x2="102" y2="229"/>
<rect x="102" y="224" width="37" height="10" opacity="1" fill="none" stroke="#E6194B"/>
<line opacity="1" stroke="#E6194B" stroke-width="1" x1="121" y1="224" x2="121" y2="234"/>
<line opacity="1" stroke="#E6194B" stroke-width="1" x1="139" y1="229" x2="194" y2="229"/>
<line opacity="1" stroke="#E6194B" stroke-width="1" x1="194" y1="227" x2="194" y2="231"/>
<line opacity="1" stroke="#E6194B" stroke-width="1" x1="100" y1="267" x2="100" y2="271"/>
<line opacity="1" stroke="#E6194B" stroke-width="1" x1="100" y1="269" x2="102" y2="269"/>
<rect x="102" y="264" width="37" height="10" opacity="1" fill="none" stroke="#E6194B"/>
<line opacity="1" stroke="#E6194B" stroke-width="1" x1="122" y1="264" x2="122" y2="274"/>
<line opacity="1" stroke="#E6194B" stroke-width="1" x1="139" y1="269" x2="196" y2="269"/>
<line opacity="1" stroke="#E6194B" stroke-width="1" x1="196" y1="267" x2="196" y2="271"/>
<line opacity="1" stroke="#E6194B" stroke-width="1" x1="100" y1="387" x2="100" y2="391"/>
<line opacity="1" stroke="#E6194B" stroke-width="1" x1="100" y1="389" x2="103" y2="389"/>
<rect x="103" y="384" width="62" height="10" opacity="1" fill="none" stroke="#E6194B"/>
<line opacity="1" stroke="#E6194B" stroke-width="1" x1="139" y1="384" x2="139" y2="394"/>
<line opacity="1" stroke="#E6194B" stroke-width="1" x1="165" y1="389" x2="260" y2="389"/>
<line opacity="1" stroke="#E6194B" stroke-width="1" x1="260" y1="387" x2="260" y2="391"/>
<line opacity="1" stroke="#E6194B" stroke-width="1" x1="208" y1="507" x2="208" y2="511"/>
<line opacity="1" stroke="#E6194B" stroke-width="1" x1="208" y1="509" x2="221" y2="509"/>
<rect x="221" y="504" width="10" height="10" opacity="1" fill="none" stroke="#E6194B"/>
<line opacity="1" stroke="#E6194B" stroke-width="1" x1="224" y1="504" x2="224" y2="514"/>
<line opacity="1" stroke="#E6194B" stroke-width="1" x1="231" y1="509" x2="244" y2="509"/>
<line opacity="1" stroke="#E6194B" stroke-width="1" x1="244" y1="507" x2="244" y2="511"/>
<line opacity="1" stroke="#E6194B" stroke-width="1" x1="100" y1="27" x2="100" y2="31"/>
<line opacity="1" stroke="#E6194B" stroke-width="1" x1="100" y1="29" x2="100" y2="29"/>
<rect x="100" y="24" width="29" height="10" opacity="1" fill="none" stroke="#E6194B"/>
<line opacity="1" stroke="#E6194B" stroke-width="1" x1="103" y1="24" x2="103" y2="34"/>
<line opacity="1" stroke="#E6194B" stroke-width="1" x1="129" y1="29" x2="173" y2="29"/>
<line opacity="1" stroke="#E6194B" stroke-width="1" x1="173" y1="27" x2="173" y2="31"/>
<line opacity="1" stroke="#E6194B" stroke-width="1" x1="100" y1="307" x2="100" y2="311"/>
<line opacity="1" stroke="#E6194B" stroke-width="1" x1="100" y1="309" x2="108" y2="309"/>
<rect x="108" y="304" width="42" height="10" opacity="1" fill="none" stroke="#E6194B"/>
<line opacity="1" stroke="#E6194B" stroke-width="1" x1="126" y1="304" x2="126" y2="314"/>
<line opacity="1" stroke="#E6194B" stroke-width="1" x1="150" y1="309" x2="213" y2="309"/>
<line opacity="1" stroke="#E6194B" stroke-width="1" x1="213" y1="307" x2="213" y2="311"/>
<line opacity="1" stroke="#E6194B" stroke-width="1" x1="100" y1="547" x2="100" y2="551"/>
<line opacity="1" stroke="#E6194B" stroke-width="1" x1="100" y1="549" x2="181" y2="549"/>
<rect x="181" y="544" width="116" height="10" opacity="1" fill="none" stroke="#E6194B"/>
<line opacity="1" stroke="#E6194B" stroke-width="1" x1="246" y1="544" x2="246" y2="554"/>
<line opacity="1" stroke="#E6194B" stroke-width="1" x1="297" y1="549" x2="472" y2="549"/>
<line opacity="1" stroke="#E6194B" stroke-width="1" x1="472" y1="547" x2="472" y2="551"/>
<line opacity="1" stroke="#E6194B" stroke-width="1" x1="100" y1="347" x2="100" y2="351"/>
<line opacity="1" stroke="#E6194B" stroke-width="1" x1="100" y1="349" x2="119" y2="349"/>
<rect x="119" y="344" width="36" height="10" opacity="1" fill="none" stroke="#E6194B"/>
<line opacity="1" stroke="#E6194B" stroke-width="1" x1="136" y1="344" x2="136" y2="354"/>
<line opacity="1" stroke="#E6194B" stroke-width="1" x1="155" y1="349" x2="208" y2="349"/>
<line opacity="1" stroke="#E6194B" stroke-width="1" x1="208" y1="347" x2="208" y2="351"/>
<line opacity="1" stroke="#E6194B" stroke-width="1" x1="143" y1="427" x2="143" y2="431"/>
<line opacity="1" stroke="#E6194B" stroke-width="1" x1="143" y1="429" x2="150" y2="429"/>
<rect x="150" y="424" width="5" height="10" opacity="1" fill="none" stroke="#E6194B"/>
<line opacity="1" stroke="#E6194B" stroke-width="1" x1="152" y1="424" x2="152" y2="434"/>
<line opacity="1" stroke="#E6194B" stroke-width="1" x1="155" y1="429" x2="162" y2="429"/>
<line opacity="1" stroke="#E6194B" stroke-width="1" x1="162" y1="427" x2="162" y2="431"/>
<line opacity="1" stroke="#E6194B" stroke-width="1" x1="100" y1="187" x2="100" y2="191"/>
<line opacity="1" stroke="#E6194B" stroke-width="1" x1="100" y1="189" x2="105" y2="189"/>
<rect x="105" y="184" width="33" height="10" opacity="1" fill="none" stroke="#E6194B"/>
<line opacity="1" stroke="#E6194B" stroke-width="1" x1="121" y1="184" x2="121" y2="194"/>
<line opacity="1" stroke="#E6194B" stroke-width="1" x1="138" y1="189" x2="187" y2="189"/>
<line opacity="1" stroke="#E6194B" stroke-width="1" x1="187" y1="187" x2="187" y2="191"/>
<line opacity="1" stroke="#3CB44B" stroke-width="1" x1="100" y1="87" x2="100" y2="91"/>
<line opacity="1" stroke="#3CB44B" stroke-width="1" x1="100" y1="89" x2="100" y2="89"/>
<rect x="100" y="84" width="29" height="10" opacity="1" fill="none" stroke="#3CB44B"/>
<line opacity="1" stroke="#3CB44B" stroke-width="1" x1="103" y1="84" x2="103" y2="94"/>
<line opacity="1" stroke="#3CB44B" stroke-width="1" x1="129" y1="89" x2="173" y2="89"/>
<line opacity="1" stroke="#3CB44B" stroke-width="1" x1="173" y1="87" x2="173" y2="91"/>
<line opacity="1" stroke="#3CB44B" stroke-width="1" x1="100" y1="167" x2="100" y2="171"/>
<line opacity="1" stroke="#3CB44B" stroke-width="1" x1="100" y1="169" x2="103" y2="169"/>
<rect x="103" y="164" width="34" height="10" opacity="1" fill="none" stroke="#3CB44B"/>
<line opacity="1" stroke="#3CB44B" stroke-width="1" x1="121" y1="164" x2="121" y2="174"/>
<line opacity="1" stroke="#3CB44B" stroke-width="1" x1="137" y1="169" x2="189" y2="169"/>
<line opacity="1" stroke="#3CB44B" stroke-width="1" x1="189" y1="167" x2="189" y2="171"/>
<line opacity="1" stroke="#3CB44B" stroke-width="1" x1="100" y1="127" x2="100" y2="131"/>
<line opacity="1" stroke="#3CB44B" stroke-width="1" x1="100" y1="129" x2="101" y2="129"/>
<rect x="101" y="124" width="33" height="10" opacity="1" fill="none" stroke="#3CB44B"/>
<line opacity="1" stroke="#3CB44B" stroke-width="1" x1="119" y1="124" x2="119" y2="134"/>
<line opacity="1" stroke="#3CB44B" stroke-width="1" x1="134" y1="129" x2="183" y2="129"/>
<line opacity="1" stroke="#3CB44B" stroke-width="1" x1="183" y1="127" x2="183" y2="131"/>
<line opacity="1" stroke="#3CB44B" stroke-width="1" x1="100" y1="487" x2="100" y2="491"/>
<line opacity="1" stroke="#3CB44B" stroke-width="1" x1="100" y1="489" x2="123" y2="489"/>
<rect x="123" y="484" width="17" height="10" opacity="1" fill="none" stroke="#3CB44B"/>
<line opacity="1" stroke="#3CB44B" stroke-width="1" x1="130" y1="484" x2="130" y2="494"/>
<line opacity="1" stroke="#3CB44B" stroke-width="1" x1="140" y1="489" x2="165" y2="489"/>
<line opacity="1" stroke="#3CB44B" stroke-width="1" x1="165" y1="487" x2="165" y2="491"/>
<line opacity="1" stroke="#3CB44B" stroke-width="1" x1="100" y1="247" x2="100" y2="251"/>
<line opacity="1" stroke="#3CB44B" stroke-width="1" x1="100" y1="249" x2="103" y2="249"/>
<rect x="103" y="244" width="36" height="10" opacity="1" fill="none" stroke="#3CB44B"/>
<line opacity="1" stroke="#3CB44B" stroke-width="1" x1="122" y1="244" x2="122" y2="254"/>
<line opacity="1" stroke="#3CB44B" stroke-width="1" x1="139" y1="249" x2="191" y2="249"/>
<line opacity="1" stroke="#3CB44B" stroke-width="1" x1="191" y1="247" x2="191" y2="251"/>
<line opacity="1" stroke="#3CB44B" stroke-width="1" x1="100" y1="287" x2="100" y2="291"/>
<line opacity="1" stroke="#3CB44B" stroke-width="1" x1="100" y1="289" x2="102" y2="289"/>
<rect x="102" y="284" width="37" height="10" opacity="1" fill="none" stroke="#3CB44B"/>
<line opacity="1" stroke="#3CB44B" stroke-width="1" x1="122" y1="284" x2="122" y2="294"/>
<line opacity="1" stroke="#3CB44B" stroke-width="1" x1="139" y1="289" x2="196" y2="289"/>
<line opacity="1" stroke="#3CB44B" stroke-width="1" x1="196" y1="287" x2="196" y2="291"/>
<line opacity="1" stroke="#3CB44B" stroke-width="1" x1="100" y1="407" x2="100" y2="411"/>
<line opacity="1" stroke="#3CB44B" stroke-width="1" x1="100" y1="409" x2="103" y2="409"/>
<rect x="103" y="404" width="62" height="10" opacity="1" fill="none" stroke="#3CB44B"/>
<line opacity="1" stroke="#3CB44B" stroke-width="1" x1="141" y1="404" x2="141" y2="414"/>
<line opacity="1" stroke="#3CB44B" stroke-width="1" x1="165" y1="409" x2="260" y2="409"/>
<line opacity="1" stroke="#3CB44B" stroke-width="1" x1="260" y1="407" x2="260" y2="411"/>
<line opacity="1" stroke="#3CB44B" stroke-width="1" x1="190" y1="527" x2="190" y2="531"/>
<line opacity="1" stroke="#3CB44B" stroke-width="1" x1="190" y1="529" x2="210" y2="529"/>
<rect x="210" y="524" width="13" height="10" opacity="1" fill="none" stroke="#3CB44B"/>
<line opacity="1" stroke="#3CB44B" stroke-width="1" x1="217" y1="524" x2="217" y2="534"/>
<line opacity="1" stroke="#3CB44B" stroke-width="1" x1="223" y1="529" x2="242" y2="529"/>
<line opacity="1" stroke="#3CB44B" stroke-width="1" x1="242" y1="527" x2="242" y2="531"/>
<line opacity="1" stroke="#3CB44B" stroke-width="1" x1="100" y1="47" x2="100" y2="51"/>
<line opacity="1" stroke="#3CB44B" stroke-width="1" x1="100" y1="49" x2="100" y2="49"/>
<rect x="100" y="44" width="30" height="10" opacity="1" fill="none" stroke="#3CB44B"/>
<line opacity="1" stroke="#3CB44B" stroke-width="1" x1="105" y1="44" x2="105" y2="54"/>
<line opacity="1" stroke="#3CB44B" stroke-width="1" x1="130" y1="49" x2="175" y2="49"/>
<line opacity="1" stroke="#3CB44B" stroke-width="1" x1="175" y1="47" x2="175" y2="51"/>
<line opacity="1" stroke="#3CB44B" stroke-width="1" x1="100" y1="327" x2="100" y2="331"/>
<line opacity="1" stroke="#3CB44B" stroke-width="1" x1="100" y1="329" x2="108" y2="329"/>
<rect x="108" y="324" width="29" height="10" opacity="1" fill="none" stroke="#3CB44B"/>
<line opacity="1" stroke="#3CB44B" stroke-width="1" x1="120" y1="324" x2="120" y2="334"/>
<line opacity="1" stroke="#3CB44B" stroke-width="1" x1="137" y1="329" x2="181" y2="329"/>
<line opacity="1" stroke="#3CB44B" stroke-width="1" x1="181" y1="327" x2="181" y2="331"/>
<line opacity="1" stroke="#3CB44B" stroke-width="1" x1="100" y1="567" x2="100" y2="571"/>
<line opacity="1" stroke="#3CB44B" stroke-width="1" x1="100" y1="569" x2="179" y2="569"/>
<rect x="179" y="564" width="116" height="10" opacity="1" fill="none" stroke="#3CB44B"/>
<line opacity="1" stroke="#3CB44B" stroke-width="1" x1="248" y1="564" x2="248" y2="574"/>
<line opacity="1" stroke="#3CB44B" stroke-width="1" x1="295" y1="569" x2="468" y2="569"/>
<line opacity="1" stroke="#3CB44B" stroke-width="1" x1="468" y1="567" x2="468" y2="571"/>
<line opacity="1" stroke="#3CB44B" stroke-width="1" x1="100" y1="367" x2="100" y2="371"/>
<line opacity="1" stroke="#3CB44B" stroke-width="1" x1="100" y1="369" x2="110" y2="369"/>
<rect x="110" y="364" width="19" height="10" opacity="1" fill="none" stroke="#3CB44B"/>
<line opacity="1" stroke="#3CB44B" stroke-width="1" x1="119" y1="364" x2="119" y2="374"/>
<line opacity="1" stroke="#3CB44B" stroke-width="1" x1="129" y1="369" x2="156" y2="369"/>
<line opacity="1" stroke="#3CB44B" stroke-width="1" x1="156" y1="367" x2="156" y2="371"/>
<line opacity="1" stroke="#3CB44B" stroke-width="1" x1="143" y1="447" x2="143" y2="451"/>
<line opacity="1" stroke="#3CB44B" stroke-width="1" x1="143" y1="449" x2="152" y2="449"/>
<rect x="152" y="444" width="6" height="10" opacity="1" fill="none" stroke="#3CB44B"/>
<line opacity="1" stroke="#3CB44B" stroke-width="1" x1="155" y1="444" x2="155" y2="454"/>
<line opacity="1" stroke="#3CB44B" stroke-width="1" x1="158" y1="449" x2="168" y2="449"/>
<line opacity="1" stroke="#3CB44B" stroke-width="1" x1="168" y1="447" x2="168" y2="451"/>
<line opacity="1" stroke="#3CB44B" stroke-width="1" x1="100" y1="207" x2="100" y2="211"/>
<line opacity="1" stroke="#3CB44B" stroke-width="1" x1="100" y1="209" x2="106" y2="209"/>
<rect x="106" y="204" width="39" height="10" opacity="1" fill="none" stroke="#3CB44B"/>
<line opacity="1" stroke="#3CB44B" stroke-width="1" x1="126" y1="204" x2="126" y2="214"/>
<line opacity="1" stroke="#3CB44B" stroke-width="1" x1="145" y1="209" x2="202" y2="209"/>
<line opacity="1" stroke="#3CB44B" stroke-width="1" x1="202" y1="207" x2="202" y2="211"/>
<rect x="328" y="5" width="147" height="46" opacity="1" fill="#FFFFFF" stroke="none"/>
<rect x="328" y="5" width="147" height="46" opacity="0.5" fill="none" stroke="#000000"/>
<text x="360" y="15" dy="0.76em" text-anchor="start" font-family="sans-serif" font-size="9.67741935483871" opacity="1" fill="#000000">
Index URL Request
</text>
<text x="360" y="30" dy="0.76em" text-anchor="start" font-family="sans-serif" font-size="9.67741935483871" opacity="1" fill="#000000">
Pattern URL Request
</text>
<rect x="338" y="13" width="12" height="12" opacity="1" fill="#E6194B" stroke="none"/>
<rect x="338" y="28" width="12" height="12" opacity="1" fill="#3CB44B" stroke="none"/>
</svg>
