<svg width="480" height="640" xmlns="http://www.w3.org/2000/svg">
<rect x="0" y="0" width="479" height="639" opacity="1" fill="#FFFFFF" stroke="none"/>
<line opacity="1" stroke="#FFFFFF" stroke-width="1" x1="105" y1="599" x2="105" y2="-1"/>
<line opacity="1" stroke="#FFFFFF" stroke-width="1" x1="110" y1="599" x2="110" y2="-1"/>
<line opacity="1" stroke="#FFFFFF" stroke-width="1" x1="116" y1="599" x2="116" y2="-1"/>
<line opacity="1" stroke="#FFFFFF" stroke-width="1" x1="121" y1="599" x2="121" y2="-1"/>
<line opacity="1" stroke="#FFFFFF" stroke-width="1" x1="127" y1="599" x2="127" y2="-1"/>
<line opacity="1" stroke="#FFFFFF" stroke-width="1" x1="132" y1="599" x2="132" y2="-1"/>
<line opacity="1" stroke="#FFFFFF" stroke-width="1" x1="137" y1="599" x2="137" y2="-1"/>
<line opacity="1" stroke="#FFFFFF" stroke-width="1" x1="143" y1="599" x2="143" y2="-1"/>
<line opacity="1" stroke="#FFFFFF" stroke-width="1" x1="148" y1="599" x2="148" y2="-1"/>
<line opacity="1" stroke="#FFFFFF" stroke-width="1" x1="154" y1="599" x2="154" y2="-1"/>
<line opacity="1" stroke="#FFFFFF" stroke-width="1" x1="159" y1="599" x2="159" y2="-1"/>
<line opacity="1" stroke="#FFFFFF" stroke-width="1" x1="165" y1="599" x2="165" y2="-1"/>
<line opacity="1" stroke="#FFFFFF" stroke-width="1" x1="170" y1="599" x2="170" y2="-1"/>
<line opacity="1" stroke="#FFFFFF" stroke-width="1" x1="175" y1="599" x2="175" y2="-1"/>
<line opacity="1" stroke="#FFFFFF" stroke-width="1" x1="181" y1="599" x2="181" y2="-1"/>
<line opacity="1" stroke="#FFFFFF" stroke-width="1" x1="186" y1="599" x2="186" y2="-1"/>
<line opacity="1" stroke="#FFFFFF" stroke-width="1" x1="192" y1="599" x2="192" y2="-1"/>
<line opacity="1" stroke="#FFFFFF" stroke-width="1" x1="197" y1="599" x2="197" y2="-1"/>
<line opacity="1" stroke="#FFFFFF" stroke-width="1" x1="202" y1="599" x2="202" y2="-1"/>
<line opacity="1" stroke="#FFFFFF" stroke-width="1" x1="208" y1="599" x2="208" y2="-1"/>
<line opacity="1" stroke="#FFFFFF" stroke-width="1" x1="213" y1="599" x2="213" y2="-1"/>
<line opacity="1" stroke="#FFFFFF" stroke-width="1" x1="219" y1="599" x2="219" y2="-1"/>
<line opacity="1" stroke="#FFFFFF" stroke-width="1" x1="224" y1="599" x2="224" y2="-1"/>
<line opacity="1" stroke="#FFFFFF" stroke-width="1" x1="230" y1="599" x2="230" y2="-1"/>
<line opacity="1" stroke="#FFFFFF" stroke-width="1" x1="235" y1="599" x2="235" y2="-1"/>
<line opacity="1" stroke="#FFFFFF" stroke-width="1" x1="240" y1="599" x2="240" y2="-1"/>
<line opacity="1" stroke="#FFFFFF" stroke-width="1" x1="246" y1="599" x2="246" y2="-1"/>
<line opacity="1" stroke="#FFFFFF" stroke-width="1" x1="251" y1="599" x2="251" y2="-1"/>
<line opacity="1" stroke="#FFFFFF" stroke-width="1" x1="257" y1="599" x2="257" y2="-1"/>
<line opacity="1" stroke="#FFFFFF" stroke-width="1" x1="262" y1="599" x2="262" y2="-1"/>
<line opacity="1" stroke="#FFFFFF" stroke-width="1" x1="268" y1="599" x2="268" y2="-1"/>
<line opacity="1" stroke="#FFFFFF" stroke-width="1" x1="273" y1="599" x2="273" y2="-1"/>
<line opacity="1" stroke="#FFFFFF" stroke-width="1" x1="278" y1="599" x2="278" y2="-1"/>
<line opacity="1" stroke="#FFFFFF" stroke-width="1" x1="284" y1="599" x2="284" y2="-1"/>
<line opacity="1" stroke="#FFFFFF" stroke-width="1" x1="289" y1="599" x2="289" y2="-1"/>
<line opacity="1" stroke="#FFFFFF" stroke-width="1" x1="295" y1="599" x2="295" y2="-1"/>
<line opacity="1" stroke="#FFFFFF" stroke-width="1" x1="300" y1="599" x2="300" y2="-1"/>
<line opacity="1" stroke="#FFFFFF" stroke-width="1" x1="305" y1="599" x2="305" y2="-1"/>
<line opacity="1" stroke="#FFFFFF" stroke-width="1" x1="311" y1="599" x2="311" y2="-1"/>
<line opacity="1" stroke="#FFFFFF" stroke-width="1" x1="316" y1="599" x2="316" y2="-1"/>
<line opacity="1" stroke="#FFFFFF" stroke-width="1" x1="322" y1="599" x2="322" y2="-1"/>
<line opacity="1" stroke="#FFFFFF" stroke-width="1" x1="327" y1="599" x2="327" y2="-1"/>
<line opacity="1" stroke="#FFFFFF" stroke-width="1" x1="333" y1="599" x2="333" y2="-1"/>
<line opacity="1" stroke="#FFFFFF" stroke-width="1" x1="338" y1="599" x2="338" y2="-1"/>
<line opacity="1" stroke="#FFFFFF" stroke-width="1" x1="343" y1="599" x2="343" y2="-1"/>
<line opacity="1" stroke="#FFFFFF" stroke-width="1" x1="349" y1="599" x2="349" y2="-1"/>
<line opacity="1" stroke="#FFFFFF" stroke-width="1" x1="354" y1="599" x2="354" y2="-1"/>
<line opacity="1" stroke="#FFFFFF" stroke-width="1" x1="360" y1="599" x2="360" y2="-1"/>
<line opacity="1" stroke="#FFFFFF" stroke-width="1" x1="365" y1="599" x2="365" y2="-1"/>
<line opacity="1" stroke="#FFFFFF" stroke-width="1" x1="371" y1="599" x2="371" y2="-1"/>
<line opacity="1" stroke="#FFFFFF" stroke-width="1" x1="376" y1="599" x2="376" y2="-1"/>
<line opacity="1" stroke="#FFFFFF" stroke-width="1" x1="381" y1="599" x2="381" y2="-1"/>
<line opacity="1" stroke="#FFFFFF" stroke-width="1" x1="387" y1="599" x2="387" y2="-1"/>
<line opacity="1" stroke="#FFFFFF" stroke-width="1" x1="392" y1="599" x2="392" y2="-1"/>
<line opacity="1" stroke="#FFFFFF" stroke-width="1" x1="398" y1="599" x2="398" y2="-1"/>
<line opacity="1" stroke="#FFFFFF" stroke-width="1" x1="403" y1="599" x2="403" y2="-1"/>
<line opacity="1" stroke="#FFFFFF" stroke-width="1" x1="408" y1="599" x2="408" y2="-1"/>
<line opacity="1" stroke="#FFFFFF" stroke-width="1" x1="414" y1="599" x2="414" y2="-1"/>
<line opacity="1" stroke="#FFFFFF" stroke-width="1" x1="419" y1="599" x2="419" y2="-1"/>
<line opacity="1" stroke="#FFFFFF" stroke-width="1" x1="425" y1="599" x2="425" y2="-1"/>
<line opacity="1" stroke="#FFFFFF" stroke-width="1" x1="430" y1="599" x2="430" y2="-1"/>
<line opacity="1" stroke="#FFFFFF" stroke-width="1" x1="436" y1="599" x2="436" y2="-1"/>
<line opacity="1" stroke="#FFFFFF" stroke-width="1" x1="441" y1="599" x2="441" y2="-1"/>
<line opacity="1" stroke="#FFFFFF" stroke-width="1" x1="446" y1="599" x2="446" y2="-1"/>
<line opacity="1" stroke="#FFFFFF" stroke-width="1" x1="452" y1="599" x2="452" y2="-1"/>
<line opacity="1" stroke="#FFFFFF" stroke-width="1" x1="457" y1="599" x2="457" y2="-1"/>
<line opacity="1" stroke="#FFFFFF" stroke-width="1" x1="463" y1="599" x2="463" y2="-1"/>
<line opacity="1" stroke="#FFFFFF" stroke-width="1" x1="468" y1="599" x2="468" y2="-1"/>
<line opacity="1" stroke="#FFFFFF" stroke-width="1" x1="474" y1="599" x2="474" y2="-1"/>
<line opacity="1" stroke="#FFFFFF" stroke-width="1" x1="479" y1="599" x2="479" y2="-1"/>
<line opacity="1" stroke="#FFFFFF" stroke-width="1" x1="100" y1="549" x2="480" y2="549"/>
<line opacity="1" stroke="#FFFFFF" stroke-width="1" x1="100" y1="499" x2="480" y2="499"/>
<line opacity="1" stroke="#FFFFFF" stroke-width="1" x1="100" y1="449" x2="480" y2="449"/>
<line opacity="1" stroke="#FFFFFF" stroke-width="1" x1="100" y1="399" x2="480" y2="399"/>
<line opacity="1" stroke="#FFFFFF" stroke-width="1" x1="100" y1="349" x2="480" y2="349"/>
<line opacity="1" stroke="#FFFFFF" stroke-width="1" x1="100" y1="299" x2="480" y2="299"/>
<line opacity="1" stroke="#FFFFFF" stroke-width="1" x1="100" y1="249" x2="480" y2="249"/>
<line opacity="1" stroke="#FFFFFF" stroke-width="1" x1="100" y1="199" x2="480" y2="199"/>
<line opacity="1" stroke="#FFFFFF" stroke-width="1" x1="100" y1="149" x2="480" y2="149"/>
<line opacity="1" stroke="#FFFFFF" stroke-width="1" x1="100" y1="99" x2="480" y2="99"/>
<line opacity="1" stroke="#FFFFFF" stroke-width="1" x1="100" y1="49" x2="480" y2="49"/>
<text x="0" y="300" dy="0.76em" text-anchor="middle" font-family="sans-serif" font-size="9.67741935483871" opacity="1" fill="#000000" transform="rotate(270, 0, 300)">
Language
</text>
<text x="290" y="640" dy="-0.5ex" text-anchor="middle" font-family="sans-serif" font-size="9.67741935483871" opacity="1" fill="#000000">
Response, ms
</text>
<line opacity="0.2" stroke="#000000" stroke-width="1" x1="154" y1="599" x2="154" y2="-1"/>
<line opacity="0.2" stroke="#000000" stroke-width="1" x1="208" y1="599" x2="208" y2="-1"/>
<line opacity="0.2" stroke="#000000" stroke-width="1" x1="262" y1="599" x2="262" y2="-1"/>
<line opacity="0.2" stroke="#000000" stroke-width="1" x1="316" y1="599" x2="316" y2="-1"/>
<line opacity="0.2" stroke="#000000" stroke-width="1" x1="371" y1="599" x2="371" y2="-1"/>
<line opacity="0.2" stroke="#000000" stroke-width="1" x1="425" y1="599" x2="425" y2="-1"/>
<line opacity="0.2" stroke="#000000" stroke-width="1" x1="479" y1="599" x2="479" y2="-1"/>
<line opacity="0.2" stroke="#000000" stroke-width="1" x1="100" y1="549" x2="480" y2="549"/>
<line opacity="0.2" stroke="#000000" stroke-width="1" x1="100" y1="499" x2="480" y2="499"/>
<line opacity="0.2" stroke="#000000" stroke-width="1" x1="100" y1="449" x2="480" y2="449"/>
<line opacity="0.2" stroke="#000000" stroke-width="1" x1="100" y1="399" x2="480" y2="399"/>
<line opacity="0.2" stroke="#000000" stroke-width="1" x1="100" y1="349" x2="480" y2="349"/>
<line opacity="0.2" stroke="#000000" stroke-width="1" x1="100" y1="299" x2="480" y2="299"/>
<line opacity="0.2" stroke="#000000" stroke-width="1" x1="100" y1="249" x2="480" y2="249"/>
<line opacity="0.2" stroke="#000000" stroke-width="1" x1="100" y1="199" x2="480" y2="199"/>
<line opacity="0.2" stroke="#000000" stroke-width="1" x1="100" y1="149" x2="480" y2="149"/>
<line opacity="0.2" stroke="#000000" stroke-width="1" x1="100" y1="99" x2="480" y2="99"/>
<line opacity="0.2" stroke="#000000" stroke-width="1" x1="100" y1="49" x2="480" y2="49"/>
<polyline fill="none" opacity="1" stroke="#000000" stroke-width="1" points="99,0 99,600 "/>
<text x="90" y="549" dy="0.5ex" text-anchor="end" font-family="sans-serif" font-size="9.67741935483871" opacity="1" fill="#000000">
Java/Spring Boot
</text>
<polyline fill="none" opacity="1" stroke="#000000" stroke-width="1" points="94,549 99,549 "/>
<text x="90" y="499" dy="0.5ex" text-anchor="end" font-family="sans-serif" font-size="9.67741935483871" opacity="1" fill="#000000">
PyPy3/Twisted
</text>
<polyline fill="none" opacity="1" stroke="#000000" stroke-width="1" points="94,499 99,499 "/>
<text x="90" y="449" dy="0.5ex" text-anchor="end" font-family="sans-serif" font-size="9.67741935483871" opacity="1" fill="#000000">
Rust/rocket
</text>
<polyline fill="none" opacity="1" stroke="#000000" stroke-width="1" points="94,449 99,449 "/>
<text x="90" y="399" dy="0.5ex" text-anchor="end" font-family="sans-serif" font-size="9.67741935483871" opacity="1" fill="#000000">
PHP/Swoole
</text>
<polyline fill="none" opacity="1" stroke="#000000" stroke-width="1" points="94,399 99,399 "/>
<text x="90" y="349" dy="0.5ex" text-anchor="end" font-family="sans-serif" font-size="9.67741935483871" opacity="1" fill="#000000">
D (DMD/vibe.d)
</text>
<polyline fill="none" opacity="1" stroke="#000000" stroke-width="1" points="94,349 99,349 "/>
<text x="90" y="299" dy="0.5ex" text-anchor="end" font-family="sans-serif" font-size="9.67741935483871" opacity="1" fill="#000000">
D (LDC/vibe.d)
</text>
<polyline fill="none" opacity="1" stroke="#000000" stroke-width="1" points="94,299 99,299 "/>
<text x="90" y="249" dy="0.5ex" text-anchor="end" font-family="sans-serif" font-size="9.67741935483871" opacity="1" fill="#000000">
Scala/Akka
</text>
<polyline fill="none" opacity="1" stroke="#000000" stroke-width="1" points="94,249 99,249 "/>
<text x="90" y="199" dy="0.5ex" text-anchor="end" font-family="sans-serif" font-size="9.67741935483871" opacity="1" fill="#000000">
Node.js
</text>
<polyline fill="none" opacity="1" stroke="#000000" stroke-width="1" points="94,199 99,199 "/>
<text x="90" y="149" dy="0.5ex" text-anchor="end" font-family="sans-serif" font-size="9.67741935483871" opacity="1" fill="#000000">
Crystal
</text>
<polyline fill="none" opacity="1" stroke="#000000" stroke-width="1" points="94,149 99,149 "/>
<text x="90" y="99" dy="0.5ex" text-anchor="end" font-family="sans-serif" font-size="9.67741935483871" opacity="1" fill="#000000">
Go
</text>
<polyline fill="none" opacity="1" stroke="#000000" stroke-width="1" points="94,99 99,99 "/>
<text x="90" y="49" dy="0.5ex" text-anchor="end" font-family="sans-serif" font-size="9.67741935483871" opacity="1" fill="#000000">
Rust/hyper
</text>
<polyline fill="none" opacity="1" stroke="#000000" stroke-width="1" points="94,49 99,49 "/>
<polyline fill="none" opacity="1" stroke="#000000" stroke-width="1" points="100,600 480,600 "/>
<text x="154" y="610" dy="0.76em" text-anchor="middle" font-family="sans-serif" font-size="9.67741935483871" opacity="1" fill="#000000">
5.0
</text>
<polyline fill="none" opacity="1" stroke="#000000" stroke-width="1" points="154,600 154,605 "/>
<text x="208" y="610" dy="0.76em" text-anchor="middle" font-family="sans-serif" font-size="9.67741935483871" opacity="1" fill="#000000">
10.0
</text>
<polyline fill="none" opacity="1" stroke="#000000" stroke-width="1" points="208,600 208,605 "/>
<text x="262" y="610" dy="0.76em" text-anchor="middle" font-family="sans-serif" font-size="9.67741935483871" opacity="1" fill="#000000">
15.0
</text>
<polyline fill="none" opacity="1" stroke="#000000" stroke-width="1" points="262,600 262,605 "/>
<text x="316" y="610" dy="0.76em" text-anchor="middle" font-family="sans-serif" font-size="9.67741935483871" opacity="1" fill="#000000">
20.0
</text>
<polyline fill="none" opacity="1" stroke="#000000" stroke-width="1" points="316,600 316,605 "/>
<text x="371" y="610" dy="0.76em" text-anchor="middle" font-family="sans-serif" font-size="9.67741935483871" opacity="1" fill="#000000">
25.0
</text>
<polyline fill="none" opacity="1" stroke="#000000" stroke-width="1" points="371,600 371,605 "/>
<text x="425" y="610" dy="0.76em" text-anchor="middle" font-family="sans-serif" font-size="9.67741935483871" opacity="1" fill="#000000">
30.0
</text>
<polyline fill="none" opacity="1" stroke="#000000" stroke-width="1" points="425,600 425,605 "/>
<text x="479" y="610" dy="0.76em" text-anchor="middle" font-family="sans-serif" font-size="9.67741935483871" opacity="1" fill="#000000">
35.0
</text>
<polyline fill="none" opacity="1" stroke="#000000" stroke-width="1" points="479,600 479,605 "/>
<line opacity="1" stroke="#E6194B" stroke-width="1" x1="100" y1="137" x2="100" y2="141"/>
<line opacity="1" stroke="#E6194B" stroke-width="1" x1="100" y1="139" x2="135" y2="139"/>
<rect x="135" y="134" width="44" height="10" opacity="1" fill="none" stroke="#E6194B"/>
<line opacity="1" stroke="#E6194B" stroke-width="1" x1="160" y1="134" x2="160" y2="144"/>
<line opacity="1" stroke="#E6194B" stroke-width="1" x1="179" y1="139" x2="244" y2="139"/>
<line opacity="1" stroke="#E6194B" stroke-width="1" x1="244" y1="137" x2="244" y2="141"/>
<line opacity="1" stroke="#E6194B" stroke-width="1" x1="100" y1="337" x2="100" y2="341"/>
<line opacity="1" stroke="#E6194B" stroke-width="1" x1="100" y1="339" x2="144" y2="339"/>
<rect x="144" y="334" width="45" height="10" opacity="1" fill="none" stroke="#E6194B"/>
<line opacity="1" stroke="#E6194B" stroke-width="1" x1="179" y1="334" x2="179" y2="344"/>
<line opacity="1" stroke="#E6194B" stroke-width="1" x1="189" y1="339" x2="258" y2="339"/>
<line opacity="1" stroke="#E6194B" stroke-width="1" x1="258" y1="337" x2="258" y2="341"/>
<line opacity="1" stroke="#E6194B" stroke-width="1" x1="100" y1="87" x2="100" y2="91"/>
<line opacity="1" stroke="#E6194B" stroke-width="1" x1="100" y1="89" x2="137" y2="89"/>
<rect x="137" y="84" width="48" height="10" opacity="1" fill="none" stroke="#E6194B"/>
<line opacity="1" stroke="#E6194B" stroke-width="1" x1="158" y1="84" x2="158" y2="94"/>
<line opacity="1" stroke="#E6194B" stroke-width="1" x1="185" y1="89" x2="257" y2="89"/>
<line opacity="1" stroke="#E6194B" stroke-width="1" x1="257" y1="87" x2="257" y2="91"/>
<line opacity="1" stroke="#E6194B" stroke-width="1" x1="100" y1="537" x2="100" y2="541"/>
<line opacity="1" stroke="#E6194B" stroke-width="1" x1="100" y1="539" x2="227" y2="539"/>
<rect x="227" y="534" width="97" height="10" opacity="1" fill="none" stroke="#E6194B"/>
<line opacity="1" stroke="#E6194B" stroke-width="1" x1="273" y1="534" x2="273" y2="544"/>
<line opacity="1" stroke="#E6194B" stroke-width="1" x1="324" y1="539" x2="469" y2="539"/>
<line opacity="1" stroke="#E6194B" stroke-width="1" x1="469" y1="537" x2="469" y2="541"/>
<line opacity="1" stroke="#E6194B" stroke-width="1" x1="100" y1="287" x2="100" y2="291"/>
<line opacity="1" stroke="#E6194B" stroke-width="1" x1="100" y1="289" x2="145" y2="289"/>
<rect x="145" y="284" width="47" height="10" opacity="1" fill="none" stroke="#E6194B"/>
<line opacity="1" stroke="#E6194B" stroke-width="1" x1="179" y1="284" x2="179" y2="294"/>
<line opacity="1" stroke="#E6194B" stroke-width="1" x1="192" y1="289" x2="262" y2="289"/>
<line opacity="1" stroke="#E6194B" stroke-width="1" x1="262" y1="287" x2="262" y2="291"/>
<line opacity="1" stroke="#E6194B" stroke-width="1" x1="100" y1="187" x2="100" y2="191"/>
<line opacity="1" stroke="#E6194B" stroke-width="1" x1="100" y1="189" x2="143" y2="189"/>
<rect x="143" y="184" width="49" height="10" opacity="1" fill="none" stroke="#E6194B"/>
<line opacity="1" stroke="#E6194B" stroke-width="1" x1="174" y1="184" x2="174" y2="194"/>
<line opacity="1" stroke="#E6194B" stroke-width="1" x1="192" y1="189" x2="265" y2="189"/>
<line opacity="1" stroke="#E6194B" stroke-width="1" x1="265" y1="187" x2="265" y2="191"/>
<line opacity="1" stroke="#E6194B" stroke-width="1" x1="100" y1="387" x2="100" y2="391"/>
<line opacity="1" stroke="#E6194B" stroke-width="1" x1="100" y1="389" x2="166" y2="389"/>
<rect x="166" y="384" width="92" height="10" opacity="1" fill="none" stroke="#E6194B"/>
<line opacity="1" stroke="#E6194B" stroke-width="1" x1="205" y1="384" x2="205" y2="394"/>
<line opacity="1" stroke="#E6194B" stroke-width="1" x1="258" y1="389" x2="396" y2="389"/>
<line opacity="1" stroke="#E6194B" stroke-width="1" x1="396" y1="387" x2="396" y2="391"/>
<line opacity="1" stroke="#E6194B" stroke-width="1" x1="262" y1="487" x2="262" y2="491"/>
<line opacity="1" stroke="#E6194B" stroke-width="1" x1="262" y1="489" x2="269" y2="489"/>
<rect x="269" y="484" width="4" height="10" opacity="1" fill="none" stroke="#E6194B"/>
<line opacity="1" stroke="#E6194B" stroke-width="1" x1="271" y1="484" x2="271" y2="494"/>
<line opacity="1" stroke="#E6194B" stroke-width="1" x1="273" y1="489" x2="279" y2="489"/>
<line opacity="1" stroke="#E6194B" stroke-width="1" x1="279" y1="487" x2="279" y2="491"/>
<line opacity="1" stroke="#E6194B" stroke-width="1" x1="100" y1="37" x2="100" y2="41"/>
<line opacity="1" stroke="#E6194B" stroke-width="1" x1="100" y1="39" x2="134" y2="39"/>
<rect x="134" y="34" width="39" height="10" opacity="1" fill="none" stroke="#E6194B"/>
<line opacity="1" stroke="#E6194B" stroke-width="1" x1="157" y1="34" x2="157" y2="44"/>
<line opacity="1" stroke="#E6194B" stroke-width="1" x1="173" y1="39" x2="232" y2="39"/>
<line opacity="1" stroke="#E6194B" stroke-width="1" x1="232" y1="37" x2="232" y2="41"/>
<line opacity="1" stroke="#E6194B" stroke-width="1" x1="100" y1="437" x2="100" y2="441"/>
<line opacity="1" stroke="#E6194B" stroke-width="1" x1="100" y1="439" x2="198" y2="439"/>
<rect x="198" y="434" width="104" height="10" opacity="1" fill="none" stroke="#E6194B"/>
<line opacity="1" stroke="#E6194B" stroke-width="1" x1="269" y1="434" x2="269" y2="444"/>
<line opacity="1" stroke="#E6194B" stroke-width="1" x1="302" y1="439" x2="458" y2="439"/>
<line opacity="1" stroke="#E6194B" stroke-width="1" x1="458" y1="437" x2="458" y2="441"/>
<line opacity="1" stroke="#E6194B" stroke-width="1" x1="100" y1="237" x2="100" y2="241"/>
<line opacity="1" stroke="#E6194B" stroke-width="1" x1="100" y1="239" x2="149" y2="239"/>
<rect x="149" y="234" width="57" height="10" opacity="1" fill="none" stroke="#E6194B"/>
<line opacity="1" stroke="#E6194B" stroke-width="1" x1="176" y1="234" x2="176" y2="244"/>
<line opacity="1" stroke="#E6194B" stroke-width="1" x1="206" y1="239" x2="290" y2="239"/>
<line opacity="1" stroke="#E6194B" stroke-width="1" x1="290" y1="237" x2="290" y2="241"/>
<line opacity="1" stroke="#3CB44B" stroke-width="1" x1="100" y1="157" x2="100" y2="161"/>
<line opacity="1" stroke="#3CB44B" stroke-width="1" x1="100" y1="159" x2="135" y2="159"/>
<rect x="135" y="154" width="47" height="10" opacity="1" fill="none" stroke="#3CB44B"/>
<line opacity="1" stroke="#3CB44B" stroke-width="1" x1="158" y1="154" x2="158" y2="164"/>
<line opacity="1" stroke="#3CB44B" stroke-width="1" x1="182" y1="159" x2="252" y2="159"/>
<line opacity="1" stroke="#3CB44B" stroke-width="1" x1="252" y1="157" x2="252" y2="161"/>
<line opacity="1" stroke="#3CB44B" stroke-width="1" x1="100" y1="357" x2="100" y2="361"/>
<line opacity="1" stroke="#3CB44B" stroke-width="1" x1="100" y1="359" x2="145" y2="359"/>
<rect x="145" y="354" width="47" height="10" opacity="1" fill="none" stroke="#3CB44B"/>
<line opacity="1" stroke="#3CB44B" stroke-width="1" x1="179" y1="354" x2="179" y2="364"/>
<line opacity="1" stroke="#3CB44B" stroke-width="1" x1="192" y1="359" x2="262" y2="359"/>
<line opacity="1" stroke="#3CB44B" stroke-width="1" x1="262" y1="357" x2="262" y2="361"/>
<line opacity="1" stroke="#3CB44B" stroke-width="1" x1="100" y1="107" x2="100" y2="111"/>
<line opacity="1" stroke="#3CB44B" stroke-width="1" x1="100" y1="109" x2="139" y2="109"/>
<rect x="139" y="104" width="48" height="10" opacity="1" fill="none" stroke="#3CB44B"/>
<line opacity="1" stroke="#3CB44B" stroke-width="1" x1="171" y1="104" x2="171" y2="114"/>
<line opacity="1" stroke="#3CB44B" stroke-width="1" x1="187" y1="109" x2="260" y2="109"/>
<line opacity="1" stroke="#3CB44B" stroke-width="1" x1="260" y1="107" x2="260" y2="111"/>
<line opacity="1" stroke="#3CB44B" stroke-width="1" x1="100" y1="557" x2="100" y2="561"/>
<line opacity="1" stroke="#3CB44B" stroke-width="1" x1="100" y1="559" x2="168" y2="559"/>
<rect x="168" y="554" width="49" height="10" opacity="1" fill="none" stroke="#3CB44B"/>
<line opacity="1" stroke="#3CB44B" stroke-width="1" x1="188" y1="554" x2="188" y2="564"/>
<line opacity="1" stroke="#3CB44B" stroke-width="1" x1="217" y1="559" x2="290" y2="559"/>
<line opacity="1" stroke="#3CB44B" stroke-width="1" x1="290" y1="557" x2="290" y2="561"/>
<line opacity="1" stroke="#3CB44B" stroke-width="1" x1="100" y1="307" x2="100" y2="311"/>
<line opacity="1" stroke="#3CB44B" stroke-width="1" x1="100" y1="309" x2="146" y2="309"/>
<rect x="146" y="304" width="46" height="10" opacity="1" fill="none" stroke="#3CB44B"/>
<line opacity="1" stroke="#3CB44B" stroke-width="1" x1="180" y1="304" x2="180" y2="314"/>
<line opacity="1" stroke="#3CB44B" stroke-width="1" x1="192" y1="309" x2="260" y2="309"/>
<line opacity="1" stroke="#3CB44B" stroke-width="1" x1="260" y1="307" x2="260" y2="311"/>
<line opacity="1" stroke="#3CB44B" stroke-width="1" x1="100" y1="207" x2="100" y2="211"/>
<line opacity="1" stroke="#3CB44B" stroke-width="1" x1="100" y1="209" x2="143" y2="209"/>
<rect x="143" y="204" width="48" height="10" opacity="1" fill="none" stroke="#3CB44B"/>
<line opacity="1" stroke="#3CB44B" stroke-width="1" x1="175" y1="204" x2="175" y2="214"/>
<line opacity="1" stroke="#3CB44B" stroke-width="1" x1="191" y1="209" x2="262" y2="209"/>
<line opacity="1" stroke="#3CB44B" stroke-width="1" x1="262" y1="207" x2="262" y2="211"/>
<line opacity="1" stroke="#3CB44B" stroke-width="1" x1="100" y1="407" x2="100" y2="411"/>
<line opacity="1" stroke="#3CB44B" stroke-width="1" x1="100" y1="409" x2="170" y2="409"/>
<rect x="170" y="404" width="88" height="10" opacity="1" fill="none" stroke="#3CB44B"/>
<line opacity="1" stroke="#3CB44B" stroke-width="1" x1="216" y1="404" x2="216" y2="414"/>
<line opacity="1" stroke="#3CB44B" stroke-width="1" x1="258" y1="409" x2="390" y2="409"/>
<line opacity="1" stroke="#3CB44B" stroke-width="1" x1="390" y1="407" x2="390" y2="411"/>
<line opacity="1" stroke="#3CB44B" stroke-width="1" x1="268" y1="507" x2="268" y2="511"/>
<line opacity="1" stroke="#3CB44B" stroke-width="1" x1="268" y1="509" x2="276" y2="509"/>
<rect x="276" y="504" width="6" height="10" opacity="1" fill="none" stroke="#3CB44B"/>
<line opacity="1" stroke="#3CB44B" stroke-width="1" x1="278" y1="504" x2="278" y2="514"/>
<line opacity="1" stroke="#3CB44B" stroke-width="1" x1="282" y1="509" x2="290" y2="509"/>
<line opacity="1" stroke="#3CB44B" stroke-width="1" x1="290" y1="507" x2="290" y2="511"/>
<line opacity="1" stroke="#3CB44B" stroke-width="1" x1="100" y1="57" x2="100" y2="61"/>
<line opacity="1" stroke="#3CB44B" stroke-width="1" x1="100" y1="59" x2="135" y2="59"/>
<rect x="135" y="54" width="38" height="10" opacity="1" fill="none" stroke="#3CB44B"/>
<line opacity="1" stroke="#3CB44B" stroke-width="1" x1="160" y1="54" x2="160" y2="64"/>
<line opacity="1" stroke="#3CB44B" stroke-width="1" x1="173" y1="59" x2="230" y2="59"/>
<line opacity="1" stroke="#3CB44B" stroke-width="1" x1="230" y1="57" x2="230" y2="61"/>
<line opacity="1" stroke="#3CB44B" stroke-width="1" x1="100" y1="457" x2="100" y2="461"/>
<line opacity="1" stroke="#3CB44B" stroke-width="1" x1="100" y1="459" x2="200" y2="459"/>
<rect x="200" y="454" width="102" height="10" opacity="1" fill="none" stroke="#3CB44B"/>
<line opacity="1" stroke="#3CB44B" stroke-width="1" x1="269" y1="454" x2="269" y2="464"/>
<line opacity="1" stroke="#3CB44B" stroke-width="1" x1="302" y1="459" x2="455" y2="459"/>
<line opacity="1" stroke="#3CB44B" stroke-width="1" x1="455" y1="457" x2="455" y2="461"/>
<line opacity="1" stroke="#3CB44B" stroke-width="1" x1="100" y1="257" x2="100" y2="261"/>
<line opacity="1" stroke="#3CB44B" stroke-width="1" x1="100" y1="259" x2="150" y2="259"/>
<rect x="150" y="254" width="59" height="10" opacity="1" fill="none" stroke="#3CB44B"/>
<line opacity="1" stroke="#3CB44B" stroke-width="1" x1="181" y1="254" x2="181" y2="264"/>
<line opacity="1" stroke="#3CB44B" stroke-width="1" x1="209" y1="259" x2="297" y2="259"/>
<line opacity="1" stroke="#3CB44B" stroke-width="1" x1="297" y1="257" x2="297" y2="261"/>
<rect x="328" y="5" width="147" height="46" opacity="1" fill="#FFFFFF" stroke="none"/>
<rect x="328" y="5" width="147" height="46" opacity="0.5" fill="none" stroke="#000000"/>
<text x="360" y="15" dy="0.76em" text-anchor="start" font-family="sans-serif" font-size="9.67741935483871" opacity="1" fill="#000000">
Index URL Request
</text>
<text x="360" y="30" dy="0.76em" text-anchor="start" font-family="sans-serif" font-size="9.67741935483871" opacity="1" fill="#000000">
Pattern URL Request
</text>
<rect x="338" y="13" width="12" height="12" opacity="1" fill="#E6194B" stroke="none"/>
<rect x="338" y="28" width="12" height="12" opacity="1" fill="#3CB44B" stroke="none"/>
</svg>
