<svg width="480" height="640" xmlns="http://www.w3.org/2000/svg">
<rect x="0" y="0" width="479" height="639" opacity="1" fill="#FFFFFF" stroke="none"/>
<line opacity="1" stroke="#FFFFFF" stroke-width="1" x1="105" y1="599" x2="105" y2="-1"/>
<line opacity="1" stroke="#FFFFFF" stroke-width="1" x1="110" y1="599" x2="110" y2="-1"/>
<line opacity="1" stroke="#FFFFFF" stroke-width="1" x1="116" y1="599" x2="116" y2="-1"/>
<line opacity="1" stroke="#FFFFFF" stroke-width="1" x1="121" y1="599" x2="121" y2="-1"/>
<line opacity="1" stroke="#FFFFFF" stroke-width="1" x1="127" y1="599" x2="127" y2="-1"/>
<line opacity="1" stroke="#FFFFFF" stroke-width="1" x1="132" y1="599" x2="132" y2="-1"/>
<line opacity="1" stroke="#FFFFFF" stroke-width="1" x1="137" y1="599" x2="137" y2="-1"/>
<line opacity="1" stroke="#FFFFFF" stroke-width="1" x1="143" y1="599" x2="143" y2="-1"/>
<line opacity="1" stroke="#FFFFFF" stroke-width="1" x1="148" y1="599" x2="148" y2="-1"/>
<line opacity="1" stroke="#FFFFFF" stroke-width="1" x1="154" y1="599" x2="154" y2="-1"/>
<line opacity="1" stroke="#FFFFFF" stroke-width="1" x1="159" y1="599" x2="159" y2="-1"/>
<line opacity="1" stroke="#FFFFFF" stroke-width="1" x1="164" y1="599" x2="164" y2="-1"/>
<line opacity="1" stroke="#FFFFFF" stroke-width="1" x1="170" y1="599" x2="170" y2="-1"/>
<line opacity="1" stroke="#FFFFFF" stroke-width="1" x1="175" y1="599" x2="175" y2="-1"/>
<line opacity="1" stroke="#FFFFFF" stroke-width="1" x1="181" y1="599" x2="181" y2="-1"/>
<line opacity="1" stroke="#FFFFFF" stroke-width="1" x1="186" y1="599" x2="186" y2="-1"/>
<line opacity="1" stroke="#FFFFFF" stroke-width="1" x1="191" y1="599" x2="191" y2="-1"/>
<line opacity="1" stroke="#FFFFFF" stroke-width="1" x1="197" y1="599" x2="197" y2="-1"/>
<line opacity="1" stroke="#FFFFFF" stroke-width="1" x1="202" y1="599" x2="202" y2="-1"/>
<line opacity="1" stroke="#FFFFFF" stroke-width="1" x1="208" y1="599" x2="208" y2="-1"/>
<line opacity="1" stroke="#FFFFFF" stroke-width="1" x1="213" y1="599" x2="213" y2="-1"/>
<line opacity="1" stroke="#FFFFFF" stroke-width="1" x1="218" y1="599" x2="218" y2="-1"/>
<line opacity="1" stroke="#FFFFFF" stroke-width="1" x1="224" y1="599" x2="224" y2="-1"/>
<line opacity="1" stroke="#FFFFFF" stroke-width="1" x1="229" y1="599" x2="229" y2="-1"/>
<line opacity="1" stroke="#FFFFFF" stroke-width="1" x1="235" y1="599" x2="235" y2="-1"/>
<line opacity="1" stroke="#FFFFFF" stroke-width="1" x1="240" y1="599" x2="240" y2="-1"/>
<line opacity="1" stroke="#FFFFFF" stroke-width="1" x1="245" y1="599" x2="245" y2="-1"/>
<line opacity="1" stroke="#FFFFFF" stroke-width="1" x1="251" y1="599" x2="251" y2="-1"/>
<line opacity="1" stroke="#FFFFFF" stroke-width="1" x1="256" y1="599" x2="256" y2="-1"/>
<line opacity="1" stroke="#FFFFFF" stroke-width="1" x1="262" y1="599" x2="262" y2="-1"/>
<line opacity="1" stroke="#FFFFFF" stroke-width="1" x1="267" y1="599" x2="267" y2="-1"/>
<line opacity="1" stroke="#FFFFFF" stroke-width="1" x1="272" y1="599" x2="272" y2="-1"/>
<line opacity="1" stroke="#FFFFFF" stroke-width="1" x1="278" y1="599" x2="278" y2="-1"/>
<line opacity="1" stroke="#FFFFFF" stroke-width="1" x1="283" y1="599" x2="283" y2="-1"/>
<line opacity="1" stroke="#FFFFFF" stroke-width="1" x1="289" y1="599" x2="289" y2="-1"/>
<line opacity="1" stroke="#FFFFFF" stroke-width="1" x1="294" y1="599" x2="294" y2="-1"/>
<line opacity="1" stroke="#FFFFFF" stroke-width="1" x1="300" y1="599" x2="300" y2="-1"/>
<line opacity="1" stroke="#FFFFFF" stroke-width="1" x1="305" y1="599" x2="305" y2="-1"/>
<line opacity="1" stroke="#FFFFFF" stroke-width="1" x1="310" y1="599" x2="310" y2="-1"/>
<line opacity="1" stroke="#FFFFFF" stroke-width="1" x1="316" y1="599" x2="316" y2="-1"/>
<line opacity="1" stroke="#FFFFFF" stroke-width="1" x1="321" y1="599" x2="321" y2="-1"/>
<line opacity="1" stroke="#FFFFFF" stroke-width="1" x1="327" y1="599" x2="327" y2="-1"/>
<line opacity="1" stroke="#FFFFFF" stroke-width="1" x1="332" y1="599" x2="332" y2="-1"/>
<line opacity="1" stroke="#FFFFFF" stroke-width="1" x1="337" y1="599" x2="337" y2="-1"/>
<line opacity="1" stroke="#FFFFFF" stroke-width="1" x1="343" y1="599" x2="343" y2="-1"/>
<line opacity="1" stroke="#FFFFFF" stroke-width="1" x1="348" y1="599" x2="348" y2="-1"/>
<line opacity="1" stroke="#FFFFFF" stroke-width="1" x1="354" y1="599" x2="354" y2="-1"/>
<line opacity="1" stroke="#FFFFFF" stroke-width="1" x1="359" y1="599" x2="359" y2="-1"/>
<line opacity="1" stroke="#FFFFFF" stroke-width="1" x1="364" y1="599" x2="364" y2="-1"/>
<line opacity="1" stroke="#FFFFFF" stroke-width="1" x1="370" y1="599" x2="370" y2="-1"/>
<line opacity="1" stroke="#FFFFFF" stroke-width="1" x1="375" y1="599" x2="375" y2="-1"/>
<line opacity="1" stroke="#FFFFFF" stroke-width="1" x1="381" y1="599" x2="381" y2="-1"/>
<line opacity="1" stroke="#FFFFFF" stroke-width="1" x1="386" y1="599" x2="386" y2="-1"/>
<line opacity="1" stroke="#FFFFFF" stroke-width="1" x1="391" y1="599" x2="391" y2="-1"/>
<line opacity="1" stroke="#FFFFFF" stroke-width="1" x1="397" y1="599" x2="397" y2="-1"/>
<line opacity="1" stroke="#FFFFFF" stroke-width="1" x1="402" y1="599" x2="402" y2="-1"/>
<line opacity="1" stroke="#FFFFFF" stroke-width="1" x1="408" y1="599" x2="408" y2="-1"/>
<line opacity="1" stroke="#FFFFFF" stroke-width="1" x1="413" y1="599" x2="413" y2="-1"/>
<line opacity="1" stroke="#FFFFFF" stroke-width="1" x1="418" y1="599" x2="418" y2="-1"/>
<line opacity="1" stroke="#FFFFFF" stroke-width="1" x1="424" y1="599" x2="424" y2="-1"/>
<line opacity="1" stroke="#FFFFFF" stroke-width="1" x1="429" y1="599" x2="429" y2="-1"/>
<line opacity="1" stroke="#FFFFFF" stroke-width="1" x1="435" y1="599" x2="435" y2="-1"/>
<line opacity="1" stroke="#FFFFFF" stroke-width="1" x1="440" y1="599" x2="440" y2="-1"/>
<line opacity="1" stroke="#FFFFFF" stroke-width="1" x1="445" y1="599" x2="445" y2="-1"/>
<line opacity="1" stroke="#FFFFFF" stroke-width="1" x1="451" y1="599" x2="451" y2="-1"/>
<line opacity="1" stroke="#FFFFFF" stroke-width="1" x1="456" y1="599" x2="456" y2="-1"/>
<line opacity="1" stroke="#FFFFFF" stroke-width="1" x1="462" y1="599" x2="462" y2="-1"/>
<line opacity="1" stroke="#FFFFFF" stroke-width="1" x1="467" y1="599" x2="467" y2="-1"/>
<line opacity="1" stroke="#FFFFFF" stroke-width="1" x1="472" y1="599" x2="472" y2="-1"/>
<line opacity="1" stroke="#FFFFFF" stroke-width="1" x1="478" y1="599" x2="478" y2="-1"/>
<line opacity="1" stroke="#FFFFFF" stroke-width="1" x1="100" y1="557" x2="480" y2="557"/>
<line opacity="1" stroke="#FFFFFF" stroke-width="1" x1="100" y1="514" x2="480" y2="514"/>
<line opacity="1" stroke="#FFFFFF" stroke-width="1" x1="100" y1="471" x2="480" y2="471"/>
<line opacity="1" stroke="#FFFFFF" stroke-width="1" x1="100" y1="428" x2="480" y2="428"/>
<line opacity="1" stroke="#FFFFFF" stroke-width="1" x1="100" y1="385" x2="480" y2="385"/>
<line opacity="1" stroke="#FFFFFF" stroke-width="1" x1="100" y1="342" x2="480" y2="342"/>
<line opacity="1" stroke="#FFFFFF" stroke-width="1" x1="100" y1="299" x2="480" y2="299"/>
<line opacity="1" stroke="#FFFFFF" stroke-width="1" x1="100" y1="257" x2="480" y2="257"/>
<line opacity="1" stroke="#FFFFFF" stroke-width="1" x1="100" y1="214" x2="480" y2="214"/>
<line opacity="1" stroke="#FFFFFF" stroke-width="1" x1="100" y1="171" x2="480" y2="171"/>
<line opacity="1" stroke="#FFFFFF" stroke-width="1" x1="100" y1="128" x2="480" y2="128"/>
<line opacity="1" stroke="#FFFFFF" stroke-width="1" x1="100" y1="85" x2="480" y2="85"/>
<line opacity="1" stroke="#FFFFFF" stroke-width="1" x1="100" y1="42" x2="480" y2="42"/>
<text x="0" y="300" dy="0.76em" text-anchor="middle" font-family="sans-serif" font-size="9.67741935483871" opacity="1" fill="#000000" transform="rotate(270, 0, 300)">
Language
</text>
<text x="290" y="640" dy="-0.5ex" text-anchor="middle" font-family="sans-serif" font-size="9.67741935483871" opacity="1" fill="#000000">
Response, ms
</text>
<line opacity="0.2" stroke="#000000" stroke-width="1" x1="154" y1="599" x2="154" y2="-1"/>
<line opacity="0.2" stroke="#000000" stroke-width="1" x1="208" y1="599" x2="208" y2="-1"/>
<line opacity="0.2" stroke="#000000" stroke-width="1" x1="262" y1="599" x2="262" y2="-1"/>
<line opacity="0.2" stroke="#000000" stroke-width="1" x1="316" y1="599" x2="316" y2="-1"/>
<line opacity="0.2" stroke="#000000" stroke-width="1" x1="370" y1="599" x2="370" y2="-1"/>
<line opacity="0.2" stroke="#000000" stroke-width="1" x1="424" y1="599" x2="424" y2="-1"/>
<line opacity="0.2" stroke="#000000" stroke-width="1" x1="478" y1="599" x2="478" y2="-1"/>
<line opacity="0.2" stroke="#000000" stroke-width="1" x1="100" y1="557" x2="480" y2="557"/>
<line opacity="0.2" stroke="#000000" stroke-width="1" x1="100" y1="514" x2="480" y2="514"/>
<line opacity="0.2" stroke="#000000" stroke-width="1" x1="100" y1="471" x2="480" y2="471"/>
<line opacity="0.2" stroke="#000000" stroke-width="1" x1="100" y1="428" x2="480" y2="428"/>
<line opacity="0.2" stroke="#000000" stroke-width="1" x1="100" y1="385" x2="480" y2="385"/>
<line opacity="0.2" stroke="#000000" stroke-width="1" x1="100" y1="342" x2="480" y2="342"/>
<line opacity="0.2" stroke="#000000" stroke-width="1" x1="100" y1="299" x2="480" y2="299"/>
<line opacity="0.2" stroke="#000000" stroke-width="1" x1="100" y1="257" x2="480" y2="257"/>
<line opacity="0.2" stroke="#000000" stroke-width="1" x1="100" y1="214" x2="480" y2="214"/>
<line opacity="0.2" stroke="#000000" stroke-width="1" x1="100" y1="171" x2="480" y2="171"/>
<line opacity="0.2" stroke="#000000" stroke-width="1" x1="100" y1="128" x2="480" y2="128"/>
<line opacity="0.2" stroke="#000000" stroke-width="1" x1="100" y1="85" x2="480" y2="85"/>
<line opacity="0.2" stroke="#000000" stroke-width="1" x1="100" y1="42" x2="480" y2="42"/>
<polyline fill="none" opacity="1" stroke="#000000" stroke-width="1" points="99,0 99,600 "/>
<text x="90" y="557" dy="0.5ex" text-anchor="end" font-family="sans-serif" font-size="9.67741935483871" opacity="1" fill="#000000">
Java/Spring Boot
</text>
<polyline fill="none" opacity="1" stroke="#000000" stroke-width="1" points="94,557 99,557 "/>
<text x="90" y="514" dy="0.5ex" text-anchor="end" font-family="sans-serif" font-size="9.67741935483871" opacity="1" fill="#000000">
PyPy3/Twisted
</text>
<polyline fill="none" opacity="1" stroke="#000000" stroke-width="1" points="94,514 99,514 "/>
<text x="90" y="471" dy="0.5ex" text-anchor="end" font-family="sans-serif" font-size="9.67741935483871" opacity="1" fill="#000000">
Rust/rocket
</text>
<polyline fill="none" opacity="1" stroke="#000000" stroke-width="1" points="94,471 99,471 "/>
<text x="90" y="428" dy="0.5ex" text-anchor="end" font-family="sans-serif" font-size="9.67741935483871" opacity="1" fill="#000000">
PHP/Swoole
</text>
<polyline fill="none" opacity="1" stroke="#000000" stroke-width="1" points="94,428 99,428 "/>
<text x="90" y="385" dy="0.5ex" text-anchor="end" font-family="sans-serif" font-size="9.67741935483871" opacity="1" fill="#000000">
Scala/Akka
</text>
<polyline fill="none" opacity="1" stroke="#000000" stroke-width="1" points="94,385 99,385 "/>
<text x="90" y="342" dy="0.5ex" text-anchor="end" font-family="sans-serif" font-size="9.67741935483871" opacity="1" fill="#000000">
D (LDC/vibe.d)
</text>
<polyline fill="none" opacity="1" stroke="#000000" stroke-width="1" points="94,342 99,342 "/>
<text x="90" y="299" dy="0.5ex" text-anchor="end" font-family="sans-serif" font-size="9.67741935483871" opacity="1" fill="#000000">
D (DMD/vibe.d)
</text>
<polyline fill="none" opacity="1" stroke="#000000" stroke-width="1" points="94,299 99,299 "/>
<text x="90" y="257" dy="0.5ex" text-anchor="end" font-family="sans-serif" font-size="9.67741935483871" opacity="1" fill="#000000">
Node.js
</text>
<polyline fill="none" opacity="1" stroke="#000000" stroke-width="1" points="94,257 99,257 "/>
<text x="90" y="214" dy="0.5ex" text-anchor="end" font-family="sans-serif" font-size="9.67741935483871" opacity="1" fill="#000000">
Rust/Tide
</text>
<polyline fill="none" opacity="1" stroke="#000000" stroke-width="1" points="94,214 99,214 "/>
<text x="90" y="171" dy="0.5ex" text-anchor="end" font-family="sans-serif" font-size="9.67741935483871" opacity="1" fill="#000000">
Rust/warp
</text>
<polyline fill="none" opacity="1" stroke="#000000" stroke-width="1" points="94,171 99,171 "/>
<text x="90" y="128" dy="0.5ex" text-anchor="end" font-family="sans-serif" font-size="9.67741935483871" opacity="1" fill="#000000">
Go
</text>
<polyline fill="none" opacity="1" stroke="#000000" stroke-width="1" points="94,128 99,128 "/>
<text x="90" y="85" dy="0.5ex" text-anchor="end" font-family="sans-serif" font-size="9.67741935483871" opacity="1" fill="#000000">
Crystal
</text>
<polyline fill="none" opacity="1" stroke="#000000" stroke-width="1" points="94,85 99,85 "/>
<text x="90" y="42" dy="0.5ex" text-anchor="end" font-family="sans-serif" font-size="9.67741935483871" opacity="1" fill="#000000">
Rust/hyper
</text>
<polyline fill="none" opacity="1" stroke="#000000" stroke-width="1" points="94,42 99,42 "/>
<polyline fill="none" opacity="1" stroke="#000000" stroke-width="1" points="100,600 480,600 "/>
<text x="154" y="610" dy="0.76em" text-anchor="middle" font-family="sans-serif" font-size="9.67741935483871" opacity="1" fill="#000000">
5.0
</text>
<polyline fill="none" opacity="1" stroke="#000000" stroke-width="1" points="154,600 154,605 "/>
<text x="208" y="610" dy="0.76em" text-anchor="middle" font-family="sans-serif" font-size="9.67741935483871" opacity="1" fill="#000000">
10.0
</text>
<polyline fill="none" opacity="1" stroke="#000000" stroke-width="1" points="208,600 208,605 "/>
<text x="262" y="610" dy="0.76em" text-anchor="middle" font-family="sans-serif" font-size="9.67741935483871" opacity="1" fill="#000000">
15.0
</text>
<polyline fill="none" opacity="1" stroke="#000000" stroke-width="1" points="262,600 262,605 "/>
<text x="316" y="610" dy="0.76em" text-anchor="middle" font-family="sans-serif" font-size="9.67741935483871" opacity="1" fill="#000000">
20.0
</text>
<polyline fill="none" opacity="1" stroke="#000000" stroke-width="1" points="316,600 316,605 "/>
<text x="370" y="610" dy="0.76em" text-anchor="middle" font-family="sans-serif" font-size="9.67741935483871" opacity="1" fill="#000000">
25.0
</text>
<polyline fill="none" opacity="1" stroke="#000000" stroke-width="1" points="370,600 370,605 "/>
<text x="424" y="610" dy="0.76em" text-anchor="middle" font-family="sans-serif" font-size="9.67741935483871" opacity="1" fill="#000000">
30.0
</text>
<polyline fill="none" opacity="1" stroke="#000000" stroke-width="1" points="424,600 424,605 "/>
<text x="478" y="610" dy="0.76em" text-anchor="middle" font-family="sans-serif" font-size="9.67741935483871" opacity="1" fill="#000000">
35.0
</text>
<polyline fill="none" opacity="1" stroke="#000000" stroke-width="1" points="478,600 478,605 "/>
<line opacity="1" stroke="#E6194B" stroke-width="1" x1="100" y1="73" x2="100" y2="77"/>
<line opacity="1" stroke="#E6194B" stroke-width="1" x1="100" y1="75" x2="136" y2="75"/>
<rect x="136" y="70" width="44" height="10" opacity="1" fill="none" stroke="#E6194B"/>
<line opacity="1" stroke="#E6194B" stroke-width="1" x1="167" y1="70" x2="167" y2="80"/>
<line opacity="1" stroke="#E6194B" stroke-width="1" x1="180" y1="75" x2="244" y2="75"/>
<line opacity="1" stroke="#E6194B" stroke-width="1" x1="244" y1="73" x2="244" y2="77"/>
<line opacity="1" stroke="#E6194B" stroke-width="1" x1="100" y1="287" x2="100" y2="291"/>
<line opacity="1" stroke="#E6194B" stroke-width="1" x1="100" y1="289" x2="145" y2="289"/>
<rect x="145" y="284" width="45" height="10" opacity="1" fill="none" stroke="#E6194B"/>
<line opacity="1" stroke="#E6194B" stroke-width="1" x1="181" y1="284" x2="181" y2="294"/>
<line opacity="1" stroke="#E6194B" stroke-width="1" x1="190" y1="289" x2="258" y2="289"/>
<line opacity="1" stroke="#E6194B" stroke-width="1" x1="258" y1="287" x2="258" y2="291"/>
<line opacity="1" stroke="#E6194B" stroke-width="1" x1="100" y1="116" x2="100" y2="120"/>
<line opacity="1" stroke="#E6194B" stroke-width="1" x1="100" y1="118" x2="140" y2="118"/>
<rect x="140" y="113" width="47" height="10" opacity="1" fill="none" stroke="#E6194B"/>
<line opacity="1" stroke="#E6194B" stroke-width="1" x1="168" y1="113" x2="168" y2="123"/>
<line opacity="1" stroke="#E6194B" stroke-width="1" x1="187" y1="118" x2="258" y2="118"/>
<line opacity="1" stroke="#E6194B" stroke-width="1" x1="258" y1="116" x2="258" y2="120"/>
<line opacity="1" stroke="#E6194B" stroke-width="1" x1="100" y1="545" x2="100" y2="549"/>
<line opacity="1" stroke="#E6194B" stroke-width="1" x1="100" y1="547" x2="234" y2="547"/>
<rect x="234" y="542" width="94" height="10" opacity="1" fill="none" stroke="#E6194B"/>
<line opacity="1" stroke="#E6194B" stroke-width="1" x1="275" y1="542" x2="275" y2="552"/>
<line opacity="1" stroke="#E6194B" stroke-width="1" x1="328" y1="547" x2="469" y2="547"/>
<line opacity="1" stroke="#E6194B" stroke-width="1" x1="469" y1="545" x2="469" y2="549"/>
<line opacity="1" stroke="#E6194B" stroke-width="1" x1="100" y1="330" x2="100" y2="334"/>
<line opacity="1" stroke="#E6194B" stroke-width="1" x1="100" y1="332" x2="146" y2="332"/>
<rect x="146" y="327" width="46" height="10" opacity="1" fill="none" stroke="#E6194B"/>
<line opacity="1" stroke="#E6194B" stroke-width="1" x1="182" y1="327" x2="182" y2="337"/>
<line opacity="1" stroke="#E6194B" stroke-width="1" x1="192" y1="332" x2="262" y2="332"/>
<line opacity="1" stroke="#E6194B" stroke-width="1" x1="262" y1="330" x2="262" y2="334"/>
<line opacity="1" stroke="#E6194B" stroke-width="1" x1="100" y1="245" x2="100" y2="249"/>
<line opacity="1" stroke="#E6194B" stroke-width="1" x1="100" y1="247" x2="144" y2="247"/>
<rect x="144" y="242" width="47" height="10" opacity="1" fill="none" stroke="#E6194B"/>
<line opacity="1" stroke="#E6194B" stroke-width="1" x1="177" y1="242" x2="177" y2="252"/>
<line opacity="1" stroke="#E6194B" stroke-width="1" x1="191" y1="247" x2="263" y2="247"/>
<line opacity="1" stroke="#E6194B" stroke-width="1" x1="263" y1="245" x2="263" y2="249"/>
<line opacity="1" stroke="#E6194B" stroke-width="1" x1="100" y1="416" x2="100" y2="420"/>
<line opacity="1" stroke="#E6194B" stroke-width="1" x1="100" y1="418" x2="171" y2="418"/>
<rect x="171" y="413" width="93" height="10" opacity="1" fill="none" stroke="#E6194B"/>
<line opacity="1" stroke="#E6194B" stroke-width="1" x1="210" y1="413" x2="210" y2="423"/>
<line opacity="1" stroke="#E6194B" stroke-width="1" x1="264" y1="418" x2="403" y2="418"/>
<line opacity="1" stroke="#E6194B" stroke-width="1" x1="403" y1="416" x2="403" y2="420"/>
<line opacity="1" stroke="#E6194B" stroke-width="1" x1="257" y1="502" x2="257" y2="506"/>
<line opacity="1" stroke="#E6194B" stroke-width="1" x1="257" y1="504" x2="270" y2="504"/>
<rect x="270" y="499" width="9" height="10" opacity="1" fill="none" stroke="#E6194B"/>
<line opacity="1" stroke="#E6194B" stroke-width="1" x1="272" y1="499" x2="272" y2="509"/>
<line opacity="1" stroke="#E6194B" stroke-width="1" x1="279" y1="504" x2="292" y2="504"/>
<line opacity="1" stroke="#E6194B" stroke-width="1" x1="292" y1="502" x2="292" y2="506"/>
<line opacity="1" stroke="#E6194B" stroke-width="1" x1="100" y1="30" x2="100" y2="34"/>
<line opacity="1" stroke="#E6194B" stroke-width="1" x1="100" y1="32" x2="135" y2="32"/>
<rect x="135" y="27" width="39" height="10" opacity="1" fill="none" stroke="#E6194B"/>
<line opacity="1" stroke="#E6194B" stroke-width="1" x1="161" y1="27" x2="161" y2="37"/>
<line opacity="1" stroke="#E6194B" stroke-width="1" x1="174" y1="32" x2="232" y2="32"/>
<line opacity="1" stroke="#E6194B" stroke-width="1" x1="232" y1="30" x2="232" y2="34"/>
<line opacity="1" stroke="#E6194B" stroke-width="1" x1="100" y1="459" x2="100" y2="463"/>
<line opacity="1" stroke="#E6194B" stroke-width="1" x1="100" y1="461" x2="199" y2="461"/>
<rect x="199" y="456" width="104" height="10" opacity="1" fill="none" stroke="#E6194B"/>
<line opacity="1" stroke="#E6194B" stroke-width="1" x1="270" y1="456" x2="270" y2="466"/>
<line opacity="1" stroke="#E6194B" stroke-width="1" x1="303" y1="461" x2="458" y2="461"/>
<line opacity="1" stroke="#E6194B" stroke-width="1" x1="458" y1="459" x2="458" y2="463"/>
<line opacity="1" stroke="#E6194B" stroke-width="1" x1="100" y1="202" x2="100" y2="206"/>
<line opacity="1" stroke="#E6194B" stroke-width="1" x1="100" y1="204" x2="142" y2="204"/>
<rect x="142" y="199" width="46" height="10" opacity="1" fill="none" stroke="#E6194B"/>
<line opacity="1" stroke="#E6194B" stroke-width="1" x1="173" y1="199" x2="173" y2="209"/>
<line opacity="1" stroke="#E6194B" stroke-width="1" x1="188" y1="204" x2="258" y2="204"/>
<line opacity="1" stroke="#E6194B" stroke-width="1" x1="258" y1="202" x2="258" y2="206"/>
<line opacity="1" stroke="#E6194B" stroke-width="1" x1="163" y1="159" x2="163" y2="163"/>
<line opacity="1" stroke="#E6194B" stroke-width="1" x1="163" y1="161" x2="168" y2="161"/>
<rect x="168" y="156" width="3" height="10" opacity="1" fill="none" stroke="#E6194B"/>
<line opacity="1" stroke="#E6194B" stroke-width="1" x1="170" y1="156" x2="170" y2="166"/>
<line opacity="1" stroke="#E6194B" stroke-width="1" x1="171" y1="161" x2="176" y2="161"/>
<line opacity="1" stroke="#E6194B" stroke-width="1" x1="176" y1="159" x2="176" y2="163"/>
<line opacity="1" stroke="#E6194B" stroke-width="1" x1="100" y1="373" x2="100" y2="377"/>
<line opacity="1" stroke="#E6194B" stroke-width="1" x1="100" y1="375" x2="151" y2="375"/>
<rect x="151" y="370" width="58" height="10" opacity="1" fill="none" stroke="#E6194B"/>
<line opacity="1" stroke="#E6194B" stroke-width="1" x1="186" y1="370" x2="186" y2="380"/>
<line opacity="1" stroke="#E6194B" stroke-width="1" x1="209" y1="375" x2="295" y2="375"/>
<line opacity="1" stroke="#E6194B" stroke-width="1" x1="295" y1="373" x2="295" y2="377"/>
<line opacity="1" stroke="#3CB44B" stroke-width="1" x1="100" y1="93" x2="100" y2="97"/>
<line opacity="1" stroke="#3CB44B" stroke-width="1" x1="100" y1="95" x2="136" y2="95"/>
<rect x="136" y="90" width="42" height="10" opacity="1" fill="none" stroke="#3CB44B"/>
<line opacity="1" stroke="#3CB44B" stroke-width="1" x1="165" y1="90" x2="165" y2="100"/>
<line opacity="1" stroke="#3CB44B" stroke-width="1" x1="178" y1="95" x2="242" y2="95"/>
<line opacity="1" stroke="#3CB44B" stroke-width="1" x1="242" y1="93" x2="242" y2="97"/>
<line opacity="1" stroke="#3CB44B" stroke-width="1" x1="100" y1="307" x2="100" y2="311"/>
<line opacity="1" stroke="#3CB44B" stroke-width="1" x1="100" y1="309" x2="146" y2="309"/>
<rect x="146" y="304" width="45" height="10" opacity="1" fill="none" stroke="#3CB44B"/>
<line opacity="1" stroke="#3CB44B" stroke-width="1" x1="182" y1="304" x2="182" y2="314"/>
<line opacity="1" stroke="#3CB44B" stroke-width="1" x1="191" y1="309" x2="260" y2="309"/>
<line opacity="1" stroke="#3CB44B" stroke-width="1" x1="260" y1="307" x2="260" y2="311"/>
<line opacity="1" stroke="#3CB44B" stroke-width="1" x1="100" y1="136" x2="100" y2="140"/>
<line opacity="1" stroke="#3CB44B" stroke-width="1" x1="100" y1="138" x2="141" y2="138"/>
<rect x="141" y="133" width="47" height="10" opacity="1" fill="none" stroke="#3CB44B"/>
<line opacity="1" stroke="#3CB44B" stroke-width="1" x1="173" y1="133" x2="173" y2="143"/>
<line opacity="1" stroke="#3CB44B" stroke-width="1" x1="188" y1="138" x2="260" y2="138"/>
<line opacity="1" stroke="#3CB44B" stroke-width="1" x1="260" y1="136" x2="260" y2="140"/>
<line opacity="1" stroke="#3CB44B" stroke-width="1" x1="100" y1="565" x2="100" y2="569"/>
<line opacity="1" stroke="#3CB44B" stroke-width="1" x1="100" y1="567" x2="169" y2="567"/>
<rect x="169" y="562" width="48" height="10" opacity="1" fill="none" stroke="#3CB44B"/>
<line opacity="1" stroke="#3CB44B" stroke-width="1" x1="188" y1="562" x2="188" y2="572"/>
<line opacity="1" stroke="#3CB44B" stroke-width="1" x1="217" y1="567" x2="290" y2="567"/>
<line opacity="1" stroke="#3CB44B" stroke-width="1" x1="290" y1="565" x2="290" y2="569"/>
<line opacity="1" stroke="#3CB44B" stroke-width="1" x1="100" y1="350" x2="100" y2="354"/>
<line opacity="1" stroke="#3CB44B" stroke-width="1" x1="100" y1="352" x2="147" y2="352"/>
<rect x="147" y="347" width="47" height="10" opacity="1" fill="none" stroke="#3CB44B"/>
<line opacity="1" stroke="#3CB44B" stroke-width="1" x1="183" y1="347" x2="183" y2="357"/>
<line opacity="1" stroke="#3CB44B" stroke-width="1" x1="194" y1="352" x2="263" y2="352"/>
<line opacity="1" stroke="#3CB44B" stroke-width="1" x1="263" y1="350" x2="263" y2="354"/>
<line opacity="1" stroke="#3CB44B" stroke-width="1" x1="100" y1="265" x2="100" y2="269"/>
<line opacity="1" stroke="#3CB44B" stroke-width="1" x1="100" y1="267" x2="145" y2="267"/>
<rect x="145" y="262" width="47" height="10" opacity="1" fill="none" stroke="#3CB44B"/>
<line opacity="1" stroke="#3CB44B" stroke-width="1" x1="181" y1="262" x2="181" y2="272"/>
<line opacity="1" stroke="#3CB44B" stroke-width="1" x1="192" y1="267" x2="264" y2="267"/>
<line opacity="1" stroke="#3CB44B" stroke-width="1" x1="264" y1="265" x2="264" y2="269"/>
<line opacity="1" stroke="#3CB44B" stroke-width="1" x1="100" y1="436" x2="100" y2="440"/>
<line opacity="1" stroke="#3CB44B" stroke-width="1" x1="100" y1="438" x2="172" y2="438"/>
<rect x="172" y="433" width="94" height="10" opacity="1" fill="none" stroke="#3CB44B"/>
<line opacity="1" stroke="#3CB44B" stroke-width="1" x1="209" y1="433" x2="209" y2="443"/>
<line opacity="1" stroke="#3CB44B" stroke-width="1" x1="266" y1="438" x2="407" y2="438"/>
<line opacity="1" stroke="#3CB44B" stroke-width="1" x1="407" y1="436" x2="407" y2="440"/>
<line opacity="1" stroke="#3CB44B" stroke-width="1" x1="264" y1="522" x2="264" y2="526"/>
<line opacity="1" stroke="#3CB44B" stroke-width="1" x1="264" y1="524" x2="272" y2="524"/>
<rect x="272" y="519" width="6" height="10" opacity="1" fill="none" stroke="#3CB44B"/>
<line opacity="1" stroke="#3CB44B" stroke-width="1" x1="274" y1="519" x2="274" y2="529"/>
<line opacity="1" stroke="#3CB44B" stroke-width="1" x1="278" y1="524" x2="286" y2="524"/>
<line opacity="1" stroke="#3CB44B" stroke-width="1" x1="286" y1="522" x2="286" y2="526"/>
<line opacity="1" stroke="#3CB44B" stroke-width="1" x1="100" y1="50" x2="100" y2="54"/>
<line opacity="1" stroke="#3CB44B" stroke-width="1" x1="100" y1="52" x2="134" y2="52"/>
<rect x="134" y="47" width="39" height="10" opacity="1" fill="none" stroke="#3CB44B"/>
<line opacity="1" stroke="#3CB44B" stroke-width="1" x1="152" y1="47" x2="152" y2="57"/>
<line opacity="1" stroke="#3CB44B" stroke-width="1" x1="173" y1="52" x2="231" y2="52"/>
<line opacity="1" stroke="#3CB44B" stroke-width="1" x1="231" y1="50" x2="231" y2="54"/>
<line opacity="1" stroke="#3CB44B" stroke-width="1" x1="100" y1="479" x2="100" y2="483"/>
<line opacity="1" stroke="#3CB44B" stroke-width="1" x1="100" y1="481" x2="200" y2="481"/>
<rect x="200" y="476" width="105" height="10" opacity="1" fill="none" stroke="#3CB44B"/>
<line opacity="1" stroke="#3CB44B" stroke-width="1" x1="268" y1="476" x2="268" y2="486"/>
<line opacity="1" stroke="#3CB44B" stroke-width="1" x1="305" y1="481" x2="462" y2="481"/>
<line opacity="1" stroke="#3CB44B" stroke-width="1" x1="462" y1="479" x2="462" y2="483"/>
<line opacity="1" stroke="#3CB44B" stroke-width="1" x1="100" y1="222" x2="100" y2="226"/>
<line opacity="1" stroke="#3CB44B" stroke-width="1" x1="100" y1="224" x2="141" y2="224"/>
<rect x="141" y="219" width="48" height="10" opacity="1" fill="none" stroke="#3CB44B"/>
<line opacity="1" stroke="#3CB44B" stroke-width="1" x1="168" y1="219" x2="168" y2="229"/>
<line opacity="1" stroke="#3CB44B" stroke-width="1" x1="189" y1="224" x2="262" y2="224"/>
<line opacity="1" stroke="#3CB44B" stroke-width="1" x1="262" y1="222" x2="262" y2="226"/>
<line opacity="1" stroke="#3CB44B" stroke-width="1" x1="167" y1="179" x2="167" y2="183"/>
<line opacity="1" stroke="#3CB44B" stroke-width="1" x1="167" y1="181" x2="173" y2="181"/>
<rect x="173" y="176" width="4" height="10" opacity="1" fill="none" stroke="#3CB44B"/>
<line opacity="1" stroke="#3CB44B" stroke-width="1" x1="175" y1="176" x2="175" y2="186"/>
<line opacity="1" stroke="#3CB44B" stroke-width="1" x1="177" y1="181" x2="184" y2="181"/>
<line opacity="1" stroke="#3CB44B" stroke-width="1" x1="184" y1="179" x2="184" y2="183"/>
<line opacity="1" stroke="#3CB44B" stroke-width="1" x1="100" y1="393" x2="100" y2="397"/>
<line opacity="1" stroke="#3CB44B" stroke-width="1" x1="100" y1="395" x2="152" y2="395"/>
<rect x="152" y="390" width="57" height="10" opacity="1" fill="none" stroke="#3CB44B"/>
<line opacity="1" stroke="#3CB44B" stroke-width="1" x1="186" y1="390" x2="186" y2="400"/>
<line opacity="1" stroke="#3CB44B" stroke-width="1" x1="209" y1="395" x2="293" y2="395"/>
<line opacity="1" stroke="#3CB44B" stroke-width="1" x1="293" y1="393" x2="293" y2="397"/>
<rect x="328" y="5" width="147" height="46" opacity="1" fill="#FFFFFF" stroke="none"/>
<rect x="328" y="5" width="147" height="46" opacity="0.5" fill="none" stroke="#000000"/>
<text x="360" y="15" dy="0.76em" text-anchor="start" font-family="sans-serif" font-size="9.67741935483871" opacity="1" fill="#000000">
Index URL Request
</text>
<text x="360" y="30" dy="0.76em" text-anchor="start" font-family="sans-serif" font-size="9.67741935483871" opacity="1" fill="#000000">
Pattern URL Request
</text>
<rect x="338" y="13" width="12" height="12" opacity="1" fill="#E6194B" stroke="none"/>
<rect x="338" y="28" width="12" height="12" opacity="1" fill="#3CB44B" stroke="none"/>
</svg>
