<svg width="480" height="640" viewBox="0 0 480 640" xmlns="http://www.w3.org/2000/svg">
<rect x="0" y="0" width="479" height="639" opacity="1" fill="#FFFFFF" stroke="none"/>
<line opacity="1" stroke="#FFFFFF" stroke-width="1" x1="104" y1="599" x2="104" y2="-1"/>
<line opacity="1" stroke="#FFFFFF" stroke-width="1" x1="108" y1="599" x2="108" y2="-1"/>
<line opacity="1" stroke="#FFFFFF" stroke-width="1" x1="113" y1="599" x2="113" y2="-1"/>
<line opacity="1" stroke="#FFFFFF" stroke-width="1" x1="117" y1="599" x2="117" y2="-1"/>
<line opacity="1" stroke="#FFFFFF" stroke-width="1" x1="122" y1="599" x2="122" y2="-1"/>
<line opacity="1" stroke="#FFFFFF" stroke-width="1" x1="126" y1="599" x2="126" y2="-1"/>
<line opacity="1" stroke="#FFFFFF" stroke-width="1" x1="131" y1="599" x2="131" y2="-1"/>
<line opacity="1" stroke="#FFFFFF" stroke-width="1" x1="135" y1="599" x2="135" y2="-1"/>
<line opacity="1" stroke="#FFFFFF" stroke-width="1" x1="140" y1="599" x2="140" y2="-1"/>
<line opacity="1" stroke="#FFFFFF" stroke-width="1" x1="144" y1="599" x2="144" y2="-1"/>
<line opacity="1" stroke="#FFFFFF" stroke-width="1" x1="149" y1="599" x2="149" y2="-1"/>
<line opacity="1" stroke="#FFFFFF" stroke-width="1" x1="153" y1="599" x2="153" y2="-1"/>
<line opacity="1" stroke="#FFFFFF" stroke-width="1" x1="158" y1="599" x2="158" y2="-1"/>
<line opacity="1" stroke="#FFFFFF" stroke-width="1" x1="162" y1="599" x2="162" y2="-1"/>
<line opacity="1" stroke="#FFFFFF" stroke-width="1" x1="167" y1="599" x2="167" y2="-1"/>
<line opacity="1" stroke="#FFFFFF" stroke-width="1" x1="171" y1="599" x2="171" y2="-1"/>
<line opacity="1" stroke="#FFFFFF" stroke-width="1" x1="176" y1="599" x2="176" y2="-1"/>
<line opacity="1" stroke="#FFFFFF" stroke-width="1" x1="180" y1="599" x2="180" y2="-1"/>
<line opacity="1" stroke="#FFFFFF" stroke-width="1" x1="185" y1="599" x2="185" y2="-1"/>
<line opacity="1" stroke="#FFFFFF" stroke-width="1" x1="189" y1="599" x2="189" y2="-1"/>
<line opacity="1" stroke="#FFFFFF" stroke-width="1" x1="194" y1="599" x2="194" y2="-1"/>
<line opacity="1" stroke="#FFFFFF" stroke-width="1" x1="198" y1="599" x2="198" y2="-1"/>
<line opacity="1" stroke="#FFFFFF" stroke-width="1" x1="203" y1="599" x2="203" y2="-1"/>
<line opacity="1" stroke="#FFFFFF" stroke-width="1" x1="207" y1="599" x2="207" y2="-1"/>
<line opacity="1" stroke="#FFFFFF" stroke-width="1" x1="212" y1="599" x2="212" y2="-1"/>
<line opacity="1" stroke="#FFFFFF" stroke-width="1" x1="216" y1="599" x2="216" y2="-1"/>
<line opacity="1" stroke="#FFFFFF" stroke-width="1" x1="221" y1="599" x2="221" y2="-1"/>
<line opacity="1" stroke="#FFFFFF" stroke-width="1" x1="225" y1="599" x2="225" y2="-1"/>
<line opacity="1" stroke="#FFFFFF" stroke-width="1" x1="230" y1="599" x2="230" y2="-1"/>
<line opacity="1" stroke="#FFFFFF" stroke-width="1" x1="234" y1="599" x2="234" y2="-1"/>
<line opacity="1" stroke="#FFFFFF" stroke-width="1" x1="239" y1="599" x2="239" y2="-1"/>
<line opacity="1" stroke="#FFFFFF" stroke-width="1" x1="243" y1="599" x2="243" y2="-1"/>
<line opacity="1" stroke="#FFFFFF" stroke-width="1" x1="248" y1="599" x2="248" y2="-1"/>
<line opacity="1" stroke="#FFFFFF" stroke-width="1" x1="252" y1="599" x2="252" y2="-1"/>
<line opacity="1" stroke="#FFFFFF" stroke-width="1" x1="257" y1="599" x2="257" y2="-1"/>
<line opacity="1" stroke="#FFFFFF" stroke-width="1" x1="261" y1="599" x2="261" y2="-1"/>
<line opacity="1" stroke="#FFFFFF" stroke-width="1" x1="266" y1="599" x2="266" y2="-1"/>
<line opacity="1" stroke="#FFFFFF" stroke-width="1" x1="270" y1="599" x2="270" y2="-1"/>
<line opacity="1" stroke="#FFFFFF" stroke-width="1" x1="275" y1="599" x2="275" y2="-1"/>
<line opacity="1" stroke="#FFFFFF" stroke-width="1" x1="279" y1="599" x2="279" y2="-1"/>
<line opacity="1" stroke="#FFFFFF" stroke-width="1" x1="284" y1="599" x2="284" y2="-1"/>
<line opacity="1" stroke="#FFFFFF" stroke-width="1" x1="288" y1="599" x2="288" y2="-1"/>
<line opacity="1" stroke="#FFFFFF" stroke-width="1" x1="293" y1="599" x2="293" y2="-1"/>
<line opacity="1" stroke="#FFFFFF" stroke-width="1" x1="297" y1="599" x2="297" y2="-1"/>
<line opacity="1" stroke="#FFFFFF" stroke-width="1" x1="302" y1="599" x2="302" y2="-1"/>
<line opacity="1" stroke="#FFFFFF" stroke-width="1" x1="306" y1="599" x2="306" y2="-1"/>
<line opacity="1" stroke="#FFFFFF" stroke-width="1" x1="311" y1="599" x2="311" y2="-1"/>
<line opacity="1" stroke="#FFFFFF" stroke-width="1" x1="315" y1="599" x2="315" y2="-1"/>
<line opacity="1" stroke="#FFFFFF" stroke-width="1" x1="320" y1="599" x2="320" y2="-1"/>
<line opacity="1" stroke="#FFFFFF" stroke-width="1" x1="324" y1="599" x2="324" y2="-1"/>
<line opacity="1" stroke="#FFFFFF" stroke-width="1" x1="329" y1="599" x2="329" y2="-1"/>
<line opacity="1" stroke="#FFFFFF" stroke-width="1" x1="333" y1="599" x2="333" y2="-1"/>
<line opacity="1" stroke="#FFFFFF" stroke-width="1" x1="338" y1="599" x2="338" y2="-1"/>
<line opacity="1" stroke="#FFFFFF" stroke-width="1" x1="342" y1="599" x2="342" y2="-1"/>
<line opacity="1" stroke="#FFFFFF" stroke-width="1" x1="347" y1="599" x2="347" y2="-1"/>
<line opacity="1" stroke="#FFFFFF" stroke-width="1" x1="351" y1="599" x2="351" y2="-1"/>
<line opacity="1" stroke="#FFFFFF" stroke-width="1" x1="356" y1="599" x2="356" y2="-1"/>
<line opacity="1" stroke="#FFFFFF" stroke-width="1" x1="360" y1="599" x2="360" y2="-1"/>
<line opacity="1" stroke="#FFFFFF" stroke-width="1" x1="365" y1="599" x2="365" y2="-1"/>
<line opacity="1" stroke="#FFFFFF" stroke-width="1" x1="369" y1="599" x2="369" y2="-1"/>
<line opacity="1" stroke="#FFFFFF" stroke-width="1" x1="373" y1="599" x2="373" y2="-1"/>
<line opacity="1" stroke="#FFFFFF" stroke-width="1" x1="378" y1="599" x2="378" y2="-1"/>
<line opacity="1" stroke="#FFFFFF" stroke-width="1" x1="382" y1="599" x2="382" y2="-1"/>
<line opacity="1" stroke="#FFFFFF" stroke-width="1" x1="387" y1="599" x2="387" y2="-1"/>
<line opacity="1" stroke="#FFFFFF" stroke-width="1" x1="391" y1="599" x2="391" y2="-1"/>
<line opacity="1" stroke="#FFFFFF" stroke-width="1" x1="396" y1="599" x2="396" y2="-1"/>
<line opacity="1" stroke="#FFFFFF" stroke-width="1" x1="400" y1="599" x2="400" y2="-1"/>
<line opacity="1" stroke="#FFFFFF" stroke-width="1" x1="405" y1="599" x2="405" y2="-1"/>
<line opacity="1" stroke="#FFFFFF" stroke-width="1" x1="409" y1="599" x2="409" y2="-1"/>
<line opacity="1" stroke="#FFFFFF" stroke-width="1" x1="414" y1="599" x2="414" y2="-1"/>
<line opacity="1" stroke="#FFFFFF" stroke-width="1" x1="418" y1="599" x2="418" y2="-1"/>
<line opacity="1" stroke="#FFFFFF" stroke-width="1" x1="423" y1="599" x2="423" y2="-1"/>
<line opacity="1" stroke="#FFFFFF" stroke-width="1" x1="427" y1="599" x2="427" y2="-1"/>
<line opacity="1" stroke="#FFFFFF" stroke-width="1" x1="432" y1="599" x2="432" y2="-1"/>
<line opacity="1" stroke="#FFFFFF" stroke-width="1" x1="436" y1="599" x2="436" y2="-1"/>
<line opacity="1" stroke="#FFFFFF" stroke-width="1" x1="441" y1="599" x2="441" y2="-1"/>
<line opacity="1" stroke="#FFFFFF" stroke-width="1" x1="445" y1="599" x2="445" y2="-1"/>
<line opacity="1" stroke="#FFFFFF" stroke-width="1" x1="450" y1="599" x2="450" y2="-1"/>
<line opacity="1" stroke="#FFFFFF" stroke-width="1" x1="454" y1="599" x2="454" y2="-1"/>
<line opacity="1" stroke="#FFFFFF" stroke-width="1" x1="459" y1="599" x2="459" y2="-1"/>
<line opacity="1" stroke="#FFFFFF" stroke-width="1" x1="463" y1="599" x2="463" y2="-1"/>
<line opacity="1" stroke="#FFFFFF" stroke-width="1" x1="468" y1="599" x2="468" y2="-1"/>
<line opacity="1" stroke="#FFFFFF" stroke-width="1" x1="472" y1="599" x2="472" y2="-1"/>
<line opacity="1" stroke="#FFFFFF" stroke-width="1" x1="477" y1="599" x2="477" y2="-1"/>
<line opacity="1" stroke="#FFFFFF" stroke-width="1" x1="100" y1="577" x2="480" y2="577"/>
<line opacity="1" stroke="#FFFFFF" stroke-width="1" x1="100" y1="534" x2="480" y2="534"/>
<line opacity="1" stroke="#FFFFFF" stroke-width="1" x1="100" y1="491" x2="480" y2="491"/>
<line opacity="1" stroke="#FFFFFF" stroke-width="1" x1="100" y1="449" x2="480" y2="449"/>
<line opacity="1" stroke="#FFFFFF" stroke-width="1" x1="100" y1="406" x2="480" y2="406"/>
<line opacity="1" stroke="#FFFFFF" stroke-width="1" x1="100" y1="363" x2="480" y2="363"/>
<line opacity="1" stroke="#FFFFFF" stroke-width="1" x1="100" y1="320" x2="480" y2="320"/>
<line opacity="1" stroke="#FFFFFF" stroke-width="1" x1="100" y1="277" x2="480" y2="277"/>
<line opacity="1" stroke="#FFFFFF" stroke-width="1" x1="100" y1="234" x2="480" y2="234"/>
<line opacity="1" stroke="#FFFFFF" stroke-width="1" x1="100" y1="192" x2="480" y2="192"/>
<line opacity="1" stroke="#FFFFFF" stroke-width="1" x1="100" y1="149" x2="480" y2="149"/>
<line opacity="1" stroke="#FFFFFF" stroke-width="1" x1="100" y1="106" x2="480" y2="106"/>
<line opacity="1" stroke="#FFFFFF" stroke-width="1" x1="100" y1="63" x2="480" y2="63"/>
<line opacity="1" stroke="#FFFFFF" stroke-width="1" x1="100" y1="21" x2="480" y2="21"/>
<text x="0" y="300" dy="0.76em" text-anchor="middle" font-family="sans-serif" font-size="9.67741935483871" opacity="1" fill="#000000" transform="rotate(270, 0, 300)">
Language
</text>
<text x="290" y="640" dy="-0.5ex" text-anchor="middle" font-family="sans-serif" font-size="9.67741935483871" opacity="1" fill="#000000">
Response, ms
</text>
<line opacity="0.2" stroke="#000000" stroke-width="1" x1="144" y1="599" x2="144" y2="-1"/>
<line opacity="0.2" stroke="#000000" stroke-width="1" x1="189" y1="599" x2="189" y2="-1"/>
<line opacity="0.2" stroke="#000000" stroke-width="1" x1="234" y1="599" x2="234" y2="-1"/>
<line opacity="0.2" stroke="#000000" stroke-width="1" x1="279" y1="599" x2="279" y2="-1"/>
<line opacity="0.2" stroke="#000000" stroke-width="1" x1="324" y1="599" x2="324" y2="-1"/>
<line opacity="0.2" stroke="#000000" stroke-width="1" x1="369" y1="599" x2="369" y2="-1"/>
<line opacity="0.2" stroke="#000000" stroke-width="1" x1="414" y1="599" x2="414" y2="-1"/>
<line opacity="0.2" stroke="#000000" stroke-width="1" x1="459" y1="599" x2="459" y2="-1"/>
<line opacity="0.2" stroke="#000000" stroke-width="1" x1="100" y1="577" x2="480" y2="577"/>
<line opacity="0.2" stroke="#000000" stroke-width="1" x1="100" y1="534" x2="480" y2="534"/>
<line opacity="0.2" stroke="#000000" stroke-width="1" x1="100" y1="491" x2="480" y2="491"/>
<line opacity="0.2" stroke="#000000" stroke-width="1" x1="100" y1="449" x2="480" y2="449"/>
<line opacity="0.2" stroke="#000000" stroke-width="1" x1="100" y1="406" x2="480" y2="406"/>
<line opacity="0.2" stroke="#000000" stroke-width="1" x1="100" y1="363" x2="480" y2="363"/>
<line opacity="0.2" stroke="#000000" stroke-width="1" x1="100" y1="320" x2="480" y2="320"/>
<line opacity="0.2" stroke="#000000" stroke-width="1" x1="100" y1="277" x2="480" y2="277"/>
<line opacity="0.2" stroke="#000000" stroke-width="1" x1="100" y1="234" x2="480" y2="234"/>
<line opacity="0.2" stroke="#000000" stroke-width="1" x1="100" y1="192" x2="480" y2="192"/>
<line opacity="0.2" stroke="#000000" stroke-width="1" x1="100" y1="149" x2="480" y2="149"/>
<line opacity="0.2" stroke="#000000" stroke-width="1" x1="100" y1="106" x2="480" y2="106"/>
<line opacity="0.2" stroke="#000000" stroke-width="1" x1="100" y1="63" x2="480" y2="63"/>
<line opacity="0.2" stroke="#000000" stroke-width="1" x1="100" y1="21" x2="480" y2="21"/>
<polyline fill="none" opacity="1" stroke="#000000" stroke-width="1" points="99,0 99,600 "/>
<text x="90" y="577" dy="0.5ex" text-anchor="end" font-family="sans-serif" font-size="9.67741935483871" opacity="1" fill="#000000">
&quot;Rust/rocket&quot;
</text>
<polyline fill="none" opacity="1" stroke="#000000" stroke-width="1" points="94,577 99,577 "/>
<text x="90" y="534" dy="0.5ex" text-anchor="end" font-family="sans-serif" font-size="9.67741935483871" opacity="1" fill="#000000">
&quot;PyPy3/Twisted&quot;
</text>
<polyline fill="none" opacity="1" stroke="#000000" stroke-width="1" points="94,534 99,534 "/>
<text x="90" y="491" dy="0.5ex" text-anchor="end" font-family="sans-serif" font-size="9.67741935483871" opacity="1" fill="#000000">
&quot;Rust/warp&quot;
</text>
<polyline fill="none" opacity="1" stroke="#000000" stroke-width="1" points="94,491 99,491 "/>
<text x="90" y="449" dy="0.5ex" text-anchor="end" font-family="sans-serif" font-size="9.67741935483871" opacity="1" fill="#000000">
&quot;Java/Spring Boot&quot;
</text>
<polyline fill="none" opacity="1" stroke="#000000" stroke-width="1" points="94,449 99,449 "/>
<text x="90" y="406" dy="0.5ex" text-anchor="end" font-family="sans-serif" font-size="9.67741935483871" opacity="1" fill="#000000">
&quot;PHP/Swoole&quot;
</text>
<polyline fill="none" opacity="1" stroke="#000000" stroke-width="1" points="94,406 99,406 "/>
<text x="90" y="363" dy="0.5ex" text-anchor="end" font-family="sans-serif" font-size="9.67741935483871" opacity="1" fill="#000000">
&quot;Scala/Akka&quot;
</text>
<polyline fill="none" opacity="1" stroke="#000000" stroke-width="1" points="94,363 99,363 "/>
<text x="90" y="320" dy="0.5ex" text-anchor="end" font-family="sans-serif" font-size="9.67741935483871" opacity="1" fill="#000000">
&quot;Go&quot;
</text>
<polyline fill="none" opacity="1" stroke="#000000" stroke-width="1" points="94,320 99,320 "/>
<text x="90" y="277" dy="0.5ex" text-anchor="end" font-family="sans-serif" font-size="9.67741935483871" opacity="1" fill="#000000">
&quot;D (LDC/vibe.d)&quot;
</text>
<polyline fill="none" opacity="1" stroke="#000000" stroke-width="1" points="94,277 99,277 "/>
<text x="90" y="234" dy="0.5ex" text-anchor="end" font-family="sans-serif" font-size="9.67741935483871" opacity="1" fill="#000000">
&quot;D (DMD/vibe.d)&quot;
</text>
<polyline fill="none" opacity="1" stroke="#000000" stroke-width="1" points="94,234 99,234 "/>
<text x="90" y="192" dy="0.5ex" text-anchor="end" font-family="sans-serif" font-size="9.67741935483871" opacity="1" fill="#000000">
&quot;Rust/hyper&quot;
</text>
<polyline fill="none" opacity="1" stroke="#000000" stroke-width="1" points="94,192 99,192 "/>
<text x="90" y="149" dy="0.5ex" text-anchor="end" font-family="sans-serif" font-size="9.67741935483871" opacity="1" fill="#000000">
&quot;Node.js&quot;
</text>
<polyline fill="none" opacity="1" stroke="#000000" stroke-width="1" points="94,149 99,149 "/>
<text x="90" y="106" dy="0.5ex" text-anchor="end" font-family="sans-serif" font-size="9.67741935483871" opacity="1" fill="#000000">
&quot;Rust/Tide&quot;
</text>
<polyline fill="none" opacity="1" stroke="#000000" stroke-width="1" points="94,106 99,106 "/>
<text x="90" y="63" dy="0.5ex" text-anchor="end" font-family="sans-serif" font-size="9.67741935483871" opacity="1" fill="#000000">
&quot;Rust/Actix&quot;
</text>
<polyline fill="none" opacity="1" stroke="#000000" stroke-width="1" points="94,63 99,63 "/>
<text x="90" y="21" dy="0.5ex" text-anchor="end" font-family="sans-serif" font-size="9.67741935483871" opacity="1" fill="#000000">
&quot;Crystal&quot;
</text>
<polyline fill="none" opacity="1" stroke="#000000" stroke-width="1" points="94,21 99,21 "/>
<polyline fill="none" opacity="1" stroke="#000000" stroke-width="1" points="100,600 480,600 "/>
<text x="144" y="610" dy="0.76em" text-anchor="middle" font-family="sans-serif" font-size="9.67741935483871" opacity="1" fill="#000000">
5.0
</text>
<polyline fill="none" opacity="1" stroke="#000000" stroke-width="1" points="144,600 144,605 "/>
<text x="189" y="610" dy="0.76em" text-anchor="middle" font-family="sans-serif" font-size="9.67741935483871" opacity="1" fill="#000000">
10.0
</text>
<polyline fill="none" opacity="1" stroke="#000000" stroke-width="1" points="189,600 189,605 "/>
<text x="234" y="610" dy="0.76em" text-anchor="middle" font-family="sans-serif" font-size="9.67741935483871" opacity="1" fill="#000000">
15.0
</text>
<polyline fill="none" opacity="1" stroke="#000000" stroke-width="1" points="234,600 234,605 "/>
<text x="279" y="610" dy="0.76em" text-anchor="middle" font-family="sans-serif" font-size="9.67741935483871" opacity="1" fill="#000000">
20.0
</text>
<polyline fill="none" opacity="1" stroke="#000000" stroke-width="1" points="279,600 279,605 "/>
<text x="324" y="610" dy="0.76em" text-anchor="middle" font-family="sans-serif" font-size="9.67741935483871" opacity="1" fill="#000000">
25.0
</text>
<polyline fill="none" opacity="1" stroke="#000000" stroke-width="1" points="324,600 324,605 "/>
<text x="369" y="610" dy="0.76em" text-anchor="middle" font-family="sans-serif" font-size="9.67741935483871" opacity="1" fill="#000000">
30.0
</text>
<polyline fill="none" opacity="1" stroke="#000000" stroke-width="1" points="369,600 369,605 "/>
<text x="414" y="610" dy="0.76em" text-anchor="middle" font-family="sans-serif" font-size="9.67741935483871" opacity="1" fill="#000000">
35.0
</text>
<polyline fill="none" opacity="1" stroke="#000000" stroke-width="1" points="414,600 414,605 "/>
<text x="459" y="610" dy="0.76em" text-anchor="middle" font-family="sans-serif" font-size="9.67741935483871" opacity="1" fill="#000000">
40.0
</text>
<polyline fill="none" opacity="1" stroke="#000000" stroke-width="1" points="459,600 459,605 "/>
<line opacity="1" stroke="#E6194B" stroke-width="1" x1="100" y1="9" x2="100" y2="13"/>
<line opacity="1" stroke="#E6194B" stroke-width="1" x1="100" y1="11" x2="101" y2="11"/>
<rect x="101" y="6" width="21" height="10" opacity="1" fill="none" stroke="#E6194B"/>
<line opacity="1" stroke="#E6194B" stroke-width="1" x1="105" y1="6" x2="105" y2="16"/>
<line opacity="1" stroke="#E6194B" stroke-width="1" x1="122" y1="11" x2="153" y2="11"/>
<line opacity="1" stroke="#E6194B" stroke-width="1" x1="153" y1="9" x2="153" y2="13"/>
<line opacity="1" stroke="#E6194B" stroke-width="1" x1="100" y1="222" x2="100" y2="226"/>
<line opacity="1" stroke="#E6194B" stroke-width="1" x1="100" y1="224" x2="105" y2="224"/>
<rect x="105" y="219" width="24" height="10" opacity="1" fill="none" stroke="#E6194B"/>
<line opacity="1" stroke="#E6194B" stroke-width="1" x1="111" y1="219" x2="111" y2="229"/>
<line opacity="1" stroke="#E6194B" stroke-width="1" x1="129" y1="224" x2="166" y2="224"/>
<line opacity="1" stroke="#E6194B" stroke-width="1" x1="166" y1="222" x2="166" y2="226"/>
<line opacity="1" stroke="#E6194B" stroke-width="1" x1="100" y1="308" x2="100" y2="312"/>
<line opacity="1" stroke="#E6194B" stroke-width="1" x1="100" y1="310" x2="105" y2="310"/>
<rect x="105" y="305" width="27" height="10" opacity="1" fill="none" stroke="#E6194B"/>
<line opacity="1" stroke="#E6194B" stroke-width="1" x1="114" y1="305" x2="114" y2="315"/>
<line opacity="1" stroke="#E6194B" stroke-width="1" x1="132" y1="310" x2="172" y2="310"/>
<line opacity="1" stroke="#E6194B" stroke-width="1" x1="172" y1="308" x2="172" y2="312"/>
<line opacity="1" stroke="#E6194B" stroke-width="1" x1="100" y1="437" x2="100" y2="441"/>
<line opacity="1" stroke="#E6194B" stroke-width="1" x1="100" y1="439" x2="151" y2="439"/>
<rect x="151" y="434" width="55" height="10" opacity="1" fill="none" stroke="#E6194B"/>
<line opacity="1" stroke="#E6194B" stroke-width="1" x1="174" y1="434" x2="174" y2="444"/>
<line opacity="1" stroke="#E6194B" stroke-width="1" x1="206" y1="439" x2="288" y2="439"/>
<line opacity="1" stroke="#E6194B" stroke-width="1" x1="288" y1="437" x2="288" y2="441"/>
<line opacity="1" stroke="#E6194B" stroke-width="1" x1="100" y1="265" x2="100" y2="269"/>
<line opacity="1" stroke="#E6194B" stroke-width="1" x1="100" y1="267" x2="106" y2="267"/>
<rect x="106" y="262" width="26" height="10" opacity="1" fill="none" stroke="#E6194B"/>
<line opacity="1" stroke="#E6194B" stroke-width="1" x1="112" y1="262" x2="112" y2="272"/>
<line opacity="1" stroke="#E6194B" stroke-width="1" x1="132" y1="267" x2="171" y2="267"/>
<line opacity="1" stroke="#E6194B" stroke-width="1" x1="171" y1="265" x2="171" y2="269"/>
<line opacity="1" stroke="#E6194B" stroke-width="1" x1="100" y1="137" x2="100" y2="141"/>
<line opacity="1" stroke="#E6194B" stroke-width="1" x1="100" y1="139" x2="105" y2="139"/>
<rect x="105" y="134" width="21" height="10" opacity="1" fill="none" stroke="#E6194B"/>
<line opacity="1" stroke="#E6194B" stroke-width="1" x1="110" y1="134" x2="110" y2="144"/>
<line opacity="1" stroke="#E6194B" stroke-width="1" x1="126" y1="139" x2="157" y2="139"/>
<line opacity="1" stroke="#E6194B" stroke-width="1" x1="157" y1="137" x2="157" y2="141"/>
<line opacity="1" stroke="#E6194B" stroke-width="1" x1="100" y1="394" x2="100" y2="398"/>
<line opacity="1" stroke="#E6194B" stroke-width="1" x1="100" y1="396" x2="104" y2="396"/>
<rect x="104" y="391" width="66" height="10" opacity="1" fill="none" stroke="#E6194B"/>
<line opacity="1" stroke="#E6194B" stroke-width="1" x1="127" y1="391" x2="127" y2="401"/>
<line opacity="1" stroke="#E6194B" stroke-width="1" x1="170" y1="396" x2="270" y2="396"/>
<line opacity="1" stroke="#E6194B" stroke-width="1" x1="270" y1="394" x2="270" y2="398"/>
<line opacity="1" stroke="#E6194B" stroke-width="1" x1="182" y1="522" x2="182" y2="526"/>
<line opacity="1" stroke="#E6194B" stroke-width="1" x1="182" y1="524" x2="190" y2="524"/>
<rect x="190" y="519" width="6" height="10" opacity="1" fill="none" stroke="#E6194B"/>
<line opacity="1" stroke="#E6194B" stroke-width="1" x1="193" y1="519" x2="193" y2="529"/>
<line opacity="1" stroke="#E6194B" stroke-width="1" x1="196" y1="524" x2="204" y2="524"/>
<line opacity="1" stroke="#E6194B" stroke-width="1" x1="204" y1="522" x2="204" y2="526"/>
<line opacity="1" stroke="#E6194B" stroke-width="1" x1="100" y1="51" x2="100" y2="55"/>
<line opacity="1" stroke="#E6194B" stroke-width="1" x1="100" y1="53" x2="102" y2="53"/>
<rect x="102" y="48" width="19" height="10" opacity="1" fill="none" stroke="#E6194B"/>
<line opacity="1" stroke="#E6194B" stroke-width="1" x1="106" y1="48" x2="106" y2="58"/>
<line opacity="1" stroke="#E6194B" stroke-width="1" x1="121" y1="53" x2="149" y2="53"/>
<line opacity="1" stroke="#E6194B" stroke-width="1" x1="149" y1="51" x2="149" y2="55"/>
<line opacity="1" stroke="#E6194B" stroke-width="1" x1="100" y1="180" x2="100" y2="184"/>
<line opacity="1" stroke="#E6194B" stroke-width="1" x1="100" y1="182" x2="106" y2="182"/>
<rect x="106" y="177" width="14" height="10" opacity="1" fill="none" stroke="#E6194B"/>
<line opacity="1" stroke="#E6194B" stroke-width="1" x1="111" y1="177" x2="111" y2="187"/>
<line opacity="1" stroke="#E6194B" stroke-width="1" x1="120" y1="182" x2="142" y2="182"/>
<line opacity="1" stroke="#E6194B" stroke-width="1" x1="142" y1="180" x2="142" y2="184"/>
<line opacity="1" stroke="#E6194B" stroke-width="1" x1="100" y1="565" x2="100" y2="569"/>
<line opacity="1" stroke="#E6194B" stroke-width="1" x1="100" y1="567" x2="161" y2="567"/>
<rect x="161" y="562" width="124" height="10" opacity="1" fill="none" stroke="#E6194B"/>
<line opacity="1" stroke="#E6194B" stroke-width="1" x1="214" y1="562" x2="214" y2="572"/>
<line opacity="1" stroke="#E6194B" stroke-width="1" x1="285" y1="567" x2="471" y2="567"/>
<line opacity="1" stroke="#E6194B" stroke-width="1" x1="471" y1="565" x2="471" y2="569"/>
<line opacity="1" stroke="#E6194B" stroke-width="1" x1="100" y1="94" x2="100" y2="98"/>
<line opacity="1" stroke="#E6194B" stroke-width="1" x1="100" y1="96" x2="105" y2="96"/>
<rect x="105" y="91" width="21" height="10" opacity="1" fill="none" stroke="#E6194B"/>
<line opacity="1" stroke="#E6194B" stroke-width="1" x1="110" y1="91" x2="110" y2="101"/>
<line opacity="1" stroke="#E6194B" stroke-width="1" x1="126" y1="96" x2="157" y2="96"/>
<line opacity="1" stroke="#E6194B" stroke-width="1" x1="157" y1="94" x2="157" y2="98"/>
<line opacity="1" stroke="#E6194B" stroke-width="1" x1="158" y1="479" x2="158" y2="483"/>
<line opacity="1" stroke="#E6194B" stroke-width="1" x1="158" y1="481" x2="173" y2="481"/>
<rect x="173" y="476" width="10" height="10" opacity="1" fill="none" stroke="#E6194B"/>
<line opacity="1" stroke="#E6194B" stroke-width="1" x1="178" y1="476" x2="178" y2="486"/>
<line opacity="1" stroke="#E6194B" stroke-width="1" x1="183" y1="481" x2="198" y2="481"/>
<line opacity="1" stroke="#E6194B" stroke-width="1" x1="198" y1="479" x2="198" y2="483"/>
<line opacity="1" stroke="#E6194B" stroke-width="1" x1="100" y1="351" x2="100" y2="355"/>
<line opacity="1" stroke="#E6194B" stroke-width="1" x1="100" y1="353" x2="112" y2="353"/>
<rect x="112" y="348" width="25" height="10" opacity="1" fill="none" stroke="#E6194B"/>
<line opacity="1" stroke="#E6194B" stroke-width="1" x1="122" y1="348" x2="122" y2="358"/>
<line opacity="1" stroke="#E6194B" stroke-width="1" x1="137" y1="353" x2="175" y2="353"/>
<line opacity="1" stroke="#E6194B" stroke-width="1" x1="175" y1="351" x2="175" y2="355"/>
<line opacity="1" stroke="#3CB44B" stroke-width="1" x1="100" y1="29" x2="100" y2="33"/>
<line opacity="1" stroke="#3CB44B" stroke-width="1" x1="100" y1="31" x2="102" y2="31"/>
<rect x="102" y="26" width="21" height="10" opacity="1" fill="none" stroke="#3CB44B"/>
<line opacity="1" stroke="#3CB44B" stroke-width="1" x1="107" y1="26" x2="107" y2="36"/>
<line opacity="1" stroke="#3CB44B" stroke-width="1" x1="123" y1="31" x2="154" y2="31"/>
<line opacity="1" stroke="#3CB44B" stroke-width="1" x1="154" y1="29" x2="154" y2="33"/>
<line opacity="1" stroke="#3CB44B" stroke-width="1" x1="100" y1="242" x2="100" y2="246"/>
<line opacity="1" stroke="#3CB44B" stroke-width="1" x1="100" y1="244" x2="107" y2="244"/>
<rect x="107" y="239" width="24" height="10" opacity="1" fill="none" stroke="#3CB44B"/>
<line opacity="1" stroke="#3CB44B" stroke-width="1" x1="114" y1="239" x2="114" y2="249"/>
<line opacity="1" stroke="#3CB44B" stroke-width="1" x1="131" y1="244" x2="167" y2="244"/>
<line opacity="1" stroke="#3CB44B" stroke-width="1" x1="167" y1="242" x2="167" y2="246"/>
<line opacity="1" stroke="#3CB44B" stroke-width="1" x1="100" y1="328" x2="100" y2="332"/>
<line opacity="1" stroke="#3CB44B" stroke-width="1" x1="100" y1="330" x2="105" y2="330"/>
<rect x="105" y="325" width="25" height="10" opacity="1" fill="none" stroke="#3CB44B"/>
<line opacity="1" stroke="#3CB44B" stroke-width="1" x1="113" y1="325" x2="113" y2="335"/>
<line opacity="1" stroke="#3CB44B" stroke-width="1" x1="130" y1="330" x2="168" y2="330"/>
<line opacity="1" stroke="#3CB44B" stroke-width="1" x1="168" y1="328" x2="168" y2="332"/>
<line opacity="1" stroke="#3CB44B" stroke-width="1" x1="100" y1="457" x2="100" y2="461"/>
<line opacity="1" stroke="#3CB44B" stroke-width="1" x1="100" y1="459" x2="124" y2="459"/>
<rect x="124" y="454" width="22" height="10" opacity="1" fill="none" stroke="#3CB44B"/>
<line opacity="1" stroke="#3CB44B" stroke-width="1" x1="133" y1="454" x2="133" y2="464"/>
<line opacity="1" stroke="#3CB44B" stroke-width="1" x1="146" y1="459" x2="180" y2="459"/>
<line opacity="1" stroke="#3CB44B" stroke-width="1" x1="180" y1="457" x2="180" y2="461"/>
<line opacity="1" stroke="#3CB44B" stroke-width="1" x1="100" y1="285" x2="100" y2="289"/>
<line opacity="1" stroke="#3CB44B" stroke-width="1" x1="100" y1="287" x2="108" y2="287"/>
<rect x="108" y="282" width="26" height="10" opacity="1" fill="none" stroke="#3CB44B"/>
<line opacity="1" stroke="#3CB44B" stroke-width="1" x1="114" y1="282" x2="114" y2="292"/>
<line opacity="1" stroke="#3CB44B" stroke-width="1" x1="134" y1="287" x2="173" y2="287"/>
<line opacity="1" stroke="#3CB44B" stroke-width="1" x1="173" y1="285" x2="173" y2="289"/>
<line opacity="1" stroke="#3CB44B" stroke-width="1" x1="100" y1="157" x2="100" y2="161"/>
<line opacity="1" stroke="#3CB44B" stroke-width="1" x1="100" y1="159" x2="105" y2="159"/>
<rect x="105" y="154" width="21" height="10" opacity="1" fill="none" stroke="#3CB44B"/>
<line opacity="1" stroke="#3CB44B" stroke-width="1" x1="109" y1="154" x2="109" y2="164"/>
<line opacity="1" stroke="#3CB44B" stroke-width="1" x1="126" y1="159" x2="159" y2="159"/>
<line opacity="1" stroke="#3CB44B" stroke-width="1" x1="159" y1="157" x2="159" y2="161"/>
<line opacity="1" stroke="#3CB44B" stroke-width="1" x1="100" y1="414" x2="100" y2="418"/>
<line opacity="1" stroke="#3CB44B" stroke-width="1" x1="100" y1="416" x2="104" y2="416"/>
<rect x="104" y="411" width="68" height="10" opacity="1" fill="none" stroke="#3CB44B"/>
<line opacity="1" stroke="#3CB44B" stroke-width="1" x1="124" y1="411" x2="124" y2="421"/>
<line opacity="1" stroke="#3CB44B" stroke-width="1" x1="172" y1="416" x2="275" y2="416"/>
<line opacity="1" stroke="#3CB44B" stroke-width="1" x1="275" y1="414" x2="275" y2="418"/>
<line opacity="1" stroke="#3CB44B" stroke-width="1" x1="188" y1="542" x2="188" y2="546"/>
<line opacity="1" stroke="#3CB44B" stroke-width="1" x1="188" y1="544" x2="193" y2="544"/>
<rect x="193" y="539" width="4" height="10" opacity="1" fill="none" stroke="#3CB44B"/>
<line opacity="1" stroke="#3CB44B" stroke-width="1" x1="195" y1="539" x2="195" y2="549"/>
<line opacity="1" stroke="#3CB44B" stroke-width="1" x1="197" y1="544" x2="202" y2="544"/>
<line opacity="1" stroke="#3CB44B" stroke-width="1" x1="202" y1="542" x2="202" y2="546"/>
<line opacity="1" stroke="#3CB44B" stroke-width="1" x1="100" y1="71" x2="100" y2="75"/>
<line opacity="1" stroke="#3CB44B" stroke-width="1" x1="100" y1="73" x2="102" y2="73"/>
<rect x="102" y="68" width="21" height="10" opacity="1" fill="none" stroke="#3CB44B"/>
<line opacity="1" stroke="#3CB44B" stroke-width="1" x1="107" y1="68" x2="107" y2="78"/>
<line opacity="1" stroke="#3CB44B" stroke-width="1" x1="123" y1="73" x2="154" y2="73"/>
<line opacity="1" stroke="#3CB44B" stroke-width="1" x1="154" y1="71" x2="154" y2="75"/>
<line opacity="1" stroke="#3CB44B" stroke-width="1" x1="100" y1="200" x2="100" y2="204"/>
<line opacity="1" stroke="#3CB44B" stroke-width="1" x1="100" y1="202" x2="107" y2="202"/>
<rect x="107" y="197" width="14" height="10" opacity="1" fill="none" stroke="#3CB44B"/>
<line opacity="1" stroke="#3CB44B" stroke-width="1" x1="113" y1="197" x2="113" y2="207"/>
<line opacity="1" stroke="#3CB44B" stroke-width="1" x1="121" y1="202" x2="143" y2="202"/>
<line opacity="1" stroke="#3CB44B" stroke-width="1" x1="143" y1="200" x2="143" y2="204"/>
<line opacity="1" stroke="#3CB44B" stroke-width="1" x1="100" y1="585" x2="100" y2="589"/>
<line opacity="1" stroke="#3CB44B" stroke-width="1" x1="100" y1="587" x2="125" y2="587"/>
<rect x="125" y="582" width="53" height="10" opacity="1" fill="none" stroke="#3CB44B"/>
<line opacity="1" stroke="#3CB44B" stroke-width="1" x1="147" y1="582" x2="147" y2="592"/>
<line opacity="1" stroke="#3CB44B" stroke-width="1" x1="178" y1="587" x2="257" y2="587"/>
<line opacity="1" stroke="#3CB44B" stroke-width="1" x1="257" y1="585" x2="257" y2="589"/>
<line opacity="1" stroke="#3CB44B" stroke-width="1" x1="100" y1="114" x2="100" y2="118"/>
<line opacity="1" stroke="#3CB44B" stroke-width="1" x1="100" y1="116" x2="105" y2="116"/>
<rect x="105" y="111" width="34" height="10" opacity="1" fill="none" stroke="#3CB44B"/>
<line opacity="1" stroke="#3CB44B" stroke-width="1" x1="112" y1="111" x2="112" y2="121"/>
<line opacity="1" stroke="#3CB44B" stroke-width="1" x1="139" y1="116" x2="190" y2="116"/>
<line opacity="1" stroke="#3CB44B" stroke-width="1" x1="190" y1="114" x2="190" y2="118"/>
<line opacity="1" stroke="#3CB44B" stroke-width="1" x1="127" y1="499" x2="127" y2="503"/>
<line opacity="1" stroke="#3CB44B" stroke-width="1" x1="127" y1="501" x2="134" y2="501"/>
<rect x="134" y="496" width="4" height="10" opacity="1" fill="none" stroke="#3CB44B"/>
<line opacity="1" stroke="#3CB44B" stroke-width="1" x1="135" y1="496" x2="135" y2="506"/>
<line opacity="1" stroke="#3CB44B" stroke-width="1" x1="138" y1="501" x2="145" y2="501"/>
<line opacity="1" stroke="#3CB44B" stroke-width="1" x1="145" y1="499" x2="145" y2="503"/>
<line opacity="1" stroke="#3CB44B" stroke-width="1" x1="100" y1="371" x2="100" y2="375"/>
<line opacity="1" stroke="#3CB44B" stroke-width="1" x1="100" y1="373" x2="114" y2="373"/>
<rect x="114" y="368" width="26" height="10" opacity="1" fill="none" stroke="#3CB44B"/>
<line opacity="1" stroke="#3CB44B" stroke-width="1" x1="124" y1="368" x2="124" y2="378"/>
<line opacity="1" stroke="#3CB44B" stroke-width="1" x1="140" y1="373" x2="179" y2="373"/>
<line opacity="1" stroke="#3CB44B" stroke-width="1" x1="179" y1="371" x2="179" y2="375"/>
<rect x="328" y="5" width="147" height="46" opacity="1" fill="#FFFFFF" stroke="none"/>
<rect x="328" y="5" width="147" height="46" opacity="0.5" fill="none" stroke="#000000"/>
<text x="360" y="15" dy="0.76em" text-anchor="start" font-family="sans-serif" font-size="9.67741935483871" opacity="1" fill="#000000">
Index URL Request
</text>
<text x="360" y="30" dy="0.76em" text-anchor="start" font-family="sans-serif" font-size="9.67741935483871" opacity="1" fill="#000000">
Pattern URL Request
</text>
<rect x="338" y="13" width="12" height="12" opacity="1" fill="#E6194B" stroke="none"/>
<rect x="338" y="28" width="12" height="12" opacity="1" fill="#3CB44B" stroke="none"/>
</svg>
