<svg width="480" height="640" xmlns="http://www.w3.org/2000/svg">
<rect x="0" y="0" width="479" height="639" opacity="1" fill="#FFFFFF" stroke="none"/>
<line opacity="1" stroke="#FFFFFF" stroke-width="1" x1="105" y1="599" x2="105" y2="-1"/>
<line opacity="1" stroke="#FFFFFF" stroke-width="1" x1="110" y1="599" x2="110" y2="-1"/>
<line opacity="1" stroke="#FFFFFF" stroke-width="1" x1="115" y1="599" x2="115" y2="-1"/>
<line opacity="1" stroke="#FFFFFF" stroke-width="1" x1="121" y1="599" x2="121" y2="-1"/>
<line opacity="1" stroke="#FFFFFF" stroke-width="1" x1="126" y1="599" x2="126" y2="-1"/>
<line opacity="1" stroke="#FFFFFF" stroke-width="1" x1="131" y1="599" x2="131" y2="-1"/>
<line opacity="1" stroke="#FFFFFF" stroke-width="1" x1="136" y1="599" x2="136" y2="-1"/>
<line opacity="1" stroke="#FFFFFF" stroke-width="1" x1="142" y1="599" x2="142" y2="-1"/>
<line opacity="1" stroke="#FFFFFF" stroke-width="1" x1="147" y1="599" x2="147" y2="-1"/>
<line opacity="1" stroke="#FFFFFF" stroke-width="1" x1="152" y1="599" x2="152" y2="-1"/>
<line opacity="1" stroke="#FFFFFF" stroke-width="1" x1="157" y1="599" x2="157" y2="-1"/>
<line opacity="1" stroke="#FFFFFF" stroke-width="1" x1="163" y1="599" x2="163" y2="-1"/>
<line opacity="1" stroke="#FFFFFF" stroke-width="1" x1="168" y1="599" x2="168" y2="-1"/>
<line opacity="1" stroke="#FFFFFF" stroke-width="1" x1="173" y1="599" x2="173" y2="-1"/>
<line opacity="1" stroke="#FFFFFF" stroke-width="1" x1="179" y1="599" x2="179" y2="-1"/>
<line opacity="1" stroke="#FFFFFF" stroke-width="1" x1="184" y1="599" x2="184" y2="-1"/>
<line opacity="1" stroke="#FFFFFF" stroke-width="1" x1="189" y1="599" x2="189" y2="-1"/>
<line opacity="1" stroke="#FFFFFF" stroke-width="1" x1="194" y1="599" x2="194" y2="-1"/>
<line opacity="1" stroke="#FFFFFF" stroke-width="1" x1="200" y1="599" x2="200" y2="-1"/>
<line opacity="1" stroke="#FFFFFF" stroke-width="1" x1="205" y1="599" x2="205" y2="-1"/>
<line opacity="1" stroke="#FFFFFF" stroke-width="1" x1="210" y1="599" x2="210" y2="-1"/>
<line opacity="1" stroke="#FFFFFF" stroke-width="1" x1="215" y1="599" x2="215" y2="-1"/>
<line opacity="1" stroke="#FFFFFF" stroke-width="1" x1="221" y1="599" x2="221" y2="-1"/>
<line opacity="1" stroke="#FFFFFF" stroke-width="1" x1="226" y1="599" x2="226" y2="-1"/>
<line opacity="1" stroke="#FFFFFF" stroke-width="1" x1="231" y1="599" x2="231" y2="-1"/>
<line opacity="1" stroke="#FFFFFF" stroke-width="1" x1="237" y1="599" x2="237" y2="-1"/>
<line opacity="1" stroke="#FFFFFF" stroke-width="1" x1="242" y1="599" x2="242" y2="-1"/>
<line opacity="1" stroke="#FFFFFF" stroke-width="1" x1="247" y1="599" x2="247" y2="-1"/>
<line opacity="1" stroke="#FFFFFF" stroke-width="1" x1="252" y1="599" x2="252" y2="-1"/>
<line opacity="1" stroke="#FFFFFF" stroke-width="1" x1="258" y1="599" x2="258" y2="-1"/>
<line opacity="1" stroke="#FFFFFF" stroke-width="1" x1="263" y1="599" x2="263" y2="-1"/>
<line opacity="1" stroke="#FFFFFF" stroke-width="1" x1="268" y1="599" x2="268" y2="-1"/>
<line opacity="1" stroke="#FFFFFF" stroke-width="1" x1="273" y1="599" x2="273" y2="-1"/>
<line opacity="1" stroke="#FFFFFF" stroke-width="1" x1="279" y1="599" x2="279" y2="-1"/>
<line opacity="1" stroke="#FFFFFF" stroke-width="1" x1="284" y1="599" x2="284" y2="-1"/>
<line opacity="1" stroke="#FFFFFF" stroke-width="1" x1="289" y1="599" x2="289" y2="-1"/>
<line opacity="1" stroke="#FFFFFF" stroke-width="1" x1="295" y1="599" x2="295" y2="-1"/>
<line opacity="1" stroke="#FFFFFF" stroke-width="1" x1="300" y1="599" x2="300" y2="-1"/>
<line opacity="1" stroke="#FFFFFF" stroke-width="1" x1="305" y1="599" x2="305" y2="-1"/>
<line opacity="1" stroke="#FFFFFF" stroke-width="1" x1="310" y1="599" x2="310" y2="-1"/>
<line opacity="1" stroke="#FFFFFF" stroke-width="1" x1="316" y1="599" x2="316" y2="-1"/>
<line opacity="1" stroke="#FFFFFF" stroke-width="1" x1="321" y1="599" x2="321" y2="-1"/>
<line opacity="1" stroke="#FFFFFF" stroke-width="1" x1="326" y1="599" x2="326" y2="-1"/>
<line opacity="1" stroke="#FFFFFF" stroke-width="1" x1="331" y1="599" x2="331" y2="-1"/>
<line opacity="1" stroke="#FFFFFF" stroke-width="1" x1="337" y1="599" x2="337" y2="-1"/>
<line opacity="1" stroke="#FFFFFF" stroke-width="1" x1="342" y1="599" x2="342" y2="-1"/>
<line opacity="1" stroke="#FFFFFF" stroke-width="1" x1="347" y1="599" x2="347" y2="-1"/>
<line opacity="1" stroke="#FFFFFF" stroke-width="1" x1="352" y1="599" x2="352" y2="-1"/>
<line opacity="1" stroke="#FFFFFF" stroke-width="1" x1="358" y1="599" x2="358" y2="-1"/>
<line opacity="1" stroke="#FFFFFF" stroke-width="1" x1="363" y1="599" x2="363" y2="-1"/>
<line opacity="1" stroke="#FFFFFF" stroke-width="1" x1="368" y1="599" x2="368" y2="-1"/>
<line opacity="1" stroke="#FFFFFF" stroke-width="1" x1="374" y1="599" x2="374" y2="-1"/>
<line opacity="1" stroke="#FFFFFF" stroke-width="1" x1="379" y1="599" x2="379" y2="-1"/>
<line opacity="1" stroke="#FFFFFF" stroke-width="1" x1="384" y1="599" x2="384" y2="-1"/>
<line opacity="1" stroke="#FFFFFF" stroke-width="1" x1="389" y1="599" x2="389" y2="-1"/>
<line opacity="1" stroke="#FFFFFF" stroke-width="1" x1="395" y1="599" x2="395" y2="-1"/>
<line opacity="1" stroke="#FFFFFF" stroke-width="1" x1="400" y1="599" x2="400" y2="-1"/>
<line opacity="1" stroke="#FFFFFF" stroke-width="1" x1="405" y1="599" x2="405" y2="-1"/>
<line opacity="1" stroke="#FFFFFF" stroke-width="1" x1="410" y1="599" x2="410" y2="-1"/>
<line opacity="1" stroke="#FFFFFF" stroke-width="1" x1="416" y1="599" x2="416" y2="-1"/>
<line opacity="1" stroke="#FFFFFF" stroke-width="1" x1="421" y1="599" x2="421" y2="-1"/>
<line opacity="1" stroke="#FFFFFF" stroke-width="1" x1="426" y1="599" x2="426" y2="-1"/>
<line opacity="1" stroke="#FFFFFF" stroke-width="1" x1="432" y1="599" x2="432" y2="-1"/>
<line opacity="1" stroke="#FFFFFF" stroke-width="1" x1="437" y1="599" x2="437" y2="-1"/>
<line opacity="1" stroke="#FFFFFF" stroke-width="1" x1="442" y1="599" x2="442" y2="-1"/>
<line opacity="1" stroke="#FFFFFF" stroke-width="1" x1="447" y1="599" x2="447" y2="-1"/>
<line opacity="1" stroke="#FFFFFF" stroke-width="1" x1="453" y1="599" x2="453" y2="-1"/>
<line opacity="1" stroke="#FFFFFF" stroke-width="1" x1="458" y1="599" x2="458" y2="-1"/>
<line opacity="1" stroke="#FFFFFF" stroke-width="1" x1="463" y1="599" x2="463" y2="-1"/>
<line opacity="1" stroke="#FFFFFF" stroke-width="1" x1="468" y1="599" x2="468" y2="-1"/>
<line opacity="1" stroke="#FFFFFF" stroke-width="1" x1="474" y1="599" x2="474" y2="-1"/>
<line opacity="1" stroke="#FFFFFF" stroke-width="1" x1="479" y1="599" x2="479" y2="-1"/>
<line opacity="1" stroke="#FFFFFF" stroke-width="1" x1="100" y1="553" x2="480" y2="553"/>
<line opacity="1" stroke="#FFFFFF" stroke-width="1" x1="100" y1="507" x2="480" y2="507"/>
<line opacity="1" stroke="#FFFFFF" stroke-width="1" x1="100" y1="461" x2="480" y2="461"/>
<line opacity="1" stroke="#FFFFFF" stroke-width="1" x1="100" y1="415" x2="480" y2="415"/>
<line opacity="1" stroke="#FFFFFF" stroke-width="1" x1="100" y1="369" x2="480" y2="369"/>
<line opacity="1" stroke="#FFFFFF" stroke-width="1" x1="100" y1="323" x2="480" y2="323"/>
<line opacity="1" stroke="#FFFFFF" stroke-width="1" x1="100" y1="276" x2="480" y2="276"/>
<line opacity="1" stroke="#FFFFFF" stroke-width="1" x1="100" y1="230" x2="480" y2="230"/>
<line opacity="1" stroke="#FFFFFF" stroke-width="1" x1="100" y1="184" x2="480" y2="184"/>
<line opacity="1" stroke="#FFFFFF" stroke-width="1" x1="100" y1="138" x2="480" y2="138"/>
<line opacity="1" stroke="#FFFFFF" stroke-width="1" x1="100" y1="92" x2="480" y2="92"/>
<line opacity="1" stroke="#FFFFFF" stroke-width="1" x1="100" y1="46" x2="480" y2="46"/>
<text x="0" y="300" dy="0.76em" text-anchor="middle" font-family="sans-serif" font-size="9.67741935483871" opacity="1" fill="#000000" transform="rotate(270, 0, 300)">
Language
</text>
<text x="290" y="640" dy="-0.5ex" text-anchor="middle" font-family="sans-serif" font-size="9.67741935483871" opacity="1" fill="#000000">
Response, ms
</text>
<line opacity="0.2" stroke="#000000" stroke-width="1" x1="152" y1="599" x2="152" y2="-1"/>
<line opacity="0.2" stroke="#000000" stroke-width="1" x1="205" y1="599" x2="205" y2="-1"/>
<line opacity="0.2" stroke="#000000" stroke-width="1" x1="258" y1="599" x2="258" y2="-1"/>
<line opacity="0.2" stroke="#000000" stroke-width="1" x1="310" y1="599" x2="310" y2="-1"/>
<line opacity="0.2" stroke="#000000" stroke-width="1" x1="363" y1="599" x2="363" y2="-1"/>
<line opacity="0.2" stroke="#000000" stroke-width="1" x1="416" y1="599" x2="416" y2="-1"/>
<line opacity="0.2" stroke="#000000" stroke-width="1" x1="468" y1="599" x2="468" y2="-1"/>
<line opacity="0.2" stroke="#000000" stroke-width="1" x1="100" y1="553" x2="480" y2="553"/>
<line opacity="0.2" stroke="#000000" stroke-width="1" x1="100" y1="507" x2="480" y2="507"/>
<line opacity="0.2" stroke="#000000" stroke-width="1" x1="100" y1="461" x2="480" y2="461"/>
<line opacity="0.2" stroke="#000000" stroke-width="1" x1="100" y1="415" x2="480" y2="415"/>
<line opacity="0.2" stroke="#000000" stroke-width="1" x1="100" y1="369" x2="480" y2="369"/>
<line opacity="0.2" stroke="#000000" stroke-width="1" x1="100" y1="323" x2="480" y2="323"/>
<line opacity="0.2" stroke="#000000" stroke-width="1" x1="100" y1="276" x2="480" y2="276"/>
<line opacity="0.2" stroke="#000000" stroke-width="1" x1="100" y1="230" x2="480" y2="230"/>
<line opacity="0.2" stroke="#000000" stroke-width="1" x1="100" y1="184" x2="480" y2="184"/>
<line opacity="0.2" stroke="#000000" stroke-width="1" x1="100" y1="138" x2="480" y2="138"/>
<line opacity="0.2" stroke="#000000" stroke-width="1" x1="100" y1="92" x2="480" y2="92"/>
<line opacity="0.2" stroke="#000000" stroke-width="1" x1="100" y1="46" x2="480" y2="46"/>
<polyline fill="none" opacity="1" stroke="#000000" stroke-width="1" points="99,0 99,600 "/>
<text x="90" y="553" dy="0.5ex" text-anchor="end" font-family="sans-serif" font-size="9.67741935483871" opacity="1" fill="#000000">
Java/Spring Boot
</text>
<polyline fill="none" opacity="1" stroke="#000000" stroke-width="1" points="94,553 99,553 "/>
<text x="90" y="507" dy="0.5ex" text-anchor="end" font-family="sans-serif" font-size="9.67741935483871" opacity="1" fill="#000000">
PyPy3/Twisted
</text>
<polyline fill="none" opacity="1" stroke="#000000" stroke-width="1" points="94,507 99,507 "/>
<text x="90" y="461" dy="0.5ex" text-anchor="end" font-family="sans-serif" font-size="9.67741935483871" opacity="1" fill="#000000">
Rust/rocket
</text>
<polyline fill="none" opacity="1" stroke="#000000" stroke-width="1" points="94,461 99,461 "/>
<text x="90" y="415" dy="0.5ex" text-anchor="end" font-family="sans-serif" font-size="9.67741935483871" opacity="1" fill="#000000">
PHP/Swoole
</text>
<polyline fill="none" opacity="1" stroke="#000000" stroke-width="1" points="94,415 99,415 "/>
<text x="90" y="369" dy="0.5ex" text-anchor="end" font-family="sans-serif" font-size="9.67741935483871" opacity="1" fill="#000000">
Scala/Akka
</text>
<polyline fill="none" opacity="1" stroke="#000000" stroke-width="1" points="94,369 99,369 "/>
<text x="90" y="323" dy="0.5ex" text-anchor="end" font-family="sans-serif" font-size="9.67741935483871" opacity="1" fill="#000000">
D (DMD/vibe.d)
</text>
<polyline fill="none" opacity="1" stroke="#000000" stroke-width="1" points="94,323 99,323 "/>
<text x="90" y="276" dy="0.5ex" text-anchor="end" font-family="sans-serif" font-size="9.67741935483871" opacity="1" fill="#000000">
D (LDC/vibe.d)
</text>
<polyline fill="none" opacity="1" stroke="#000000" stroke-width="1" points="94,276 99,276 "/>
<text x="90" y="230" dy="0.5ex" text-anchor="end" font-family="sans-serif" font-size="9.67741935483871" opacity="1" fill="#000000">
Node.js
</text>
<polyline fill="none" opacity="1" stroke="#000000" stroke-width="1" points="94,230 99,230 "/>
<text x="90" y="184" dy="0.5ex" text-anchor="end" font-family="sans-serif" font-size="9.67741935483871" opacity="1" fill="#000000">
Go
</text>
<polyline fill="none" opacity="1" stroke="#000000" stroke-width="1" points="94,184 99,184 "/>
<text x="90" y="138" dy="0.5ex" text-anchor="end" font-family="sans-serif" font-size="9.67741935483871" opacity="1" fill="#000000">
Rust/Tide
</text>
<polyline fill="none" opacity="1" stroke="#000000" stroke-width="1" points="94,138 99,138 "/>
<text x="90" y="92" dy="0.5ex" text-anchor="end" font-family="sans-serif" font-size="9.67741935483871" opacity="1" fill="#000000">
Crystal
</text>
<polyline fill="none" opacity="1" stroke="#000000" stroke-width="1" points="94,92 99,92 "/>
<text x="90" y="46" dy="0.5ex" text-anchor="end" font-family="sans-serif" font-size="9.67741935483871" opacity="1" fill="#000000">
Rust/hyper
</text>
<polyline fill="none" opacity="1" stroke="#000000" stroke-width="1" points="94,46 99,46 "/>
<polyline fill="none" opacity="1" stroke="#000000" stroke-width="1" points="100,600 480,600 "/>
<text x="152" y="610" dy="0.76em" text-anchor="middle" font-family="sans-serif" font-size="9.67741935483871" opacity="1" fill="#000000">
5.0
</text>
<polyline fill="none" opacity="1" stroke="#000000" stroke-width="1" points="152,600 152,605 "/>
<text x="205" y="610" dy="0.76em" text-anchor="middle" font-family="sans-serif" font-size="9.67741935483871" opacity="1" fill="#000000">
10.0
</text>
<polyline fill="none" opacity="1" stroke="#000000" stroke-width="1" points="205,600 205,605 "/>
<text x="258" y="610" dy="0.76em" text-anchor="middle" font-family="sans-serif" font-size="9.67741935483871" opacity="1" fill="#000000">
15.0
</text>
<polyline fill="none" opacity="1" stroke="#000000" stroke-width="1" points="258,600 258,605 "/>
<text x="310" y="610" dy="0.76em" text-anchor="middle" font-family="sans-serif" font-size="9.67741935483871" opacity="1" fill="#000000">
20.0
</text>
<polyline fill="none" opacity="1" stroke="#000000" stroke-width="1" points="310,600 310,605 "/>
<text x="363" y="610" dy="0.76em" text-anchor="middle" font-family="sans-serif" font-size="9.67741935483871" opacity="1" fill="#000000">
25.0
</text>
<polyline fill="none" opacity="1" stroke="#000000" stroke-width="1" points="363,600 363,605 "/>
<text x="416" y="610" dy="0.76em" text-anchor="middle" font-family="sans-serif" font-size="9.67741935483871" opacity="1" fill="#000000">
30.0
</text>
<polyline fill="none" opacity="1" stroke="#000000" stroke-width="1" points="416,600 416,605 "/>
<text x="468" y="610" dy="0.76em" text-anchor="middle" font-family="sans-serif" font-size="9.67741935483871" opacity="1" fill="#000000">
35.0
</text>
<polyline fill="none" opacity="1" stroke="#000000" stroke-width="1" points="468,600 468,605 "/>
<line opacity="1" stroke="#E6194B" stroke-width="1" x1="100" y1="80" x2="100" y2="84"/>
<line opacity="1" stroke="#E6194B" stroke-width="1" x1="100" y1="82" x2="134" y2="82"/>
<rect x="134" y="77" width="42" height="10" opacity="1" fill="none" stroke="#E6194B"/>
<line opacity="1" stroke="#E6194B" stroke-width="1" x1="161" y1="77" x2="161" y2="87"/>
<line opacity="1" stroke="#E6194B" stroke-width="1" x1="176" y1="82" x2="240" y2="82"/>
<line opacity="1" stroke="#E6194B" stroke-width="1" x1="240" y1="80" x2="240" y2="84"/>
<line opacity="1" stroke="#E6194B" stroke-width="1" x1="100" y1="311" x2="100" y2="315"/>
<line opacity="1" stroke="#E6194B" stroke-width="1" x1="100" y1="313" x2="145" y2="313"/>
<rect x="145" y="308" width="43" height="10" opacity="1" fill="none" stroke="#E6194B"/>
<line opacity="1" stroke="#E6194B" stroke-width="1" x1="179" y1="308" x2="179" y2="318"/>
<line opacity="1" stroke="#E6194B" stroke-width="1" x1="188" y1="313" x2="253" y2="313"/>
<line opacity="1" stroke="#E6194B" stroke-width="1" x1="253" y1="311" x2="253" y2="315"/>
<line opacity="1" stroke="#E6194B" stroke-width="1" x1="100" y1="172" x2="100" y2="176"/>
<line opacity="1" stroke="#E6194B" stroke-width="1" x1="100" y1="174" x2="139" y2="174"/>
<rect x="139" y="169" width="46" height="10" opacity="1" fill="none" stroke="#E6194B"/>
<line opacity="1" stroke="#E6194B" stroke-width="1" x1="167" y1="169" x2="167" y2="179"/>
<line opacity="1" stroke="#E6194B" stroke-width="1" x1="185" y1="174" x2="254" y2="174"/>
<line opacity="1" stroke="#E6194B" stroke-width="1" x1="254" y1="172" x2="254" y2="176"/>
<line opacity="1" stroke="#E6194B" stroke-width="1" x1="100" y1="541" x2="100" y2="545"/>
<line opacity="1" stroke="#E6194B" stroke-width="1" x1="100" y1="543" x2="224" y2="543"/>
<rect x="224" y="538" width="98" height="10" opacity="1" fill="none" stroke="#E6194B"/>
<line opacity="1" stroke="#E6194B" stroke-width="1" x1="269" y1="538" x2="269" y2="548"/>
<line opacity="1" stroke="#E6194B" stroke-width="1" x1="322" y1="543" x2="469" y2="543"/>
<line opacity="1" stroke="#E6194B" stroke-width="1" x1="469" y1="541" x2="469" y2="545"/>
<line opacity="1" stroke="#E6194B" stroke-width="1" x1="100" y1="264" x2="100" y2="268"/>
<line opacity="1" stroke="#E6194B" stroke-width="1" x1="100" y1="266" x2="145" y2="266"/>
<rect x="145" y="261" width="43" height="10" opacity="1" fill="none" stroke="#E6194B"/>
<line opacity="1" stroke="#E6194B" stroke-width="1" x1="179" y1="261" x2="179" y2="271"/>
<line opacity="1" stroke="#E6194B" stroke-width="1" x1="188" y1="266" x2="253" y2="266"/>
<line opacity="1" stroke="#E6194B" stroke-width="1" x1="253" y1="264" x2="253" y2="268"/>
<line opacity="1" stroke="#E6194B" stroke-width="1" x1="100" y1="218" x2="100" y2="222"/>
<line opacity="1" stroke="#E6194B" stroke-width="1" x1="100" y1="220" x2="144" y2="220"/>
<rect x="144" y="215" width="45" height="10" opacity="1" fill="none" stroke="#E6194B"/>
<line opacity="1" stroke="#E6194B" stroke-width="1" x1="178" y1="215" x2="178" y2="225"/>
<line opacity="1" stroke="#E6194B" stroke-width="1" x1="189" y1="220" x2="257" y2="220"/>
<line opacity="1" stroke="#E6194B" stroke-width="1" x1="257" y1="218" x2="257" y2="222"/>
<line opacity="1" stroke="#E6194B" stroke-width="1" x1="100" y1="403" x2="100" y2="407"/>
<line opacity="1" stroke="#E6194B" stroke-width="1" x1="100" y1="405" x2="169" y2="405"/>
<rect x="169" y="400" width="90" height="10" opacity="1" fill="none" stroke="#E6194B"/>
<line opacity="1" stroke="#E6194B" stroke-width="1" x1="212" y1="400" x2="212" y2="410"/>
<line opacity="1" stroke="#E6194B" stroke-width="1" x1="259" y1="405" x2="393" y2="405"/>
<line opacity="1" stroke="#E6194B" stroke-width="1" x1="393" y1="403" x2="393" y2="407"/>
<line opacity="1" stroke="#E6194B" stroke-width="1" x1="256" y1="495" x2="256" y2="499"/>
<line opacity="1" stroke="#E6194B" stroke-width="1" x1="256" y1="497" x2="264" y2="497"/>
<rect x="264" y="492" width="5" height="10" opacity="1" fill="none" stroke="#E6194B"/>
<line opacity="1" stroke="#E6194B" stroke-width="1" x1="265" y1="492" x2="265" y2="502"/>
<line opacity="1" stroke="#E6194B" stroke-width="1" x1="269" y1="497" x2="277" y2="497"/>
<line opacity="1" stroke="#E6194B" stroke-width="1" x1="277" y1="495" x2="277" y2="499"/>
<line opacity="1" stroke="#E6194B" stroke-width="1" x1="100" y1="34" x2="100" y2="38"/>
<line opacity="1" stroke="#E6194B" stroke-width="1" x1="100" y1="36" x2="134" y2="36"/>
<rect x="134" y="31" width="37" height="10" opacity="1" fill="none" stroke="#E6194B"/>
<line opacity="1" stroke="#E6194B" stroke-width="1" x1="161" y1="31" x2="161" y2="41"/>
<line opacity="1" stroke="#E6194B" stroke-width="1" x1="171" y1="36" x2="227" y2="36"/>
<line opacity="1" stroke="#E6194B" stroke-width="1" x1="227" y1="34" x2="227" y2="38"/>
<line opacity="1" stroke="#E6194B" stroke-width="1" x1="100" y1="449" x2="100" y2="453"/>
<line opacity="1" stroke="#E6194B" stroke-width="1" x1="100" y1="451" x2="195" y2="451"/>
<rect x="195" y="446" width="107" height="10" opacity="1" fill="none" stroke="#E6194B"/>
<line opacity="1" stroke="#E6194B" stroke-width="1" x1="263" y1="446" x2="263" y2="456"/>
<line opacity="1" stroke="#E6194B" stroke-width="1" x1="302" y1="451" x2="462" y2="451"/>
<line opacity="1" stroke="#E6194B" stroke-width="1" x1="462" y1="449" x2="462" y2="453"/>
<line opacity="1" stroke="#E6194B" stroke-width="1" x1="100" y1="126" x2="100" y2="130"/>
<line opacity="1" stroke="#E6194B" stroke-width="1" x1="100" y1="128" x2="140" y2="128"/>
<rect x="140" y="123" width="48" height="10" opacity="1" fill="none" stroke="#E6194B"/>
<line opacity="1" stroke="#E6194B" stroke-width="1" x1="165" y1="123" x2="165" y2="133"/>
<line opacity="1" stroke="#E6194B" stroke-width="1" x1="188" y1="128" x2="261" y2="128"/>
<line opacity="1" stroke="#E6194B" stroke-width="1" x1="261" y1="126" x2="261" y2="130"/>
<line opacity="1" stroke="#E6194B" stroke-width="1" x1="100" y1="357" x2="100" y2="361"/>
<line opacity="1" stroke="#E6194B" stroke-width="1" x1="100" y1="359" x2="148" y2="359"/>
<rect x="148" y="354" width="57" height="10" opacity="1" fill="none" stroke="#E6194B"/>
<line opacity="1" stroke="#E6194B" stroke-width="1" x1="180" y1="354" x2="180" y2="364"/>
<line opacity="1" stroke="#E6194B" stroke-width="1" x1="205" y1="359" x2="290" y2="359"/>
<line opacity="1" stroke="#E6194B" stroke-width="1" x1="290" y1="357" x2="290" y2="361"/>
<line opacity="1" stroke="#3CB44B" stroke-width="1" x1="100" y1="100" x2="100" y2="104"/>
<line opacity="1" stroke="#3CB44B" stroke-width="1" x1="100" y1="102" x2="136" y2="102"/>
<rect x="136" y="97" width="42" height="10" opacity="1" fill="none" stroke="#3CB44B"/>
<line opacity="1" stroke="#3CB44B" stroke-width="1" x1="168" y1="97" x2="168" y2="107"/>
<line opacity="1" stroke="#3CB44B" stroke-width="1" x1="178" y1="102" x2="239" y2="102"/>
<line opacity="1" stroke="#3CB44B" stroke-width="1" x1="239" y1="100" x2="239" y2="104"/>
<line opacity="1" stroke="#3CB44B" stroke-width="1" x1="100" y1="331" x2="100" y2="335"/>
<line opacity="1" stroke="#3CB44B" stroke-width="1" x1="100" y1="333" x2="145" y2="333"/>
<rect x="145" y="328" width="44" height="10" opacity="1" fill="none" stroke="#3CB44B"/>
<line opacity="1" stroke="#3CB44B" stroke-width="1" x1="180" y1="328" x2="180" y2="338"/>
<line opacity="1" stroke="#3CB44B" stroke-width="1" x1="189" y1="333" x2="256" y2="333"/>
<line opacity="1" stroke="#3CB44B" stroke-width="1" x1="256" y1="331" x2="256" y2="335"/>
<line opacity="1" stroke="#3CB44B" stroke-width="1" x1="100" y1="192" x2="100" y2="196"/>
<line opacity="1" stroke="#3CB44B" stroke-width="1" x1="100" y1="194" x2="139" y2="194"/>
<rect x="139" y="189" width="46" height="10" opacity="1" fill="none" stroke="#3CB44B"/>
<line opacity="1" stroke="#3CB44B" stroke-width="1" x1="166" y1="189" x2="166" y2="199"/>
<line opacity="1" stroke="#3CB44B" stroke-width="1" x1="185" y1="194" x2="254" y2="194"/>
<line opacity="1" stroke="#3CB44B" stroke-width="1" x1="254" y1="192" x2="254" y2="196"/>
<line opacity="1" stroke="#3CB44B" stroke-width="1" x1="104" y1="561" x2="104" y2="565"/>
<line opacity="1" stroke="#3CB44B" stroke-width="1" x1="104" y1="563" x2="169" y2="563"/>
<rect x="169" y="558" width="43" height="10" opacity="1" fill="none" stroke="#3CB44B"/>
<line opacity="1" stroke="#3CB44B" stroke-width="1" x1="188" y1="558" x2="188" y2="568"/>
<line opacity="1" stroke="#3CB44B" stroke-width="1" x1="212" y1="563" x2="277" y2="563"/>
<line opacity="1" stroke="#3CB44B" stroke-width="1" x1="277" y1="561" x2="277" y2="565"/>
<line opacity="1" stroke="#3CB44B" stroke-width="1" x1="100" y1="284" x2="100" y2="288"/>
<line opacity="1" stroke="#3CB44B" stroke-width="1" x1="100" y1="286" x2="146" y2="286"/>
<rect x="146" y="281" width="44" height="10" opacity="1" fill="none" stroke="#3CB44B"/>
<line opacity="1" stroke="#3CB44B" stroke-width="1" x1="180" y1="281" x2="180" y2="291"/>
<line opacity="1" stroke="#3CB44B" stroke-width="1" x1="190" y1="286" x2="257" y2="286"/>
<line opacity="1" stroke="#3CB44B" stroke-width="1" x1="257" y1="284" x2="257" y2="288"/>
<line opacity="1" stroke="#3CB44B" stroke-width="1" x1="100" y1="238" x2="100" y2="242"/>
<line opacity="1" stroke="#3CB44B" stroke-width="1" x1="100" y1="240" x2="144" y2="240"/>
<rect x="144" y="235" width="45" height="10" opacity="1" fill="none" stroke="#3CB44B"/>
<line opacity="1" stroke="#3CB44B" stroke-width="1" x1="179" y1="235" x2="179" y2="245"/>
<line opacity="1" stroke="#3CB44B" stroke-width="1" x1="189" y1="240" x2="257" y2="240"/>
<line opacity="1" stroke="#3CB44B" stroke-width="1" x1="257" y1="238" x2="257" y2="242"/>
<line opacity="1" stroke="#3CB44B" stroke-width="1" x1="100" y1="423" x2="100" y2="427"/>
<line opacity="1" stroke="#3CB44B" stroke-width="1" x1="100" y1="425" x2="173" y2="425"/>
<rect x="173" y="420" width="83" height="10" opacity="1" fill="none" stroke="#3CB44B"/>
<line opacity="1" stroke="#3CB44B" stroke-width="1" x1="222" y1="420" x2="222" y2="430"/>
<line opacity="1" stroke="#3CB44B" stroke-width="1" x1="256" y1="425" x2="379" y2="425"/>
<line opacity="1" stroke="#3CB44B" stroke-width="1" x1="379" y1="423" x2="379" y2="427"/>
<line opacity="1" stroke="#3CB44B" stroke-width="1" x1="263" y1="515" x2="263" y2="519"/>
<line opacity="1" stroke="#3CB44B" stroke-width="1" x1="263" y1="517" x2="269" y2="517"/>
<rect x="269" y="512" width="4" height="10" opacity="1" fill="none" stroke="#3CB44B"/>
<line opacity="1" stroke="#3CB44B" stroke-width="1" x1="271" y1="512" x2="271" y2="522"/>
<line opacity="1" stroke="#3CB44B" stroke-width="1" x1="273" y1="517" x2="280" y2="517"/>
<line opacity="1" stroke="#3CB44B" stroke-width="1" x1="280" y1="515" x2="280" y2="519"/>
<line opacity="1" stroke="#3CB44B" stroke-width="1" x1="100" y1="54" x2="100" y2="58"/>
<line opacity="1" stroke="#3CB44B" stroke-width="1" x1="100" y1="56" x2="134" y2="56"/>
<rect x="134" y="51" width="37" height="10" opacity="1" fill="none" stroke="#3CB44B"/>
<line opacity="1" stroke="#3CB44B" stroke-width="1" x1="156" y1="51" x2="156" y2="61"/>
<line opacity="1" stroke="#3CB44B" stroke-width="1" x1="171" y1="56" x2="227" y2="56"/>
<line opacity="1" stroke="#3CB44B" stroke-width="1" x1="227" y1="54" x2="227" y2="58"/>
<line opacity="1" stroke="#3CB44B" stroke-width="1" x1="100" y1="469" x2="100" y2="473"/>
<line opacity="1" stroke="#3CB44B" stroke-width="1" x1="100" y1="471" x2="196" y2="471"/>
<rect x="196" y="466" width="107" height="10" opacity="1" fill="none" stroke="#3CB44B"/>
<line opacity="1" stroke="#3CB44B" stroke-width="1" x1="264" y1="466" x2="264" y2="476"/>
<line opacity="1" stroke="#3CB44B" stroke-width="1" x1="303" y1="471" x2="463" y2="471"/>
<line opacity="1" stroke="#3CB44B" stroke-width="1" x1="463" y1="469" x2="463" y2="473"/>
<line opacity="1" stroke="#3CB44B" stroke-width="1" x1="100" y1="146" x2="100" y2="150"/>
<line opacity="1" stroke="#3CB44B" stroke-width="1" x1="100" y1="148" x2="140" y2="148"/>
<rect x="140" y="143" width="48" height="10" opacity="1" fill="none" stroke="#3CB44B"/>
<line opacity="1" stroke="#3CB44B" stroke-width="1" x1="159" y1="143" x2="159" y2="153"/>
<line opacity="1" stroke="#3CB44B" stroke-width="1" x1="188" y1="148" x2="261" y2="148"/>
<line opacity="1" stroke="#3CB44B" stroke-width="1" x1="261" y1="146" x2="261" y2="150"/>
<line opacity="1" stroke="#3CB44B" stroke-width="1" x1="100" y1="377" x2="100" y2="381"/>
<line opacity="1" stroke="#3CB44B" stroke-width="1" x1="100" y1="379" x2="149" y2="379"/>
<rect x="149" y="374" width="56" height="10" opacity="1" fill="none" stroke="#3CB44B"/>
<line opacity="1" stroke="#3CB44B" stroke-width="1" x1="181" y1="374" x2="181" y2="384"/>
<line opacity="1" stroke="#3CB44B" stroke-width="1" x1="205" y1="379" x2="289" y2="379"/>
<line opacity="1" stroke="#3CB44B" stroke-width="1" x1="289" y1="377" x2="289" y2="381"/>
<rect x="328" y="5" width="147" height="46" opacity="1" fill="#FFFFFF" stroke="none"/>
<rect x="328" y="5" width="147" height="46" opacity="0.5" fill="none" stroke="#000000"/>
<text x="360" y="15" dy="0.76em" text-anchor="start" font-family="sans-serif" font-size="9.67741935483871" opacity="1" fill="#000000">
Index URL Request
</text>
<text x="360" y="30" dy="0.76em" text-anchor="start" font-family="sans-serif" font-size="9.67741935483871" opacity="1" fill="#000000">
Pattern URL Request
</text>
<rect x="338" y="13" width="12" height="12" opacity="1" fill="#E6194B" stroke="none"/>
<rect x="338" y="28" width="12" height="12" opacity="1" fill="#3CB44B" stroke="none"/>
</svg>
