<svg height="640" width="480" xmlns="http://www.w3.org/2000/svg">
<rect fill="#FFFFFF" height="639" opacity="1" stroke="none" width="479" x="0" y="0"/>
<line opacity="1" stroke="#FFFFFF" stroke-width="1" x1="105" x2="105" y1="599" y2="-1"/>
<line opacity="1" stroke="#FFFFFF" stroke-width="1" x1="110" x2="110" y1="599" y2="-1"/>
<line opacity="1" stroke="#FFFFFF" stroke-width="1" x1="115" x2="115" y1="599" y2="-1"/>
<line opacity="1" stroke="#FFFFFF" stroke-width="1" x1="120" x2="120" y1="599" y2="-1"/>
<line opacity="1" stroke="#FFFFFF" stroke-width="1" x1="126" x2="126" y1="599" y2="-1"/>
<line opacity="1" stroke="#FFFFFF" stroke-width="1" x1="131" x2="131" y1="599" y2="-1"/>
<line opacity="1" stroke="#FFFFFF" stroke-width="1" x1="136" x2="136" y1="599" y2="-1"/>
<line opacity="1" stroke="#FFFFFF" stroke-width="1" x1="141" x2="141" y1="599" y2="-1"/>
<line opacity="1" stroke="#FFFFFF" stroke-width="1" x1="146" x2="146" y1="599" y2="-1"/>
<line opacity="1" stroke="#FFFFFF" stroke-width="1" x1="152" x2="152" y1="599" y2="-1"/>
<line opacity="1" stroke="#FFFFFF" stroke-width="1" x1="157" x2="157" y1="599" y2="-1"/>
<line opacity="1" stroke="#FFFFFF" stroke-width="1" x1="162" x2="162" y1="599" y2="-1"/>
<line opacity="1" stroke="#FFFFFF" stroke-width="1" x1="167" x2="167" y1="599" y2="-1"/>
<line opacity="1" stroke="#FFFFFF" stroke-width="1" x1="173" x2="173" y1="599" y2="-1"/>
<line opacity="1" stroke="#FFFFFF" stroke-width="1" x1="178" x2="178" y1="599" y2="-1"/>
<line opacity="1" stroke="#FFFFFF" stroke-width="1" x1="183" x2="183" y1="599" y2="-1"/>
<line opacity="1" stroke="#FFFFFF" stroke-width="1" x1="188" x2="188" y1="599" y2="-1"/>
<line opacity="1" stroke="#FFFFFF" stroke-width="1" x1="193" x2="193" y1="599" y2="-1"/>
<line opacity="1" stroke="#FFFFFF" stroke-width="1" x1="199" x2="199" y1="599" y2="-1"/>
<line opacity="1" stroke="#FFFFFF" stroke-width="1" x1="204" x2="204" y1="599" y2="-1"/>
<line opacity="1" stroke="#FFFFFF" stroke-width="1" x1="209" x2="209" y1="599" y2="-1"/>
<line opacity="1" stroke="#FFFFFF" stroke-width="1" x1="214" x2="214" y1="599" y2="-1"/>
<line opacity="1" stroke="#FFFFFF" stroke-width="1" x1="220" x2="220" y1="599" y2="-1"/>
<line opacity="1" stroke="#FFFFFF" stroke-width="1" x1="225" x2="225" y1="599" y2="-1"/>
<line opacity="1" stroke="#FFFFFF" stroke-width="1" x1="230" x2="230" y1="599" y2="-1"/>
<line opacity="1" stroke="#FFFFFF" stroke-width="1" x1="235" x2="235" y1="599" y2="-1"/>
<line opacity="1" stroke="#FFFFFF" stroke-width="1" x1="240" x2="240" y1="599" y2="-1"/>
<line opacity="1" stroke="#FFFFFF" stroke-width="1" x1="246" x2="246" y1="599" y2="-1"/>
<line opacity="1" stroke="#FFFFFF" stroke-width="1" x1="251" x2="251" y1="599" y2="-1"/>
<line opacity="1" stroke="#FFFFFF" stroke-width="1" x1="256" x2="256" y1="599" y2="-1"/>
<line opacity="1" stroke="#FFFFFF" stroke-width="1" x1="261" x2="261" y1="599" y2="-1"/>
<line opacity="1" stroke="#FFFFFF" stroke-width="1" x1="267" x2="267" y1="599" y2="-1"/>
<line opacity="1" stroke="#FFFFFF" stroke-width="1" x1="272" x2="272" y1="599" y2="-1"/>
<line opacity="1" stroke="#FFFFFF" stroke-width="1" x1="277" x2="277" y1="599" y2="-1"/>
<line opacity="1" stroke="#FFFFFF" stroke-width="1" x1="282" x2="282" y1="599" y2="-1"/>
<line opacity="1" stroke="#FFFFFF" stroke-width="1" x1="287" x2="287" y1="599" y2="-1"/>
<line opacity="1" stroke="#FFFFFF" stroke-width="1" x1="293" x2="293" y1="599" y2="-1"/>
<line opacity="1" stroke="#FFFFFF" stroke-width="1" x1="298" x2="298" y1="599" y2="-1"/>
<line opacity="1" stroke="#FFFFFF" stroke-width="1" x1="303" x2="303" y1="599" y2="-1"/>
<line opacity="1" stroke="#FFFFFF" stroke-width="1" x1="308" x2="308" y1="599" y2="-1"/>
<line opacity="1" stroke="#FFFFFF" stroke-width="1" x1="314" x2="314" y1="599" y2="-1"/>
<line opacity="1" stroke="#FFFFFF" stroke-width="1" x1="319" x2="319" y1="599" y2="-1"/>
<line opacity="1" stroke="#FFFFFF" stroke-width="1" x1="324" x2="324" y1="599" y2="-1"/>
<line opacity="1" stroke="#FFFFFF" stroke-width="1" x1="329" x2="329" y1="599" y2="-1"/>
<line opacity="1" stroke="#FFFFFF" stroke-width="1" x1="334" x2="334" y1="599" y2="-1"/>
<line opacity="1" stroke="#FFFFFF" stroke-width="1" x1="340" x2="340" y1="599" y2="-1"/>
<line opacity="1" stroke="#FFFFFF" stroke-width="1" x1="345" x2="345" y1="599" y2="-1"/>
<line opacity="1" stroke="#FFFFFF" stroke-width="1" x1="350" x2="350" y1="599" y2="-1"/>
<line opacity="1" stroke="#FFFFFF" stroke-width="1" x1="355" x2="355" y1="599" y2="-1"/>
<line opacity="1" stroke="#FFFFFF" stroke-width="1" x1="360" x2="360" y1="599" y2="-1"/>
<line opacity="1" stroke="#FFFFFF" stroke-width="1" x1="366" x2="366" y1="599" y2="-1"/>
<line opacity="1" stroke="#FFFFFF" stroke-width="1" x1="371" x2="371" y1="599" y2="-1"/>
<line opacity="1" stroke="#FFFFFF" stroke-width="1" x1="376" x2="376" y1="599" y2="-1"/>
<line opacity="1" stroke="#FFFFFF" stroke-width="1" x1="381" x2="381" y1="599" y2="-1"/>
<line opacity="1" stroke="#FFFFFF" stroke-width="1" x1="387" x2="387" y1="599" y2="-1"/>
<line opacity="1" stroke="#FFFFFF" stroke-width="1" x1="392" x2="392" y1="599" y2="-1"/>
<line opacity="1" stroke="#FFFFFF" stroke-width="1" x1="397" x2="397" y1="599" y2="-1"/>
<line opacity="1" stroke="#FFFFFF" stroke-width="1" x1="402" x2="402" y1="599" y2="-1"/>
<line opacity="1" stroke="#FFFFFF" stroke-width="1" x1="407" x2="407" y1="599" y2="-1"/>
<line opacity="1" stroke="#FFFFFF" stroke-width="1" x1="413" x2="413" y1="599" y2="-1"/>
<line opacity="1" stroke="#FFFFFF" stroke-width="1" x1="418" x2="418" y1="599" y2="-1"/>
<line opacity="1" stroke="#FFFFFF" stroke-width="1" x1="423" x2="423" y1="599" y2="-1"/>
<line opacity="1" stroke="#FFFFFF" stroke-width="1" x1="428" x2="428" y1="599" y2="-1"/>
<line opacity="1" stroke="#FFFFFF" stroke-width="1" x1="434" x2="434" y1="599" y2="-1"/>
<line opacity="1" stroke="#FFFFFF" stroke-width="1" x1="439" x2="439" y1="599" y2="-1"/>
<line opacity="1" stroke="#FFFFFF" stroke-width="1" x1="444" x2="444" y1="599" y2="-1"/>
<line opacity="1" stroke="#FFFFFF" stroke-width="1" x1="449" x2="449" y1="599" y2="-1"/>
<line opacity="1" stroke="#FFFFFF" stroke-width="1" x1="454" x2="454" y1="599" y2="-1"/>
<line opacity="1" stroke="#FFFFFF" stroke-width="1" x1="460" x2="460" y1="599" y2="-1"/>
<line opacity="1" stroke="#FFFFFF" stroke-width="1" x1="465" x2="465" y1="599" y2="-1"/>
<line opacity="1" stroke="#FFFFFF" stroke-width="1" x1="470" x2="470" y1="599" y2="-1"/>
<line opacity="1" stroke="#FFFFFF" stroke-width="1" x1="475" x2="475" y1="599" y2="-1"/>
<line opacity="1" stroke="#FFFFFF" stroke-width="1" x1="100" x2="480" y1="549" y2="549"/>
<line opacity="1" stroke="#FFFFFF" stroke-width="1" x1="100" x2="480" y1="499" y2="499"/>
<line opacity="1" stroke="#FFFFFF" stroke-width="1" x1="100" x2="480" y1="449" y2="449"/>
<line opacity="1" stroke="#FFFFFF" stroke-width="1" x1="100" x2="480" y1="399" y2="399"/>
<line opacity="1" stroke="#FFFFFF" stroke-width="1" x1="100" x2="480" y1="349" y2="349"/>
<line opacity="1" stroke="#FFFFFF" stroke-width="1" x1="100" x2="480" y1="299" y2="299"/>
<line opacity="1" stroke="#FFFFFF" stroke-width="1" x1="100" x2="480" y1="249" y2="249"/>
<line opacity="1" stroke="#FFFFFF" stroke-width="1" x1="100" x2="480" y1="199" y2="199"/>
<line opacity="1" stroke="#FFFFFF" stroke-width="1" x1="100" x2="480" y1="149" y2="149"/>
<line opacity="1" stroke="#FFFFFF" stroke-width="1" x1="100" x2="480" y1="99" y2="99"/>
<line opacity="1" stroke="#FFFFFF" stroke-width="1" x1="100" x2="480" y1="49" y2="49"/>
<text dy="0.76em" fill="#000000" font-family="sans-serif" font-size="9.67741935483871" opacity="1" text-anchor="middle" transform="rotate(270, 0, 300)" x="0" y="300">
Language
</text>
<text dy="-0.5ex" fill="#000000" font-family="sans-serif" font-size="9.67741935483871" opacity="1" text-anchor="middle" x="290" y="640">
Response, ms
</text>
<line opacity="0.2" stroke="#000000" stroke-width="1" x1="152" x2="152" y1="599" y2="-1"/>
<line opacity="0.2" stroke="#000000" stroke-width="1" x1="204" x2="204" y1="599" y2="-1"/>
<line opacity="0.2" stroke="#000000" stroke-width="1" x1="256" x2="256" y1="599" y2="-1"/>
<line opacity="0.2" stroke="#000000" stroke-width="1" x1="308" x2="308" y1="599" y2="-1"/>
<line opacity="0.2" stroke="#000000" stroke-width="1" x1="360" x2="360" y1="599" y2="-1"/>
<line opacity="0.2" stroke="#000000" stroke-width="1" x1="413" x2="413" y1="599" y2="-1"/>
<line opacity="0.2" stroke="#000000" stroke-width="1" x1="465" x2="465" y1="599" y2="-1"/>
<line opacity="0.2" stroke="#000000" stroke-width="1" x1="100" x2="480" y1="549" y2="549"/>
<line opacity="0.2" stroke="#000000" stroke-width="1" x1="100" x2="480" y1="499" y2="499"/>
<line opacity="0.2" stroke="#000000" stroke-width="1" x1="100" x2="480" y1="449" y2="449"/>
<line opacity="0.2" stroke="#000000" stroke-width="1" x1="100" x2="480" y1="399" y2="399"/>
<line opacity="0.2" stroke="#000000" stroke-width="1" x1="100" x2="480" y1="349" y2="349"/>
<line opacity="0.2" stroke="#000000" stroke-width="1" x1="100" x2="480" y1="299" y2="299"/>
<line opacity="0.2" stroke="#000000" stroke-width="1" x1="100" x2="480" y1="249" y2="249"/>
<line opacity="0.2" stroke="#000000" stroke-width="1" x1="100" x2="480" y1="199" y2="199"/>
<line opacity="0.2" stroke="#000000" stroke-width="1" x1="100" x2="480" y1="149" y2="149"/>
<line opacity="0.2" stroke="#000000" stroke-width="1" x1="100" x2="480" y1="99" y2="99"/>
<line opacity="0.2" stroke="#000000" stroke-width="1" x1="100" x2="480" y1="49" y2="49"/>
<polyline fill="none" opacity="1" points="99,0 99,600 " stroke="#000000" stroke-width="1"/>
<text dy="0.5ex" fill="#000000" font-family="sans-serif" font-size="9.67741935483871" opacity="1" text-anchor="end" x="90" y="549">
Java/Spring Boot
</text>
<polyline fill="none" opacity="1" points="94,549 99,549 " stroke="#000000" stroke-width="1"/>
<text dy="0.5ex" fill="#000000" font-family="sans-serif" font-size="9.67741935483871" opacity="1" text-anchor="end" x="90" y="499">
PyPy3/Twisted
</text>
<polyline fill="none" opacity="1" points="94,499 99,499 " stroke="#000000" stroke-width="1"/>
<text dy="0.5ex" fill="#000000" font-family="sans-serif" font-size="9.67741935483871" opacity="1" text-anchor="end" x="90" y="449">
Rust/rocket
</text>
<polyline fill="none" opacity="1" points="94,449 99,449 " stroke="#000000" stroke-width="1"/>
<text dy="0.5ex" fill="#000000" font-family="sans-serif" font-size="9.67741935483871" opacity="1" text-anchor="end" x="90" y="399">
PHP/Swoole
</text>
<polyline fill="none" opacity="1" points="94,399 99,399 " stroke="#000000" stroke-width="1"/>
<text dy="0.5ex" fill="#000000" font-family="sans-serif" font-size="9.67741935483871" opacity="1" text-anchor="end" x="90" y="349">
D (DMD/vibe.d)
</text>
<polyline fill="none" opacity="1" points="94,349 99,349 " stroke="#000000" stroke-width="1"/>
<text dy="0.5ex" fill="#000000" font-family="sans-serif" font-size="9.67741935483871" opacity="1" text-anchor="end" x="90" y="299">
D (LDC/vibe.d)
</text>
<polyline fill="none" opacity="1" points="94,299 99,299 " stroke="#000000" stroke-width="1"/>
<text dy="0.5ex" fill="#000000" font-family="sans-serif" font-size="9.67741935483871" opacity="1" text-anchor="end" x="90" y="249">
Node.js
</text>
<polyline fill="none" opacity="1" points="94,249 99,249 " stroke="#000000" stroke-width="1"/>
<text dy="0.5ex" fill="#000000" font-family="sans-serif" font-size="9.67741935483871" opacity="1" text-anchor="end" x="90" y="199">
Rust/hyper
</text>
<polyline fill="none" opacity="1" points="94,199 99,199 " stroke="#000000" stroke-width="1"/>
<text dy="0.5ex" fill="#000000" font-family="sans-serif" font-size="9.67741935483871" opacity="1" text-anchor="end" x="90" y="149">
Go
</text>
<polyline fill="none" opacity="1" points="94,149 99,149 " stroke="#000000" stroke-width="1"/>
<text dy="0.5ex" fill="#000000" font-family="sans-serif" font-size="9.67741935483871" opacity="1" text-anchor="end" x="90" y="99">
Crystal
</text>
<polyline fill="none" opacity="1" points="94,99 99,99 " stroke="#000000" stroke-width="1"/>
<text dy="0.5ex" fill="#000000" font-family="sans-serif" font-size="9.67741935483871" opacity="1" text-anchor="end" x="90" y="49">
Scala/Akka
</text>
<polyline fill="none" opacity="1" points="94,49 99,49 " stroke="#000000" stroke-width="1"/>
<polyline fill="none" opacity="1" points="100,600 480,600 " stroke="#000000" stroke-width="1"/>
<text dy="0.76em" fill="#000000" font-family="sans-serif" font-size="9.67741935483871" opacity="1" text-anchor="middle" x="152" y="610">
5.0
</text>
<polyline fill="none" opacity="1" points="152,600 152,605 " stroke="#000000" stroke-width="1"/>
<text dy="0.76em" fill="#000000" font-family="sans-serif" font-size="9.67741935483871" opacity="1" text-anchor="middle" x="204" y="610">
10.0
</text>
<polyline fill="none" opacity="1" points="204,600 204,605 " stroke="#000000" stroke-width="1"/>
<text dy="0.76em" fill="#000000" font-family="sans-serif" font-size="9.67741935483871" opacity="1" text-anchor="middle" x="256" y="610">
15.0
</text>
<polyline fill="none" opacity="1" points="256,600 256,605 " stroke="#000000" stroke-width="1"/>
<text dy="0.76em" fill="#000000" font-family="sans-serif" font-size="9.67741935483871" opacity="1" text-anchor="middle" x="308" y="610">
20.0
</text>
<polyline fill="none" opacity="1" points="308,600 308,605 " stroke="#000000" stroke-width="1"/>
<text dy="0.76em" fill="#000000" font-family="sans-serif" font-size="9.67741935483871" opacity="1" text-anchor="middle" x="360" y="610">
25.0
</text>
<polyline fill="none" opacity="1" points="360,600 360,605 " stroke="#000000" stroke-width="1"/>
<text dy="0.76em" fill="#000000" font-family="sans-serif" font-size="9.67741935483871" opacity="1" text-anchor="middle" x="413" y="610">
30.0
</text>
<polyline fill="none" opacity="1" points="413,600 413,605 " stroke="#000000" stroke-width="1"/>
<text dy="0.76em" fill="#000000" font-family="sans-serif" font-size="9.67741935483871" opacity="1" text-anchor="middle" x="465" y="610">
35.0
</text>
<polyline fill="none" opacity="1" points="465,600 465,605 " stroke="#000000" stroke-width="1"/>
<line opacity="1" stroke="#E6194B" stroke-width="1" x1="100" x2="100" y1="87" y2="91"/>
<line opacity="1" stroke="#E6194B" stroke-width="1" x1="100" x2="134" y1="89" y2="89"/>
<rect fill="none" height="10" opacity="1" stroke="#E6194B" width="42" x="134" y="84"/>
<line opacity="1" stroke="#E6194B" stroke-width="1" x1="162" x2="162" y1="84" y2="94"/>
<line opacity="1" stroke="#E6194B" stroke-width="1" x1="176" x2="238" y1="89" y2="89"/>
<line opacity="1" stroke="#E6194B" stroke-width="1" x1="238" x2="238" y1="87" y2="91"/>
<line opacity="1" stroke="#E6194B" stroke-width="1" x1="100" x2="100" y1="337" y2="341"/>
<line opacity="1" stroke="#E6194B" stroke-width="1" x1="100" x2="142" y1="339" y2="339"/>
<rect fill="none" height="10" opacity="1" stroke="#E6194B" width="44" x="142" y="334"/>
<line opacity="1" stroke="#E6194B" stroke-width="1" x1="176" x2="176" y1="334" y2="344"/>
<line opacity="1" stroke="#E6194B" stroke-width="1" x1="186" x2="252" y1="339" y2="339"/>
<line opacity="1" stroke="#E6194B" stroke-width="1" x1="252" x2="252" y1="337" y2="341"/>
<line opacity="1" stroke="#E6194B" stroke-width="1" x1="100" x2="100" y1="137" y2="141"/>
<line opacity="1" stroke="#E6194B" stroke-width="1" x1="100" x2="137" y1="139" y2="139"/>
<rect fill="none" height="10" opacity="1" stroke="#E6194B" width="46" x="137" y="134"/>
<line opacity="1" stroke="#E6194B" stroke-width="1" x1="165" x2="165" y1="134" y2="144"/>
<line opacity="1" stroke="#E6194B" stroke-width="1" x1="183" x2="252" y1="139" y2="139"/>
<line opacity="1" stroke="#E6194B" stroke-width="1" x1="252" x2="252" y1="137" y2="141"/>
<line opacity="1" stroke="#E6194B" stroke-width="1" x1="100" x2="100" y1="537" y2="541"/>
<line opacity="1" stroke="#E6194B" stroke-width="1" x1="100" x2="229" y1="539" y2="539"/>
<rect fill="none" height="10" opacity="1" stroke="#E6194B" width="96" x="229" y="534"/>
<line opacity="1" stroke="#E6194B" stroke-width="1" x1="273" x2="273" y1="534" y2="544"/>
<line opacity="1" stroke="#E6194B" stroke-width="1" x1="325" x2="469" y1="539" y2="539"/>
<line opacity="1" stroke="#E6194B" stroke-width="1" x1="469" x2="469" y1="537" y2="541"/>
<line opacity="1" stroke="#E6194B" stroke-width="1" x1="100" x2="100" y1="287" y2="291"/>
<line opacity="1" stroke="#E6194B" stroke-width="1" x1="100" x2="142" y1="289" y2="289"/>
<rect fill="none" height="10" opacity="1" stroke="#E6194B" width="45" x="142" y="284"/>
<line opacity="1" stroke="#E6194B" stroke-width="1" x1="176" x2="176" y1="284" y2="294"/>
<line opacity="1" stroke="#E6194B" stroke-width="1" x1="187" x2="255" y1="289" y2="289"/>
<line opacity="1" stroke="#E6194B" stroke-width="1" x1="255" x2="255" y1="287" y2="291"/>
<line opacity="1" stroke="#E6194B" stroke-width="1" x1="100" x2="100" y1="237" y2="241"/>
<line opacity="1" stroke="#E6194B" stroke-width="1" x1="100" x2="142" y1="239" y2="239"/>
<rect fill="none" height="10" opacity="1" stroke="#E6194B" width="48" x="142" y="234"/>
<line opacity="1" stroke="#E6194B" stroke-width="1" x1="172" x2="172" y1="234" y2="244"/>
<line opacity="1" stroke="#E6194B" stroke-width="1" x1="190" x2="262" y1="239" y2="239"/>
<line opacity="1" stroke="#E6194B" stroke-width="1" x1="262" x2="262" y1="237" y2="241"/>
<line opacity="1" stroke="#E6194B" stroke-width="1" x1="100" x2="100" y1="387" y2="391"/>
<line opacity="1" stroke="#E6194B" stroke-width="1" x1="100" x2="166" y1="389" y2="389"/>
<rect fill="none" height="10" opacity="1" stroke="#E6194B" width="85" x="166" y="384"/>
<line opacity="1" stroke="#E6194B" stroke-width="1" x1="202" x2="202" y1="384" y2="394"/>
<line opacity="1" stroke="#E6194B" stroke-width="1" x1="251" x2="378" y1="389" y2="389"/>
<line opacity="1" stroke="#E6194B" stroke-width="1" x1="378" x2="378" y1="387" y2="391"/>
<line opacity="1" stroke="#E6194B" stroke-width="1" x1="259" x2="259" y1="487" y2="491"/>
<line opacity="1" stroke="#E6194B" stroke-width="1" x1="259" x2="265" y1="489" y2="489"/>
<rect fill="none" height="10" opacity="1" stroke="#E6194B" width="5" x="265" y="484"/>
<line opacity="1" stroke="#E6194B" stroke-width="1" x1="267" x2="267" y1="484" y2="494"/>
<line opacity="1" stroke="#E6194B" stroke-width="1" x1="270" x2="276" y1="489" y2="489"/>
<line opacity="1" stroke="#E6194B" stroke-width="1" x1="276" x2="276" y1="487" y2="491"/>
<line opacity="1" stroke="#E6194B" stroke-width="1" x1="100" x2="100" y1="187" y2="191"/>
<line opacity="1" stroke="#E6194B" stroke-width="1" x1="100" x2="136" y1="189" y2="189"/>
<rect fill="none" height="10" opacity="1" stroke="#E6194B" width="41" x="136" y="184"/>
<line opacity="1" stroke="#E6194B" stroke-width="1" x1="168" x2="168" y1="184" y2="194"/>
<line opacity="1" stroke="#E6194B" stroke-width="1" x1="177" x2="238" y1="189" y2="189"/>
<line opacity="1" stroke="#E6194B" stroke-width="1" x1="238" x2="238" y1="187" y2="191"/>
<line opacity="1" stroke="#E6194B" stroke-width="1" x1="100" x2="100" y1="437" y2="441"/>
<line opacity="1" stroke="#E6194B" stroke-width="1" x1="100" x2="196" y1="439" y2="439"/>
<rect fill="none" height="10" opacity="1" stroke="#E6194B" width="103" x="196" y="434"/>
<line opacity="1" stroke="#E6194B" stroke-width="1" x1="264" x2="264" y1="434" y2="444"/>
<line opacity="1" stroke="#E6194B" stroke-width="1" x1="299" x2="454" y1="439" y2="439"/>
<line opacity="1" stroke="#E6194B" stroke-width="1" x1="454" x2="454" y1="437" y2="441"/>
<line opacity="1" stroke="#E6194B" stroke-width="1" x1="100" x2="100" y1="37" y2="41"/>
<line opacity="1" stroke="#E6194B" stroke-width="1" x1="100" x2="135" y1="39" y2="39"/>
<rect fill="none" height="10" opacity="1" stroke="#E6194B" width="60" x="135" y="34"/>
<line opacity="1" stroke="#E6194B" stroke-width="1" x1="159" x2="159" y1="34" y2="44"/>
<line opacity="1" stroke="#E6194B" stroke-width="1" x1="195" x2="284" y1="39" y2="39"/>
<line opacity="1" stroke="#E6194B" stroke-width="1" x1="284" x2="284" y1="37" y2="41"/>
<line opacity="1" stroke="#3CB44B" stroke-width="1" x1="100" x2="100" y1="107" y2="111"/>
<line opacity="1" stroke="#3CB44B" stroke-width="1" x1="100" x2="134" y1="109" y2="109"/>
<rect fill="none" height="10" opacity="1" stroke="#3CB44B" width="43" x="134" y="104"/>
<line opacity="1" stroke="#3CB44B" stroke-width="1" x1="156" x2="156" y1="104" y2="114"/>
<line opacity="1" stroke="#3CB44B" stroke-width="1" x1="177" x2="241" y1="109" y2="109"/>
<line opacity="1" stroke="#3CB44B" stroke-width="1" x1="241" x2="241" y1="107" y2="111"/>
<line opacity="1" stroke="#3CB44B" stroke-width="1" x1="100" x2="100" y1="357" y2="361"/>
<line opacity="1" stroke="#3CB44B" stroke-width="1" x1="100" x2="143" y1="359" y2="359"/>
<rect fill="none" height="10" opacity="1" stroke="#3CB44B" width="45" x="143" y="354"/>
<line opacity="1" stroke="#3CB44B" stroke-width="1" x1="176" x2="176" y1="354" y2="364"/>
<line opacity="1" stroke="#3CB44B" stroke-width="1" x1="188" x2="256" y1="359" y2="359"/>
<line opacity="1" stroke="#3CB44B" stroke-width="1" x1="256" x2="256" y1="357" y2="361"/>
<line opacity="1" stroke="#3CB44B" stroke-width="1" x1="100" x2="100" y1="157" y2="161"/>
<line opacity="1" stroke="#3CB44B" stroke-width="1" x1="100" x2="136" y1="159" y2="159"/>
<rect fill="none" height="10" opacity="1" stroke="#3CB44B" width="47" x="136" y="154"/>
<line opacity="1" stroke="#3CB44B" stroke-width="1" x1="156" x2="156" y1="154" y2="164"/>
<line opacity="1" stroke="#3CB44B" stroke-width="1" x1="183" x2="253" y1="159" y2="159"/>
<line opacity="1" stroke="#3CB44B" stroke-width="1" x1="253" x2="253" y1="157" y2="161"/>
<line opacity="1" stroke="#3CB44B" stroke-width="1" x1="102" x2="102" y1="557" y2="561"/>
<line opacity="1" stroke="#3CB44B" stroke-width="1" x1="102" x2="167" y1="559" y2="559"/>
<rect fill="none" height="10" opacity="1" stroke="#3CB44B" width="44" x="167" y="554"/>
<line opacity="1" stroke="#3CB44B" stroke-width="1" x1="187" x2="187" y1="554" y2="564"/>
<line opacity="1" stroke="#3CB44B" stroke-width="1" x1="211" x2="277" y1="559" y2="559"/>
<line opacity="1" stroke="#3CB44B" stroke-width="1" x1="277" x2="277" y1="557" y2="561"/>
<line opacity="1" stroke="#3CB44B" stroke-width="1" x1="100" x2="100" y1="307" y2="311"/>
<line opacity="1" stroke="#3CB44B" stroke-width="1" x1="100" x2="144" y1="309" y2="309"/>
<rect fill="none" height="10" opacity="1" stroke="#3CB44B" width="43" x="144" y="304"/>
<line opacity="1" stroke="#3CB44B" stroke-width="1" x1="177" x2="177" y1="304" y2="314"/>
<line opacity="1" stroke="#3CB44B" stroke-width="1" x1="187" x2="251" y1="309" y2="309"/>
<line opacity="1" stroke="#3CB44B" stroke-width="1" x1="251" x2="251" y1="307" y2="311"/>
<line opacity="1" stroke="#3CB44B" stroke-width="1" x1="100" x2="100" y1="257" y2="261"/>
<line opacity="1" stroke="#3CB44B" stroke-width="1" x1="100" x2="140" y1="259" y2="259"/>
<rect fill="none" height="10" opacity="1" stroke="#3CB44B" width="48" x="140" y="254"/>
<line opacity="1" stroke="#3CB44B" stroke-width="1" x1="165" x2="165" y1="254" y2="264"/>
<line opacity="1" stroke="#3CB44B" stroke-width="1" x1="188" x2="260" y1="259" y2="259"/>
<line opacity="1" stroke="#3CB44B" stroke-width="1" x1="260" x2="260" y1="257" y2="261"/>
<line opacity="1" stroke="#3CB44B" stroke-width="1" x1="100" x2="100" y1="407" y2="411"/>
<line opacity="1" stroke="#3CB44B" stroke-width="1" x1="100" x2="163" y1="409" y2="409"/>
<rect fill="none" height="10" opacity="1" stroke="#3CB44B" width="92" x="163" y="404"/>
<line opacity="1" stroke="#3CB44B" stroke-width="1" x1="199" x2="199" y1="404" y2="414"/>
<line opacity="1" stroke="#3CB44B" stroke-width="1" x1="255" x2="393" y1="409" y2="409"/>
<line opacity="1" stroke="#3CB44B" stroke-width="1" x1="393" x2="393" y1="407" y2="411"/>
<line opacity="1" stroke="#3CB44B" stroke-width="1" x1="262" x2="262" y1="507" y2="511"/>
<line opacity="1" stroke="#3CB44B" stroke-width="1" x1="262" x2="269" y1="509" y2="509"/>
<rect fill="none" height="10" opacity="1" stroke="#3CB44B" width="4" x="269" y="504"/>
<line opacity="1" stroke="#3CB44B" stroke-width="1" x1="271" x2="271" y1="504" y2="514"/>
<line opacity="1" stroke="#3CB44B" stroke-width="1" x1="273" x2="279" y1="509" y2="509"/>
<line opacity="1" stroke="#3CB44B" stroke-width="1" x1="279" x2="279" y1="507" y2="511"/>
<line opacity="1" stroke="#3CB44B" stroke-width="1" x1="100" x2="100" y1="207" y2="211"/>
<line opacity="1" stroke="#3CB44B" stroke-width="1" x1="100" x2="137" y1="209" y2="209"/>
<rect fill="none" height="10" opacity="1" stroke="#3CB44B" width="41" x="137" y="204"/>
<line opacity="1" stroke="#3CB44B" stroke-width="1" x1="169" x2="169" y1="204" y2="214"/>
<line opacity="1" stroke="#3CB44B" stroke-width="1" x1="178" x2="239" y1="209" y2="209"/>
<line opacity="1" stroke="#3CB44B" stroke-width="1" x1="239" x2="239" y1="207" y2="211"/>
<line opacity="1" stroke="#3CB44B" stroke-width="1" x1="100" x2="100" y1="457" y2="461"/>
<line opacity="1" stroke="#3CB44B" stroke-width="1" x1="100" x2="196" y1="459" y2="459"/>
<rect fill="none" height="10" opacity="1" stroke="#3CB44B" width="101" x="196" y="454"/>
<line opacity="1" stroke="#3CB44B" stroke-width="1" x1="263" x2="263" y1="454" y2="464"/>
<line opacity="1" stroke="#3CB44B" stroke-width="1" x1="297" x2="449" y1="459" y2="459"/>
<line opacity="1" stroke="#3CB44B" stroke-width="1" x1="449" x2="449" y1="457" y2="461"/>
<line opacity="1" stroke="#3CB44B" stroke-width="1" x1="100" x2="100" y1="57" y2="61"/>
<line opacity="1" stroke="#3CB44B" stroke-width="1" x1="100" x2="149" y1="59" y2="59"/>
<rect fill="none" height="10" opacity="1" stroke="#3CB44B" width="57" x="149" y="54"/>
<line opacity="1" stroke="#3CB44B" stroke-width="1" x1="176" x2="176" y1="54" y2="64"/>
<line opacity="1" stroke="#3CB44B" stroke-width="1" x1="206" x2="292" y1="59" y2="59"/>
<line opacity="1" stroke="#3CB44B" stroke-width="1" x1="292" x2="292" y1="57" y2="61"/>
<rect fill="#FFFFFF" height="46" opacity="1" stroke="none" width="147" x="328" y="5"/>
<rect fill="none" height="46" opacity="0.5" stroke="#000000" width="147" x="328" y="5"/>
<text dy="0.76em" fill="#000000" font-family="sans-serif" font-size="9.67741935483871" opacity="1" text-anchor="start" x="360" y="15">
Index URL Request
</text>
<text dy="0.76em" fill="#000000" font-family="sans-serif" font-size="9.67741935483871" opacity="1" text-anchor="start" x="360" y="30">
Pattern URL Request
</text>
<rect fill="#E6194B" height="12" opacity="1" stroke="none" width="12" x="338" y="13"/>
<rect fill="#3CB44B" height="12" opacity="1" stroke="none" width="12" x="338" y="28"/>
</svg>