<svg width="480" height="640" xmlns="http://www.w3.org/2000/svg">
<rect x="0" y="0" width="479" height="639" opacity="1" fill="#FFFFFF" stroke="none"/>
<line opacity="1" stroke="#FFFFFF" stroke-width="1" x1="105" y1="599" x2="105" y2="-1"/>
<line opacity="1" stroke="#FFFFFF" stroke-width="1" x1="110" y1="599" x2="110" y2="-1"/>
<line opacity="1" stroke="#FFFFFF" stroke-width="1" x1="115" y1="599" x2="115" y2="-1"/>
<line opacity="1" stroke="#FFFFFF" stroke-width="1" x1="120" y1="599" x2="120" y2="-1"/>
<line opacity="1" stroke="#FFFFFF" stroke-width="1" x1="125" y1="599" x2="125" y2="-1"/>
<line opacity="1" stroke="#FFFFFF" stroke-width="1" x1="130" y1="599" x2="130" y2="-1"/>
<line opacity="1" stroke="#FFFFFF" stroke-width="1" x1="135" y1="599" x2="135" y2="-1"/>
<line opacity="1" stroke="#FFFFFF" stroke-width="1" x1="141" y1="599" x2="141" y2="-1"/>
<line opacity="1" stroke="#FFFFFF" stroke-width="1" x1="146" y1="599" x2="146" y2="-1"/>
<line opacity="1" stroke="#FFFFFF" stroke-width="1" x1="151" y1="599" x2="151" y2="-1"/>
<line opacity="1" stroke="#FFFFFF" stroke-width="1" x1="156" y1="599" x2="156" y2="-1"/>
<line opacity="1" stroke="#FFFFFF" stroke-width="1" x1="161" y1="599" x2="161" y2="-1"/>
<line opacity="1" stroke="#FFFFFF" stroke-width="1" x1="166" y1="599" x2="166" y2="-1"/>
<line opacity="1" stroke="#FFFFFF" stroke-width="1" x1="171" y1="599" x2="171" y2="-1"/>
<line opacity="1" stroke="#FFFFFF" stroke-width="1" x1="177" y1="599" x2="177" y2="-1"/>
<line opacity="1" stroke="#FFFFFF" stroke-width="1" x1="182" y1="599" x2="182" y2="-1"/>
<line opacity="1" stroke="#FFFFFF" stroke-width="1" x1="187" y1="599" x2="187" y2="-1"/>
<line opacity="1" stroke="#FFFFFF" stroke-width="1" x1="192" y1="599" x2="192" y2="-1"/>
<line opacity="1" stroke="#FFFFFF" stroke-width="1" x1="197" y1="599" x2="197" y2="-1"/>
<line opacity="1" stroke="#FFFFFF" stroke-width="1" x1="202" y1="599" x2="202" y2="-1"/>
<line opacity="1" stroke="#FFFFFF" stroke-width="1" x1="207" y1="599" x2="207" y2="-1"/>
<line opacity="1" stroke="#FFFFFF" stroke-width="1" x1="212" y1="599" x2="212" y2="-1"/>
<line opacity="1" stroke="#FFFFFF" stroke-width="1" x1="218" y1="599" x2="218" y2="-1"/>
<line opacity="1" stroke="#FFFFFF" stroke-width="1" x1="223" y1="599" x2="223" y2="-1"/>
<line opacity="1" stroke="#FFFFFF" stroke-width="1" x1="228" y1="599" x2="228" y2="-1"/>
<line opacity="1" stroke="#FFFFFF" stroke-width="1" x1="233" y1="599" x2="233" y2="-1"/>
<line opacity="1" stroke="#FFFFFF" stroke-width="1" x1="238" y1="599" x2="238" y2="-1"/>
<line opacity="1" stroke="#FFFFFF" stroke-width="1" x1="243" y1="599" x2="243" y2="-1"/>
<line opacity="1" stroke="#FFFFFF" stroke-width="1" x1="248" y1="599" x2="248" y2="-1"/>
<line opacity="1" stroke="#FFFFFF" stroke-width="1" x1="254" y1="599" x2="254" y2="-1"/>
<line opacity="1" stroke="#FFFFFF" stroke-width="1" x1="259" y1="599" x2="259" y2="-1"/>
<line opacity="1" stroke="#FFFFFF" stroke-width="1" x1="264" y1="599" x2="264" y2="-1"/>
<line opacity="1" stroke="#FFFFFF" stroke-width="1" x1="269" y1="599" x2="269" y2="-1"/>
<line opacity="1" stroke="#FFFFFF" stroke-width="1" x1="274" y1="599" x2="274" y2="-1"/>
<line opacity="1" stroke="#FFFFFF" stroke-width="1" x1="279" y1="599" x2="279" y2="-1"/>
<line opacity="1" stroke="#FFFFFF" stroke-width="1" x1="284" y1="599" x2="284" y2="-1"/>
<line opacity="1" stroke="#FFFFFF" stroke-width="1" x1="290" y1="599" x2="290" y2="-1"/>
<line opacity="1" stroke="#FFFFFF" stroke-width="1" x1="295" y1="599" x2="295" y2="-1"/>
<line opacity="1" stroke="#FFFFFF" stroke-width="1" x1="300" y1="599" x2="300" y2="-1"/>
<line opacity="1" stroke="#FFFFFF" stroke-width="1" x1="305" y1="599" x2="305" y2="-1"/>
<line opacity="1" stroke="#FFFFFF" stroke-width="1" x1="310" y1="599" x2="310" y2="-1"/>
<line opacity="1" stroke="#FFFFFF" stroke-width="1" x1="315" y1="599" x2="315" y2="-1"/>
<line opacity="1" stroke="#FFFFFF" stroke-width="1" x1="320" y1="599" x2="320" y2="-1"/>
<line opacity="1" stroke="#FFFFFF" stroke-width="1" x1="325" y1="599" x2="325" y2="-1"/>
<line opacity="1" stroke="#FFFFFF" stroke-width="1" x1="331" y1="599" x2="331" y2="-1"/>
<line opacity="1" stroke="#FFFFFF" stroke-width="1" x1="336" y1="599" x2="336" y2="-1"/>
<line opacity="1" stroke="#FFFFFF" stroke-width="1" x1="341" y1="599" x2="341" y2="-1"/>
<line opacity="1" stroke="#FFFFFF" stroke-width="1" x1="346" y1="599" x2="346" y2="-1"/>
<line opacity="1" stroke="#FFFFFF" stroke-width="1" x1="351" y1="599" x2="351" y2="-1"/>
<line opacity="1" stroke="#FFFFFF" stroke-width="1" x1="356" y1="599" x2="356" y2="-1"/>
<line opacity="1" stroke="#FFFFFF" stroke-width="1" x1="361" y1="599" x2="361" y2="-1"/>
<line opacity="1" stroke="#FFFFFF" stroke-width="1" x1="367" y1="599" x2="367" y2="-1"/>
<line opacity="1" stroke="#FFFFFF" stroke-width="1" x1="372" y1="599" x2="372" y2="-1"/>
<line opacity="1" stroke="#FFFFFF" stroke-width="1" x1="377" y1="599" x2="377" y2="-1"/>
<line opacity="1" stroke="#FFFFFF" stroke-width="1" x1="382" y1="599" x2="382" y2="-1"/>
<line opacity="1" stroke="#FFFFFF" stroke-width="1" x1="387" y1="599" x2="387" y2="-1"/>
<line opacity="1" stroke="#FFFFFF" stroke-width="1" x1="392" y1="599" x2="392" y2="-1"/>
<line opacity="1" stroke="#FFFFFF" stroke-width="1" x1="397" y1="599" x2="397" y2="-1"/>
<line opacity="1" stroke="#FFFFFF" stroke-width="1" x1="402" y1="599" x2="402" y2="-1"/>
<line opacity="1" stroke="#FFFFFF" stroke-width="1" x1="408" y1="599" x2="408" y2="-1"/>
<line opacity="1" stroke="#FFFFFF" stroke-width="1" x1="413" y1="599" x2="413" y2="-1"/>
<line opacity="1" stroke="#FFFFFF" stroke-width="1" x1="418" y1="599" x2="418" y2="-1"/>
<line opacity="1" stroke="#FFFFFF" stroke-width="1" x1="423" y1="599" x2="423" y2="-1"/>
<line opacity="1" stroke="#FFFFFF" stroke-width="1" x1="428" y1="599" x2="428" y2="-1"/>
<line opacity="1" stroke="#FFFFFF" stroke-width="1" x1="433" y1="599" x2="433" y2="-1"/>
<line opacity="1" stroke="#FFFFFF" stroke-width="1" x1="438" y1="599" x2="438" y2="-1"/>
<line opacity="1" stroke="#FFFFFF" stroke-width="1" x1="444" y1="599" x2="444" y2="-1"/>
<line opacity="1" stroke="#FFFFFF" stroke-width="1" x1="449" y1="599" x2="449" y2="-1"/>
<line opacity="1" stroke="#FFFFFF" stroke-width="1" x1="454" y1="599" x2="454" y2="-1"/>
<line opacity="1" stroke="#FFFFFF" stroke-width="1" x1="459" y1="599" x2="459" y2="-1"/>
<line opacity="1" stroke="#FFFFFF" stroke-width="1" x1="464" y1="599" x2="464" y2="-1"/>
<line opacity="1" stroke="#FFFFFF" stroke-width="1" x1="469" y1="599" x2="469" y2="-1"/>
<line opacity="1" stroke="#FFFFFF" stroke-width="1" x1="474" y1="599" x2="474" y2="-1"/>
<line opacity="1" stroke="#FFFFFF" stroke-width="1" x1="480" y1="599" x2="480" y2="-1"/>
<line opacity="1" stroke="#FFFFFF" stroke-width="1" x1="100" y1="553" x2="480" y2="553"/>
<line opacity="1" stroke="#FFFFFF" stroke-width="1" x1="100" y1="507" x2="480" y2="507"/>
<line opacity="1" stroke="#FFFFFF" stroke-width="1" x1="100" y1="461" x2="480" y2="461"/>
<line opacity="1" stroke="#FFFFFF" stroke-width="1" x1="100" y1="415" x2="480" y2="415"/>
<line opacity="1" stroke="#FFFFFF" stroke-width="1" x1="100" y1="369" x2="480" y2="369"/>
<line opacity="1" stroke="#FFFFFF" stroke-width="1" x1="100" y1="323" x2="480" y2="323"/>
<line opacity="1" stroke="#FFFFFF" stroke-width="1" x1="100" y1="276" x2="480" y2="276"/>
<line opacity="1" stroke="#FFFFFF" stroke-width="1" x1="100" y1="230" x2="480" y2="230"/>
<line opacity="1" stroke="#FFFFFF" stroke-width="1" x1="100" y1="184" x2="480" y2="184"/>
<line opacity="1" stroke="#FFFFFF" stroke-width="1" x1="100" y1="138" x2="480" y2="138"/>
<line opacity="1" stroke="#FFFFFF" stroke-width="1" x1="100" y1="92" x2="480" y2="92"/>
<line opacity="1" stroke="#FFFFFF" stroke-width="1" x1="100" y1="46" x2="480" y2="46"/>
<text x="0" y="300" dy="0.76em" text-anchor="middle" font-family="sans-serif" font-size="9.67741935483871" opacity="1" fill="#000000" transform="rotate(270, 0, 300)">
Language
</text>
<text x="290" y="640" dy="-0.5ex" text-anchor="middle" font-family="sans-serif" font-size="9.67741935483871" opacity="1" fill="#000000">
Response, ms
</text>
<line opacity="0.2" stroke="#000000" stroke-width="1" x1="151" y1="599" x2="151" y2="-1"/>
<line opacity="0.2" stroke="#000000" stroke-width="1" x1="202" y1="599" x2="202" y2="-1"/>
<line opacity="0.2" stroke="#000000" stroke-width="1" x1="254" y1="599" x2="254" y2="-1"/>
<line opacity="0.2" stroke="#000000" stroke-width="1" x1="305" y1="599" x2="305" y2="-1"/>
<line opacity="0.2" stroke="#000000" stroke-width="1" x1="356" y1="599" x2="356" y2="-1"/>
<line opacity="0.2" stroke="#000000" stroke-width="1" x1="408" y1="599" x2="408" y2="-1"/>
<line opacity="0.2" stroke="#000000" stroke-width="1" x1="459" y1="599" x2="459" y2="-1"/>
<line opacity="0.2" stroke="#000000" stroke-width="1" x1="100" y1="553" x2="480" y2="553"/>
<line opacity="0.2" stroke="#000000" stroke-width="1" x1="100" y1="507" x2="480" y2="507"/>
<line opacity="0.2" stroke="#000000" stroke-width="1" x1="100" y1="461" x2="480" y2="461"/>
<line opacity="0.2" stroke="#000000" stroke-width="1" x1="100" y1="415" x2="480" y2="415"/>
<line opacity="0.2" stroke="#000000" stroke-width="1" x1="100" y1="369" x2="480" y2="369"/>
<line opacity="0.2" stroke="#000000" stroke-width="1" x1="100" y1="323" x2="480" y2="323"/>
<line opacity="0.2" stroke="#000000" stroke-width="1" x1="100" y1="276" x2="480" y2="276"/>
<line opacity="0.2" stroke="#000000" stroke-width="1" x1="100" y1="230" x2="480" y2="230"/>
<line opacity="0.2" stroke="#000000" stroke-width="1" x1="100" y1="184" x2="480" y2="184"/>
<line opacity="0.2" stroke="#000000" stroke-width="1" x1="100" y1="138" x2="480" y2="138"/>
<line opacity="0.2" stroke="#000000" stroke-width="1" x1="100" y1="92" x2="480" y2="92"/>
<line opacity="0.2" stroke="#000000" stroke-width="1" x1="100" y1="46" x2="480" y2="46"/>
<polyline fill="none" opacity="1" stroke="#000000" stroke-width="1" points="99,0 99,600 "/>
<text x="90" y="553" dy="0.5ex" text-anchor="end" font-family="sans-serif" font-size="9.67741935483871" opacity="1" fill="#000000">
Java/Spring Boot
</text>
<polyline fill="none" opacity="1" stroke="#000000" stroke-width="1" points="94,553 99,553 "/>
<text x="90" y="507" dy="0.5ex" text-anchor="end" font-family="sans-serif" font-size="9.67741935483871" opacity="1" fill="#000000">
PyPy3/Twisted
</text>
<polyline fill="none" opacity="1" stroke="#000000" stroke-width="1" points="94,507 99,507 "/>
<text x="90" y="461" dy="0.5ex" text-anchor="end" font-family="sans-serif" font-size="9.67741935483871" opacity="1" fill="#000000">
Rust/rocket
</text>
<polyline fill="none" opacity="1" stroke="#000000" stroke-width="1" points="94,461 99,461 "/>
<text x="90" y="415" dy="0.5ex" text-anchor="end" font-family="sans-serif" font-size="9.67741935483871" opacity="1" fill="#000000">
PHP/Swoole
</text>
<polyline fill="none" opacity="1" stroke="#000000" stroke-width="1" points="94,415 99,415 "/>
<text x="90" y="369" dy="0.5ex" text-anchor="end" font-family="sans-serif" font-size="9.67741935483871" opacity="1" fill="#000000">
D (DMD/vibe.d)
</text>
<polyline fill="none" opacity="1" stroke="#000000" stroke-width="1" points="94,369 99,369 "/>
<text x="90" y="323" dy="0.5ex" text-anchor="end" font-family="sans-serif" font-size="9.67741935483871" opacity="1" fill="#000000">
D (LDC/vibe.d)
</text>
<polyline fill="none" opacity="1" stroke="#000000" stroke-width="1" points="94,323 99,323 "/>
<text x="90" y="276" dy="0.5ex" text-anchor="end" font-family="sans-serif" font-size="9.67741935483871" opacity="1" fill="#000000">
Scala/Akka
</text>
<polyline fill="none" opacity="1" stroke="#000000" stroke-width="1" points="94,276 99,276 "/>
<text x="90" y="230" dy="0.5ex" text-anchor="end" font-family="sans-serif" font-size="9.67741935483871" opacity="1" fill="#000000">
Go
</text>
<polyline fill="none" opacity="1" stroke="#000000" stroke-width="1" points="94,230 99,230 "/>
<text x="90" y="184" dy="0.5ex" text-anchor="end" font-family="sans-serif" font-size="9.67741935483871" opacity="1" fill="#000000">
Node.js
</text>
<polyline fill="none" opacity="1" stroke="#000000" stroke-width="1" points="94,184 99,184 "/>
<text x="90" y="138" dy="0.5ex" text-anchor="end" font-family="sans-serif" font-size="9.67741935483871" opacity="1" fill="#000000">
Crystal
</text>
<polyline fill="none" opacity="1" stroke="#000000" stroke-width="1" points="94,138 99,138 "/>
<text x="90" y="92" dy="0.5ex" text-anchor="end" font-family="sans-serif" font-size="9.67741935483871" opacity="1" fill="#000000">
Rust/Actix
</text>
<polyline fill="none" opacity="1" stroke="#000000" stroke-width="1" points="94,92 99,92 "/>
<text x="90" y="46" dy="0.5ex" text-anchor="end" font-family="sans-serif" font-size="9.67741935483871" opacity="1" fill="#000000">
Rust/hyper
</text>
<polyline fill="none" opacity="1" stroke="#000000" stroke-width="1" points="94,46 99,46 "/>
<polyline fill="none" opacity="1" stroke="#000000" stroke-width="1" points="100,600 480,600 "/>
<text x="151" y="610" dy="0.76em" text-anchor="middle" font-family="sans-serif" font-size="9.67741935483871" opacity="1" fill="#000000">
5.0
</text>
<polyline fill="none" opacity="1" stroke="#000000" stroke-width="1" points="151,600 151,605 "/>
<text x="202" y="610" dy="0.76em" text-anchor="middle" font-family="sans-serif" font-size="9.67741935483871" opacity="1" fill="#000000">
10.0
</text>
<polyline fill="none" opacity="1" stroke="#000000" stroke-width="1" points="202,600 202,605 "/>
<text x="254" y="610" dy="0.76em" text-anchor="middle" font-family="sans-serif" font-size="9.67741935483871" opacity="1" fill="#000000">
15.0
</text>
<polyline fill="none" opacity="1" stroke="#000000" stroke-width="1" points="254,600 254,605 "/>
<text x="305" y="610" dy="0.76em" text-anchor="middle" font-family="sans-serif" font-size="9.67741935483871" opacity="1" fill="#000000">
20.0
</text>
<polyline fill="none" opacity="1" stroke="#000000" stroke-width="1" points="305,600 305,605 "/>
<text x="356" y="610" dy="0.76em" text-anchor="middle" font-family="sans-serif" font-size="9.67741935483871" opacity="1" fill="#000000">
25.0
</text>
<polyline fill="none" opacity="1" stroke="#000000" stroke-width="1" points="356,600 356,605 "/>
<text x="408" y="610" dy="0.76em" text-anchor="middle" font-family="sans-serif" font-size="9.67741935483871" opacity="1" fill="#000000">
30.0
</text>
<polyline fill="none" opacity="1" stroke="#000000" stroke-width="1" points="408,600 408,605 "/>
<text x="459" y="610" dy="0.76em" text-anchor="middle" font-family="sans-serif" font-size="9.67741935483871" opacity="1" fill="#000000">
35.0
</text>
<polyline fill="none" opacity="1" stroke="#000000" stroke-width="1" points="459,600 459,605 "/>
<line opacity="1" stroke="#E6194B" stroke-width="1" x1="100" y1="126" x2="100" y2="130"/>
<line opacity="1" stroke="#E6194B" stroke-width="1" x1="100" y1="128" x2="133" y2="128"/>
<rect x="133" y="123" width="40" height="10" opacity="1" fill="none" stroke="#E6194B"/>
<line opacity="1" stroke="#E6194B" stroke-width="1" x1="158" y1="123" x2="158" y2="133"/>
<line opacity="1" stroke="#E6194B" stroke-width="1" x1="173" y1="128" x2="234" y2="128"/>
<line opacity="1" stroke="#E6194B" stroke-width="1" x1="234" y1="126" x2="234" y2="130"/>
<line opacity="1" stroke="#E6194B" stroke-width="1" x1="100" y1="357" x2="100" y2="361"/>
<line opacity="1" stroke="#E6194B" stroke-width="1" x1="100" y1="359" x2="142" y2="359"/>
<rect x="142" y="354" width="43" height="10" opacity="1" fill="none" stroke="#E6194B"/>
<line opacity="1" stroke="#E6194B" stroke-width="1" x1="174" y1="354" x2="174" y2="364"/>
<line opacity="1" stroke="#E6194B" stroke-width="1" x1="185" y1="359" x2="249" y2="359"/>
<line opacity="1" stroke="#E6194B" stroke-width="1" x1="249" y1="357" x2="249" y2="361"/>
<line opacity="1" stroke="#E6194B" stroke-width="1" x1="100" y1="218" x2="100" y2="222"/>
<line opacity="1" stroke="#E6194B" stroke-width="1" x1="100" y1="220" x2="136" y2="220"/>
<rect x="136" y="215" width="44" height="10" opacity="1" fill="none" stroke="#E6194B"/>
<line opacity="1" stroke="#E6194B" stroke-width="1" x1="166" y1="215" x2="166" y2="225"/>
<line opacity="1" stroke="#E6194B" stroke-width="1" x1="180" y1="220" x2="244" y2="220"/>
<line opacity="1" stroke="#E6194B" stroke-width="1" x1="244" y1="218" x2="244" y2="222"/>
<line opacity="1" stroke="#E6194B" stroke-width="1" x1="100" y1="541" x2="100" y2="545"/>
<line opacity="1" stroke="#E6194B" stroke-width="1" x1="100" y1="543" x2="228" y2="543"/>
<rect x="228" y="538" width="96" height="10" opacity="1" fill="none" stroke="#E6194B"/>
<line opacity="1" stroke="#E6194B" stroke-width="1" x1="272" y1="538" x2="272" y2="548"/>
<line opacity="1" stroke="#E6194B" stroke-width="1" x1="324" y1="543" x2="469" y2="543"/>
<line opacity="1" stroke="#E6194B" stroke-width="1" x1="469" y1="541" x2="469" y2="545"/>
<line opacity="1" stroke="#E6194B" stroke-width="1" x1="100" y1="311" x2="100" y2="315"/>
<line opacity="1" stroke="#E6194B" stroke-width="1" x1="100" y1="313" x2="143" y2="313"/>
<rect x="143" y="308" width="42" height="10" opacity="1" fill="none" stroke="#E6194B"/>
<line opacity="1" stroke="#E6194B" stroke-width="1" x1="174" y1="308" x2="174" y2="318"/>
<line opacity="1" stroke="#E6194B" stroke-width="1" x1="185" y1="313" x2="248" y2="313"/>
<line opacity="1" stroke="#E6194B" stroke-width="1" x1="248" y1="311" x2="248" y2="315"/>
<line opacity="1" stroke="#E6194B" stroke-width="1" x1="100" y1="172" x2="100" y2="176"/>
<line opacity="1" stroke="#E6194B" stroke-width="1" x1="100" y1="174" x2="141" y2="174"/>
<rect x="141" y="169" width="44" height="10" opacity="1" fill="none" stroke="#E6194B"/>
<line opacity="1" stroke="#E6194B" stroke-width="1" x1="166" y1="169" x2="166" y2="179"/>
<line opacity="1" stroke="#E6194B" stroke-width="1" x1="185" y1="174" x2="251" y2="174"/>
<line opacity="1" stroke="#E6194B" stroke-width="1" x1="251" y1="172" x2="251" y2="176"/>
<line opacity="1" stroke="#E6194B" stroke-width="1" x1="100" y1="403" x2="100" y2="407"/>
<line opacity="1" stroke="#E6194B" stroke-width="1" x1="100" y1="405" x2="164" y2="405"/>
<rect x="164" y="400" width="85" height="10" opacity="1" fill="none" stroke="#E6194B"/>
<line opacity="1" stroke="#E6194B" stroke-width="1" x1="201" y1="400" x2="201" y2="410"/>
<line opacity="1" stroke="#E6194B" stroke-width="1" x1="249" y1="405" x2="377" y2="405"/>
<line opacity="1" stroke="#E6194B" stroke-width="1" x1="377" y1="403" x2="377" y2="407"/>
<line opacity="1" stroke="#E6194B" stroke-width="1" x1="257" y1="495" x2="257" y2="499"/>
<line opacity="1" stroke="#E6194B" stroke-width="1" x1="257" y1="497" x2="263" y2="497"/>
<rect x="263" y="492" width="4" height="10" opacity="1" fill="none" stroke="#E6194B"/>
<line opacity="1" stroke="#E6194B" stroke-width="1" x1="265" y1="492" x2="265" y2="502"/>
<line opacity="1" stroke="#E6194B" stroke-width="1" x1="267" y1="497" x2="273" y2="497"/>
<line opacity="1" stroke="#E6194B" stroke-width="1" x1="273" y1="495" x2="273" y2="499"/>
<line opacity="1" stroke="#E6194B" stroke-width="1" x1="100" y1="80" x2="100" y2="84"/>
<line opacity="1" stroke="#E6194B" stroke-width="1" x1="100" y1="82" x2="131" y2="82"/>
<rect x="131" y="77" width="40" height="10" opacity="1" fill="none" stroke="#E6194B"/>
<line opacity="1" stroke="#E6194B" stroke-width="1" x1="155" y1="77" x2="155" y2="87"/>
<line opacity="1" stroke="#E6194B" stroke-width="1" x1="171" y1="82" x2="231" y2="82"/>
<line opacity="1" stroke="#E6194B" stroke-width="1" x1="231" y1="80" x2="231" y2="84"/>
<line opacity="1" stroke="#E6194B" stroke-width="1" x1="100" y1="34" x2="100" y2="38"/>
<line opacity="1" stroke="#E6194B" stroke-width="1" x1="100" y1="36" x2="130" y2="36"/>
<rect x="130" y="31" width="38" height="10" opacity="1" fill="none" stroke="#E6194B"/>
<line opacity="1" stroke="#E6194B" stroke-width="1" x1="147" y1="31" x2="147" y2="41"/>
<line opacity="1" stroke="#E6194B" stroke-width="1" x1="168" y1="36" x2="225" y2="36"/>
<line opacity="1" stroke="#E6194B" stroke-width="1" x1="225" y1="34" x2="225" y2="38"/>
<line opacity="1" stroke="#E6194B" stroke-width="1" x1="100" y1="449" x2="100" y2="453"/>
<line opacity="1" stroke="#E6194B" stroke-width="1" x1="100" y1="451" x2="195" y2="451"/>
<rect x="195" y="446" width="100" height="10" opacity="1" fill="none" stroke="#E6194B"/>
<line opacity="1" stroke="#E6194B" stroke-width="1" x1="260" y1="446" x2="260" y2="456"/>
<line opacity="1" stroke="#E6194B" stroke-width="1" x1="295" y1="451" x2="444" y2="451"/>
<line opacity="1" stroke="#E6194B" stroke-width="1" x1="444" y1="449" x2="444" y2="453"/>
<line opacity="1" stroke="#E6194B" stroke-width="1" x1="100" y1="264" x2="100" y2="268"/>
<line opacity="1" stroke="#E6194B" stroke-width="1" x1="100" y1="266" x2="145" y2="266"/>
<rect x="145" y="261" width="55" height="10" opacity="1" fill="none" stroke="#E6194B"/>
<line opacity="1" stroke="#E6194B" stroke-width="1" x1="167" y1="261" x2="167" y2="271"/>
<line opacity="1" stroke="#E6194B" stroke-width="1" x1="200" y1="266" x2="283" y2="266"/>
<line opacity="1" stroke="#E6194B" stroke-width="1" x1="283" y1="264" x2="283" y2="268"/>
<line opacity="1" stroke="#3CB44B" stroke-width="1" x1="100" y1="146" x2="100" y2="150"/>
<line opacity="1" stroke="#3CB44B" stroke-width="1" x1="100" y1="148" x2="134" y2="148"/>
<rect x="134" y="143" width="40" height="10" opacity="1" fill="none" stroke="#3CB44B"/>
<line opacity="1" stroke="#3CB44B" stroke-width="1" x1="167" y1="143" x2="167" y2="153"/>
<line opacity="1" stroke="#3CB44B" stroke-width="1" x1="174" y1="148" x2="235" y2="148"/>
<line opacity="1" stroke="#3CB44B" stroke-width="1" x1="235" y1="146" x2="235" y2="150"/>
<line opacity="1" stroke="#3CB44B" stroke-width="1" x1="100" y1="377" x2="100" y2="381"/>
<line opacity="1" stroke="#3CB44B" stroke-width="1" x1="100" y1="379" x2="143" y2="379"/>
<rect x="143" y="374" width="43" height="10" opacity="1" fill="none" stroke="#3CB44B"/>
<line opacity="1" stroke="#3CB44B" stroke-width="1" x1="174" y1="374" x2="174" y2="384"/>
<line opacity="1" stroke="#3CB44B" stroke-width="1" x1="186" y1="379" x2="250" y2="379"/>
<line opacity="1" stroke="#3CB44B" stroke-width="1" x1="250" y1="377" x2="250" y2="381"/>
<line opacity="1" stroke="#3CB44B" stroke-width="1" x1="100" y1="238" x2="100" y2="242"/>
<line opacity="1" stroke="#3CB44B" stroke-width="1" x1="100" y1="240" x2="138" y2="240"/>
<rect x="138" y="235" width="44" height="10" opacity="1" fill="none" stroke="#3CB44B"/>
<line opacity="1" stroke="#3CB44B" stroke-width="1" x1="166" y1="235" x2="166" y2="245"/>
<line opacity="1" stroke="#3CB44B" stroke-width="1" x1="182" y1="240" x2="248" y2="240"/>
<line opacity="1" stroke="#3CB44B" stroke-width="1" x1="248" y1="238" x2="248" y2="242"/>
<line opacity="1" stroke="#3CB44B" stroke-width="1" x1="101" y1="561" x2="101" y2="565"/>
<line opacity="1" stroke="#3CB44B" stroke-width="1" x1="101" y1="563" x2="165" y2="563"/>
<rect x="165" y="558" width="43" height="10" opacity="1" fill="none" stroke="#3CB44B"/>
<line opacity="1" stroke="#3CB44B" stroke-width="1" x1="184" y1="558" x2="184" y2="568"/>
<line opacity="1" stroke="#3CB44B" stroke-width="1" x1="208" y1="563" x2="273" y2="563"/>
<line opacity="1" stroke="#3CB44B" stroke-width="1" x1="273" y1="561" x2="273" y2="565"/>
<line opacity="1" stroke="#3CB44B" stroke-width="1" x1="100" y1="331" x2="100" y2="335"/>
<line opacity="1" stroke="#3CB44B" stroke-width="1" x1="100" y1="333" x2="144" y2="333"/>
<rect x="144" y="328" width="43" height="10" opacity="1" fill="none" stroke="#3CB44B"/>
<line opacity="1" stroke="#3CB44B" stroke-width="1" x1="177" y1="328" x2="177" y2="338"/>
<line opacity="1" stroke="#3CB44B" stroke-width="1" x1="187" y1="333" x2="252" y2="333"/>
<line opacity="1" stroke="#3CB44B" stroke-width="1" x1="252" y1="331" x2="252" y2="335"/>
<line opacity="1" stroke="#3CB44B" stroke-width="1" x1="100" y1="192" x2="100" y2="196"/>
<line opacity="1" stroke="#3CB44B" stroke-width="1" x1="100" y1="194" x2="141" y2="194"/>
<rect x="141" y="189" width="47" height="10" opacity="1" fill="none" stroke="#3CB44B"/>
<line opacity="1" stroke="#3CB44B" stroke-width="1" x1="168" y1="189" x2="168" y2="199"/>
<line opacity="1" stroke="#3CB44B" stroke-width="1" x1="188" y1="194" x2="259" y2="194"/>
<line opacity="1" stroke="#3CB44B" stroke-width="1" x1="259" y1="192" x2="259" y2="196"/>
<line opacity="1" stroke="#3CB44B" stroke-width="1" x1="100" y1="423" x2="100" y2="427"/>
<line opacity="1" stroke="#3CB44B" stroke-width="1" x1="100" y1="425" x2="165" y2="425"/>
<rect x="165" y="420" width="82" height="10" opacity="1" fill="none" stroke="#3CB44B"/>
<line opacity="1" stroke="#3CB44B" stroke-width="1" x1="212" y1="420" x2="212" y2="430"/>
<line opacity="1" stroke="#3CB44B" stroke-width="1" x1="247" y1="425" x2="371" y2="425"/>
<line opacity="1" stroke="#3CB44B" stroke-width="1" x1="371" y1="423" x2="371" y2="427"/>
<line opacity="1" stroke="#3CB44B" stroke-width="1" x1="264" y1="515" x2="264" y2="519"/>
<line opacity="1" stroke="#3CB44B" stroke-width="1" x1="264" y1="517" x2="270" y2="517"/>
<rect x="270" y="512" width="4" height="10" opacity="1" fill="none" stroke="#3CB44B"/>
<line opacity="1" stroke="#3CB44B" stroke-width="1" x1="271" y1="512" x2="271" y2="522"/>
<line opacity="1" stroke="#3CB44B" stroke-width="1" x1="274" y1="517" x2="280" y2="517"/>
<line opacity="1" stroke="#3CB44B" stroke-width="1" x1="280" y1="515" x2="280" y2="519"/>
<line opacity="1" stroke="#3CB44B" stroke-width="1" x1="100" y1="100" x2="100" y2="104"/>
<line opacity="1" stroke="#3CB44B" stroke-width="1" x1="100" y1="102" x2="131" y2="102"/>
<rect x="131" y="97" width="41" height="10" opacity="1" fill="none" stroke="#3CB44B"/>
<line opacity="1" stroke="#3CB44B" stroke-width="1" x1="153" y1="97" x2="153" y2="107"/>
<line opacity="1" stroke="#3CB44B" stroke-width="1" x1="172" y1="102" x2="234" y2="102"/>
<line opacity="1" stroke="#3CB44B" stroke-width="1" x1="234" y1="100" x2="234" y2="104"/>
<line opacity="1" stroke="#3CB44B" stroke-width="1" x1="100" y1="54" x2="100" y2="58"/>
<line opacity="1" stroke="#3CB44B" stroke-width="1" x1="100" y1="56" x2="131" y2="56"/>
<rect x="131" y="51" width="38" height="10" opacity="1" fill="none" stroke="#3CB44B"/>
<line opacity="1" stroke="#3CB44B" stroke-width="1" x1="146" y1="51" x2="146" y2="61"/>
<line opacity="1" stroke="#3CB44B" stroke-width="1" x1="169" y1="56" x2="226" y2="56"/>
<line opacity="1" stroke="#3CB44B" stroke-width="1" x1="226" y1="54" x2="226" y2="58"/>
<line opacity="1" stroke="#3CB44B" stroke-width="1" x1="100" y1="469" x2="100" y2="473"/>
<line opacity="1" stroke="#3CB44B" stroke-width="1" x1="100" y1="471" x2="193" y2="471"/>
<rect x="193" y="466" width="102" height="10" opacity="1" fill="none" stroke="#3CB44B"/>
<line opacity="1" stroke="#3CB44B" stroke-width="1" x1="259" y1="466" x2="259" y2="476"/>
<line opacity="1" stroke="#3CB44B" stroke-width="1" x1="295" y1="471" x2="447" y2="471"/>
<line opacity="1" stroke="#3CB44B" stroke-width="1" x1="447" y1="469" x2="447" y2="473"/>
<line opacity="1" stroke="#3CB44B" stroke-width="1" x1="100" y1="284" x2="100" y2="288"/>
<line opacity="1" stroke="#3CB44B" stroke-width="1" x1="100" y1="286" x2="148" y2="286"/>
<rect x="148" y="281" width="53" height="10" opacity="1" fill="none" stroke="#3CB44B"/>
<line opacity="1" stroke="#3CB44B" stroke-width="1" x1="177" y1="281" x2="177" y2="291"/>
<line opacity="1" stroke="#3CB44B" stroke-width="1" x1="201" y1="286" x2="281" y2="286"/>
<line opacity="1" stroke="#3CB44B" stroke-width="1" x1="281" y1="284" x2="281" y2="288"/>
<rect x="328" y="5" width="147" height="46" opacity="1" fill="#FFFFFF" stroke="none"/>
<rect x="328" y="5" width="147" height="46" opacity="0.5" fill="none" stroke="#000000"/>
<text x="360" y="15" dy="0.76em" text-anchor="start" font-family="sans-serif" font-size="9.67741935483871" opacity="1" fill="#000000">
Index URL Request
</text>
<text x="360" y="30" dy="0.76em" text-anchor="start" font-family="sans-serif" font-size="9.67741935483871" opacity="1" fill="#000000">
Pattern URL Request
</text>
<rect x="338" y="13" width="12" height="12" opacity="1" fill="#E6194B" stroke="none"/>
<rect x="338" y="28" width="12" height="12" opacity="1" fill="#3CB44B" stroke="none"/>
</svg>
