<svg width="480" height="640" viewBox="0 0 480 640" xmlns="http://www.w3.org/2000/svg">
<rect x="0" y="0" width="480" height="640" opacity="1" fill="#FFFFFF" stroke="none"/>
<line opacity="1" stroke="#FFFFFF" stroke-width="1" x1="100" y1="599" x2="100" y2="0"/>
<line opacity="1" stroke="#FFFFFF" stroke-width="1" x1="105" y1="599" x2="105" y2="0"/>
<line opacity="1" stroke="#FFFFFF" stroke-width="1" x1="111" y1="599" x2="111" y2="0"/>
<line opacity="1" stroke="#FFFFFF" stroke-width="1" x1="117" y1="599" x2="117" y2="0"/>
<line opacity="1" stroke="#FFFFFF" stroke-width="1" x1="123" y1="599" x2="123" y2="0"/>
<line opacity="1" stroke="#FFFFFF" stroke-width="1" x1="129" y1="599" x2="129" y2="0"/>
<line opacity="1" stroke="#FFFFFF" stroke-width="1" x1="135" y1="599" x2="135" y2="0"/>
<line opacity="1" stroke="#FFFFFF" stroke-width="1" x1="141" y1="599" x2="141" y2="0"/>
<line opacity="1" stroke="#FFFFFF" stroke-width="1" x1="147" y1="599" x2="147" y2="0"/>
<line opacity="1" stroke="#FFFFFF" stroke-width="1" x1="153" y1="599" x2="153" y2="0"/>
<line opacity="1" stroke="#FFFFFF" stroke-width="1" x1="159" y1="599" x2="159" y2="0"/>
<line opacity="1" stroke="#FFFFFF" stroke-width="1" x1="165" y1="599" x2="165" y2="0"/>
<line opacity="1" stroke="#FFFFFF" stroke-width="1" x1="171" y1="599" x2="171" y2="0"/>
<line opacity="1" stroke="#FFFFFF" stroke-width="1" x1="177" y1="599" x2="177" y2="0"/>
<line opacity="1" stroke="#FFFFFF" stroke-width="1" x1="183" y1="599" x2="183" y2="0"/>
<line opacity="1" stroke="#FFFFFF" stroke-width="1" x1="189" y1="599" x2="189" y2="0"/>
<line opacity="1" stroke="#FFFFFF" stroke-width="1" x1="195" y1="599" x2="195" y2="0"/>
<line opacity="1" stroke="#FFFFFF" stroke-width="1" x1="201" y1="599" x2="201" y2="0"/>
<line opacity="1" stroke="#FFFFFF" stroke-width="1" x1="207" y1="599" x2="207" y2="0"/>
<line opacity="1" stroke="#FFFFFF" stroke-width="1" x1="213" y1="599" x2="213" y2="0"/>
<line opacity="1" stroke="#FFFFFF" stroke-width="1" x1="219" y1="599" x2="219" y2="0"/>
<line opacity="1" stroke="#FFFFFF" stroke-width="1" x1="225" y1="599" x2="225" y2="0"/>
<line opacity="1" stroke="#FFFFFF" stroke-width="1" x1="231" y1="599" x2="231" y2="0"/>
<line opacity="1" stroke="#FFFFFF" stroke-width="1" x1="237" y1="599" x2="237" y2="0"/>
<line opacity="1" stroke="#FFFFFF" stroke-width="1" x1="243" y1="599" x2="243" y2="0"/>
<line opacity="1" stroke="#FFFFFF" stroke-width="1" x1="249" y1="599" x2="249" y2="0"/>
<line opacity="1" stroke="#FFFFFF" stroke-width="1" x1="255" y1="599" x2="255" y2="0"/>
<line opacity="1" stroke="#FFFFFF" stroke-width="1" x1="261" y1="599" x2="261" y2="0"/>
<line opacity="1" stroke="#FFFFFF" stroke-width="1" x1="267" y1="599" x2="267" y2="0"/>
<line opacity="1" stroke="#FFFFFF" stroke-width="1" x1="273" y1="599" x2="273" y2="0"/>
<line opacity="1" stroke="#FFFFFF" stroke-width="1" x1="279" y1="599" x2="279" y2="0"/>
<line opacity="1" stroke="#FFFFFF" stroke-width="1" x1="285" y1="599" x2="285" y2="0"/>
<line opacity="1" stroke="#FFFFFF" stroke-width="1" x1="290" y1="599" x2="290" y2="0"/>
<line opacity="1" stroke="#FFFFFF" stroke-width="1" x1="296" y1="599" x2="296" y2="0"/>
<line opacity="1" stroke="#FFFFFF" stroke-width="1" x1="302" y1="599" x2="302" y2="0"/>
<line opacity="1" stroke="#FFFFFF" stroke-width="1" x1="308" y1="599" x2="308" y2="0"/>
<line opacity="1" stroke="#FFFFFF" stroke-width="1" x1="314" y1="599" x2="314" y2="0"/>
<line opacity="1" stroke="#FFFFFF" stroke-width="1" x1="320" y1="599" x2="320" y2="0"/>
<line opacity="1" stroke="#FFFFFF" stroke-width="1" x1="326" y1="599" x2="326" y2="0"/>
<line opacity="1" stroke="#FFFFFF" stroke-width="1" x1="332" y1="599" x2="332" y2="0"/>
<line opacity="1" stroke="#FFFFFF" stroke-width="1" x1="338" y1="599" x2="338" y2="0"/>
<line opacity="1" stroke="#FFFFFF" stroke-width="1" x1="344" y1="599" x2="344" y2="0"/>
<line opacity="1" stroke="#FFFFFF" stroke-width="1" x1="350" y1="599" x2="350" y2="0"/>
<line opacity="1" stroke="#FFFFFF" stroke-width="1" x1="356" y1="599" x2="356" y2="0"/>
<line opacity="1" stroke="#FFFFFF" stroke-width="1" x1="362" y1="599" x2="362" y2="0"/>
<line opacity="1" stroke="#FFFFFF" stroke-width="1" x1="368" y1="599" x2="368" y2="0"/>
<line opacity="1" stroke="#FFFFFF" stroke-width="1" x1="374" y1="599" x2="374" y2="0"/>
<line opacity="1" stroke="#FFFFFF" stroke-width="1" x1="380" y1="599" x2="380" y2="0"/>
<line opacity="1" stroke="#FFFFFF" stroke-width="1" x1="386" y1="599" x2="386" y2="0"/>
<line opacity="1" stroke="#FFFFFF" stroke-width="1" x1="392" y1="599" x2="392" y2="0"/>
<line opacity="1" stroke="#FFFFFF" stroke-width="1" x1="398" y1="599" x2="398" y2="0"/>
<line opacity="1" stroke="#FFFFFF" stroke-width="1" x1="404" y1="599" x2="404" y2="0"/>
<line opacity="1" stroke="#FFFFFF" stroke-width="1" x1="410" y1="599" x2="410" y2="0"/>
<line opacity="1" stroke="#FFFFFF" stroke-width="1" x1="416" y1="599" x2="416" y2="0"/>
<line opacity="1" stroke="#FFFFFF" stroke-width="1" x1="422" y1="599" x2="422" y2="0"/>
<line opacity="1" stroke="#FFFFFF" stroke-width="1" x1="428" y1="599" x2="428" y2="0"/>
<line opacity="1" stroke="#FFFFFF" stroke-width="1" x1="434" y1="599" x2="434" y2="0"/>
<line opacity="1" stroke="#FFFFFF" stroke-width="1" x1="440" y1="599" x2="440" y2="0"/>
<line opacity="1" stroke="#FFFFFF" stroke-width="1" x1="446" y1="599" x2="446" y2="0"/>
<line opacity="1" stroke="#FFFFFF" stroke-width="1" x1="452" y1="599" x2="452" y2="0"/>
<line opacity="1" stroke="#FFFFFF" stroke-width="1" x1="458" y1="599" x2="458" y2="0"/>
<line opacity="1" stroke="#FFFFFF" stroke-width="1" x1="464" y1="599" x2="464" y2="0"/>
<line opacity="1" stroke="#FFFFFF" stroke-width="1" x1="470" y1="599" x2="470" y2="0"/>
<line opacity="1" stroke="#FFFFFF" stroke-width="1" x1="476" y1="599" x2="476" y2="0"/>
<line opacity="1" stroke="#FFFFFF" stroke-width="1" x1="100" y1="572" x2="479" y2="572"/>
<line opacity="1" stroke="#FFFFFF" stroke-width="1" x1="100" y1="517" x2="479" y2="517"/>
<line opacity="1" stroke="#FFFFFF" stroke-width="1" x1="100" y1="463" x2="479" y2="463"/>
<line opacity="1" stroke="#FFFFFF" stroke-width="1" x1="100" y1="408" x2="479" y2="408"/>
<line opacity="1" stroke="#FFFFFF" stroke-width="1" x1="100" y1="354" x2="479" y2="354"/>
<line opacity="1" stroke="#FFFFFF" stroke-width="1" x1="100" y1="299" x2="479" y2="299"/>
<line opacity="1" stroke="#FFFFFF" stroke-width="1" x1="100" y1="245" x2="479" y2="245"/>
<line opacity="1" stroke="#FFFFFF" stroke-width="1" x1="100" y1="190" x2="479" y2="190"/>
<line opacity="1" stroke="#FFFFFF" stroke-width="1" x1="100" y1="136" x2="479" y2="136"/>
<line opacity="1" stroke="#FFFFFF" stroke-width="1" x1="100" y1="81" x2="479" y2="81"/>
<line opacity="1" stroke="#FFFFFF" stroke-width="1" x1="100" y1="27" x2="479" y2="27"/>
<text x="0" y="300" dy="0.76em" text-anchor="middle" font-family="sans-serif" font-size="9.67741935483871" opacity="1" fill="#000000" transform="rotate(270, 0, 300)">
Language
</text>
<text x="290" y="640" dy="-0.5ex" text-anchor="middle" font-family="sans-serif" font-size="9.67741935483871" opacity="1" fill="#000000">
Response, ms
</text>
<line opacity="0.2" stroke="#000000" stroke-width="1" x1="100" y1="599" x2="100" y2="0"/>
<line opacity="0.2" stroke="#000000" stroke-width="1" x1="159" y1="599" x2="159" y2="0"/>
<line opacity="0.2" stroke="#000000" stroke-width="1" x1="219" y1="599" x2="219" y2="0"/>
<line opacity="0.2" stroke="#000000" stroke-width="1" x1="279" y1="599" x2="279" y2="0"/>
<line opacity="0.2" stroke="#000000" stroke-width="1" x1="338" y1="599" x2="338" y2="0"/>
<line opacity="0.2" stroke="#000000" stroke-width="1" x1="398" y1="599" x2="398" y2="0"/>
<line opacity="0.2" stroke="#000000" stroke-width="1" x1="458" y1="599" x2="458" y2="0"/>
<line opacity="0.2" stroke="#000000" stroke-width="1" x1="100" y1="572" x2="479" y2="572"/>
<line opacity="0.2" stroke="#000000" stroke-width="1" x1="100" y1="517" x2="479" y2="517"/>
<line opacity="0.2" stroke="#000000" stroke-width="1" x1="100" y1="463" x2="479" y2="463"/>
<line opacity="0.2" stroke="#000000" stroke-width="1" x1="100" y1="408" x2="479" y2="408"/>
<line opacity="0.2" stroke="#000000" stroke-width="1" x1="100" y1="354" x2="479" y2="354"/>
<line opacity="0.2" stroke="#000000" stroke-width="1" x1="100" y1="299" x2="479" y2="299"/>
<line opacity="0.2" stroke="#000000" stroke-width="1" x1="100" y1="245" x2="479" y2="245"/>
<line opacity="0.2" stroke="#000000" stroke-width="1" x1="100" y1="190" x2="479" y2="190"/>
<line opacity="0.2" stroke="#000000" stroke-width="1" x1="100" y1="136" x2="479" y2="136"/>
<line opacity="0.2" stroke="#000000" stroke-width="1" x1="100" y1="81" x2="479" y2="81"/>
<line opacity="0.2" stroke="#000000" stroke-width="1" x1="100" y1="27" x2="479" y2="27"/>
<polyline fill="none" opacity="1" stroke="#000000" stroke-width="1" points="99,0 99,599 "/>
<text x="90" y="572" dy="0.5ex" text-anchor="end" font-family="sans-serif" font-size="9.67741935483871" opacity="1" fill="#000000">
&quot;PyPy3/Twisted&quot;
</text>
<polyline fill="none" opacity="1" stroke="#000000" stroke-width="1" points="94,572 99,572 "/>
<text x="90" y="517" dy="0.5ex" text-anchor="end" font-family="sans-serif" font-size="9.67741935483871" opacity="1" fill="#000000">
&quot;Scala/Akka&quot;
</text>
<polyline fill="none" opacity="1" stroke="#000000" stroke-width="1" points="94,517 99,517 "/>
<text x="90" y="463" dy="0.5ex" text-anchor="end" font-family="sans-serif" font-size="9.67741935483871" opacity="1" fill="#000000">
&quot;C++/Boost.Beast&quot;
</text>
<polyline fill="none" opacity="1" stroke="#000000" stroke-width="1" points="94,463 99,463 "/>
<text x="90" y="408" dy="0.5ex" text-anchor="end" font-family="sans-serif" font-size="9.67741935483871" opacity="1" fill="#000000">
&quot;PHP/Swoole&quot;
</text>
<polyline fill="none" opacity="1" stroke="#000000" stroke-width="1" points="94,408 99,408 "/>
<text x="90" y="354" dy="0.5ex" text-anchor="end" font-family="sans-serif" font-size="9.67741935483871" opacity="1" fill="#000000">
&quot;Go&quot;
</text>
<polyline fill="none" opacity="1" stroke="#000000" stroke-width="1" points="94,354 99,354 "/>
<text x="90" y="299" dy="0.5ex" text-anchor="end" font-family="sans-serif" font-size="9.67741935483871" opacity="1" fill="#000000">
&quot;Rust/hyper-monoio&quot;
</text>
<polyline fill="none" opacity="1" stroke="#000000" stroke-width="1" points="94,299 99,299 "/>
<text x="90" y="245" dy="0.5ex" text-anchor="end" font-family="sans-serif" font-size="9.67741935483871" opacity="1" fill="#000000">
&quot;Crystal&quot;
</text>
<polyline fill="none" opacity="1" stroke="#000000" stroke-width="1" points="94,245 99,245 "/>
<text x="90" y="190" dy="0.5ex" text-anchor="end" font-family="sans-serif" font-size="9.67741935483871" opacity="1" fill="#000000">
&quot;Rust/hyper-tokio&quot;
</text>
<polyline fill="none" opacity="1" stroke="#000000" stroke-width="1" points="94,190 99,190 "/>
<text x="90" y="136" dy="0.5ex" text-anchor="end" font-family="sans-serif" font-size="9.67741935483871" opacity="1" fill="#000000">
&quot;Rust/warp&quot;
</text>
<polyline fill="none" opacity="1" stroke="#000000" stroke-width="1" points="94,136 99,136 "/>
<text x="90" y="81" dy="0.5ex" text-anchor="end" font-family="sans-serif" font-size="9.67741935483871" opacity="1" fill="#000000">
&quot;Node.js&quot;
</text>
<polyline fill="none" opacity="1" stroke="#000000" stroke-width="1" points="94,81 99,81 "/>
<text x="90" y="27" dy="0.5ex" text-anchor="end" font-family="sans-serif" font-size="9.67741935483871" opacity="1" fill="#000000">
&quot;Rust/Actix&quot;
</text>
<polyline fill="none" opacity="1" stroke="#000000" stroke-width="1" points="94,27 99,27 "/>
<polyline fill="none" opacity="1" stroke="#000000" stroke-width="1" points="100,600 479,600 "/>
<text x="100" y="610" dy="0.76em" text-anchor="middle" font-family="sans-serif" font-size="9.67741935483871" opacity="1" fill="#000000">
0.0
</text>
<polyline fill="none" opacity="1" stroke="#000000" stroke-width="1" points="100,600 100,605 "/>
<text x="159" y="610" dy="0.76em" text-anchor="middle" font-family="sans-serif" font-size="9.67741935483871" opacity="1" fill="#000000">
2.0
</text>
<polyline fill="none" opacity="1" stroke="#000000" stroke-width="1" points="159,600 159,605 "/>
<text x="219" y="610" dy="0.76em" text-anchor="middle" font-family="sans-serif" font-size="9.67741935483871" opacity="1" fill="#000000">
4.0
</text>
<polyline fill="none" opacity="1" stroke="#000000" stroke-width="1" points="219,600 219,605 "/>
<text x="279" y="610" dy="0.76em" text-anchor="middle" font-family="sans-serif" font-size="9.67741935483871" opacity="1" fill="#000000">
6.0
</text>
<polyline fill="none" opacity="1" stroke="#000000" stroke-width="1" points="279,600 279,605 "/>
<text x="338" y="610" dy="0.76em" text-anchor="middle" font-family="sans-serif" font-size="9.67741935483871" opacity="1" fill="#000000">
8.0
</text>
<polyline fill="none" opacity="1" stroke="#000000" stroke-width="1" points="338,600 338,605 "/>
<text x="398" y="610" dy="0.76em" text-anchor="middle" font-family="sans-serif" font-size="9.67741935483871" opacity="1" fill="#000000">
10.0
</text>
<polyline fill="none" opacity="1" stroke="#000000" stroke-width="1" points="398,600 398,605 "/>
<text x="458" y="610" dy="0.76em" text-anchor="middle" font-family="sans-serif" font-size="9.67741935483871" opacity="1" fill="#000000">
12.0
</text>
<polyline fill="none" opacity="1" stroke="#000000" stroke-width="1" points="458,600 458,605 "/>
<line opacity="1" stroke="#E6194B" stroke-width="1" x1="100" y1="451" x2="100" y2="455"/>
<line opacity="1" stroke="#E6194B" stroke-width="1" x1="100" y1="453" x2="132" y2="453"/>
<rect x="132" y="448" width="108" height="10" opacity="1" fill="none" stroke="#E6194B"/>
<line opacity="1" stroke="#E6194B" stroke-width="1" x1="174" y1="448" x2="174" y2="458"/>
<line opacity="1" stroke="#E6194B" stroke-width="1" x1="240" y1="453" x2="401" y2="453"/>
<line opacity="1" stroke="#E6194B" stroke-width="1" x1="401" y1="451" x2="401" y2="455"/>
<line opacity="1" stroke="#E6194B" stroke-width="1" x1="100" y1="233" x2="100" y2="237"/>
<line opacity="1" stroke="#E6194B" stroke-width="1" x1="100" y1="235" x2="114" y2="235"/>
<rect x="114" y="230" width="66" height="10" opacity="1" fill="none" stroke="#E6194B"/>
<line opacity="1" stroke="#E6194B" stroke-width="1" x1="138" y1="230" x2="138" y2="240"/>
<line opacity="1" stroke="#E6194B" stroke-width="1" x1="180" y1="235" x2="279" y2="235"/>
<line opacity="1" stroke="#E6194B" stroke-width="1" x1="279" y1="233" x2="279" y2="237"/>
<line opacity="1" stroke="#E6194B" stroke-width="1" x1="100" y1="342" x2="100" y2="346"/>
<line opacity="1" stroke="#E6194B" stroke-width="1" x1="100" y1="344" x2="123" y2="344"/>
<rect x="123" y="339" width="69" height="10" opacity="1" fill="none" stroke="#E6194B"/>
<line opacity="1" stroke="#E6194B" stroke-width="1" x1="150" y1="339" x2="150" y2="349"/>
<line opacity="1" stroke="#E6194B" stroke-width="1" x1="192" y1="344" x2="295" y2="344"/>
<line opacity="1" stroke="#E6194B" stroke-width="1" x1="295" y1="342" x2="295" y2="346"/>
<line opacity="1" stroke="#E6194B" stroke-width="1" x1="100" y1="69" x2="100" y2="73"/>
<line opacity="1" stroke="#E6194B" stroke-width="1" x1="100" y1="71" x2="117" y2="71"/>
<rect x="117" y="66" width="81" height="10" opacity="1" fill="none" stroke="#E6194B"/>
<line opacity="1" stroke="#E6194B" stroke-width="1" x1="135" y1="66" x2="135" y2="76"/>
<line opacity="1" stroke="#E6194B" stroke-width="1" x1="198" y1="71" x2="319" y2="71"/>
<line opacity="1" stroke="#E6194B" stroke-width="1" x1="319" y1="69" x2="319" y2="73"/>
<line opacity="1" stroke="#E6194B" stroke-width="1" x1="100" y1="396" x2="100" y2="400"/>
<line opacity="1" stroke="#E6194B" stroke-width="1" x1="100" y1="398" x2="123" y2="398"/>
<rect x="123" y="393" width="99" height="10" opacity="1" fill="none" stroke="#E6194B"/>
<line opacity="1" stroke="#E6194B" stroke-width="1" x1="156" y1="393" x2="156" y2="403"/>
<line opacity="1" stroke="#E6194B" stroke-width="1" x1="222" y1="398" x2="370" y2="398"/>
<line opacity="1" stroke="#E6194B" stroke-width="1" x1="370" y1="396" x2="370" y2="400"/>
<line opacity="1" stroke="#E6194B" stroke-width="1" x1="262" y1="560" x2="262" y2="564"/>
<line opacity="1" stroke="#E6194B" stroke-width="1" x1="262" y1="562" x2="276" y2="562"/>
<rect x="276" y="557" width="9" height="10" opacity="1" fill="none" stroke="#E6194B"/>
<line opacity="1" stroke="#E6194B" stroke-width="1" x1="279" y1="557" x2="279" y2="567"/>
<line opacity="1" stroke="#E6194B" stroke-width="1" x1="285" y1="562" x2="298" y2="562"/>
<line opacity="1" stroke="#E6194B" stroke-width="1" x1="298" y1="560" x2="298" y2="564"/>
<line opacity="1" stroke="#E6194B" stroke-width="1" x1="100" y1="15" x2="100" y2="19"/>
<line opacity="1" stroke="#E6194B" stroke-width="1" x1="100" y1="17" x2="114" y2="17"/>
<rect x="114" y="12" width="57" height="10" opacity="1" fill="none" stroke="#E6194B"/>
<line opacity="1" stroke="#E6194B" stroke-width="1" x1="135" y1="12" x2="135" y2="22"/>
<line opacity="1" stroke="#E6194B" stroke-width="1" x1="171" y1="17" x2="256" y2="17"/>
<line opacity="1" stroke="#E6194B" stroke-width="1" x1="256" y1="15" x2="256" y2="19"/>
<line opacity="1" stroke="#E6194B" stroke-width="1" x1="100" y1="287" x2="100" y2="291"/>
<line opacity="1" stroke="#E6194B" stroke-width="1" x1="100" y1="289" x2="117" y2="289"/>
<rect x="117" y="284" width="78" height="10" opacity="1" fill="none" stroke="#E6194B"/>
<line opacity="1" stroke="#E6194B" stroke-width="1" x1="147" y1="284" x2="147" y2="294"/>
<line opacity="1" stroke="#E6194B" stroke-width="1" x1="195" y1="289" x2="311" y2="289"/>
<line opacity="1" stroke="#E6194B" stroke-width="1" x1="311" y1="287" x2="311" y2="291"/>
<line opacity="1" stroke="#E6194B" stroke-width="1" x1="100" y1="178" x2="100" y2="182"/>
<line opacity="1" stroke="#E6194B" stroke-width="1" x1="100" y1="180" x2="117" y2="180"/>
<rect x="117" y="175" width="54" height="10" opacity="1" fill="none" stroke="#E6194B"/>
<line opacity="1" stroke="#E6194B" stroke-width="1" x1="138" y1="175" x2="138" y2="185"/>
<line opacity="1" stroke="#E6194B" stroke-width="1" x1="171" y1="180" x2="252" y2="180"/>
<line opacity="1" stroke="#E6194B" stroke-width="1" x1="252" y1="178" x2="252" y2="182"/>
<line opacity="1" stroke="#E6194B" stroke-width="1" x1="100" y1="124" x2="100" y2="128"/>
<line opacity="1" stroke="#E6194B" stroke-width="1" x1="100" y1="126" x2="117" y2="126"/>
<rect x="117" y="121" width="42" height="10" opacity="1" fill="none" stroke="#E6194B"/>
<line opacity="1" stroke="#E6194B" stroke-width="1" x1="138" y1="121" x2="138" y2="131"/>
<line opacity="1" stroke="#E6194B" stroke-width="1" x1="159" y1="126" x2="222" y2="126"/>
<line opacity="1" stroke="#E6194B" stroke-width="1" x1="222" y1="124" x2="222" y2="128"/>
<line opacity="1" stroke="#E6194B" stroke-width="1" x1="100" y1="505" x2="100" y2="509"/>
<line opacity="1" stroke="#E6194B" stroke-width="1" x1="100" y1="507" x2="147" y2="507"/>
<rect x="147" y="502" width="111" height="10" opacity="1" fill="none" stroke="#E6194B"/>
<line opacity="1" stroke="#E6194B" stroke-width="1" x1="189" y1="502" x2="189" y2="512"/>
<line opacity="1" stroke="#E6194B" stroke-width="1" x1="258" y1="507" x2="423" y2="507"/>
<line opacity="1" stroke="#E6194B" stroke-width="1" x1="423" y1="505" x2="423" y2="509"/>
<line opacity="1" stroke="#3CB44B" stroke-width="1" x1="100" y1="471" x2="100" y2="475"/>
<line opacity="1" stroke="#3CB44B" stroke-width="1" x1="100" y1="473" x2="135" y2="473"/>
<rect x="135" y="468" width="126" height="10" opacity="1" fill="none" stroke="#3CB44B"/>
<line opacity="1" stroke="#3CB44B" stroke-width="1" x1="180" y1="468" x2="180" y2="478"/>
<line opacity="1" stroke="#3CB44B" stroke-width="1" x1="261" y1="473" x2="449" y2="473"/>
<line opacity="1" stroke="#3CB44B" stroke-width="1" x1="449" y1="471" x2="449" y2="475"/>
<line opacity="1" stroke="#3CB44B" stroke-width="1" x1="100" y1="253" x2="100" y2="257"/>
<line opacity="1" stroke="#3CB44B" stroke-width="1" x1="100" y1="255" x2="120" y2="255"/>
<rect x="120" y="250" width="72" height="10" opacity="1" fill="none" stroke="#3CB44B"/>
<line opacity="1" stroke="#3CB44B" stroke-width="1" x1="144" y1="250" x2="144" y2="260"/>
<line opacity="1" stroke="#3CB44B" stroke-width="1" x1="192" y1="255" x2="299" y2="255"/>
<line opacity="1" stroke="#3CB44B" stroke-width="1" x1="299" y1="253" x2="299" y2="257"/>
<line opacity="1" stroke="#3CB44B" stroke-width="1" x1="100" y1="362" x2="100" y2="366"/>
<line opacity="1" stroke="#3CB44B" stroke-width="1" x1="100" y1="364" x2="123" y2="364"/>
<rect x="123" y="359" width="87" height="10" opacity="1" fill="none" stroke="#3CB44B"/>
<line opacity="1" stroke="#3CB44B" stroke-width="1" x1="156" y1="359" x2="156" y2="369"/>
<line opacity="1" stroke="#3CB44B" stroke-width="1" x1="210" y1="364" x2="340" y2="364"/>
<line opacity="1" stroke="#3CB44B" stroke-width="1" x1="340" y1="362" x2="340" y2="366"/>
<line opacity="1" stroke="#3CB44B" stroke-width="1" x1="100" y1="89" x2="100" y2="93"/>
<line opacity="1" stroke="#3CB44B" stroke-width="1" x1="100" y1="91" x2="117" y2="91"/>
<rect x="117" y="86" width="99" height="10" opacity="1" fill="none" stroke="#3CB44B"/>
<line opacity="1" stroke="#3CB44B" stroke-width="1" x1="141" y1="86" x2="141" y2="96"/>
<line opacity="1" stroke="#3CB44B" stroke-width="1" x1="216" y1="91" x2="364" y2="91"/>
<line opacity="1" stroke="#3CB44B" stroke-width="1" x1="364" y1="89" x2="364" y2="93"/>
<line opacity="1" stroke="#3CB44B" stroke-width="1" x1="100" y1="416" x2="100" y2="420"/>
<line opacity="1" stroke="#3CB44B" stroke-width="1" x1="100" y1="418" x2="126" y2="418"/>
<rect x="126" y="413" width="90" height="10" opacity="1" fill="none" stroke="#3CB44B"/>
<line opacity="1" stroke="#3CB44B" stroke-width="1" x1="159" y1="413" x2="159" y2="423"/>
<line opacity="1" stroke="#3CB44B" stroke-width="1" x1="216" y1="418" x2="350" y2="418"/>
<line opacity="1" stroke="#3CB44B" stroke-width="1" x1="350" y1="416" x2="350" y2="420"/>
<line opacity="1" stroke="#3CB44B" stroke-width="1" x1="268" y1="580" x2="268" y2="584"/>
<line opacity="1" stroke="#3CB44B" stroke-width="1" x1="268" y1="582" x2="282" y2="582"/>
<rect x="282" y="577" width="8" height="10" opacity="1" fill="none" stroke="#3CB44B"/>
<line opacity="1" stroke="#3CB44B" stroke-width="1" x1="288" y1="577" x2="288" y2="587"/>
<line opacity="1" stroke="#3CB44B" stroke-width="1" x1="290" y1="582" x2="304" y2="582"/>
<line opacity="1" stroke="#3CB44B" stroke-width="1" x1="304" y1="580" x2="304" y2="584"/>
<line opacity="1" stroke="#3CB44B" stroke-width="1" x1="100" y1="35" x2="100" y2="39"/>
<line opacity="1" stroke="#3CB44B" stroke-width="1" x1="100" y1="37" x2="123" y2="37"/>
<rect x="123" y="32" width="72" height="10" opacity="1" fill="none" stroke="#3CB44B"/>
<line opacity="1" stroke="#3CB44B" stroke-width="1" x1="153" y1="32" x2="153" y2="42"/>
<line opacity="1" stroke="#3CB44B" stroke-width="1" x1="195" y1="37" x2="302" y2="37"/>
<line opacity="1" stroke="#3CB44B" stroke-width="1" x1="302" y1="35" x2="302" y2="39"/>
<line opacity="1" stroke="#3CB44B" stroke-width="1" x1="100" y1="307" x2="100" y2="311"/>
<line opacity="1" stroke="#3CB44B" stroke-width="1" x1="100" y1="309" x2="117" y2="309"/>
<rect x="117" y="304" width="66" height="10" opacity="1" fill="none" stroke="#3CB44B"/>
<line opacity="1" stroke="#3CB44B" stroke-width="1" x1="144" y1="304" x2="144" y2="314"/>
<line opacity="1" stroke="#3CB44B" stroke-width="1" x1="183" y1="309" x2="282" y2="309"/>
<line opacity="1" stroke="#3CB44B" stroke-width="1" x1="282" y1="307" x2="282" y2="311"/>
<line opacity="1" stroke="#3CB44B" stroke-width="1" x1="100" y1="198" x2="100" y2="202"/>
<line opacity="1" stroke="#3CB44B" stroke-width="1" x1="100" y1="200" x2="120" y2="200"/>
<rect x="120" y="195" width="42" height="10" opacity="1" fill="none" stroke="#3CB44B"/>
<line opacity="1" stroke="#3CB44B" stroke-width="1" x1="138" y1="195" x2="138" y2="205"/>
<line opacity="1" stroke="#3CB44B" stroke-width="1" x1="162" y1="200" x2="225" y2="200"/>
<line opacity="1" stroke="#3CB44B" stroke-width="1" x1="225" y1="198" x2="225" y2="202"/>
<line opacity="1" stroke="#3CB44B" stroke-width="1" x1="100" y1="144" x2="100" y2="148"/>
<line opacity="1" stroke="#3CB44B" stroke-width="1" x1="100" y1="146" x2="117" y2="146"/>
<rect x="117" y="141" width="54" height="10" opacity="1" fill="none" stroke="#3CB44B"/>
<line opacity="1" stroke="#3CB44B" stroke-width="1" x1="138" y1="141" x2="138" y2="151"/>
<line opacity="1" stroke="#3CB44B" stroke-width="1" x1="171" y1="146" x2="252" y2="146"/>
<line opacity="1" stroke="#3CB44B" stroke-width="1" x1="252" y1="144" x2="252" y2="148"/>
<line opacity="1" stroke="#3CB44B" stroke-width="1" x1="100" y1="525" x2="100" y2="529"/>
<line opacity="1" stroke="#3CB44B" stroke-width="1" x1="100" y1="527" x2="156" y2="527"/>
<rect x="156" y="522" width="105" height="10" opacity="1" fill="none" stroke="#3CB44B"/>
<line opacity="1" stroke="#3CB44B" stroke-width="1" x1="198" y1="522" x2="198" y2="532"/>
<line opacity="1" stroke="#3CB44B" stroke-width="1" x1="261" y1="527" x2="417" y2="527"/>
<line opacity="1" stroke="#3CB44B" stroke-width="1" x1="417" y1="525" x2="417" y2="529"/>
<rect x="334" y="5" width="141" height="44" opacity="1" fill="#FFFFFF" stroke="none"/>
<rect x="334" y="5" width="141" height="44" opacity="0.5" fill="none" stroke="#000000"/>
<text x="366" y="15" dy="0.76em" text-anchor="start" font-family="sans-serif" font-size="9.67741935483871" opacity="1" fill="#000000">
Index URL Request
</text>
<text x="366" y="30" dy="0.76em" text-anchor="start" font-family="sans-serif" font-size="9.67741935483871" opacity="1" fill="#000000">
Pattern URL Request
</text>
<rect x="344" y="12" width="12" height="12" opacity="1" fill="#E6194B" stroke="none"/>
<rect x="344" y="27" width="12" height="12" opacity="1" fill="#3CB44B" stroke="none"/>
</svg>
