<svg width="480" height="640" viewBox="0 0 480 640" xmlns="http://www.w3.org/2000/svg">
<rect x="0" y="0" width="480" height="640" opacity="1" fill="#FFFFFF" stroke="none"/>
<line opacity="1" stroke="#FFFFFF" stroke-width="1" x1="100" y1="599" x2="100" y2="0"/>
<line opacity="1" stroke="#FFFFFF" stroke-width="1" x1="103" y1="599" x2="103" y2="0"/>
<line opacity="1" stroke="#FFFFFF" stroke-width="1" x1="107" y1="599" x2="107" y2="0"/>
<line opacity="1" stroke="#FFFFFF" stroke-width="1" x1="110" y1="599" x2="110" y2="0"/>
<line opacity="1" stroke="#FFFFFF" stroke-width="1" x1="114" y1="599" x2="114" y2="0"/>
<line opacity="1" stroke="#FFFFFF" stroke-width="1" x1="118" y1="599" x2="118" y2="0"/>
<line opacity="1" stroke="#FFFFFF" stroke-width="1" x1="121" y1="599" x2="121" y2="0"/>
<line opacity="1" stroke="#FFFFFF" stroke-width="1" x1="125" y1="599" x2="125" y2="0"/>
<line opacity="1" stroke="#FFFFFF" stroke-width="1" x1="129" y1="599" x2="129" y2="0"/>
<line opacity="1" stroke="#FFFFFF" stroke-width="1" x1="132" y1="599" x2="132" y2="0"/>
<line opacity="1" stroke="#FFFFFF" stroke-width="1" x1="136" y1="599" x2="136" y2="0"/>
<line opacity="1" stroke="#FFFFFF" stroke-width="1" x1="140" y1="599" x2="140" y2="0"/>
<line opacity="1" stroke="#FFFFFF" stroke-width="1" x1="143" y1="599" x2="143" y2="0"/>
<line opacity="1" stroke="#FFFFFF" stroke-width="1" x1="147" y1="599" x2="147" y2="0"/>
<line opacity="1" stroke="#FFFFFF" stroke-width="1" x1="151" y1="599" x2="151" y2="0"/>
<line opacity="1" stroke="#FFFFFF" stroke-width="1" x1="154" y1="599" x2="154" y2="0"/>
<line opacity="1" stroke="#FFFFFF" stroke-width="1" x1="158" y1="599" x2="158" y2="0"/>
<line opacity="1" stroke="#FFFFFF" stroke-width="1" x1="161" y1="599" x2="161" y2="0"/>
<line opacity="1" stroke="#FFFFFF" stroke-width="1" x1="165" y1="599" x2="165" y2="0"/>
<line opacity="1" stroke="#FFFFFF" stroke-width="1" x1="169" y1="599" x2="169" y2="0"/>
<line opacity="1" stroke="#FFFFFF" stroke-width="1" x1="172" y1="599" x2="172" y2="0"/>
<line opacity="1" stroke="#FFFFFF" stroke-width="1" x1="176" y1="599" x2="176" y2="0"/>
<line opacity="1" stroke="#FFFFFF" stroke-width="1" x1="180" y1="599" x2="180" y2="0"/>
<line opacity="1" stroke="#FFFFFF" stroke-width="1" x1="183" y1="599" x2="183" y2="0"/>
<line opacity="1" stroke="#FFFFFF" stroke-width="1" x1="187" y1="599" x2="187" y2="0"/>
<line opacity="1" stroke="#FFFFFF" stroke-width="1" x1="191" y1="599" x2="191" y2="0"/>
<line opacity="1" stroke="#FFFFFF" stroke-width="1" x1="194" y1="599" x2="194" y2="0"/>
<line opacity="1" stroke="#FFFFFF" stroke-width="1" x1="198" y1="599" x2="198" y2="0"/>
<line opacity="1" stroke="#FFFFFF" stroke-width="1" x1="202" y1="599" x2="202" y2="0"/>
<line opacity="1" stroke="#FFFFFF" stroke-width="1" x1="205" y1="599" x2="205" y2="0"/>
<line opacity="1" stroke="#FFFFFF" stroke-width="1" x1="209" y1="599" x2="209" y2="0"/>
<line opacity="1" stroke="#FFFFFF" stroke-width="1" x1="212" y1="599" x2="212" y2="0"/>
<line opacity="1" stroke="#FFFFFF" stroke-width="1" x1="216" y1="599" x2="216" y2="0"/>
<line opacity="1" stroke="#FFFFFF" stroke-width="1" x1="220" y1="599" x2="220" y2="0"/>
<line opacity="1" stroke="#FFFFFF" stroke-width="1" x1="223" y1="599" x2="223" y2="0"/>
<line opacity="1" stroke="#FFFFFF" stroke-width="1" x1="227" y1="599" x2="227" y2="0"/>
<line opacity="1" stroke="#FFFFFF" stroke-width="1" x1="231" y1="599" x2="231" y2="0"/>
<line opacity="1" stroke="#FFFFFF" stroke-width="1" x1="234" y1="599" x2="234" y2="0"/>
<line opacity="1" stroke="#FFFFFF" stroke-width="1" x1="238" y1="599" x2="238" y2="0"/>
<line opacity="1" stroke="#FFFFFF" stroke-width="1" x1="242" y1="599" x2="242" y2="0"/>
<line opacity="1" stroke="#FFFFFF" stroke-width="1" x1="245" y1="599" x2="245" y2="0"/>
<line opacity="1" stroke="#FFFFFF" stroke-width="1" x1="249" y1="599" x2="249" y2="0"/>
<line opacity="1" stroke="#FFFFFF" stroke-width="1" x1="253" y1="599" x2="253" y2="0"/>
<line opacity="1" stroke="#FFFFFF" stroke-width="1" x1="256" y1="599" x2="256" y2="0"/>
<line opacity="1" stroke="#FFFFFF" stroke-width="1" x1="260" y1="599" x2="260" y2="0"/>
<line opacity="1" stroke="#FFFFFF" stroke-width="1" x1="263" y1="599" x2="263" y2="0"/>
<line opacity="1" stroke="#FFFFFF" stroke-width="1" x1="267" y1="599" x2="267" y2="0"/>
<line opacity="1" stroke="#FFFFFF" stroke-width="1" x1="271" y1="599" x2="271" y2="0"/>
<line opacity="1" stroke="#FFFFFF" stroke-width="1" x1="274" y1="599" x2="274" y2="0"/>
<line opacity="1" stroke="#FFFFFF" stroke-width="1" x1="278" y1="599" x2="278" y2="0"/>
<line opacity="1" stroke="#FFFFFF" stroke-width="1" x1="282" y1="599" x2="282" y2="0"/>
<line opacity="1" stroke="#FFFFFF" stroke-width="1" x1="285" y1="599" x2="285" y2="0"/>
<line opacity="1" stroke="#FFFFFF" stroke-width="1" x1="289" y1="599" x2="289" y2="0"/>
<line opacity="1" stroke="#FFFFFF" stroke-width="1" x1="293" y1="599" x2="293" y2="0"/>
<line opacity="1" stroke="#FFFFFF" stroke-width="1" x1="296" y1="599" x2="296" y2="0"/>
<line opacity="1" stroke="#FFFFFF" stroke-width="1" x1="300" y1="599" x2="300" y2="0"/>
<line opacity="1" stroke="#FFFFFF" stroke-width="1" x1="304" y1="599" x2="304" y2="0"/>
<line opacity="1" stroke="#FFFFFF" stroke-width="1" x1="307" y1="599" x2="307" y2="0"/>
<line opacity="1" stroke="#FFFFFF" stroke-width="1" x1="311" y1="599" x2="311" y2="0"/>
<line opacity="1" stroke="#FFFFFF" stroke-width="1" x1="315" y1="599" x2="315" y2="0"/>
<line opacity="1" stroke="#FFFFFF" stroke-width="1" x1="318" y1="599" x2="318" y2="0"/>
<line opacity="1" stroke="#FFFFFF" stroke-width="1" x1="322" y1="599" x2="322" y2="0"/>
<line opacity="1" stroke="#FFFFFF" stroke-width="1" x1="325" y1="599" x2="325" y2="0"/>
<line opacity="1" stroke="#FFFFFF" stroke-width="1" x1="329" y1="599" x2="329" y2="0"/>
<line opacity="1" stroke="#FFFFFF" stroke-width="1" x1="333" y1="599" x2="333" y2="0"/>
<line opacity="1" stroke="#FFFFFF" stroke-width="1" x1="336" y1="599" x2="336" y2="0"/>
<line opacity="1" stroke="#FFFFFF" stroke-width="1" x1="340" y1="599" x2="340" y2="0"/>
<line opacity="1" stroke="#FFFFFF" stroke-width="1" x1="344" y1="599" x2="344" y2="0"/>
<line opacity="1" stroke="#FFFFFF" stroke-width="1" x1="347" y1="599" x2="347" y2="0"/>
<line opacity="1" stroke="#FFFFFF" stroke-width="1" x1="351" y1="599" x2="351" y2="0"/>
<line opacity="1" stroke="#FFFFFF" stroke-width="1" x1="355" y1="599" x2="355" y2="0"/>
<line opacity="1" stroke="#FFFFFF" stroke-width="1" x1="358" y1="599" x2="358" y2="0"/>
<line opacity="1" stroke="#FFFFFF" stroke-width="1" x1="362" y1="599" x2="362" y2="0"/>
<line opacity="1" stroke="#FFFFFF" stroke-width="1" x1="366" y1="599" x2="366" y2="0"/>
<line opacity="1" stroke="#FFFFFF" stroke-width="1" x1="369" y1="599" x2="369" y2="0"/>
<line opacity="1" stroke="#FFFFFF" stroke-width="1" x1="373" y1="599" x2="373" y2="0"/>
<line opacity="1" stroke="#FFFFFF" stroke-width="1" x1="376" y1="599" x2="376" y2="0"/>
<line opacity="1" stroke="#FFFFFF" stroke-width="1" x1="380" y1="599" x2="380" y2="0"/>
<line opacity="1" stroke="#FFFFFF" stroke-width="1" x1="384" y1="599" x2="384" y2="0"/>
<line opacity="1" stroke="#FFFFFF" stroke-width="1" x1="387" y1="599" x2="387" y2="0"/>
<line opacity="1" stroke="#FFFFFF" stroke-width="1" x1="391" y1="599" x2="391" y2="0"/>
<line opacity="1" stroke="#FFFFFF" stroke-width="1" x1="395" y1="599" x2="395" y2="0"/>
<line opacity="1" stroke="#FFFFFF" stroke-width="1" x1="398" y1="599" x2="398" y2="0"/>
<line opacity="1" stroke="#FFFFFF" stroke-width="1" x1="402" y1="599" x2="402" y2="0"/>
<line opacity="1" stroke="#FFFFFF" stroke-width="1" x1="406" y1="599" x2="406" y2="0"/>
<line opacity="1" stroke="#FFFFFF" stroke-width="1" x1="409" y1="599" x2="409" y2="0"/>
<line opacity="1" stroke="#FFFFFF" stroke-width="1" x1="413" y1="599" x2="413" y2="0"/>
<line opacity="1" stroke="#FFFFFF" stroke-width="1" x1="417" y1="599" x2="417" y2="0"/>
<line opacity="1" stroke="#FFFFFF" stroke-width="1" x1="420" y1="599" x2="420" y2="0"/>
<line opacity="1" stroke="#FFFFFF" stroke-width="1" x1="424" y1="599" x2="424" y2="0"/>
<line opacity="1" stroke="#FFFFFF" stroke-width="1" x1="427" y1="599" x2="427" y2="0"/>
<line opacity="1" stroke="#FFFFFF" stroke-width="1" x1="431" y1="599" x2="431" y2="0"/>
<line opacity="1" stroke="#FFFFFF" stroke-width="1" x1="435" y1="599" x2="435" y2="0"/>
<line opacity="1" stroke="#FFFFFF" stroke-width="1" x1="438" y1="599" x2="438" y2="0"/>
<line opacity="1" stroke="#FFFFFF" stroke-width="1" x1="442" y1="599" x2="442" y2="0"/>
<line opacity="1" stroke="#FFFFFF" stroke-width="1" x1="446" y1="599" x2="446" y2="0"/>
<line opacity="1" stroke="#FFFFFF" stroke-width="1" x1="449" y1="599" x2="449" y2="0"/>
<line opacity="1" stroke="#FFFFFF" stroke-width="1" x1="453" y1="599" x2="453" y2="0"/>
<line opacity="1" stroke="#FFFFFF" stroke-width="1" x1="457" y1="599" x2="457" y2="0"/>
<line opacity="1" stroke="#FFFFFF" stroke-width="1" x1="460" y1="599" x2="460" y2="0"/>
<line opacity="1" stroke="#FFFFFF" stroke-width="1" x1="464" y1="599" x2="464" y2="0"/>
<line opacity="1" stroke="#FFFFFF" stroke-width="1" x1="468" y1="599" x2="468" y2="0"/>
<line opacity="1" stroke="#FFFFFF" stroke-width="1" x1="471" y1="599" x2="471" y2="0"/>
<line opacity="1" stroke="#FFFFFF" stroke-width="1" x1="475" y1="599" x2="475" y2="0"/>
<line opacity="1" stroke="#FFFFFF" stroke-width="1" x1="100" y1="574" x2="479" y2="574"/>
<line opacity="1" stroke="#FFFFFF" stroke-width="1" x1="100" y1="524" x2="479" y2="524"/>
<line opacity="1" stroke="#FFFFFF" stroke-width="1" x1="100" y1="474" x2="479" y2="474"/>
<line opacity="1" stroke="#FFFFFF" stroke-width="1" x1="100" y1="424" x2="479" y2="424"/>
<line opacity="1" stroke="#FFFFFF" stroke-width="1" x1="100" y1="374" x2="479" y2="374"/>
<line opacity="1" stroke="#FFFFFF" stroke-width="1" x1="100" y1="324" x2="479" y2="324"/>
<line opacity="1" stroke="#FFFFFF" stroke-width="1" x1="100" y1="275" x2="479" y2="275"/>
<line opacity="1" stroke="#FFFFFF" stroke-width="1" x1="100" y1="225" x2="479" y2="225"/>
<line opacity="1" stroke="#FFFFFF" stroke-width="1" x1="100" y1="175" x2="479" y2="175"/>
<line opacity="1" stroke="#FFFFFF" stroke-width="1" x1="100" y1="125" x2="479" y2="125"/>
<line opacity="1" stroke="#FFFFFF" stroke-width="1" x1="100" y1="75" x2="479" y2="75"/>
<line opacity="1" stroke="#FFFFFF" stroke-width="1" x1="100" y1="25" x2="479" y2="25"/>
<text x="0" y="300" dy="0.76em" text-anchor="middle" font-family="sans-serif" font-size="9.67741935483871" opacity="1" fill="#000000" transform="rotate(270, 0, 300)">
Language
</text>
<text x="290" y="640" dy="-0.5ex" text-anchor="middle" font-family="sans-serif" font-size="9.67741935483871" opacity="1" fill="#000000">
Response, ms
</text>
<line opacity="0.2" stroke="#000000" stroke-width="1" x1="100" y1="599" x2="100" y2="0"/>
<line opacity="0.2" stroke="#000000" stroke-width="1" x1="136" y1="599" x2="136" y2="0"/>
<line opacity="0.2" stroke="#000000" stroke-width="1" x1="172" y1="599" x2="172" y2="0"/>
<line opacity="0.2" stroke="#000000" stroke-width="1" x1="209" y1="599" x2="209" y2="0"/>
<line opacity="0.2" stroke="#000000" stroke-width="1" x1="245" y1="599" x2="245" y2="0"/>
<line opacity="0.2" stroke="#000000" stroke-width="1" x1="282" y1="599" x2="282" y2="0"/>
<line opacity="0.2" stroke="#000000" stroke-width="1" x1="318" y1="599" x2="318" y2="0"/>
<line opacity="0.2" stroke="#000000" stroke-width="1" x1="355" y1="599" x2="355" y2="0"/>
<line opacity="0.2" stroke="#000000" stroke-width="1" x1="391" y1="599" x2="391" y2="0"/>
<line opacity="0.2" stroke="#000000" stroke-width="1" x1="427" y1="599" x2="427" y2="0"/>
<line opacity="0.2" stroke="#000000" stroke-width="1" x1="464" y1="599" x2="464" y2="0"/>
<line opacity="0.2" stroke="#000000" stroke-width="1" x1="100" y1="574" x2="479" y2="574"/>
<line opacity="0.2" stroke="#000000" stroke-width="1" x1="100" y1="524" x2="479" y2="524"/>
<line opacity="0.2" stroke="#000000" stroke-width="1" x1="100" y1="474" x2="479" y2="474"/>
<line opacity="0.2" stroke="#000000" stroke-width="1" x1="100" y1="424" x2="479" y2="424"/>
<line opacity="0.2" stroke="#000000" stroke-width="1" x1="100" y1="374" x2="479" y2="374"/>
<line opacity="0.2" stroke="#000000" stroke-width="1" x1="100" y1="324" x2="479" y2="324"/>
<line opacity="0.2" stroke="#000000" stroke-width="1" x1="100" y1="275" x2="479" y2="275"/>
<line opacity="0.2" stroke="#000000" stroke-width="1" x1="100" y1="225" x2="479" y2="225"/>
<line opacity="0.2" stroke="#000000" stroke-width="1" x1="100" y1="175" x2="479" y2="175"/>
<line opacity="0.2" stroke="#000000" stroke-width="1" x1="100" y1="125" x2="479" y2="125"/>
<line opacity="0.2" stroke="#000000" stroke-width="1" x1="100" y1="75" x2="479" y2="75"/>
<line opacity="0.2" stroke="#000000" stroke-width="1" x1="100" y1="25" x2="479" y2="25"/>
<polyline fill="none" opacity="1" stroke="#000000" stroke-width="1" points="99,0 99,599 "/>
<text x="90" y="574" dy="0.5ex" text-anchor="end" font-family="sans-serif" font-size="9.67741935483871" opacity="1" fill="#000000">
&quot;PyPy3/Twisted&quot;
</text>
<polyline fill="none" opacity="1" stroke="#000000" stroke-width="1" points="94,574 99,574 "/>
<text x="90" y="524" dy="0.5ex" text-anchor="end" font-family="sans-serif" font-size="9.67741935483871" opacity="1" fill="#000000">
&quot;D/Serverino&quot;
</text>
<polyline fill="none" opacity="1" stroke="#000000" stroke-width="1" points="94,524 99,524 "/>
<text x="90" y="474" dy="0.5ex" text-anchor="end" font-family="sans-serif" font-size="9.67741935483871" opacity="1" fill="#000000">
&quot;Node.js&quot;
</text>
<polyline fill="none" opacity="1" stroke="#000000" stroke-width="1" points="94,474 99,474 "/>
<text x="90" y="424" dy="0.5ex" text-anchor="end" font-family="sans-serif" font-size="9.67741935483871" opacity="1" fill="#000000">
&quot;D/Vibe.D&quot;
</text>
<polyline fill="none" opacity="1" stroke="#000000" stroke-width="1" points="94,424 99,424 "/>
<text x="90" y="374" dy="0.5ex" text-anchor="end" font-family="sans-serif" font-size="9.67741935483871" opacity="1" fill="#000000">
&quot;PHP/Swoole&quot;
</text>
<polyline fill="none" opacity="1" stroke="#000000" stroke-width="1" points="94,374 99,374 "/>
<text x="90" y="324" dy="0.5ex" text-anchor="end" font-family="sans-serif" font-size="9.67741935483871" opacity="1" fill="#000000">
&quot;Rust/Rocket&quot;
</text>
<polyline fill="none" opacity="1" stroke="#000000" stroke-width="1" points="94,324 99,324 "/>
<text x="90" y="275" dy="0.5ex" text-anchor="end" font-family="sans-serif" font-size="9.67741935483871" opacity="1" fill="#000000">
&quot;Go&quot;
</text>
<polyline fill="none" opacity="1" stroke="#000000" stroke-width="1" points="94,275 99,275 "/>
<text x="90" y="225" dy="0.5ex" text-anchor="end" font-family="sans-serif" font-size="9.67741935483871" opacity="1" fill="#000000">
&quot;Crystal&quot;
</text>
<polyline fill="none" opacity="1" stroke="#000000" stroke-width="1" points="94,225 99,225 "/>
<text x="90" y="175" dy="0.5ex" text-anchor="end" font-family="sans-serif" font-size="9.67741935483871" opacity="1" fill="#000000">
&quot;Rust/Actix&quot;
</text>
<polyline fill="none" opacity="1" stroke="#000000" stroke-width="1" points="94,175 99,175 "/>
<text x="90" y="125" dy="0.5ex" text-anchor="end" font-family="sans-serif" font-size="9.67741935483871" opacity="1" fill="#000000">
&quot;Rust/hyper-tokio&quot;
</text>
<polyline fill="none" opacity="1" stroke="#000000" stroke-width="1" points="94,125 99,125 "/>
<text x="90" y="75" dy="0.5ex" text-anchor="end" font-family="sans-serif" font-size="9.67741935483871" opacity="1" fill="#000000">
&quot;Rust/warp&quot;
</text>
<polyline fill="none" opacity="1" stroke="#000000" stroke-width="1" points="94,75 99,75 "/>
<text x="90" y="25" dy="0.5ex" text-anchor="end" font-family="sans-serif" font-size="9.67741935483871" opacity="1" fill="#000000">
&quot;Rust/hyper-monoio&quot;
</text>
<polyline fill="none" opacity="1" stroke="#000000" stroke-width="1" points="94,25 99,25 "/>
<polyline fill="none" opacity="1" stroke="#000000" stroke-width="1" points="100,600 479,600 "/>
<text x="100" y="610" dy="0.76em" text-anchor="middle" font-family="sans-serif" font-size="9.67741935483871" opacity="1" fill="#000000">
0.0
</text>
<polyline fill="none" opacity="1" stroke="#000000" stroke-width="1" points="100,600 100,605 "/>
<text x="136" y="610" dy="0.76em" text-anchor="middle" font-family="sans-serif" font-size="9.67741935483871" opacity="1" fill="#000000">
1.0
</text>
<polyline fill="none" opacity="1" stroke="#000000" stroke-width="1" points="136,600 136,605 "/>
<text x="172" y="610" dy="0.76em" text-anchor="middle" font-family="sans-serif" font-size="9.67741935483871" opacity="1" fill="#000000">
2.0
</text>
<polyline fill="none" opacity="1" stroke="#000000" stroke-width="1" points="172,600 172,605 "/>
<text x="209" y="610" dy="0.76em" text-anchor="middle" font-family="sans-serif" font-size="9.67741935483871" opacity="1" fill="#000000">
3.0
</text>
<polyline fill="none" opacity="1" stroke="#000000" stroke-width="1" points="209,600 209,605 "/>
<text x="245" y="610" dy="0.76em" text-anchor="middle" font-family="sans-serif" font-size="9.67741935483871" opacity="1" fill="#000000">
4.0
</text>
<polyline fill="none" opacity="1" stroke="#000000" stroke-width="1" points="245,600 245,605 "/>
<text x="282" y="610" dy="0.76em" text-anchor="middle" font-family="sans-serif" font-size="9.67741935483871" opacity="1" fill="#000000">
5.0
</text>
<polyline fill="none" opacity="1" stroke="#000000" stroke-width="1" points="282,600 282,605 "/>
<text x="318" y="610" dy="0.76em" text-anchor="middle" font-family="sans-serif" font-size="9.67741935483871" opacity="1" fill="#000000">
6.0
</text>
<polyline fill="none" opacity="1" stroke="#000000" stroke-width="1" points="318,600 318,605 "/>
<text x="355" y="610" dy="0.76em" text-anchor="middle" font-family="sans-serif" font-size="9.67741935483871" opacity="1" fill="#000000">
7.0
</text>
<polyline fill="none" opacity="1" stroke="#000000" stroke-width="1" points="355,600 355,605 "/>
<text x="391" y="610" dy="0.76em" text-anchor="middle" font-family="sans-serif" font-size="9.67741935483871" opacity="1" fill="#000000">
8.0
</text>
<polyline fill="none" opacity="1" stroke="#000000" stroke-width="1" points="391,600 391,605 "/>
<text x="427" y="610" dy="0.76em" text-anchor="middle" font-family="sans-serif" font-size="9.67741935483871" opacity="1" fill="#000000">
9.0
</text>
<polyline fill="none" opacity="1" stroke="#000000" stroke-width="1" points="427,600 427,605 "/>
<text x="464" y="610" dy="0.76em" text-anchor="middle" font-family="sans-serif" font-size="9.67741935483871" opacity="1" fill="#000000">
10.0
</text>
<polyline fill="none" opacity="1" stroke="#000000" stroke-width="1" points="464,600 464,605 "/>
<line opacity="1" stroke="#E6194B" stroke-width="1" x1="101" y1="213" x2="101" y2="217"/>
<line opacity="1" stroke="#E6194B" stroke-width="1" x1="101" y1="215" x2="151" y2="215"/>
<rect x="151" y="210" width="32" height="10" opacity="1" fill="none" stroke="#E6194B"/>
<line opacity="1" stroke="#E6194B" stroke-width="1" x1="161" y1="210" x2="161" y2="220"/>
<line opacity="1" stroke="#E6194B" stroke-width="1" x1="183" y1="215" x2="233" y2="215"/>
<line opacity="1" stroke="#E6194B" stroke-width="1" x1="233" y1="213" x2="233" y2="217"/>
<line opacity="1" stroke="#E6194B" stroke-width="1" x1="100" y1="512" x2="100" y2="516"/>
<line opacity="1" stroke="#E6194B" stroke-width="1" x1="100" y1="514" x2="143" y2="514"/>
<rect x="143" y="509" width="106" height="10" opacity="1" fill="none" stroke="#E6194B"/>
<line opacity="1" stroke="#E6194B" stroke-width="1" x1="187" y1="509" x2="187" y2="519"/>
<line opacity="1" stroke="#E6194B" stroke-width="1" x1="249" y1="514" x2="407" y2="514"/>
<line opacity="1" stroke="#E6194B" stroke-width="1" x1="407" y1="512" x2="407" y2="516"/>
<line opacity="1" stroke="#E6194B" stroke-width="1" x1="100" y1="412" x2="100" y2="416"/>
<line opacity="1" stroke="#E6194B" stroke-width="1" x1="100" y1="414" x2="129" y2="414"/>
<rect x="129" y="409" width="105" height="10" opacity="1" fill="none" stroke="#E6194B"/>
<line opacity="1" stroke="#E6194B" stroke-width="1" x1="176" y1="409" x2="176" y2="419"/>
<line opacity="1" stroke="#E6194B" stroke-width="1" x1="234" y1="414" x2="393" y2="414"/>
<line opacity="1" stroke="#E6194B" stroke-width="1" x1="393" y1="412" x2="393" y2="416"/>
<line opacity="1" stroke="#E6194B" stroke-width="1" x1="100" y1="263" x2="100" y2="267"/>
<line opacity="1" stroke="#E6194B" stroke-width="1" x1="100" y1="265" x2="140" y2="265"/>
<rect x="140" y="260" width="76" height="10" opacity="1" fill="none" stroke="#E6194B"/>
<line opacity="1" stroke="#E6194B" stroke-width="1" x1="172" y1="260" x2="172" y2="270"/>
<line opacity="1" stroke="#E6194B" stroke-width="1" x1="216" y1="265" x2="331" y2="265"/>
<line opacity="1" stroke="#E6194B" stroke-width="1" x1="331" y1="263" x2="331" y2="267"/>
<line opacity="1" stroke="#E6194B" stroke-width="1" x1="100" y1="462" x2="100" y2="466"/>
<line opacity="1" stroke="#E6194B" stroke-width="1" x1="100" y1="464" x2="132" y2="464"/>
<rect x="132" y="459" width="124" height="10" opacity="1" fill="none" stroke="#E6194B"/>
<line opacity="1" stroke="#E6194B" stroke-width="1" x1="183" y1="459" x2="183" y2="469"/>
<line opacity="1" stroke="#E6194B" stroke-width="1" x1="256" y1="464" x2="442" y2="464"/>
<line opacity="1" stroke="#E6194B" stroke-width="1" x1="442" y1="462" x2="442" y2="466"/>
<line opacity="1" stroke="#E6194B" stroke-width="1" x1="100" y1="362" x2="100" y2="366"/>
<line opacity="1" stroke="#E6194B" stroke-width="1" x1="100" y1="364" x2="136" y2="364"/>
<rect x="136" y="359" width="98" height="10" opacity="1" fill="none" stroke="#E6194B"/>
<line opacity="1" stroke="#E6194B" stroke-width="1" x1="176" y1="359" x2="176" y2="369"/>
<line opacity="1" stroke="#E6194B" stroke-width="1" x1="234" y1="364" x2="382" y2="364"/>
<line opacity="1" stroke="#E6194B" stroke-width="1" x1="382" y1="362" x2="382" y2="366"/>
<line opacity="1" stroke="#E6194B" stroke-width="1" x1="253" y1="562" x2="253" y2="566"/>
<line opacity="1" stroke="#E6194B" stroke-width="1" x1="253" y1="564" x2="274" y2="564"/>
<rect x="274" y="559" width="15" height="10" opacity="1" fill="none" stroke="#E6194B"/>
<line opacity="1" stroke="#E6194B" stroke-width="1" x1="278" y1="559" x2="278" y2="569"/>
<line opacity="1" stroke="#E6194B" stroke-width="1" x1="289" y1="564" x2="311" y2="564"/>
<line opacity="1" stroke="#E6194B" stroke-width="1" x1="311" y1="562" x2="311" y2="566"/>
<line opacity="1" stroke="#E6194B" stroke-width="1" x1="100" y1="163" x2="100" y2="167"/>
<line opacity="1" stroke="#E6194B" stroke-width="1" x1="100" y1="165" x2="125" y2="165"/>
<rect x="125" y="160" width="87" height="10" opacity="1" fill="none" stroke="#E6194B"/>
<line opacity="1" stroke="#E6194B" stroke-width="1" x1="161" y1="160" x2="161" y2="170"/>
<line opacity="1" stroke="#E6194B" stroke-width="1" x1="212" y1="165" x2="344" y2="165"/>
<line opacity="1" stroke="#E6194B" stroke-width="1" x1="344" y1="163" x2="344" y2="167"/>
<line opacity="1" stroke="#E6194B" stroke-width="1" x1="100" y1="13" x2="100" y2="17"/>
<line opacity="1" stroke="#E6194B" stroke-width="1" x1="100" y1="15" x2="121" y2="15"/>
<rect x="121" y="10" width="88" height="10" opacity="1" fill="none" stroke="#E6194B"/>
<line opacity="1" stroke="#E6194B" stroke-width="1" x1="154" y1="10" x2="154" y2="20"/>
<line opacity="1" stroke="#E6194B" stroke-width="1" x1="209" y1="15" x2="340" y2="15"/>
<line opacity="1" stroke="#E6194B" stroke-width="1" x1="340" y1="13" x2="340" y2="17"/>
<line opacity="1" stroke="#E6194B" stroke-width="1" x1="100" y1="113" x2="100" y2="117"/>
<line opacity="1" stroke="#E6194B" stroke-width="1" x1="100" y1="115" x2="140" y2="115"/>
<rect x="140" y="110" width="54" height="10" opacity="1" fill="none" stroke="#E6194B"/>
<line opacity="1" stroke="#E6194B" stroke-width="1" x1="161" y1="110" x2="161" y2="120"/>
<line opacity="1" stroke="#E6194B" stroke-width="1" x1="194" y1="115" x2="276" y2="115"/>
<line opacity="1" stroke="#E6194B" stroke-width="1" x1="276" y1="113" x2="276" y2="117"/>
<line opacity="1" stroke="#E6194B" stroke-width="1" x1="100" y1="312" x2="100" y2="316"/>
<line opacity="1" stroke="#E6194B" stroke-width="1" x1="100" y1="314" x2="147" y2="314"/>
<rect x="147" y="309" width="84" height="10" opacity="1" fill="none" stroke="#E6194B"/>
<line opacity="1" stroke="#E6194B" stroke-width="1" x1="176" y1="309" x2="176" y2="319"/>
<line opacity="1" stroke="#E6194B" stroke-width="1" x1="231" y1="314" x2="356" y2="314"/>
<line opacity="1" stroke="#E6194B" stroke-width="1" x1="356" y1="312" x2="356" y2="316"/>
<line opacity="1" stroke="#E6194B" stroke-width="1" x1="100" y1="63" x2="100" y2="67"/>
<line opacity="1" stroke="#E6194B" stroke-width="1" x1="100" y1="65" x2="140" y2="65"/>
<rect x="140" y="60" width="51" height="10" opacity="1" fill="none" stroke="#E6194B"/>
<line opacity="1" stroke="#E6194B" stroke-width="1" x1="161" y1="60" x2="161" y2="70"/>
<line opacity="1" stroke="#E6194B" stroke-width="1" x1="191" y1="65" x2="267" y2="65"/>
<line opacity="1" stroke="#E6194B" stroke-width="1" x1="267" y1="63" x2="267" y2="67"/>
<line opacity="1" stroke="#3CB44B" stroke-width="1" x1="116" y1="233" x2="116" y2="237"/>
<line opacity="1" stroke="#3CB44B" stroke-width="1" x1="116" y1="235" x2="154" y2="235"/>
<rect x="154" y="230" width="26" height="10" opacity="1" fill="none" stroke="#3CB44B"/>
<line opacity="1" stroke="#3CB44B" stroke-width="1" x1="161" y1="230" x2="161" y2="240"/>
<line opacity="1" stroke="#3CB44B" stroke-width="1" x1="180" y1="235" x2="218" y2="235"/>
<line opacity="1" stroke="#3CB44B" stroke-width="1" x1="218" y1="233" x2="218" y2="237"/>
<line opacity="1" stroke="#3CB44B" stroke-width="1" x1="100" y1="532" x2="100" y2="536"/>
<line opacity="1" stroke="#3CB44B" stroke-width="1" x1="100" y1="534" x2="140" y2="534"/>
<rect x="140" y="529" width="109" height="10" opacity="1" fill="none" stroke="#3CB44B"/>
<line opacity="1" stroke="#3CB44B" stroke-width="1" x1="187" y1="529" x2="187" y2="539"/>
<line opacity="1" stroke="#3CB44B" stroke-width="1" x1="249" y1="534" x2="413" y2="534"/>
<line opacity="1" stroke="#3CB44B" stroke-width="1" x1="413" y1="532" x2="413" y2="536"/>
<line opacity="1" stroke="#3CB44B" stroke-width="1" x1="100" y1="432" x2="100" y2="436"/>
<line opacity="1" stroke="#3CB44B" stroke-width="1" x1="100" y1="434" x2="129" y2="434"/>
<rect x="129" y="429" width="109" height="10" opacity="1" fill="none" stroke="#3CB44B"/>
<line opacity="1" stroke="#3CB44B" stroke-width="1" x1="176" y1="429" x2="176" y2="439"/>
<line opacity="1" stroke="#3CB44B" stroke-width="1" x1="238" y1="434" x2="402" y2="434"/>
<line opacity="1" stroke="#3CB44B" stroke-width="1" x1="402" y1="432" x2="402" y2="436"/>
<line opacity="1" stroke="#3CB44B" stroke-width="1" x1="100" y1="283" x2="100" y2="287"/>
<line opacity="1" stroke="#3CB44B" stroke-width="1" x1="100" y1="285" x2="140" y2="285"/>
<rect x="140" y="280" width="80" height="10" opacity="1" fill="none" stroke="#3CB44B"/>
<line opacity="1" stroke="#3CB44B" stroke-width="1" x1="172" y1="280" x2="172" y2="290"/>
<line opacity="1" stroke="#3CB44B" stroke-width="1" x1="220" y1="285" x2="340" y2="285"/>
<line opacity="1" stroke="#3CB44B" stroke-width="1" x1="340" y1="283" x2="340" y2="287"/>
<line opacity="1" stroke="#3CB44B" stroke-width="1" x1="100" y1="482" x2="100" y2="486"/>
<line opacity="1" stroke="#3CB44B" stroke-width="1" x1="100" y1="484" x2="132" y2="484"/>
<rect x="132" y="479" width="121" height="10" opacity="1" fill="none" stroke="#3CB44B"/>
<line opacity="1" stroke="#3CB44B" stroke-width="1" x1="187" y1="479" x2="187" y2="489"/>
<line opacity="1" stroke="#3CB44B" stroke-width="1" x1="253" y1="484" x2="433" y2="484"/>
<line opacity="1" stroke="#3CB44B" stroke-width="1" x1="433" y1="482" x2="433" y2="486"/>
<line opacity="1" stroke="#3CB44B" stroke-width="1" x1="100" y1="382" x2="100" y2="386"/>
<line opacity="1" stroke="#3CB44B" stroke-width="1" x1="100" y1="384" x2="136" y2="384"/>
<rect x="136" y="379" width="102" height="10" opacity="1" fill="none" stroke="#3CB44B"/>
<line opacity="1" stroke="#3CB44B" stroke-width="1" x1="180" y1="379" x2="180" y2="389"/>
<line opacity="1" stroke="#3CB44B" stroke-width="1" x1="238" y1="384" x2="391" y2="384"/>
<line opacity="1" stroke="#3CB44B" stroke-width="1" x1="391" y1="382" x2="391" y2="386"/>
<line opacity="1" stroke="#3CB44B" stroke-width="1" x1="265" y1="582" x2="265" y2="586"/>
<line opacity="1" stroke="#3CB44B" stroke-width="1" x1="265" y1="584" x2="282" y2="584"/>
<rect x="282" y="579" width="11" height="10" opacity="1" fill="none" stroke="#3CB44B"/>
<line opacity="1" stroke="#3CB44B" stroke-width="1" x1="285" y1="579" x2="285" y2="589"/>
<line opacity="1" stroke="#3CB44B" stroke-width="1" x1="293" y1="584" x2="309" y2="584"/>
<line opacity="1" stroke="#3CB44B" stroke-width="1" x1="309" y1="582" x2="309" y2="586"/>
<line opacity="1" stroke="#3CB44B" stroke-width="1" x1="100" y1="183" x2="100" y2="187"/>
<line opacity="1" stroke="#3CB44B" stroke-width="1" x1="100" y1="185" x2="125" y2="185"/>
<rect x="125" y="180" width="91" height="10" opacity="1" fill="none" stroke="#3CB44B"/>
<line opacity="1" stroke="#3CB44B" stroke-width="1" x1="161" y1="180" x2="161" y2="190"/>
<line opacity="1" stroke="#3CB44B" stroke-width="1" x1="216" y1="185" x2="353" y2="185"/>
<line opacity="1" stroke="#3CB44B" stroke-width="1" x1="353" y1="183" x2="353" y2="187"/>
<line opacity="1" stroke="#3CB44B" stroke-width="1" x1="100" y1="33" x2="100" y2="37"/>
<line opacity="1" stroke="#3CB44B" stroke-width="1" x1="100" y1="35" x2="121" y2="35"/>
<rect x="121" y="30" width="84" height="10" opacity="1" fill="none" stroke="#3CB44B"/>
<line opacity="1" stroke="#3CB44B" stroke-width="1" x1="154" y1="30" x2="154" y2="40"/>
<line opacity="1" stroke="#3CB44B" stroke-width="1" x1="205" y1="35" x2="331" y2="35"/>
<line opacity="1" stroke="#3CB44B" stroke-width="1" x1="331" y1="33" x2="331" y2="37"/>
<line opacity="1" stroke="#3CB44B" stroke-width="1" x1="100" y1="133" x2="100" y2="137"/>
<line opacity="1" stroke="#3CB44B" stroke-width="1" x1="100" y1="135" x2="136" y2="135"/>
<rect x="136" y="130" width="58" height="10" opacity="1" fill="none" stroke="#3CB44B"/>
<line opacity="1" stroke="#3CB44B" stroke-width="1" x1="158" y1="130" x2="158" y2="140"/>
<line opacity="1" stroke="#3CB44B" stroke-width="1" x1="194" y1="135" x2="282" y2="135"/>
<line opacity="1" stroke="#3CB44B" stroke-width="1" x1="282" y1="133" x2="282" y2="137"/>
<line opacity="1" stroke="#3CB44B" stroke-width="1" x1="100" y1="332" x2="100" y2="336"/>
<line opacity="1" stroke="#3CB44B" stroke-width="1" x1="100" y1="334" x2="151" y2="334"/>
<rect x="151" y="329" width="87" height="10" opacity="1" fill="none" stroke="#3CB44B"/>
<line opacity="1" stroke="#3CB44B" stroke-width="1" x1="180" y1="329" x2="180" y2="339"/>
<line opacity="1" stroke="#3CB44B" stroke-width="1" x1="238" y1="334" x2="369" y2="334"/>
<line opacity="1" stroke="#3CB44B" stroke-width="1" x1="369" y1="332" x2="369" y2="336"/>
<line opacity="1" stroke="#3CB44B" stroke-width="1" x1="100" y1="83" x2="100" y2="87"/>
<line opacity="1" stroke="#3CB44B" stroke-width="1" x1="100" y1="85" x2="136" y2="85"/>
<rect x="136" y="80" width="62" height="10" opacity="1" fill="none" stroke="#3CB44B"/>
<line opacity="1" stroke="#3CB44B" stroke-width="1" x1="161" y1="80" x2="161" y2="90"/>
<line opacity="1" stroke="#3CB44B" stroke-width="1" x1="198" y1="85" x2="291" y2="85"/>
<line opacity="1" stroke="#3CB44B" stroke-width="1" x1="291" y1="83" x2="291" y2="87"/>
<rect x="334" y="5" width="141" height="44" opacity="1" fill="#FFFFFF" stroke="none"/>
<rect x="334" y="5" width="141" height="44" opacity="0.5" fill="none" stroke="#000000"/>
<text x="366" y="15" dy="0.76em" text-anchor="start" font-family="sans-serif" font-size="9.67741935483871" opacity="1" fill="#000000">
Index URL Request
</text>
<text x="366" y="30" dy="0.76em" text-anchor="start" font-family="sans-serif" font-size="9.67741935483871" opacity="1" fill="#000000">
Pattern URL Request
</text>
<rect x="344" y="12" width="12" height="12" opacity="1" fill="#E6194B" stroke="none"/>
<rect x="344" y="27" width="12" height="12" opacity="1" fill="#3CB44B" stroke="none"/>
</svg>
