<svg width="480" height="640" viewBox="0 0 480 640" xmlns="http://www.w3.org/2000/svg">
<rect x="0" y="0" width="480" height="640" opacity="1" fill="#FFFFFF" stroke="none"/>
<line opacity="1" stroke="#FFFFFF" stroke-width="1" x1="100" y1="599" x2="100" y2="0"/>
<line opacity="1" stroke="#FFFFFF" stroke-width="1" x1="105" y1="599" x2="105" y2="0"/>
<line opacity="1" stroke="#FFFFFF" stroke-width="1" x1="111" y1="599" x2="111" y2="0"/>
<line opacity="1" stroke="#FFFFFF" stroke-width="1" x1="116" y1="599" x2="116" y2="0"/>
<line opacity="1" stroke="#FFFFFF" stroke-width="1" x1="122" y1="599" x2="122" y2="0"/>
<line opacity="1" stroke="#FFFFFF" stroke-width="1" x1="128" y1="599" x2="128" y2="0"/>
<line opacity="1" stroke="#FFFFFF" stroke-width="1" x1="133" y1="599" x2="133" y2="0"/>
<line opacity="1" stroke="#FFFFFF" stroke-width="1" x1="139" y1="599" x2="139" y2="0"/>
<line opacity="1" stroke="#FFFFFF" stroke-width="1" x1="144" y1="599" x2="144" y2="0"/>
<line opacity="1" stroke="#FFFFFF" stroke-width="1" x1="150" y1="599" x2="150" y2="0"/>
<line opacity="1" stroke="#FFFFFF" stroke-width="1" x1="156" y1="599" x2="156" y2="0"/>
<line opacity="1" stroke="#FFFFFF" stroke-width="1" x1="161" y1="599" x2="161" y2="0"/>
<line opacity="1" stroke="#FFFFFF" stroke-width="1" x1="167" y1="599" x2="167" y2="0"/>
<line opacity="1" stroke="#FFFFFF" stroke-width="1" x1="172" y1="599" x2="172" y2="0"/>
<line opacity="1" stroke="#FFFFFF" stroke-width="1" x1="178" y1="599" x2="178" y2="0"/>
<line opacity="1" stroke="#FFFFFF" stroke-width="1" x1="184" y1="599" x2="184" y2="0"/>
<line opacity="1" stroke="#FFFFFF" stroke-width="1" x1="189" y1="599" x2="189" y2="0"/>
<line opacity="1" stroke="#FFFFFF" stroke-width="1" x1="195" y1="599" x2="195" y2="0"/>
<line opacity="1" stroke="#FFFFFF" stroke-width="1" x1="201" y1="599" x2="201" y2="0"/>
<line opacity="1" stroke="#FFFFFF" stroke-width="1" x1="206" y1="599" x2="206" y2="0"/>
<line opacity="1" stroke="#FFFFFF" stroke-width="1" x1="212" y1="599" x2="212" y2="0"/>
<line opacity="1" stroke="#FFFFFF" stroke-width="1" x1="217" y1="599" x2="217" y2="0"/>
<line opacity="1" stroke="#FFFFFF" stroke-width="1" x1="223" y1="599" x2="223" y2="0"/>
<line opacity="1" stroke="#FFFFFF" stroke-width="1" x1="229" y1="599" x2="229" y2="0"/>
<line opacity="1" stroke="#FFFFFF" stroke-width="1" x1="234" y1="599" x2="234" y2="0"/>
<line opacity="1" stroke="#FFFFFF" stroke-width="1" x1="240" y1="599" x2="240" y2="0"/>
<line opacity="1" stroke="#FFFFFF" stroke-width="1" x1="245" y1="599" x2="245" y2="0"/>
<line opacity="1" stroke="#FFFFFF" stroke-width="1" x1="251" y1="599" x2="251" y2="0"/>
<line opacity="1" stroke="#FFFFFF" stroke-width="1" x1="257" y1="599" x2="257" y2="0"/>
<line opacity="1" stroke="#FFFFFF" stroke-width="1" x1="262" y1="599" x2="262" y2="0"/>
<line opacity="1" stroke="#FFFFFF" stroke-width="1" x1="268" y1="599" x2="268" y2="0"/>
<line opacity="1" stroke="#FFFFFF" stroke-width="1" x1="274" y1="599" x2="274" y2="0"/>
<line opacity="1" stroke="#FFFFFF" stroke-width="1" x1="279" y1="599" x2="279" y2="0"/>
<line opacity="1" stroke="#FFFFFF" stroke-width="1" x1="285" y1="599" x2="285" y2="0"/>
<line opacity="1" stroke="#FFFFFF" stroke-width="1" x1="290" y1="599" x2="290" y2="0"/>
<line opacity="1" stroke="#FFFFFF" stroke-width="1" x1="296" y1="599" x2="296" y2="0"/>
<line opacity="1" stroke="#FFFFFF" stroke-width="1" x1="302" y1="599" x2="302" y2="0"/>
<line opacity="1" stroke="#FFFFFF" stroke-width="1" x1="307" y1="599" x2="307" y2="0"/>
<line opacity="1" stroke="#FFFFFF" stroke-width="1" x1="313" y1="599" x2="313" y2="0"/>
<line opacity="1" stroke="#FFFFFF" stroke-width="1" x1="318" y1="599" x2="318" y2="0"/>
<line opacity="1" stroke="#FFFFFF" stroke-width="1" x1="324" y1="599" x2="324" y2="0"/>
<line opacity="1" stroke="#FFFFFF" stroke-width="1" x1="330" y1="599" x2="330" y2="0"/>
<line opacity="1" stroke="#FFFFFF" stroke-width="1" x1="335" y1="599" x2="335" y2="0"/>
<line opacity="1" stroke="#FFFFFF" stroke-width="1" x1="341" y1="599" x2="341" y2="0"/>
<line opacity="1" stroke="#FFFFFF" stroke-width="1" x1="347" y1="599" x2="347" y2="0"/>
<line opacity="1" stroke="#FFFFFF" stroke-width="1" x1="352" y1="599" x2="352" y2="0"/>
<line opacity="1" stroke="#FFFFFF" stroke-width="1" x1="358" y1="599" x2="358" y2="0"/>
<line opacity="1" stroke="#FFFFFF" stroke-width="1" x1="363" y1="599" x2="363" y2="0"/>
<line opacity="1" stroke="#FFFFFF" stroke-width="1" x1="369" y1="599" x2="369" y2="0"/>
<line opacity="1" stroke="#FFFFFF" stroke-width="1" x1="375" y1="599" x2="375" y2="0"/>
<line opacity="1" stroke="#FFFFFF" stroke-width="1" x1="380" y1="599" x2="380" y2="0"/>
<line opacity="1" stroke="#FFFFFF" stroke-width="1" x1="386" y1="599" x2="386" y2="0"/>
<line opacity="1" stroke="#FFFFFF" stroke-width="1" x1="391" y1="599" x2="391" y2="0"/>
<line opacity="1" stroke="#FFFFFF" stroke-width="1" x1="397" y1="599" x2="397" y2="0"/>
<line opacity="1" stroke="#FFFFFF" stroke-width="1" x1="403" y1="599" x2="403" y2="0"/>
<line opacity="1" stroke="#FFFFFF" stroke-width="1" x1="408" y1="599" x2="408" y2="0"/>
<line opacity="1" stroke="#FFFFFF" stroke-width="1" x1="414" y1="599" x2="414" y2="0"/>
<line opacity="1" stroke="#FFFFFF" stroke-width="1" x1="420" y1="599" x2="420" y2="0"/>
<line opacity="1" stroke="#FFFFFF" stroke-width="1" x1="425" y1="599" x2="425" y2="0"/>
<line opacity="1" stroke="#FFFFFF" stroke-width="1" x1="431" y1="599" x2="431" y2="0"/>
<line opacity="1" stroke="#FFFFFF" stroke-width="1" x1="436" y1="599" x2="436" y2="0"/>
<line opacity="1" stroke="#FFFFFF" stroke-width="1" x1="442" y1="599" x2="442" y2="0"/>
<line opacity="1" stroke="#FFFFFF" stroke-width="1" x1="448" y1="599" x2="448" y2="0"/>
<line opacity="1" stroke="#FFFFFF" stroke-width="1" x1="453" y1="599" x2="453" y2="0"/>
<line opacity="1" stroke="#FFFFFF" stroke-width="1" x1="459" y1="599" x2="459" y2="0"/>
<line opacity="1" stroke="#FFFFFF" stroke-width="1" x1="464" y1="599" x2="464" y2="0"/>
<line opacity="1" stroke="#FFFFFF" stroke-width="1" x1="470" y1="599" x2="470" y2="0"/>
<line opacity="1" stroke="#FFFFFF" stroke-width="1" x1="476" y1="599" x2="476" y2="0"/>
<line opacity="1" stroke="#FFFFFF" stroke-width="1" x1="100" y1="569" x2="479" y2="569"/>
<line opacity="1" stroke="#FFFFFF" stroke-width="1" x1="100" y1="509" x2="479" y2="509"/>
<line opacity="1" stroke="#FFFFFF" stroke-width="1" x1="100" y1="449" x2="479" y2="449"/>
<line opacity="1" stroke="#FFFFFF" stroke-width="1" x1="100" y1="389" x2="479" y2="389"/>
<line opacity="1" stroke="#FFFFFF" stroke-width="1" x1="100" y1="329" x2="479" y2="329"/>
<line opacity="1" stroke="#FFFFFF" stroke-width="1" x1="100" y1="270" x2="479" y2="270"/>
<line opacity="1" stroke="#FFFFFF" stroke-width="1" x1="100" y1="210" x2="479" y2="210"/>
<line opacity="1" stroke="#FFFFFF" stroke-width="1" x1="100" y1="150" x2="479" y2="150"/>
<line opacity="1" stroke="#FFFFFF" stroke-width="1" x1="100" y1="90" x2="479" y2="90"/>
<line opacity="1" stroke="#FFFFFF" stroke-width="1" x1="100" y1="30" x2="479" y2="30"/>
<text x="0" y="300" dy="0.76em" text-anchor="middle" font-family="sans-serif" font-size="9.67741935483871" opacity="1" fill="#000000" transform="rotate(270, 0, 300)">
Language
</text>
<text x="290" y="640" dy="-0.5ex" text-anchor="middle" font-family="sans-serif" font-size="9.67741935483871" opacity="1" fill="#000000">
Response, ms
</text>
<line opacity="0.2" stroke="#000000" stroke-width="1" x1="100" y1="599" x2="100" y2="0"/>
<line opacity="0.2" stroke="#000000" stroke-width="1" x1="156" y1="599" x2="156" y2="0"/>
<line opacity="0.2" stroke="#000000" stroke-width="1" x1="212" y1="599" x2="212" y2="0"/>
<line opacity="0.2" stroke="#000000" stroke-width="1" x1="268" y1="599" x2="268" y2="0"/>
<line opacity="0.2" stroke="#000000" stroke-width="1" x1="324" y1="599" x2="324" y2="0"/>
<line opacity="0.2" stroke="#000000" stroke-width="1" x1="380" y1="599" x2="380" y2="0"/>
<line opacity="0.2" stroke="#000000" stroke-width="1" x1="436" y1="599" x2="436" y2="0"/>
<line opacity="0.2" stroke="#000000" stroke-width="1" x1="100" y1="569" x2="479" y2="569"/>
<line opacity="0.2" stroke="#000000" stroke-width="1" x1="100" y1="509" x2="479" y2="509"/>
<line opacity="0.2" stroke="#000000" stroke-width="1" x1="100" y1="449" x2="479" y2="449"/>
<line opacity="0.2" stroke="#000000" stroke-width="1" x1="100" y1="389" x2="479" y2="389"/>
<line opacity="0.2" stroke="#000000" stroke-width="1" x1="100" y1="329" x2="479" y2="329"/>
<line opacity="0.2" stroke="#000000" stroke-width="1" x1="100" y1="270" x2="479" y2="270"/>
<line opacity="0.2" stroke="#000000" stroke-width="1" x1="100" y1="210" x2="479" y2="210"/>
<line opacity="0.2" stroke="#000000" stroke-width="1" x1="100" y1="150" x2="479" y2="150"/>
<line opacity="0.2" stroke="#000000" stroke-width="1" x1="100" y1="90" x2="479" y2="90"/>
<line opacity="0.2" stroke="#000000" stroke-width="1" x1="100" y1="30" x2="479" y2="30"/>
<polyline fill="none" opacity="1" stroke="#000000" stroke-width="1" points="99,0 99,599 "/>
<text x="90" y="569" dy="0.5ex" text-anchor="end" font-family="sans-serif" font-size="9.67741935483871" opacity="1" fill="#000000">
&quot;PyPy3/Twisted&quot;
</text>
<polyline fill="none" opacity="1" stroke="#000000" stroke-width="1" points="94,569 99,569 "/>
<text x="90" y="509" dy="0.5ex" text-anchor="end" font-family="sans-serif" font-size="9.67741935483871" opacity="1" fill="#000000">
&quot;C++/Boost.Beast&quot;
</text>
<polyline fill="none" opacity="1" stroke="#000000" stroke-width="1" points="94,509 99,509 "/>
<text x="90" y="449" dy="0.5ex" text-anchor="end" font-family="sans-serif" font-size="9.67741935483871" opacity="1" fill="#000000">
&quot;Scala/Akka&quot;
</text>
<polyline fill="none" opacity="1" stroke="#000000" stroke-width="1" points="94,449 99,449 "/>
<text x="90" y="389" dy="0.5ex" text-anchor="end" font-family="sans-serif" font-size="9.67741935483871" opacity="1" fill="#000000">
&quot;Go&quot;
</text>
<polyline fill="none" opacity="1" stroke="#000000" stroke-width="1" points="94,389 99,389 "/>
<text x="90" y="329" dy="0.5ex" text-anchor="end" font-family="sans-serif" font-size="9.67741935483871" opacity="1" fill="#000000">
&quot;Node.js&quot;
</text>
<polyline fill="none" opacity="1" stroke="#000000" stroke-width="1" points="94,329 99,329 "/>
<text x="90" y="270" dy="0.5ex" text-anchor="end" font-family="sans-serif" font-size="9.67741935483871" opacity="1" fill="#000000">
&quot;PHP/Swoole&quot;
</text>
<polyline fill="none" opacity="1" stroke="#000000" stroke-width="1" points="94,270 99,270 "/>
<text x="90" y="210" dy="0.5ex" text-anchor="end" font-family="sans-serif" font-size="9.67741935483871" opacity="1" fill="#000000">
&quot;Rust/Actix&quot;
</text>
<polyline fill="none" opacity="1" stroke="#000000" stroke-width="1" points="94,210 99,210 "/>
<text x="90" y="150" dy="0.5ex" text-anchor="end" font-family="sans-serif" font-size="9.67741935483871" opacity="1" fill="#000000">
&quot;Rust/hyper&quot;
</text>
<polyline fill="none" opacity="1" stroke="#000000" stroke-width="1" points="94,150 99,150 "/>
<text x="90" y="90" dy="0.5ex" text-anchor="end" font-family="sans-serif" font-size="9.67741935483871" opacity="1" fill="#000000">
&quot;Rust/warp&quot;
</text>
<polyline fill="none" opacity="1" stroke="#000000" stroke-width="1" points="94,90 99,90 "/>
<text x="90" y="30" dy="0.5ex" text-anchor="end" font-family="sans-serif" font-size="9.67741935483871" opacity="1" fill="#000000">
&quot;Crystal&quot;
</text>
<polyline fill="none" opacity="1" stroke="#000000" stroke-width="1" points="94,30 99,30 "/>
<polyline fill="none" opacity="1" stroke="#000000" stroke-width="1" points="100,600 479,600 "/>
<text x="100" y="610" dy="0.76em" text-anchor="middle" font-family="sans-serif" font-size="9.67741935483871" opacity="1" fill="#000000">
0.0
</text>
<polyline fill="none" opacity="1" stroke="#000000" stroke-width="1" points="100,600 100,605 "/>
<text x="156" y="610" dy="0.76em" text-anchor="middle" font-family="sans-serif" font-size="9.67741935483871" opacity="1" fill="#000000">
2.0
</text>
<polyline fill="none" opacity="1" stroke="#000000" stroke-width="1" points="156,600 156,605 "/>
<text x="212" y="610" dy="0.76em" text-anchor="middle" font-family="sans-serif" font-size="9.67741935483871" opacity="1" fill="#000000">
4.0
</text>
<polyline fill="none" opacity="1" stroke="#000000" stroke-width="1" points="212,600 212,605 "/>
<text x="268" y="610" dy="0.76em" text-anchor="middle" font-family="sans-serif" font-size="9.67741935483871" opacity="1" fill="#000000">
6.0
</text>
<polyline fill="none" opacity="1" stroke="#000000" stroke-width="1" points="268,600 268,605 "/>
<text x="324" y="610" dy="0.76em" text-anchor="middle" font-family="sans-serif" font-size="9.67741935483871" opacity="1" fill="#000000">
8.0
</text>
<polyline fill="none" opacity="1" stroke="#000000" stroke-width="1" points="324,600 324,605 "/>
<text x="380" y="610" dy="0.76em" text-anchor="middle" font-family="sans-serif" font-size="9.67741935483871" opacity="1" fill="#000000">
10.0
</text>
<polyline fill="none" opacity="1" stroke="#000000" stroke-width="1" points="380,600 380,605 "/>
<text x="436" y="610" dy="0.76em" text-anchor="middle" font-family="sans-serif" font-size="9.67741935483871" opacity="1" fill="#000000">
12.0
</text>
<polyline fill="none" opacity="1" stroke="#000000" stroke-width="1" points="436,600 436,605 "/>
<line opacity="1" stroke="#E6194B" stroke-width="1" x1="100" y1="497" x2="100" y2="501"/>
<line opacity="1" stroke="#E6194B" stroke-width="1" x1="100" y1="499" x2="139" y2="499"/>
<rect x="139" y="494" width="109" height="10" opacity="1" fill="none" stroke="#E6194B"/>
<line opacity="1" stroke="#E6194B" stroke-width="1" x1="187" y1="494" x2="187" y2="504"/>
<line opacity="1" stroke="#E6194B" stroke-width="1" x1="248" y1="499" x2="413" y2="499"/>
<line opacity="1" stroke="#E6194B" stroke-width="1" x1="413" y1="497" x2="413" y2="501"/>
<line opacity="1" stroke="#E6194B" stroke-width="1" x1="100" y1="18" x2="100" y2="22"/>
<line opacity="1" stroke="#E6194B" stroke-width="1" x1="100" y1="20" x2="111" y2="20"/>
<rect x="111" y="15" width="59" height="10" opacity="1" fill="none" stroke="#E6194B"/>
<line opacity="1" stroke="#E6194B" stroke-width="1" x1="130" y1="15" x2="130" y2="25"/>
<line opacity="1" stroke="#E6194B" stroke-width="1" x1="170" y1="20" x2="258" y2="20"/>
<line opacity="1" stroke="#E6194B" stroke-width="1" x1="258" y1="18" x2="258" y2="22"/>
<line opacity="1" stroke="#E6194B" stroke-width="1" x1="100" y1="377" x2="100" y2="381"/>
<line opacity="1" stroke="#E6194B" stroke-width="1" x1="100" y1="379" x2="119" y2="379"/>
<rect x="119" y="374" width="68" height="10" opacity="1" fill="none" stroke="#E6194B"/>
<line opacity="1" stroke="#E6194B" stroke-width="1" x1="147" y1="374" x2="147" y2="384"/>
<line opacity="1" stroke="#E6194B" stroke-width="1" x1="187" y1="379" x2="288" y2="379"/>
<line opacity="1" stroke="#E6194B" stroke-width="1" x1="288" y1="377" x2="288" y2="381"/>
<line opacity="1" stroke="#E6194B" stroke-width="1" x1="100" y1="317" x2="100" y2="321"/>
<line opacity="1" stroke="#E6194B" stroke-width="1" x1="100" y1="319" x2="114" y2="319"/>
<rect x="114" y="314" width="95" height="10" opacity="1" fill="none" stroke="#E6194B"/>
<line opacity="1" stroke="#E6194B" stroke-width="1" x1="142" y1="314" x2="142" y2="324"/>
<line opacity="1" stroke="#E6194B" stroke-width="1" x1="209" y1="319" x2="352" y2="319"/>
<line opacity="1" stroke="#E6194B" stroke-width="1" x1="352" y1="317" x2="352" y2="321"/>
<line opacity="1" stroke="#E6194B" stroke-width="1" x1="100" y1="258" x2="100" y2="262"/>
<line opacity="1" stroke="#E6194B" stroke-width="1" x1="100" y1="260" x2="116" y2="260"/>
<rect x="116" y="255" width="85" height="10" opacity="1" fill="none" stroke="#E6194B"/>
<line opacity="1" stroke="#E6194B" stroke-width="1" x1="142" y1="255" x2="142" y2="265"/>
<line opacity="1" stroke="#E6194B" stroke-width="1" x1="201" y1="260" x2="327" y2="260"/>
<line opacity="1" stroke="#E6194B" stroke-width="1" x1="327" y1="258" x2="327" y2="262"/>
<line opacity="1" stroke="#E6194B" stroke-width="1" x1="236" y1="557" x2="236" y2="561"/>
<line opacity="1" stroke="#E6194B" stroke-width="1" x1="236" y1="559" x2="257" y2="559"/>
<rect x="257" y="554" width="14" height="10" opacity="1" fill="none" stroke="#E6194B"/>
<line opacity="1" stroke="#E6194B" stroke-width="1" x1="262" y1="554" x2="262" y2="564"/>
<line opacity="1" stroke="#E6194B" stroke-width="1" x1="271" y1="559" x2="292" y2="559"/>
<line opacity="1" stroke="#E6194B" stroke-width="1" x1="292" y1="557" x2="292" y2="561"/>
<line opacity="1" stroke="#E6194B" stroke-width="1" x1="100" y1="198" x2="100" y2="202"/>
<line opacity="1" stroke="#E6194B" stroke-width="1" x1="100" y1="200" x2="114" y2="200"/>
<rect x="114" y="195" width="56" height="10" opacity="1" fill="none" stroke="#E6194B"/>
<line opacity="1" stroke="#E6194B" stroke-width="1" x1="133" y1="195" x2="133" y2="205"/>
<line opacity="1" stroke="#E6194B" stroke-width="1" x1="170" y1="200" x2="254" y2="200"/>
<line opacity="1" stroke="#E6194B" stroke-width="1" x1="254" y1="198" x2="254" y2="202"/>
<line opacity="1" stroke="#E6194B" stroke-width="1" x1="100" y1="138" x2="100" y2="142"/>
<line opacity="1" stroke="#E6194B" stroke-width="1" x1="100" y1="140" x2="116" y2="140"/>
<rect x="116" y="135" width="40" height="10" opacity="1" fill="none" stroke="#E6194B"/>
<line opacity="1" stroke="#E6194B" stroke-width="1" x1="133" y1="135" x2="133" y2="145"/>
<line opacity="1" stroke="#E6194B" stroke-width="1" x1="156" y1="140" x2="215" y2="140"/>
<line opacity="1" stroke="#E6194B" stroke-width="1" x1="215" y1="138" x2="215" y2="142"/>
<line opacity="1" stroke="#E6194B" stroke-width="1" x1="100" y1="78" x2="100" y2="82"/>
<line opacity="1" stroke="#E6194B" stroke-width="1" x1="100" y1="80" x2="116" y2="80"/>
<rect x="116" y="75" width="37" height="10" opacity="1" fill="none" stroke="#E6194B"/>
<line opacity="1" stroke="#E6194B" stroke-width="1" x1="133" y1="75" x2="133" y2="85"/>
<line opacity="1" stroke="#E6194B" stroke-width="1" x1="153" y1="80" x2="208" y2="80"/>
<line opacity="1" stroke="#E6194B" stroke-width="1" x1="208" y1="78" x2="208" y2="82"/>
<line opacity="1" stroke="#E6194B" stroke-width="1" x1="100" y1="437" x2="100" y2="441"/>
<line opacity="1" stroke="#E6194B" stroke-width="1" x1="100" y1="439" x2="142" y2="439"/>
<rect x="142" y="434" width="92" height="10" opacity="1" fill="none" stroke="#E6194B"/>
<line opacity="1" stroke="#E6194B" stroke-width="1" x1="175" y1="434" x2="175" y2="444"/>
<line opacity="1" stroke="#E6194B" stroke-width="1" x1="234" y1="439" x2="373" y2="439"/>
<line opacity="1" stroke="#E6194B" stroke-width="1" x1="373" y1="437" x2="373" y2="441"/>
<line opacity="1" stroke="#3CB44B" stroke-width="1" x1="100" y1="517" x2="100" y2="521"/>
<line opacity="1" stroke="#3CB44B" stroke-width="1" x1="100" y1="519" x2="142" y2="519"/>
<rect x="142" y="514" width="123" height="10" opacity="1" fill="none" stroke="#3CB44B"/>
<line opacity="1" stroke="#3CB44B" stroke-width="1" x1="192" y1="514" x2="192" y2="524"/>
<line opacity="1" stroke="#3CB44B" stroke-width="1" x1="265" y1="519" x2="450" y2="519"/>
<line opacity="1" stroke="#3CB44B" stroke-width="1" x1="450" y1="517" x2="450" y2="521"/>
<line opacity="1" stroke="#3CB44B" stroke-width="1" x1="100" y1="38" x2="100" y2="42"/>
<line opacity="1" stroke="#3CB44B" stroke-width="1" x1="100" y1="40" x2="122" y2="40"/>
<rect x="122" y="35" width="73" height="10" opacity="1" fill="none" stroke="#3CB44B"/>
<line opacity="1" stroke="#3CB44B" stroke-width="1" x1="150" y1="35" x2="150" y2="45"/>
<line opacity="1" stroke="#3CB44B" stroke-width="1" x1="195" y1="40" x2="304" y2="40"/>
<line opacity="1" stroke="#3CB44B" stroke-width="1" x1="304" y1="38" x2="304" y2="42"/>
<line opacity="1" stroke="#3CB44B" stroke-width="1" x1="100" y1="397" x2="100" y2="401"/>
<line opacity="1" stroke="#3CB44B" stroke-width="1" x1="100" y1="399" x2="122" y2="399"/>
<rect x="122" y="394" width="65" height="10" opacity="1" fill="none" stroke="#3CB44B"/>
<line opacity="1" stroke="#3CB44B" stroke-width="1" x1="147" y1="394" x2="147" y2="404"/>
<line opacity="1" stroke="#3CB44B" stroke-width="1" x1="187" y1="399" x2="283" y2="399"/>
<line opacity="1" stroke="#3CB44B" stroke-width="1" x1="283" y1="397" x2="283" y2="401"/>
<line opacity="1" stroke="#3CB44B" stroke-width="1" x1="100" y1="337" x2="100" y2="341"/>
<line opacity="1" stroke="#3CB44B" stroke-width="1" x1="100" y1="339" x2="114" y2="339"/>
<rect x="114" y="334" width="95" height="10" opacity="1" fill="none" stroke="#3CB44B"/>
<line opacity="1" stroke="#3CB44B" stroke-width="1" x1="139" y1="334" x2="139" y2="344"/>
<line opacity="1" stroke="#3CB44B" stroke-width="1" x1="209" y1="339" x2="352" y2="339"/>
<line opacity="1" stroke="#3CB44B" stroke-width="1" x1="352" y1="337" x2="352" y2="341"/>
<line opacity="1" stroke="#3CB44B" stroke-width="1" x1="100" y1="278" x2="100" y2="282"/>
<line opacity="1" stroke="#3CB44B" stroke-width="1" x1="100" y1="280" x2="122" y2="280"/>
<rect x="122" y="275" width="104" height="10" opacity="1" fill="none" stroke="#3CB44B"/>
<line opacity="1" stroke="#3CB44B" stroke-width="1" x1="156" y1="275" x2="156" y2="285"/>
<line opacity="1" stroke="#3CB44B" stroke-width="1" x1="226" y1="280" x2="382" y2="280"/>
<line opacity="1" stroke="#3CB44B" stroke-width="1" x1="382" y1="278" x2="382" y2="282"/>
<line opacity="1" stroke="#3CB44B" stroke-width="1" x1="243" y1="577" x2="243" y2="581"/>
<line opacity="1" stroke="#3CB44B" stroke-width="1" x1="243" y1="579" x2="268" y2="579"/>
<rect x="268" y="574" width="17" height="10" opacity="1" fill="none" stroke="#3CB44B"/>
<line opacity="1" stroke="#3CB44B" stroke-width="1" x1="276" y1="574" x2="276" y2="584"/>
<line opacity="1" stroke="#3CB44B" stroke-width="1" x1="285" y1="579" x2="310" y2="579"/>
<line opacity="1" stroke="#3CB44B" stroke-width="1" x1="310" y1="577" x2="310" y2="581"/>
<line opacity="1" stroke="#3CB44B" stroke-width="1" x1="100" y1="218" x2="100" y2="222"/>
<line opacity="1" stroke="#3CB44B" stroke-width="1" x1="100" y1="220" x2="114" y2="220"/>
<rect x="114" y="215" width="53" height="10" opacity="1" fill="none" stroke="#3CB44B"/>
<line opacity="1" stroke="#3CB44B" stroke-width="1" x1="133" y1="215" x2="133" y2="225"/>
<line opacity="1" stroke="#3CB44B" stroke-width="1" x1="167" y1="220" x2="247" y2="220"/>
<line opacity="1" stroke="#3CB44B" stroke-width="1" x1="247" y1="218" x2="247" y2="222"/>
<line opacity="1" stroke="#3CB44B" stroke-width="1" x1="100" y1="158" x2="100" y2="162"/>
<line opacity="1" stroke="#3CB44B" stroke-width="1" x1="100" y1="160" x2="114" y2="160"/>
<rect x="114" y="155" width="39" height="10" opacity="1" fill="none" stroke="#3CB44B"/>
<line opacity="1" stroke="#3CB44B" stroke-width="1" x1="128" y1="155" x2="128" y2="165"/>
<line opacity="1" stroke="#3CB44B" stroke-width="1" x1="153" y1="160" x2="212" y2="160"/>
<line opacity="1" stroke="#3CB44B" stroke-width="1" x1="212" y1="158" x2="212" y2="162"/>
<line opacity="1" stroke="#3CB44B" stroke-width="1" x1="100" y1="98" x2="100" y2="102"/>
<line opacity="1" stroke="#3CB44B" stroke-width="1" x1="100" y1="100" x2="116" y2="100"/>
<rect x="116" y="95" width="42" height="10" opacity="1" fill="none" stroke="#3CB44B"/>
<line opacity="1" stroke="#3CB44B" stroke-width="1" x1="133" y1="95" x2="133" y2="105"/>
<line opacity="1" stroke="#3CB44B" stroke-width="1" x1="158" y1="100" x2="222" y2="100"/>
<line opacity="1" stroke="#3CB44B" stroke-width="1" x1="222" y1="98" x2="222" y2="102"/>
<line opacity="1" stroke="#3CB44B" stroke-width="1" x1="100" y1="457" x2="100" y2="461"/>
<line opacity="1" stroke="#3CB44B" stroke-width="1" x1="100" y1="459" x2="153" y2="459"/>
<rect x="153" y="454" width="102" height="10" opacity="1" fill="none" stroke="#3CB44B"/>
<line opacity="1" stroke="#3CB44B" stroke-width="1" x1="187" y1="454" x2="187" y2="464"/>
<line opacity="1" stroke="#3CB44B" stroke-width="1" x1="255" y1="459" x2="407" y2="459"/>
<line opacity="1" stroke="#3CB44B" stroke-width="1" x1="407" y1="457" x2="407" y2="461"/>
<rect x="334" y="5" width="141" height="44" opacity="1" fill="#FFFFFF" stroke="none"/>
<rect x="334" y="5" width="141" height="44" opacity="0.5" fill="none" stroke="#000000"/>
<text x="366" y="15" dy="0.76em" text-anchor="start" font-family="sans-serif" font-size="9.67741935483871" opacity="1" fill="#000000">
Index URL Request
</text>
<text x="366" y="30" dy="0.76em" text-anchor="start" font-family="sans-serif" font-size="9.67741935483871" opacity="1" fill="#000000">
Pattern URL Request
</text>
<rect x="344" y="12" width="12" height="12" opacity="1" fill="#E6194B" stroke="none"/>
<rect x="344" y="27" width="12" height="12" opacity="1" fill="#3CB44B" stroke="none"/>
</svg>
