<svg width="480" height="640" viewBox="0 0 480 640" xmlns="http://www.w3.org/2000/svg">
<rect x="0" y="0" width="480" height="640" opacity="1" fill="#FFFFFF" stroke="none"/>
<line opacity="1" stroke="#FFFFFF" stroke-width="1" x1="100" y1="599" x2="100" y2="0"/>
<line opacity="1" stroke="#FFFFFF" stroke-width="1" x1="103" y1="599" x2="103" y2="0"/>
<line opacity="1" stroke="#FFFFFF" stroke-width="1" x1="107" y1="599" x2="107" y2="0"/>
<line opacity="1" stroke="#FFFFFF" stroke-width="1" x1="110" y1="599" x2="110" y2="0"/>
<line opacity="1" stroke="#FFFFFF" stroke-width="1" x1="114" y1="599" x2="114" y2="0"/>
<line opacity="1" stroke="#FFFFFF" stroke-width="1" x1="117" y1="599" x2="117" y2="0"/>
<line opacity="1" stroke="#FFFFFF" stroke-width="1" x1="121" y1="599" x2="121" y2="0"/>
<line opacity="1" stroke="#FFFFFF" stroke-width="1" x1="124" y1="599" x2="124" y2="0"/>
<line opacity="1" stroke="#FFFFFF" stroke-width="1" x1="128" y1="599" x2="128" y2="0"/>
<line opacity="1" stroke="#FFFFFF" stroke-width="1" x1="132" y1="599" x2="132" y2="0"/>
<line opacity="1" stroke="#FFFFFF" stroke-width="1" x1="135" y1="599" x2="135" y2="0"/>
<line opacity="1" stroke="#FFFFFF" stroke-width="1" x1="139" y1="599" x2="139" y2="0"/>
<line opacity="1" stroke="#FFFFFF" stroke-width="1" x1="142" y1="599" x2="142" y2="0"/>
<line opacity="1" stroke="#FFFFFF" stroke-width="1" x1="146" y1="599" x2="146" y2="0"/>
<line opacity="1" stroke="#FFFFFF" stroke-width="1" x1="149" y1="599" x2="149" y2="0"/>
<line opacity="1" stroke="#FFFFFF" stroke-width="1" x1="153" y1="599" x2="153" y2="0"/>
<line opacity="1" stroke="#FFFFFF" stroke-width="1" x1="156" y1="599" x2="156" y2="0"/>
<line opacity="1" stroke="#FFFFFF" stroke-width="1" x1="160" y1="599" x2="160" y2="0"/>
<line opacity="1" stroke="#FFFFFF" stroke-width="1" x1="164" y1="599" x2="164" y2="0"/>
<line opacity="1" stroke="#FFFFFF" stroke-width="1" x1="167" y1="599" x2="167" y2="0"/>
<line opacity="1" stroke="#FFFFFF" stroke-width="1" x1="171" y1="599" x2="171" y2="0"/>
<line opacity="1" stroke="#FFFFFF" stroke-width="1" x1="174" y1="599" x2="174" y2="0"/>
<line opacity="1" stroke="#FFFFFF" stroke-width="1" x1="178" y1="599" x2="178" y2="0"/>
<line opacity="1" stroke="#FFFFFF" stroke-width="1" x1="181" y1="599" x2="181" y2="0"/>
<line opacity="1" stroke="#FFFFFF" stroke-width="1" x1="185" y1="599" x2="185" y2="0"/>
<line opacity="1" stroke="#FFFFFF" stroke-width="1" x1="188" y1="599" x2="188" y2="0"/>
<line opacity="1" stroke="#FFFFFF" stroke-width="1" x1="192" y1="599" x2="192" y2="0"/>
<line opacity="1" stroke="#FFFFFF" stroke-width="1" x1="196" y1="599" x2="196" y2="0"/>
<line opacity="1" stroke="#FFFFFF" stroke-width="1" x1="199" y1="599" x2="199" y2="0"/>
<line opacity="1" stroke="#FFFFFF" stroke-width="1" x1="203" y1="599" x2="203" y2="0"/>
<line opacity="1" stroke="#FFFFFF" stroke-width="1" x1="206" y1="599" x2="206" y2="0"/>
<line opacity="1" stroke="#FFFFFF" stroke-width="1" x1="210" y1="599" x2="210" y2="0"/>
<line opacity="1" stroke="#FFFFFF" stroke-width="1" x1="213" y1="599" x2="213" y2="0"/>
<line opacity="1" stroke="#FFFFFF" stroke-width="1" x1="217" y1="599" x2="217" y2="0"/>
<line opacity="1" stroke="#FFFFFF" stroke-width="1" x1="220" y1="599" x2="220" y2="0"/>
<line opacity="1" stroke="#FFFFFF" stroke-width="1" x1="224" y1="599" x2="224" y2="0"/>
<line opacity="1" stroke="#FFFFFF" stroke-width="1" x1="228" y1="599" x2="228" y2="0"/>
<line opacity="1" stroke="#FFFFFF" stroke-width="1" x1="231" y1="599" x2="231" y2="0"/>
<line opacity="1" stroke="#FFFFFF" stroke-width="1" x1="235" y1="599" x2="235" y2="0"/>
<line opacity="1" stroke="#FFFFFF" stroke-width="1" x1="238" y1="599" x2="238" y2="0"/>
<line opacity="1" stroke="#FFFFFF" stroke-width="1" x1="242" y1="599" x2="242" y2="0"/>
<line opacity="1" stroke="#FFFFFF" stroke-width="1" x1="245" y1="599" x2="245" y2="0"/>
<line opacity="1" stroke="#FFFFFF" stroke-width="1" x1="249" y1="599" x2="249" y2="0"/>
<line opacity="1" stroke="#FFFFFF" stroke-width="1" x1="253" y1="599" x2="253" y2="0"/>
<line opacity="1" stroke="#FFFFFF" stroke-width="1" x1="256" y1="599" x2="256" y2="0"/>
<line opacity="1" stroke="#FFFFFF" stroke-width="1" x1="260" y1="599" x2="260" y2="0"/>
<line opacity="1" stroke="#FFFFFF" stroke-width="1" x1="263" y1="599" x2="263" y2="0"/>
<line opacity="1" stroke="#FFFFFF" stroke-width="1" x1="267" y1="599" x2="267" y2="0"/>
<line opacity="1" stroke="#FFFFFF" stroke-width="1" x1="270" y1="599" x2="270" y2="0"/>
<line opacity="1" stroke="#FFFFFF" stroke-width="1" x1="274" y1="599" x2="274" y2="0"/>
<line opacity="1" stroke="#FFFFFF" stroke-width="1" x1="277" y1="599" x2="277" y2="0"/>
<line opacity="1" stroke="#FFFFFF" stroke-width="1" x1="281" y1="599" x2="281" y2="0"/>
<line opacity="1" stroke="#FFFFFF" stroke-width="1" x1="285" y1="599" x2="285" y2="0"/>
<line opacity="1" stroke="#FFFFFF" stroke-width="1" x1="288" y1="599" x2="288" y2="0"/>
<line opacity="1" stroke="#FFFFFF" stroke-width="1" x1="292" y1="599" x2="292" y2="0"/>
<line opacity="1" stroke="#FFFFFF" stroke-width="1" x1="295" y1="599" x2="295" y2="0"/>
<line opacity="1" stroke="#FFFFFF" stroke-width="1" x1="299" y1="599" x2="299" y2="0"/>
<line opacity="1" stroke="#FFFFFF" stroke-width="1" x1="302" y1="599" x2="302" y2="0"/>
<line opacity="1" stroke="#FFFFFF" stroke-width="1" x1="306" y1="599" x2="306" y2="0"/>
<line opacity="1" stroke="#FFFFFF" stroke-width="1" x1="309" y1="599" x2="309" y2="0"/>
<line opacity="1" stroke="#FFFFFF" stroke-width="1" x1="313" y1="599" x2="313" y2="0"/>
<line opacity="1" stroke="#FFFFFF" stroke-width="1" x1="317" y1="599" x2="317" y2="0"/>
<line opacity="1" stroke="#FFFFFF" stroke-width="1" x1="320" y1="599" x2="320" y2="0"/>
<line opacity="1" stroke="#FFFFFF" stroke-width="1" x1="324" y1="599" x2="324" y2="0"/>
<line opacity="1" stroke="#FFFFFF" stroke-width="1" x1="327" y1="599" x2="327" y2="0"/>
<line opacity="1" stroke="#FFFFFF" stroke-width="1" x1="331" y1="599" x2="331" y2="0"/>
<line opacity="1" stroke="#FFFFFF" stroke-width="1" x1="334" y1="599" x2="334" y2="0"/>
<line opacity="1" stroke="#FFFFFF" stroke-width="1" x1="338" y1="599" x2="338" y2="0"/>
<line opacity="1" stroke="#FFFFFF" stroke-width="1" x1="341" y1="599" x2="341" y2="0"/>
<line opacity="1" stroke="#FFFFFF" stroke-width="1" x1="345" y1="599" x2="345" y2="0"/>
<line opacity="1" stroke="#FFFFFF" stroke-width="1" x1="349" y1="599" x2="349" y2="0"/>
<line opacity="1" stroke="#FFFFFF" stroke-width="1" x1="352" y1="599" x2="352" y2="0"/>
<line opacity="1" stroke="#FFFFFF" stroke-width="1" x1="356" y1="599" x2="356" y2="0"/>
<line opacity="1" stroke="#FFFFFF" stroke-width="1" x1="359" y1="599" x2="359" y2="0"/>
<line opacity="1" stroke="#FFFFFF" stroke-width="1" x1="363" y1="599" x2="363" y2="0"/>
<line opacity="1" stroke="#FFFFFF" stroke-width="1" x1="366" y1="599" x2="366" y2="0"/>
<line opacity="1" stroke="#FFFFFF" stroke-width="1" x1="370" y1="599" x2="370" y2="0"/>
<line opacity="1" stroke="#FFFFFF" stroke-width="1" x1="374" y1="599" x2="374" y2="0"/>
<line opacity="1" stroke="#FFFFFF" stroke-width="1" x1="377" y1="599" x2="377" y2="0"/>
<line opacity="1" stroke="#FFFFFF" stroke-width="1" x1="381" y1="599" x2="381" y2="0"/>
<line opacity="1" stroke="#FFFFFF" stroke-width="1" x1="384" y1="599" x2="384" y2="0"/>
<line opacity="1" stroke="#FFFFFF" stroke-width="1" x1="388" y1="599" x2="388" y2="0"/>
<line opacity="1" stroke="#FFFFFF" stroke-width="1" x1="391" y1="599" x2="391" y2="0"/>
<line opacity="1" stroke="#FFFFFF" stroke-width="1" x1="395" y1="599" x2="395" y2="0"/>
<line opacity="1" stroke="#FFFFFF" stroke-width="1" x1="398" y1="599" x2="398" y2="0"/>
<line opacity="1" stroke="#FFFFFF" stroke-width="1" x1="402" y1="599" x2="402" y2="0"/>
<line opacity="1" stroke="#FFFFFF" stroke-width="1" x1="406" y1="599" x2="406" y2="0"/>
<line opacity="1" stroke="#FFFFFF" stroke-width="1" x1="409" y1="599" x2="409" y2="0"/>
<line opacity="1" stroke="#FFFFFF" stroke-width="1" x1="413" y1="599" x2="413" y2="0"/>
<line opacity="1" stroke="#FFFFFF" stroke-width="1" x1="416" y1="599" x2="416" y2="0"/>
<line opacity="1" stroke="#FFFFFF" stroke-width="1" x1="420" y1="599" x2="420" y2="0"/>
<line opacity="1" stroke="#FFFFFF" stroke-width="1" x1="423" y1="599" x2="423" y2="0"/>
<line opacity="1" stroke="#FFFFFF" stroke-width="1" x1="427" y1="599" x2="427" y2="0"/>
<line opacity="1" stroke="#FFFFFF" stroke-width="1" x1="430" y1="599" x2="430" y2="0"/>
<line opacity="1" stroke="#FFFFFF" stroke-width="1" x1="434" y1="599" x2="434" y2="0"/>
<line opacity="1" stroke="#FFFFFF" stroke-width="1" x1="438" y1="599" x2="438" y2="0"/>
<line opacity="1" stroke="#FFFFFF" stroke-width="1" x1="441" y1="599" x2="441" y2="0"/>
<line opacity="1" stroke="#FFFFFF" stroke-width="1" x1="445" y1="599" x2="445" y2="0"/>
<line opacity="1" stroke="#FFFFFF" stroke-width="1" x1="448" y1="599" x2="448" y2="0"/>
<line opacity="1" stroke="#FFFFFF" stroke-width="1" x1="452" y1="599" x2="452" y2="0"/>
<line opacity="1" stroke="#FFFFFF" stroke-width="1" x1="455" y1="599" x2="455" y2="0"/>
<line opacity="1" stroke="#FFFFFF" stroke-width="1" x1="459" y1="599" x2="459" y2="0"/>
<line opacity="1" stroke="#FFFFFF" stroke-width="1" x1="462" y1="599" x2="462" y2="0"/>
<line opacity="1" stroke="#FFFFFF" stroke-width="1" x1="466" y1="599" x2="466" y2="0"/>
<line opacity="1" stroke="#FFFFFF" stroke-width="1" x1="470" y1="599" x2="470" y2="0"/>
<line opacity="1" stroke="#FFFFFF" stroke-width="1" x1="473" y1="599" x2="473" y2="0"/>
<line opacity="1" stroke="#FFFFFF" stroke-width="1" x1="477" y1="599" x2="477" y2="0"/>
<line opacity="1" stroke="#FFFFFF" stroke-width="1" x1="100" y1="572" x2="479" y2="572"/>
<line opacity="1" stroke="#FFFFFF" stroke-width="1" x1="100" y1="517" x2="479" y2="517"/>
<line opacity="1" stroke="#FFFFFF" stroke-width="1" x1="100" y1="463" x2="479" y2="463"/>
<line opacity="1" stroke="#FFFFFF" stroke-width="1" x1="100" y1="408" x2="479" y2="408"/>
<line opacity="1" stroke="#FFFFFF" stroke-width="1" x1="100" y1="354" x2="479" y2="354"/>
<line opacity="1" stroke="#FFFFFF" stroke-width="1" x1="100" y1="299" x2="479" y2="299"/>
<line opacity="1" stroke="#FFFFFF" stroke-width="1" x1="100" y1="245" x2="479" y2="245"/>
<line opacity="1" stroke="#FFFFFF" stroke-width="1" x1="100" y1="190" x2="479" y2="190"/>
<line opacity="1" stroke="#FFFFFF" stroke-width="1" x1="100" y1="136" x2="479" y2="136"/>
<line opacity="1" stroke="#FFFFFF" stroke-width="1" x1="100" y1="81" x2="479" y2="81"/>
<line opacity="1" stroke="#FFFFFF" stroke-width="1" x1="100" y1="27" x2="479" y2="27"/>
<text x="0" y="300" dy="0.76em" text-anchor="middle" font-family="sans-serif" font-size="9.67741935483871" opacity="1" fill="#000000" transform="rotate(270, 0, 300)">
Language
</text>
<text x="290" y="640" dy="-0.5ex" text-anchor="middle" font-family="sans-serif" font-size="9.67741935483871" opacity="1" fill="#000000">
Response, ms
</text>
<line opacity="0.2" stroke="#000000" stroke-width="1" x1="100" y1="599" x2="100" y2="0"/>
<line opacity="0.2" stroke="#000000" stroke-width="1" x1="135" y1="599" x2="135" y2="0"/>
<line opacity="0.2" stroke="#000000" stroke-width="1" x1="171" y1="599" x2="171" y2="0"/>
<line opacity="0.2" stroke="#000000" stroke-width="1" x1="206" y1="599" x2="206" y2="0"/>
<line opacity="0.2" stroke="#000000" stroke-width="1" x1="242" y1="599" x2="242" y2="0"/>
<line opacity="0.2" stroke="#000000" stroke-width="1" x1="277" y1="599" x2="277" y2="0"/>
<line opacity="0.2" stroke="#000000" stroke-width="1" x1="313" y1="599" x2="313" y2="0"/>
<line opacity="0.2" stroke="#000000" stroke-width="1" x1="349" y1="599" x2="349" y2="0"/>
<line opacity="0.2" stroke="#000000" stroke-width="1" x1="384" y1="599" x2="384" y2="0"/>
<line opacity="0.2" stroke="#000000" stroke-width="1" x1="420" y1="599" x2="420" y2="0"/>
<line opacity="0.2" stroke="#000000" stroke-width="1" x1="455" y1="599" x2="455" y2="0"/>
<line opacity="0.2" stroke="#000000" stroke-width="1" x1="100" y1="572" x2="479" y2="572"/>
<line opacity="0.2" stroke="#000000" stroke-width="1" x1="100" y1="517" x2="479" y2="517"/>
<line opacity="0.2" stroke="#000000" stroke-width="1" x1="100" y1="463" x2="479" y2="463"/>
<line opacity="0.2" stroke="#000000" stroke-width="1" x1="100" y1="408" x2="479" y2="408"/>
<line opacity="0.2" stroke="#000000" stroke-width="1" x1="100" y1="354" x2="479" y2="354"/>
<line opacity="0.2" stroke="#000000" stroke-width="1" x1="100" y1="299" x2="479" y2="299"/>
<line opacity="0.2" stroke="#000000" stroke-width="1" x1="100" y1="245" x2="479" y2="245"/>
<line opacity="0.2" stroke="#000000" stroke-width="1" x1="100" y1="190" x2="479" y2="190"/>
<line opacity="0.2" stroke="#000000" stroke-width="1" x1="100" y1="136" x2="479" y2="136"/>
<line opacity="0.2" stroke="#000000" stroke-width="1" x1="100" y1="81" x2="479" y2="81"/>
<line opacity="0.2" stroke="#000000" stroke-width="1" x1="100" y1="27" x2="479" y2="27"/>
<polyline fill="none" opacity="1" stroke="#000000" stroke-width="1" points="99,0 99,599 "/>
<text x="90" y="572" dy="0.5ex" text-anchor="end" font-family="sans-serif" font-size="9.67741935483871" opacity="1" fill="#000000">
&quot;PyPy3/Twisted&quot;
</text>
<polyline fill="none" opacity="1" stroke="#000000" stroke-width="1" points="94,572 99,572 "/>
<text x="90" y="517" dy="0.5ex" text-anchor="end" font-family="sans-serif" font-size="9.67741935483871" opacity="1" fill="#000000">
&quot;D&quot;
</text>
<polyline fill="none" opacity="1" stroke="#000000" stroke-width="1" points="94,517 99,517 "/>
<text x="90" y="463" dy="0.5ex" text-anchor="end" font-family="sans-serif" font-size="9.67741935483871" opacity="1" fill="#000000">
&quot;Rust/Rocket&quot;
</text>
<polyline fill="none" opacity="1" stroke="#000000" stroke-width="1" points="94,463 99,463 "/>
<text x="90" y="408" dy="0.5ex" text-anchor="end" font-family="sans-serif" font-size="9.67741935483871" opacity="1" fill="#000000">
&quot;Node.js&quot;
</text>
<polyline fill="none" opacity="1" stroke="#000000" stroke-width="1" points="94,408 99,408 "/>
<text x="90" y="354" dy="0.5ex" text-anchor="end" font-family="sans-serif" font-size="9.67741935483871" opacity="1" fill="#000000">
&quot;PHP/Swoole&quot;
</text>
<polyline fill="none" opacity="1" stroke="#000000" stroke-width="1" points="94,354 99,354 "/>
<text x="90" y="299" dy="0.5ex" text-anchor="end" font-family="sans-serif" font-size="9.67741935483871" opacity="1" fill="#000000">
&quot;Crystal&quot;
</text>
<polyline fill="none" opacity="1" stroke="#000000" stroke-width="1" points="94,299 99,299 "/>
<text x="90" y="245" dy="0.5ex" text-anchor="end" font-family="sans-serif" font-size="9.67741935483871" opacity="1" fill="#000000">
&quot;Go&quot;
</text>
<polyline fill="none" opacity="1" stroke="#000000" stroke-width="1" points="94,245 99,245 "/>
<text x="90" y="190" dy="0.5ex" text-anchor="end" font-family="sans-serif" font-size="9.67741935483871" opacity="1" fill="#000000">
&quot;Rust/Actix&quot;
</text>
<polyline fill="none" opacity="1" stroke="#000000" stroke-width="1" points="94,190 99,190 "/>
<text x="90" y="136" dy="0.5ex" text-anchor="end" font-family="sans-serif" font-size="9.67741935483871" opacity="1" fill="#000000">
&quot;Rust/hyper-tokio&quot;
</text>
<polyline fill="none" opacity="1" stroke="#000000" stroke-width="1" points="94,136 99,136 "/>
<text x="90" y="81" dy="0.5ex" text-anchor="end" font-family="sans-serif" font-size="9.67741935483871" opacity="1" fill="#000000">
&quot;Rust/warp&quot;
</text>
<polyline fill="none" opacity="1" stroke="#000000" stroke-width="1" points="94,81 99,81 "/>
<text x="90" y="27" dy="0.5ex" text-anchor="end" font-family="sans-serif" font-size="9.67741935483871" opacity="1" fill="#000000">
&quot;Rust/hyper-monoio&quot;
</text>
<polyline fill="none" opacity="1" stroke="#000000" stroke-width="1" points="94,27 99,27 "/>
<polyline fill="none" opacity="1" stroke="#000000" stroke-width="1" points="100,600 479,600 "/>
<text x="100" y="610" dy="0.76em" text-anchor="middle" font-family="sans-serif" font-size="9.67741935483871" opacity="1" fill="#000000">
0.0
</text>
<polyline fill="none" opacity="1" stroke="#000000" stroke-width="1" points="100,600 100,605 "/>
<text x="135" y="610" dy="0.76em" text-anchor="middle" font-family="sans-serif" font-size="9.67741935483871" opacity="1" fill="#000000">
1.0
</text>
<polyline fill="none" opacity="1" stroke="#000000" stroke-width="1" points="135,600 135,605 "/>
<text x="171" y="610" dy="0.76em" text-anchor="middle" font-family="sans-serif" font-size="9.67741935483871" opacity="1" fill="#000000">
2.0
</text>
<polyline fill="none" opacity="1" stroke="#000000" stroke-width="1" points="171,600 171,605 "/>
<text x="206" y="610" dy="0.76em" text-anchor="middle" font-family="sans-serif" font-size="9.67741935483871" opacity="1" fill="#000000">
3.0
</text>
<polyline fill="none" opacity="1" stroke="#000000" stroke-width="1" points="206,600 206,605 "/>
<text x="242" y="610" dy="0.76em" text-anchor="middle" font-family="sans-serif" font-size="9.67741935483871" opacity="1" fill="#000000">
4.0
</text>
<polyline fill="none" opacity="1" stroke="#000000" stroke-width="1" points="242,600 242,605 "/>
<text x="277" y="610" dy="0.76em" text-anchor="middle" font-family="sans-serif" font-size="9.67741935483871" opacity="1" fill="#000000">
5.0
</text>
<polyline fill="none" opacity="1" stroke="#000000" stroke-width="1" points="277,600 277,605 "/>
<text x="313" y="610" dy="0.76em" text-anchor="middle" font-family="sans-serif" font-size="9.67741935483871" opacity="1" fill="#000000">
6.0
</text>
<polyline fill="none" opacity="1" stroke="#000000" stroke-width="1" points="313,600 313,605 "/>
<text x="349" y="610" dy="0.76em" text-anchor="middle" font-family="sans-serif" font-size="9.67741935483871" opacity="1" fill="#000000">
7.0
</text>
<polyline fill="none" opacity="1" stroke="#000000" stroke-width="1" points="349,600 349,605 "/>
<text x="384" y="610" dy="0.76em" text-anchor="middle" font-family="sans-serif" font-size="9.67741935483871" opacity="1" fill="#000000">
8.0
</text>
<polyline fill="none" opacity="1" stroke="#000000" stroke-width="1" points="384,600 384,605 "/>
<text x="420" y="610" dy="0.76em" text-anchor="middle" font-family="sans-serif" font-size="9.67741935483871" opacity="1" fill="#000000">
9.0
</text>
<polyline fill="none" opacity="1" stroke="#000000" stroke-width="1" points="420,600 420,605 "/>
<text x="455" y="610" dy="0.76em" text-anchor="middle" font-family="sans-serif" font-size="9.67741935483871" opacity="1" fill="#000000">
10.0
</text>
<polyline fill="none" opacity="1" stroke="#000000" stroke-width="1" points="455,600 455,605 "/>
<line opacity="1" stroke="#E6194B" stroke-width="1" x1="100" y1="287" x2="100" y2="291"/>
<line opacity="1" stroke="#E6194B" stroke-width="1" x1="100" y1="289" x2="146" y2="289"/>
<rect x="146" y="284" width="32" height="10" opacity="1" fill="none" stroke="#E6194B"/>
<line opacity="1" stroke="#E6194B" stroke-width="1" x1="167" y1="284" x2="167" y2="294"/>
<line opacity="1" stroke="#E6194B" stroke-width="1" x1="178" y1="289" x2="226" y2="289"/>
<line opacity="1" stroke="#E6194B" stroke-width="1" x1="226" y1="287" x2="226" y2="291"/>
<line opacity="1" stroke="#E6194B" stroke-width="1" x1="132" y1="505" x2="132" y2="509"/>
<line opacity="1" stroke="#E6194B" stroke-width="1" x1="132" y1="507" x2="185" y2="507"/>
<rect x="185" y="502" width="35" height="10" opacity="1" fill="none" stroke="#E6194B"/>
<line opacity="1" stroke="#E6194B" stroke-width="1" x1="210" y1="502" x2="210" y2="512"/>
<line opacity="1" stroke="#E6194B" stroke-width="1" x1="220" y1="507" x2="274" y2="507"/>
<line opacity="1" stroke="#E6194B" stroke-width="1" x1="274" y1="505" x2="274" y2="509"/>
<line opacity="1" stroke="#E6194B" stroke-width="1" x1="100" y1="233" x2="100" y2="237"/>
<line opacity="1" stroke="#E6194B" stroke-width="1" x1="100" y1="235" x2="132" y2="235"/>
<rect x="132" y="230" width="85" height="10" opacity="1" fill="none" stroke="#E6194B"/>
<line opacity="1" stroke="#E6194B" stroke-width="1" x1="167" y1="230" x2="167" y2="240"/>
<line opacity="1" stroke="#E6194B" stroke-width="1" x1="217" y1="235" x2="345" y2="235"/>
<line opacity="1" stroke="#E6194B" stroke-width="1" x1="345" y1="233" x2="345" y2="237"/>
<line opacity="1" stroke="#E6194B" stroke-width="1" x1="100" y1="396" x2="100" y2="400"/>
<line opacity="1" stroke="#E6194B" stroke-width="1" x1="100" y1="398" x2="132" y2="398"/>
<rect x="132" y="393" width="124" height="10" opacity="1" fill="none" stroke="#E6194B"/>
<line opacity="1" stroke="#E6194B" stroke-width="1" x1="181" y1="393" x2="181" y2="403"/>
<line opacity="1" stroke="#E6194B" stroke-width="1" x1="256" y1="398" x2="443" y2="398"/>
<line opacity="1" stroke="#E6194B" stroke-width="1" x1="443" y1="396" x2="443" y2="400"/>
<line opacity="1" stroke="#E6194B" stroke-width="1" x1="100" y1="342" x2="100" y2="346"/>
<line opacity="1" stroke="#E6194B" stroke-width="1" x1="100" y1="344" x2="128" y2="344"/>
<rect x="128" y="339" width="103" height="10" opacity="1" fill="none" stroke="#E6194B"/>
<line opacity="1" stroke="#E6194B" stroke-width="1" x1="171" y1="339" x2="171" y2="349"/>
<line opacity="1" stroke="#E6194B" stroke-width="1" x1="231" y1="344" x2="386" y2="344"/>
<line opacity="1" stroke="#E6194B" stroke-width="1" x1="386" y1="342" x2="386" y2="346"/>
<line opacity="1" stroke="#E6194B" stroke-width="1" x1="247" y1="560" x2="247" y2="564"/>
<line opacity="1" stroke="#E6194B" stroke-width="1" x1="247" y1="562" x2="263" y2="562"/>
<rect x="263" y="557" width="11" height="10" opacity="1" fill="none" stroke="#E6194B"/>
<line opacity="1" stroke="#E6194B" stroke-width="1" x1="267" y1="557" x2="267" y2="567"/>
<line opacity="1" stroke="#E6194B" stroke-width="1" x1="274" y1="562" x2="290" y2="562"/>
<line opacity="1" stroke="#E6194B" stroke-width="1" x1="290" y1="560" x2="290" y2="564"/>
<line opacity="1" stroke="#E6194B" stroke-width="1" x1="100" y1="178" x2="100" y2="182"/>
<line opacity="1" stroke="#E6194B" stroke-width="1" x1="100" y1="180" x2="124" y2="180"/>
<rect x="124" y="175" width="89" height="10" opacity="1" fill="none" stroke="#E6194B"/>
<line opacity="1" stroke="#E6194B" stroke-width="1" x1="160" y1="175" x2="160" y2="185"/>
<line opacity="1" stroke="#E6194B" stroke-width="1" x1="213" y1="180" x2="347" y2="180"/>
<line opacity="1" stroke="#E6194B" stroke-width="1" x1="347" y1="178" x2="347" y2="182"/>
<line opacity="1" stroke="#E6194B" stroke-width="1" x1="100" y1="15" x2="100" y2="19"/>
<line opacity="1" stroke="#E6194B" stroke-width="1" x1="100" y1="17" x2="121" y2="17"/>
<rect x="121" y="12" width="85" height="10" opacity="1" fill="none" stroke="#E6194B"/>
<line opacity="1" stroke="#E6194B" stroke-width="1" x1="153" y1="12" x2="153" y2="22"/>
<line opacity="1" stroke="#E6194B" stroke-width="1" x1="206" y1="17" x2="334" y2="17"/>
<line opacity="1" stroke="#E6194B" stroke-width="1" x1="334" y1="15" x2="334" y2="19"/>
<line opacity="1" stroke="#E6194B" stroke-width="1" x1="100" y1="124" x2="100" y2="128"/>
<line opacity="1" stroke="#E6194B" stroke-width="1" x1="100" y1="126" x2="135" y2="126"/>
<rect x="135" y="121" width="53" height="10" opacity="1" fill="none" stroke="#E6194B"/>
<line opacity="1" stroke="#E6194B" stroke-width="1" x1="160" y1="121" x2="160" y2="131"/>
<line opacity="1" stroke="#E6194B" stroke-width="1" x1="188" y1="126" x2="269" y2="126"/>
<line opacity="1" stroke="#E6194B" stroke-width="1" x1="269" y1="124" x2="269" y2="128"/>
<line opacity="1" stroke="#E6194B" stroke-width="1" x1="100" y1="451" x2="100" y2="455"/>
<line opacity="1" stroke="#E6194B" stroke-width="1" x1="100" y1="453" x2="153" y2="453"/>
<rect x="153" y="448" width="114" height="10" opacity="1" fill="none" stroke="#E6194B"/>
<line opacity="1" stroke="#E6194B" stroke-width="1" x1="192" y1="448" x2="192" y2="458"/>
<line opacity="1" stroke="#E6194B" stroke-width="1" x1="267" y1="453" x2="438" y2="453"/>
<line opacity="1" stroke="#E6194B" stroke-width="1" x1="438" y1="451" x2="438" y2="455"/>
<line opacity="1" stroke="#E6194B" stroke-width="1" x1="100" y1="69" x2="100" y2="73"/>
<line opacity="1" stroke="#E6194B" stroke-width="1" x1="100" y1="71" x2="135" y2="71"/>
<rect x="135" y="66" width="57" height="10" opacity="1" fill="none" stroke="#E6194B"/>
<line opacity="1" stroke="#E6194B" stroke-width="1" x1="160" y1="66" x2="160" y2="76"/>
<line opacity="1" stroke="#E6194B" stroke-width="1" x1="192" y1="71" x2="277" y2="71"/>
<line opacity="1" stroke="#E6194B" stroke-width="1" x1="277" y1="69" x2="277" y2="73"/>
<line opacity="1" stroke="#3CB44B" stroke-width="1" x1="100" y1="307" x2="100" y2="311"/>
<line opacity="1" stroke="#3CB44B" stroke-width="1" x1="100" y1="309" x2="139" y2="309"/>
<rect x="139" y="304" width="39" height="10" opacity="1" fill="none" stroke="#3CB44B"/>
<line opacity="1" stroke="#3CB44B" stroke-width="1" x1="160" y1="304" x2="160" y2="314"/>
<line opacity="1" stroke="#3CB44B" stroke-width="1" x1="178" y1="309" x2="237" y2="309"/>
<line opacity="1" stroke="#3CB44B" stroke-width="1" x1="237" y1="307" x2="237" y2="311"/>
<line opacity="1" stroke="#3CB44B" stroke-width="1" x1="167" y1="525" x2="167" y2="529"/>
<line opacity="1" stroke="#3CB44B" stroke-width="1" x1="167" y1="527" x2="199" y2="527"/>
<rect x="199" y="522" width="21" height="10" opacity="1" fill="none" stroke="#3CB44B"/>
<line opacity="1" stroke="#3CB44B" stroke-width="1" x1="213" y1="522" x2="213" y2="532"/>
<line opacity="1" stroke="#3CB44B" stroke-width="1" x1="220" y1="527" x2="253" y2="527"/>
<line opacity="1" stroke="#3CB44B" stroke-width="1" x1="253" y1="525" x2="253" y2="529"/>
<line opacity="1" stroke="#3CB44B" stroke-width="1" x1="100" y1="253" x2="100" y2="257"/>
<line opacity="1" stroke="#3CB44B" stroke-width="1" x1="100" y1="255" x2="139" y2="255"/>
<rect x="139" y="250" width="78" height="10" opacity="1" fill="none" stroke="#3CB44B"/>
<line opacity="1" stroke="#3CB44B" stroke-width="1" x1="174" y1="250" x2="174" y2="260"/>
<line opacity="1" stroke="#3CB44B" stroke-width="1" x1="217" y1="255" x2="334" y2="255"/>
<line opacity="1" stroke="#3CB44B" stroke-width="1" x1="334" y1="253" x2="334" y2="257"/>
<line opacity="1" stroke="#3CB44B" stroke-width="1" x1="100" y1="416" x2="100" y2="420"/>
<line opacity="1" stroke="#3CB44B" stroke-width="1" x1="100" y1="418" x2="132" y2="418"/>
<rect x="132" y="413" width="117" height="10" opacity="1" fill="none" stroke="#3CB44B"/>
<line opacity="1" stroke="#3CB44B" stroke-width="1" x1="181" y1="413" x2="181" y2="423"/>
<line opacity="1" stroke="#3CB44B" stroke-width="1" x1="249" y1="418" x2="425" y2="418"/>
<line opacity="1" stroke="#3CB44B" stroke-width="1" x1="425" y1="416" x2="425" y2="420"/>
<line opacity="1" stroke="#3CB44B" stroke-width="1" x1="100" y1="362" x2="100" y2="366"/>
<line opacity="1" stroke="#3CB44B" stroke-width="1" x1="100" y1="364" x2="132" y2="364"/>
<rect x="132" y="359" width="99" height="10" opacity="1" fill="none" stroke="#3CB44B"/>
<line opacity="1" stroke="#3CB44B" stroke-width="1" x1="174" y1="359" x2="174" y2="369"/>
<line opacity="1" stroke="#3CB44B" stroke-width="1" x1="231" y1="364" x2="381" y2="364"/>
<line opacity="1" stroke="#3CB44B" stroke-width="1" x1="381" y1="362" x2="381" y2="366"/>
<line opacity="1" stroke="#3CB44B" stroke-width="1" x1="240" y1="580" x2="240" y2="584"/>
<line opacity="1" stroke="#3CB44B" stroke-width="1" x1="240" y1="582" x2="267" y2="582"/>
<rect x="267" y="577" width="18" height="10" opacity="1" fill="none" stroke="#3CB44B"/>
<line opacity="1" stroke="#3CB44B" stroke-width="1" x1="274" y1="577" x2="274" y2="587"/>
<line opacity="1" stroke="#3CB44B" stroke-width="1" x1="285" y1="582" x2="311" y2="582"/>
<line opacity="1" stroke="#3CB44B" stroke-width="1" x1="311" y1="580" x2="311" y2="584"/>
<line opacity="1" stroke="#3CB44B" stroke-width="1" x1="100" y1="198" x2="100" y2="202"/>
<line opacity="1" stroke="#3CB44B" stroke-width="1" x1="100" y1="200" x2="121" y2="200"/>
<rect x="121" y="195" width="92" height="10" opacity="1" fill="none" stroke="#3CB44B"/>
<line opacity="1" stroke="#3CB44B" stroke-width="1" x1="156" y1="195" x2="156" y2="205"/>
<line opacity="1" stroke="#3CB44B" stroke-width="1" x1="213" y1="200" x2="352" y2="200"/>
<line opacity="1" stroke="#3CB44B" stroke-width="1" x1="352" y1="198" x2="352" y2="202"/>
<line opacity="1" stroke="#3CB44B" stroke-width="1" x1="100" y1="35" x2="100" y2="39"/>
<line opacity="1" stroke="#3CB44B" stroke-width="1" x1="100" y1="37" x2="121" y2="37"/>
<rect x="121" y="32" width="89" height="10" opacity="1" fill="none" stroke="#3CB44B"/>
<line opacity="1" stroke="#3CB44B" stroke-width="1" x1="153" y1="32" x2="153" y2="42"/>
<line opacity="1" stroke="#3CB44B" stroke-width="1" x1="210" y1="37" x2="343" y2="37"/>
<line opacity="1" stroke="#3CB44B" stroke-width="1" x1="343" y1="35" x2="343" y2="39"/>
<line opacity="1" stroke="#3CB44B" stroke-width="1" x1="100" y1="144" x2="100" y2="148"/>
<line opacity="1" stroke="#3CB44B" stroke-width="1" x1="100" y1="146" x2="135" y2="146"/>
<rect x="135" y="141" width="57" height="10" opacity="1" fill="none" stroke="#3CB44B"/>
<line opacity="1" stroke="#3CB44B" stroke-width="1" x1="160" y1="141" x2="160" y2="151"/>
<line opacity="1" stroke="#3CB44B" stroke-width="1" x1="192" y1="146" x2="277" y2="146"/>
<line opacity="1" stroke="#3CB44B" stroke-width="1" x1="277" y1="144" x2="277" y2="148"/>
<line opacity="1" stroke="#3CB44B" stroke-width="1" x1="100" y1="471" x2="100" y2="475"/>
<line opacity="1" stroke="#3CB44B" stroke-width="1" x1="100" y1="473" x2="146" y2="473"/>
<rect x="146" y="468" width="85" height="10" opacity="1" fill="none" stroke="#3CB44B"/>
<line opacity="1" stroke="#3CB44B" stroke-width="1" x1="174" y1="468" x2="174" y2="478"/>
<line opacity="1" stroke="#3CB44B" stroke-width="1" x1="231" y1="473" x2="359" y2="473"/>
<line opacity="1" stroke="#3CB44B" stroke-width="1" x1="359" y1="471" x2="359" y2="475"/>
<line opacity="1" stroke="#3CB44B" stroke-width="1" x1="100" y1="89" x2="100" y2="93"/>
<line opacity="1" stroke="#3CB44B" stroke-width="1" x1="100" y1="91" x2="139" y2="91"/>
<rect x="139" y="86" width="53" height="10" opacity="1" fill="none" stroke="#3CB44B"/>
<line opacity="1" stroke="#3CB44B" stroke-width="1" x1="164" y1="86" x2="164" y2="96"/>
<line opacity="1" stroke="#3CB44B" stroke-width="1" x1="192" y1="91" x2="272" y2="91"/>
<line opacity="1" stroke="#3CB44B" stroke-width="1" x1="272" y1="89" x2="272" y2="93"/>
<rect x="334" y="5" width="141" height="44" opacity="1" fill="#FFFFFF" stroke="none"/>
<rect x="334" y="5" width="141" height="44" opacity="0.5" fill="none" stroke="#000000"/>
<text x="366" y="15" dy="0.76em" text-anchor="start" font-family="sans-serif" font-size="9.67741935483871" opacity="1" fill="#000000">
Index URL Request
</text>
<text x="366" y="30" dy="0.76em" text-anchor="start" font-family="sans-serif" font-size="9.67741935483871" opacity="1" fill="#000000">
Pattern URL Request
</text>
<rect x="344" y="12" width="12" height="12" opacity="1" fill="#E6194B" stroke="none"/>
<rect x="344" y="27" width="12" height="12" opacity="1" fill="#3CB44B" stroke="none"/>
</svg>
