<svg width="480" height="640" viewBox="0 0 480 640" xmlns="http://www.w3.org/2000/svg">
<rect x="0" y="0" width="479" height="639" opacity="1" fill="#FFFFFF" stroke="none"/>
<line opacity="1" stroke="#FFFFFF" stroke-width="1" x1="105" y1="599" x2="105" y2="-1"/>
<line opacity="1" stroke="#FFFFFF" stroke-width="1" x1="110" y1="599" x2="110" y2="-1"/>
<line opacity="1" stroke="#FFFFFF" stroke-width="1" x1="115" y1="599" x2="115" y2="-1"/>
<line opacity="1" stroke="#FFFFFF" stroke-width="1" x1="120" y1="599" x2="120" y2="-1"/>
<line opacity="1" stroke="#FFFFFF" stroke-width="1" x1="125" y1="599" x2="125" y2="-1"/>
<line opacity="1" stroke="#FFFFFF" stroke-width="1" x1="130" y1="599" x2="130" y2="-1"/>
<line opacity="1" stroke="#FFFFFF" stroke-width="1" x1="135" y1="599" x2="135" y2="-1"/>
<line opacity="1" stroke="#FFFFFF" stroke-width="1" x1="140" y1="599" x2="140" y2="-1"/>
<line opacity="1" stroke="#FFFFFF" stroke-width="1" x1="146" y1="599" x2="146" y2="-1"/>
<line opacity="1" stroke="#FFFFFF" stroke-width="1" x1="151" y1="599" x2="151" y2="-1"/>
<line opacity="1" stroke="#FFFFFF" stroke-width="1" x1="156" y1="599" x2="156" y2="-1"/>
<line opacity="1" stroke="#FFFFFF" stroke-width="1" x1="161" y1="599" x2="161" y2="-1"/>
<line opacity="1" stroke="#FFFFFF" stroke-width="1" x1="166" y1="599" x2="166" y2="-1"/>
<line opacity="1" stroke="#FFFFFF" stroke-width="1" x1="171" y1="599" x2="171" y2="-1"/>
<line opacity="1" stroke="#FFFFFF" stroke-width="1" x1="176" y1="599" x2="176" y2="-1"/>
<line opacity="1" stroke="#FFFFFF" stroke-width="1" x1="181" y1="599" x2="181" y2="-1"/>
<line opacity="1" stroke="#FFFFFF" stroke-width="1" x1="186" y1="599" x2="186" y2="-1"/>
<line opacity="1" stroke="#FFFFFF" stroke-width="1" x1="192" y1="599" x2="192" y2="-1"/>
<line opacity="1" stroke="#FFFFFF" stroke-width="1" x1="197" y1="599" x2="197" y2="-1"/>
<line opacity="1" stroke="#FFFFFF" stroke-width="1" x1="202" y1="599" x2="202" y2="-1"/>
<line opacity="1" stroke="#FFFFFF" stroke-width="1" x1="207" y1="599" x2="207" y2="-1"/>
<line opacity="1" stroke="#FFFFFF" stroke-width="1" x1="212" y1="599" x2="212" y2="-1"/>
<line opacity="1" stroke="#FFFFFF" stroke-width="1" x1="217" y1="599" x2="217" y2="-1"/>
<line opacity="1" stroke="#FFFFFF" stroke-width="1" x1="222" y1="599" x2="222" y2="-1"/>
<line opacity="1" stroke="#FFFFFF" stroke-width="1" x1="227" y1="599" x2="227" y2="-1"/>
<line opacity="1" stroke="#FFFFFF" stroke-width="1" x1="232" y1="599" x2="232" y2="-1"/>
<line opacity="1" stroke="#FFFFFF" stroke-width="1" x1="238" y1="599" x2="238" y2="-1"/>
<line opacity="1" stroke="#FFFFFF" stroke-width="1" x1="243" y1="599" x2="243" y2="-1"/>
<line opacity="1" stroke="#FFFFFF" stroke-width="1" x1="248" y1="599" x2="248" y2="-1"/>
<line opacity="1" stroke="#FFFFFF" stroke-width="1" x1="253" y1="599" x2="253" y2="-1"/>
<line opacity="1" stroke="#FFFFFF" stroke-width="1" x1="258" y1="599" x2="258" y2="-1"/>
<line opacity="1" stroke="#FFFFFF" stroke-width="1" x1="263" y1="599" x2="263" y2="-1"/>
<line opacity="1" stroke="#FFFFFF" stroke-width="1" x1="268" y1="599" x2="268" y2="-1"/>
<line opacity="1" stroke="#FFFFFF" stroke-width="1" x1="273" y1="599" x2="273" y2="-1"/>
<line opacity="1" stroke="#FFFFFF" stroke-width="1" x1="279" y1="599" x2="279" y2="-1"/>
<line opacity="1" stroke="#FFFFFF" stroke-width="1" x1="284" y1="599" x2="284" y2="-1"/>
<line opacity="1" stroke="#FFFFFF" stroke-width="1" x1="289" y1="599" x2="289" y2="-1"/>
<line opacity="1" stroke="#FFFFFF" stroke-width="1" x1="294" y1="599" x2="294" y2="-1"/>
<line opacity="1" stroke="#FFFFFF" stroke-width="1" x1="299" y1="599" x2="299" y2="-1"/>
<line opacity="1" stroke="#FFFFFF" stroke-width="1" x1="304" y1="599" x2="304" y2="-1"/>
<line opacity="1" stroke="#FFFFFF" stroke-width="1" x1="309" y1="599" x2="309" y2="-1"/>
<line opacity="1" stroke="#FFFFFF" stroke-width="1" x1="314" y1="599" x2="314" y2="-1"/>
<line opacity="1" stroke="#FFFFFF" stroke-width="1" x1="319" y1="599" x2="319" y2="-1"/>
<line opacity="1" stroke="#FFFFFF" stroke-width="1" x1="325" y1="599" x2="325" y2="-1"/>
<line opacity="1" stroke="#FFFFFF" stroke-width="1" x1="330" y1="599" x2="330" y2="-1"/>
<line opacity="1" stroke="#FFFFFF" stroke-width="1" x1="335" y1="599" x2="335" y2="-1"/>
<line opacity="1" stroke="#FFFFFF" stroke-width="1" x1="340" y1="599" x2="340" y2="-1"/>
<line opacity="1" stroke="#FFFFFF" stroke-width="1" x1="345" y1="599" x2="345" y2="-1"/>
<line opacity="1" stroke="#FFFFFF" stroke-width="1" x1="350" y1="599" x2="350" y2="-1"/>
<line opacity="1" stroke="#FFFFFF" stroke-width="1" x1="355" y1="599" x2="355" y2="-1"/>
<line opacity="1" stroke="#FFFFFF" stroke-width="1" x1="360" y1="599" x2="360" y2="-1"/>
<line opacity="1" stroke="#FFFFFF" stroke-width="1" x1="365" y1="599" x2="365" y2="-1"/>
<line opacity="1" stroke="#FFFFFF" stroke-width="1" x1="371" y1="599" x2="371" y2="-1"/>
<line opacity="1" stroke="#FFFFFF" stroke-width="1" x1="376" y1="599" x2="376" y2="-1"/>
<line opacity="1" stroke="#FFFFFF" stroke-width="1" x1="381" y1="599" x2="381" y2="-1"/>
<line opacity="1" stroke="#FFFFFF" stroke-width="1" x1="386" y1="599" x2="386" y2="-1"/>
<line opacity="1" stroke="#FFFFFF" stroke-width="1" x1="391" y1="599" x2="391" y2="-1"/>
<line opacity="1" stroke="#FFFFFF" stroke-width="1" x1="396" y1="599" x2="396" y2="-1"/>
<line opacity="1" stroke="#FFFFFF" stroke-width="1" x1="401" y1="599" x2="401" y2="-1"/>
<line opacity="1" stroke="#FFFFFF" stroke-width="1" x1="406" y1="599" x2="406" y2="-1"/>
<line opacity="1" stroke="#FFFFFF" stroke-width="1" x1="411" y1="599" x2="411" y2="-1"/>
<line opacity="1" stroke="#FFFFFF" stroke-width="1" x1="417" y1="599" x2="417" y2="-1"/>
<line opacity="1" stroke="#FFFFFF" stroke-width="1" x1="422" y1="599" x2="422" y2="-1"/>
<line opacity="1" stroke="#FFFFFF" stroke-width="1" x1="427" y1="599" x2="427" y2="-1"/>
<line opacity="1" stroke="#FFFFFF" stroke-width="1" x1="432" y1="599" x2="432" y2="-1"/>
<line opacity="1" stroke="#FFFFFF" stroke-width="1" x1="437" y1="599" x2="437" y2="-1"/>
<line opacity="1" stroke="#FFFFFF" stroke-width="1" x1="442" y1="599" x2="442" y2="-1"/>
<line opacity="1" stroke="#FFFFFF" stroke-width="1" x1="447" y1="599" x2="447" y2="-1"/>
<line opacity="1" stroke="#FFFFFF" stroke-width="1" x1="452" y1="599" x2="452" y2="-1"/>
<line opacity="1" stroke="#FFFFFF" stroke-width="1" x1="458" y1="599" x2="458" y2="-1"/>
<line opacity="1" stroke="#FFFFFF" stroke-width="1" x1="463" y1="599" x2="463" y2="-1"/>
<line opacity="1" stroke="#FFFFFF" stroke-width="1" x1="468" y1="599" x2="468" y2="-1"/>
<line opacity="1" stroke="#FFFFFF" stroke-width="1" x1="473" y1="599" x2="473" y2="-1"/>
<line opacity="1" stroke="#FFFFFF" stroke-width="1" x1="478" y1="599" x2="478" y2="-1"/>
<line opacity="1" stroke="#FFFFFF" stroke-width="1" x1="100" y1="579" x2="480" y2="579"/>
<line opacity="1" stroke="#FFFFFF" stroke-width="1" x1="100" y1="539" x2="480" y2="539"/>
<line opacity="1" stroke="#FFFFFF" stroke-width="1" x1="100" y1="499" x2="480" y2="499"/>
<line opacity="1" stroke="#FFFFFF" stroke-width="1" x1="100" y1="459" x2="480" y2="459"/>
<line opacity="1" stroke="#FFFFFF" stroke-width="1" x1="100" y1="419" x2="480" y2="419"/>
<line opacity="1" stroke="#FFFFFF" stroke-width="1" x1="100" y1="379" x2="480" y2="379"/>
<line opacity="1" stroke="#FFFFFF" stroke-width="1" x1="100" y1="339" x2="480" y2="339"/>
<line opacity="1" stroke="#FFFFFF" stroke-width="1" x1="100" y1="299" x2="480" y2="299"/>
<line opacity="1" stroke="#FFFFFF" stroke-width="1" x1="100" y1="259" x2="480" y2="259"/>
<line opacity="1" stroke="#FFFFFF" stroke-width="1" x1="100" y1="219" x2="480" y2="219"/>
<line opacity="1" stroke="#FFFFFF" stroke-width="1" x1="100" y1="179" x2="480" y2="179"/>
<line opacity="1" stroke="#FFFFFF" stroke-width="1" x1="100" y1="139" x2="480" y2="139"/>
<line opacity="1" stroke="#FFFFFF" stroke-width="1" x1="100" y1="99" x2="480" y2="99"/>
<line opacity="1" stroke="#FFFFFF" stroke-width="1" x1="100" y1="59" x2="480" y2="59"/>
<line opacity="1" stroke="#FFFFFF" stroke-width="1" x1="100" y1="19" x2="480" y2="19"/>
<text x="0" y="300" dy="0.76em" text-anchor="middle" font-family="sans-serif" font-size="9.67741935483871" opacity="1" fill="#000000" transform="rotate(270, 0, 300)">
Language
</text>
<text x="290" y="640" dy="-0.5ex" text-anchor="middle" font-family="sans-serif" font-size="9.67741935483871" opacity="1" fill="#000000">
Response, ms
</text>
<line opacity="0.2" stroke="#000000" stroke-width="1" x1="151" y1="599" x2="151" y2="-1"/>
<line opacity="0.2" stroke="#000000" stroke-width="1" x1="202" y1="599" x2="202" y2="-1"/>
<line opacity="0.2" stroke="#000000" stroke-width="1" x1="253" y1="599" x2="253" y2="-1"/>
<line opacity="0.2" stroke="#000000" stroke-width="1" x1="304" y1="599" x2="304" y2="-1"/>
<line opacity="0.2" stroke="#000000" stroke-width="1" x1="355" y1="599" x2="355" y2="-1"/>
<line opacity="0.2" stroke="#000000" stroke-width="1" x1="406" y1="599" x2="406" y2="-1"/>
<line opacity="0.2" stroke="#000000" stroke-width="1" x1="458" y1="599" x2="458" y2="-1"/>
<line opacity="0.2" stroke="#000000" stroke-width="1" x1="100" y1="579" x2="480" y2="579"/>
<line opacity="0.2" stroke="#000000" stroke-width="1" x1="100" y1="539" x2="480" y2="539"/>
<line opacity="0.2" stroke="#000000" stroke-width="1" x1="100" y1="499" x2="480" y2="499"/>
<line opacity="0.2" stroke="#000000" stroke-width="1" x1="100" y1="459" x2="480" y2="459"/>
<line opacity="0.2" stroke="#000000" stroke-width="1" x1="100" y1="419" x2="480" y2="419"/>
<line opacity="0.2" stroke="#000000" stroke-width="1" x1="100" y1="379" x2="480" y2="379"/>
<line opacity="0.2" stroke="#000000" stroke-width="1" x1="100" y1="339" x2="480" y2="339"/>
<line opacity="0.2" stroke="#000000" stroke-width="1" x1="100" y1="299" x2="480" y2="299"/>
<line opacity="0.2" stroke="#000000" stroke-width="1" x1="100" y1="259" x2="480" y2="259"/>
<line opacity="0.2" stroke="#000000" stroke-width="1" x1="100" y1="219" x2="480" y2="219"/>
<line opacity="0.2" stroke="#000000" stroke-width="1" x1="100" y1="179" x2="480" y2="179"/>
<line opacity="0.2" stroke="#000000" stroke-width="1" x1="100" y1="139" x2="480" y2="139"/>
<line opacity="0.2" stroke="#000000" stroke-width="1" x1="100" y1="99" x2="480" y2="99"/>
<line opacity="0.2" stroke="#000000" stroke-width="1" x1="100" y1="59" x2="480" y2="59"/>
<line opacity="0.2" stroke="#000000" stroke-width="1" x1="100" y1="19" x2="480" y2="19"/>
<polyline fill="none" opacity="1" stroke="#000000" stroke-width="1" points="99,0 99,600 "/>
<text x="90" y="579" dy="0.5ex" text-anchor="end" font-family="sans-serif" font-size="9.67741935483871" opacity="1" fill="#000000">
&quot;PyPy3/Twisted&quot;
</text>
<polyline fill="none" opacity="1" stroke="#000000" stroke-width="1" points="94,579 99,579 "/>
<text x="90" y="539" dy="0.5ex" text-anchor="end" font-family="sans-serif" font-size="9.67741935483871" opacity="1" fill="#000000">
&quot;Java/Spring Boot&quot;
</text>
<polyline fill="none" opacity="1" stroke="#000000" stroke-width="1" points="94,539 99,539 "/>
<text x="90" y="499" dy="0.5ex" text-anchor="end" font-family="sans-serif" font-size="9.67741935483871" opacity="1" fill="#000000">
&quot;Rust/rocket&quot;
</text>
<polyline fill="none" opacity="1" stroke="#000000" stroke-width="1" points="94,499 99,499 "/>
<text x="90" y="459" dy="0.5ex" text-anchor="end" font-family="sans-serif" font-size="9.67741935483871" opacity="1" fill="#000000">
&quot;D (DMD/vibe.d)&quot;
</text>
<polyline fill="none" opacity="1" stroke="#000000" stroke-width="1" points="94,459 99,459 "/>
<text x="90" y="419" dy="0.5ex" text-anchor="end" font-family="sans-serif" font-size="9.67741935483871" opacity="1" fill="#000000">
&quot;Go&quot;
</text>
<polyline fill="none" opacity="1" stroke="#000000" stroke-width="1" points="94,419 99,419 "/>
<text x="90" y="379" dy="0.5ex" text-anchor="end" font-family="sans-serif" font-size="9.67741935483871" opacity="1" fill="#000000">
&quot;Scala/Akka&quot;
</text>
<polyline fill="none" opacity="1" stroke="#000000" stroke-width="1" points="94,379 99,379 "/>
<text x="90" y="339" dy="0.5ex" text-anchor="end" font-family="sans-serif" font-size="9.67741935483871" opacity="1" fill="#000000">
&quot;C++/Boost.Beast&quot;
</text>
<polyline fill="none" opacity="1" stroke="#000000" stroke-width="1" points="94,339 99,339 "/>
<text x="90" y="299" dy="0.5ex" text-anchor="end" font-family="sans-serif" font-size="9.67741935483871" opacity="1" fill="#000000">
&quot;Rust/warp&quot;
</text>
<polyline fill="none" opacity="1" stroke="#000000" stroke-width="1" points="94,299 99,299 "/>
<text x="90" y="259" dy="0.5ex" text-anchor="end" font-family="sans-serif" font-size="9.67741935483871" opacity="1" fill="#000000">
&quot;Rust/hyper&quot;
</text>
<polyline fill="none" opacity="1" stroke="#000000" stroke-width="1" points="94,259 99,259 "/>
<text x="90" y="219" dy="0.5ex" text-anchor="end" font-family="sans-serif" font-size="9.67741935483871" opacity="1" fill="#000000">
&quot;Node.js&quot;
</text>
<polyline fill="none" opacity="1" stroke="#000000" stroke-width="1" points="94,219 99,219 "/>
<text x="90" y="179" dy="0.5ex" text-anchor="end" font-family="sans-serif" font-size="9.67741935483871" opacity="1" fill="#000000">
&quot;PHP/Swoole&quot;
</text>
<polyline fill="none" opacity="1" stroke="#000000" stroke-width="1" points="94,179 99,179 "/>
<text x="90" y="139" dy="0.5ex" text-anchor="end" font-family="sans-serif" font-size="9.67741935483871" opacity="1" fill="#000000">
&quot;D (LDC/vibe.d)&quot;
</text>
<polyline fill="none" opacity="1" stroke="#000000" stroke-width="1" points="94,139 99,139 "/>
<text x="90" y="99" dy="0.5ex" text-anchor="end" font-family="sans-serif" font-size="9.67741935483871" opacity="1" fill="#000000">
&quot;Crystal&quot;
</text>
<polyline fill="none" opacity="1" stroke="#000000" stroke-width="1" points="94,99 99,99 "/>
<text x="90" y="59" dy="0.5ex" text-anchor="end" font-family="sans-serif" font-size="9.67741935483871" opacity="1" fill="#000000">
&quot;Rust/Actix&quot;
</text>
<polyline fill="none" opacity="1" stroke="#000000" stroke-width="1" points="94,59 99,59 "/>
<text x="90" y="19" dy="0.5ex" text-anchor="end" font-family="sans-serif" font-size="9.67741935483871" opacity="1" fill="#000000">
&quot;Rust/Tide&quot;
</text>
<polyline fill="none" opacity="1" stroke="#000000" stroke-width="1" points="94,19 99,19 "/>
<polyline fill="none" opacity="1" stroke="#000000" stroke-width="1" points="100,600 480,600 "/>
<text x="151" y="610" dy="0.76em" text-anchor="middle" font-family="sans-serif" font-size="9.67741935483871" opacity="1" fill="#000000">
5.0
</text>
<polyline fill="none" opacity="1" stroke="#000000" stroke-width="1" points="151,600 151,605 "/>
<text x="202" y="610" dy="0.76em" text-anchor="middle" font-family="sans-serif" font-size="9.67741935483871" opacity="1" fill="#000000">
10.0
</text>
<polyline fill="none" opacity="1" stroke="#000000" stroke-width="1" points="202,600 202,605 "/>
<text x="253" y="610" dy="0.76em" text-anchor="middle" font-family="sans-serif" font-size="9.67741935483871" opacity="1" fill="#000000">
15.0
</text>
<polyline fill="none" opacity="1" stroke="#000000" stroke-width="1" points="253,600 253,605 "/>
<text x="304" y="610" dy="0.76em" text-anchor="middle" font-family="sans-serif" font-size="9.67741935483871" opacity="1" fill="#000000">
20.0
</text>
<polyline fill="none" opacity="1" stroke="#000000" stroke-width="1" points="304,600 304,605 "/>
<text x="355" y="610" dy="0.76em" text-anchor="middle" font-family="sans-serif" font-size="9.67741935483871" opacity="1" fill="#000000">
25.0
</text>
<polyline fill="none" opacity="1" stroke="#000000" stroke-width="1" points="355,600 355,605 "/>
<text x="406" y="610" dy="0.76em" text-anchor="middle" font-family="sans-serif" font-size="9.67741935483871" opacity="1" fill="#000000">
30.0
</text>
<polyline fill="none" opacity="1" stroke="#000000" stroke-width="1" points="406,600 406,605 "/>
<text x="458" y="610" dy="0.76em" text-anchor="middle" font-family="sans-serif" font-size="9.67741935483871" opacity="1" fill="#000000">
35.0
</text>
<polyline fill="none" opacity="1" stroke="#000000" stroke-width="1" points="458,600 458,605 "/>
<line opacity="1" stroke="#E6194B" stroke-width="1" x1="100" y1="327" x2="100" y2="331"/>
<line opacity="1" stroke="#E6194B" stroke-width="1" x1="100" y1="329" x2="107" y2="329"/>
<rect x="107" y="324" width="44" height="10" opacity="1" fill="none" stroke="#E6194B"/>
<line opacity="1" stroke="#E6194B" stroke-width="1" x1="121" y1="324" x2="121" y2="334"/>
<line opacity="1" stroke="#E6194B" stroke-width="1" x1="151" y1="329" x2="217" y2="329"/>
<line opacity="1" stroke="#E6194B" stroke-width="1" x1="217" y1="327" x2="217" y2="331"/>
<line opacity="1" stroke="#E6194B" stroke-width="1" x1="100" y1="87" x2="100" y2="91"/>
<line opacity="1" stroke="#E6194B" stroke-width="1" x1="100" y1="89" x2="104" y2="89"/>
<rect x="104" y="84" width="33" height="10" opacity="1" fill="none" stroke="#E6194B"/>
<line opacity="1" stroke="#E6194B" stroke-width="1" x1="112" y1="84" x2="112" y2="94"/>
<line opacity="1" stroke="#E6194B" stroke-width="1" x1="137" y1="89" x2="188" y2="89"/>
<line opacity="1" stroke="#E6194B" stroke-width="1" x1="188" y1="87" x2="188" y2="91"/>
<line opacity="1" stroke="#E6194B" stroke-width="1" x1="100" y1="447" x2="100" y2="451"/>
<line opacity="1" stroke="#E6194B" stroke-width="1" x1="100" y1="449" x2="117" y2="449"/>
<rect x="117" y="444" width="71" height="10" opacity="1" fill="none" stroke="#E6194B"/>
<line opacity="1" stroke="#E6194B" stroke-width="1" x1="136" y1="444" x2="136" y2="454"/>
<line opacity="1" stroke="#E6194B" stroke-width="1" x1="188" y1="449" x2="296" y2="449"/>
<line opacity="1" stroke="#E6194B" stroke-width="1" x1="296" y1="447" x2="296" y2="451"/>
<line opacity="1" stroke="#E6194B" stroke-width="1" x1="100" y1="407" x2="100" y2="411"/>
<line opacity="1" stroke="#E6194B" stroke-width="1" x1="100" y1="409" x2="113" y2="409"/>
<rect x="113" y="404" width="54" height="10" opacity="1" fill="none" stroke="#E6194B"/>
<line opacity="1" stroke="#E6194B" stroke-width="1" x1="131" y1="404" x2="131" y2="414"/>
<line opacity="1" stroke="#E6194B" stroke-width="1" x1="167" y1="409" x2="248" y2="409"/>
<line opacity="1" stroke="#E6194B" stroke-width="1" x1="248" y1="407" x2="248" y2="411"/>
<line opacity="1" stroke="#E6194B" stroke-width="1" x1="100" y1="527" x2="100" y2="531"/>
<line opacity="1" stroke="#E6194B" stroke-width="1" x1="100" y1="529" x2="159" y2="529"/>
<rect x="159" y="524" width="56" height="10" opacity="1" fill="none" stroke="#E6194B"/>
<line opacity="1" stroke="#E6194B" stroke-width="1" x1="186" y1="524" x2="186" y2="534"/>
<line opacity="1" stroke="#E6194B" stroke-width="1" x1="215" y1="529" x2="299" y2="529"/>
<line opacity="1" stroke="#E6194B" stroke-width="1" x1="299" y1="527" x2="299" y2="531"/>
<line opacity="1" stroke="#E6194B" stroke-width="1" x1="100" y1="127" x2="100" y2="131"/>
<line opacity="1" stroke="#E6194B" stroke-width="1" x1="100" y1="129" x2="110" y2="129"/>
<rect x="110" y="124" width="40" height="10" opacity="1" fill="none" stroke="#E6194B"/>
<line opacity="1" stroke="#E6194B" stroke-width="1" x1="117" y1="124" x2="117" y2="134"/>
<line opacity="1" stroke="#E6194B" stroke-width="1" x1="150" y1="129" x2="209" y2="129"/>
<line opacity="1" stroke="#E6194B" stroke-width="1" x1="209" y1="127" x2="209" y2="131"/>
<line opacity="1" stroke="#E6194B" stroke-width="1" x1="100" y1="207" x2="100" y2="211"/>
<line opacity="1" stroke="#E6194B" stroke-width="1" x1="100" y1="209" x2="109" y2="209"/>
<rect x="109" y="204" width="39" height="10" opacity="1" fill="none" stroke="#E6194B"/>
<line opacity="1" stroke="#E6194B" stroke-width="1" x1="118" y1="204" x2="118" y2="214"/>
<line opacity="1" stroke="#E6194B" stroke-width="1" x1="148" y1="209" x2="206" y2="209"/>
<line opacity="1" stroke="#E6194B" stroke-width="1" x1="206" y1="207" x2="206" y2="211"/>
<line opacity="1" stroke="#E6194B" stroke-width="1" x1="100" y1="167" x2="100" y2="171"/>
<line opacity="1" stroke="#E6194B" stroke-width="1" x1="100" y1="169" x2="107" y2="169"/>
<rect x="107" y="164" width="40" height="10" opacity="1" fill="none" stroke="#E6194B"/>
<line opacity="1" stroke="#E6194B" stroke-width="1" x1="118" y1="164" x2="118" y2="174"/>
<line opacity="1" stroke="#E6194B" stroke-width="1" x1="147" y1="169" x2="206" y2="169"/>
<line opacity="1" stroke="#E6194B" stroke-width="1" x1="206" y1="167" x2="206" y2="171"/>
<line opacity="1" stroke="#E6194B" stroke-width="1" x1="230" y1="567" x2="230" y2="571"/>
<line opacity="1" stroke="#E6194B" stroke-width="1" x1="230" y1="569" x2="246" y2="569"/>
<rect x="246" y="564" width="10" height="10" opacity="1" fill="none" stroke="#E6194B"/>
<line opacity="1" stroke="#E6194B" stroke-width="1" x1="252" y1="564" x2="252" y2="574"/>
<line opacity="1" stroke="#E6194B" stroke-width="1" x1="256" y1="569" x2="271" y2="569"/>
<line opacity="1" stroke="#E6194B" stroke-width="1" x1="271" y1="567" x2="271" y2="571"/>
<line opacity="1" stroke="#E6194B" stroke-width="1" x1="100" y1="47" x2="100" y2="51"/>
<line opacity="1" stroke="#E6194B" stroke-width="1" x1="100" y1="49" x2="103" y2="49"/>
<rect x="103" y="44" width="38" height="10" opacity="1" fill="none" stroke="#E6194B"/>
<line opacity="1" stroke="#E6194B" stroke-width="1" x1="111" y1="44" x2="111" y2="54"/>
<line opacity="1" stroke="#E6194B" stroke-width="1" x1="141" y1="49" x2="200" y2="49"/>
<line opacity="1" stroke="#E6194B" stroke-width="1" x1="200" y1="47" x2="200" y2="51"/>
<line opacity="1" stroke="#E6194B" stroke-width="1" x1="100" y1="247" x2="100" y2="251"/>
<line opacity="1" stroke="#E6194B" stroke-width="1" x1="100" y1="249" x2="111" y2="249"/>
<rect x="111" y="244" width="22" height="10" opacity="1" fill="none" stroke="#E6194B"/>
<line opacity="1" stroke="#E6194B" stroke-width="1" x1="120" y1="244" x2="120" y2="254"/>
<line opacity="1" stroke="#E6194B" stroke-width="1" x1="133" y1="249" x2="167" y2="249"/>
<line opacity="1" stroke="#E6194B" stroke-width="1" x1="167" y1="247" x2="167" y2="251"/>
<line opacity="1" stroke="#E6194B" stroke-width="1" x1="100" y1="487" x2="100" y2="491"/>
<line opacity="1" stroke="#E6194B" stroke-width="1" x1="100" y1="489" x2="140" y2="489"/>
<rect x="140" y="484" width="93" height="10" opacity="1" fill="none" stroke="#E6194B"/>
<line opacity="1" stroke="#E6194B" stroke-width="1" x1="179" y1="484" x2="179" y2="494"/>
<line opacity="1" stroke="#E6194B" stroke-width="1" x1="233" y1="489" x2="373" y2="489"/>
<line opacity="1" stroke="#E6194B" stroke-width="1" x1="373" y1="487" x2="373" y2="491"/>
<line opacity="1" stroke="#E6194B" stroke-width="1" x1="100" y1="7" x2="100" y2="11"/>
<line opacity="1" stroke="#E6194B" stroke-width="1" x1="100" y1="9" x2="103" y2="9"/>
<rect x="103" y="4" width="13" height="10" opacity="1" fill="none" stroke="#E6194B"/>
<line opacity="1" stroke="#E6194B" stroke-width="1" x1="107" y1="4" x2="107" y2="14"/>
<line opacity="1" stroke="#E6194B" stroke-width="1" x1="116" y1="9" x2="136" y2="9"/>
<line opacity="1" stroke="#E6194B" stroke-width="1" x1="136" y1="7" x2="136" y2="11"/>
<line opacity="1" stroke="#E6194B" stroke-width="1" x1="100" y1="287" x2="100" y2="291"/>
<line opacity="1" stroke="#E6194B" stroke-width="1" x1="100" y1="289" x2="112" y2="289"/>
<rect x="112" y="284" width="23" height="10" opacity="1" fill="none" stroke="#E6194B"/>
<line opacity="1" stroke="#E6194B" stroke-width="1" x1="121" y1="284" x2="121" y2="294"/>
<line opacity="1" stroke="#E6194B" stroke-width="1" x1="135" y1="289" x2="171" y2="289"/>
<line opacity="1" stroke="#E6194B" stroke-width="1" x1="171" y1="287" x2="171" y2="291"/>
<line opacity="1" stroke="#E6194B" stroke-width="1" x1="100" y1="367" x2="100" y2="371"/>
<line opacity="1" stroke="#E6194B" stroke-width="1" x1="100" y1="369" x2="114" y2="369"/>
<rect x="114" y="364" width="34" height="10" opacity="1" fill="none" stroke="#E6194B"/>
<line opacity="1" stroke="#E6194B" stroke-width="1" x1="126" y1="364" x2="126" y2="374"/>
<line opacity="1" stroke="#E6194B" stroke-width="1" x1="148" y1="369" x2="198" y2="369"/>
<line opacity="1" stroke="#E6194B" stroke-width="1" x1="198" y1="367" x2="198" y2="371"/>
<line opacity="1" stroke="#3CB44B" stroke-width="1" x1="100" y1="347" x2="100" y2="351"/>
<line opacity="1" stroke="#3CB44B" stroke-width="1" x1="100" y1="349" x2="106" y2="349"/>
<rect x="106" y="344" width="56" height="10" opacity="1" fill="none" stroke="#3CB44B"/>
<line opacity="1" stroke="#3CB44B" stroke-width="1" x1="123" y1="344" x2="123" y2="354"/>
<line opacity="1" stroke="#3CB44B" stroke-width="1" x1="162" y1="349" x2="246" y2="349"/>
<line opacity="1" stroke="#3CB44B" stroke-width="1" x1="246" y1="347" x2="246" y2="351"/>
<line opacity="1" stroke="#3CB44B" stroke-width="1" x1="100" y1="107" x2="100" y2="111"/>
<line opacity="1" stroke="#3CB44B" stroke-width="1" x1="100" y1="109" x2="105" y2="109"/>
<rect x="105" y="104" width="49" height="10" opacity="1" fill="none" stroke="#3CB44B"/>
<line opacity="1" stroke="#3CB44B" stroke-width="1" x1="116" y1="104" x2="116" y2="114"/>
<line opacity="1" stroke="#3CB44B" stroke-width="1" x1="154" y1="109" x2="227" y2="109"/>
<line opacity="1" stroke="#3CB44B" stroke-width="1" x1="227" y1="107" x2="227" y2="111"/>
<line opacity="1" stroke="#3CB44B" stroke-width="1" x1="100" y1="467" x2="100" y2="471"/>
<line opacity="1" stroke="#3CB44B" stroke-width="1" x1="100" y1="469" x2="118" y2="469"/>
<rect x="118" y="464" width="72" height="10" opacity="1" fill="none" stroke="#3CB44B"/>
<line opacity="1" stroke="#3CB44B" stroke-width="1" x1="140" y1="464" x2="140" y2="474"/>
<line opacity="1" stroke="#3CB44B" stroke-width="1" x1="190" y1="469" x2="297" y2="469"/>
<line opacity="1" stroke="#3CB44B" stroke-width="1" x1="297" y1="467" x2="297" y2="471"/>
<line opacity="1" stroke="#3CB44B" stroke-width="1" x1="100" y1="427" x2="100" y2="431"/>
<line opacity="1" stroke="#3CB44B" stroke-width="1" x1="100" y1="429" x2="109" y2="429"/>
<rect x="109" y="424" width="36" height="10" opacity="1" fill="none" stroke="#3CB44B"/>
<line opacity="1" stroke="#3CB44B" stroke-width="1" x1="121" y1="424" x2="121" y2="434"/>
<line opacity="1" stroke="#3CB44B" stroke-width="1" x1="145" y1="429" x2="198" y2="429"/>
<line opacity="1" stroke="#3CB44B" stroke-width="1" x1="198" y1="427" x2="198" y2="431"/>
<line opacity="1" stroke="#3CB44B" stroke-width="1" x1="100" y1="547" x2="100" y2="551"/>
<line opacity="1" stroke="#3CB44B" stroke-width="1" x1="100" y1="549" x2="136" y2="549"/>
<rect x="136" y="544" width="28" height="10" opacity="1" fill="none" stroke="#3CB44B"/>
<line opacity="1" stroke="#3CB44B" stroke-width="1" x1="149" y1="544" x2="149" y2="554"/>
<line opacity="1" stroke="#3CB44B" stroke-width="1" x1="164" y1="549" x2="205" y2="549"/>
<line opacity="1" stroke="#3CB44B" stroke-width="1" x1="205" y1="547" x2="205" y2="551"/>
<line opacity="1" stroke="#3CB44B" stroke-width="1" x1="100" y1="147" x2="100" y2="151"/>
<line opacity="1" stroke="#3CB44B" stroke-width="1" x1="100" y1="149" x2="110" y2="149"/>
<rect x="110" y="144" width="43" height="10" opacity="1" fill="none" stroke="#3CB44B"/>
<line opacity="1" stroke="#3CB44B" stroke-width="1" x1="118" y1="144" x2="118" y2="154"/>
<line opacity="1" stroke="#3CB44B" stroke-width="1" x1="153" y1="149" x2="217" y2="149"/>
<line opacity="1" stroke="#3CB44B" stroke-width="1" x1="217" y1="147" x2="217" y2="151"/>
<line opacity="1" stroke="#3CB44B" stroke-width="1" x1="100" y1="227" x2="100" y2="231"/>
<line opacity="1" stroke="#3CB44B" stroke-width="1" x1="100" y1="229" x2="109" y2="229"/>
<rect x="109" y="224" width="36" height="10" opacity="1" fill="none" stroke="#3CB44B"/>
<line opacity="1" stroke="#3CB44B" stroke-width="1" x1="116" y1="224" x2="116" y2="234"/>
<line opacity="1" stroke="#3CB44B" stroke-width="1" x1="145" y1="229" x2="198" y2="229"/>
<line opacity="1" stroke="#3CB44B" stroke-width="1" x1="198" y1="227" x2="198" y2="231"/>
<line opacity="1" stroke="#3CB44B" stroke-width="1" x1="100" y1="187" x2="100" y2="191"/>
<line opacity="1" stroke="#3CB44B" stroke-width="1" x1="100" y1="189" x2="106" y2="189"/>
<rect x="106" y="184" width="42" height="10" opacity="1" fill="none" stroke="#3CB44B"/>
<line opacity="1" stroke="#3CB44B" stroke-width="1" x1="119" y1="184" x2="119" y2="194"/>
<line opacity="1" stroke="#3CB44B" stroke-width="1" x1="148" y1="189" x2="210" y2="189"/>
<line opacity="1" stroke="#3CB44B" stroke-width="1" x1="210" y1="187" x2="210" y2="191"/>
<line opacity="1" stroke="#3CB44B" stroke-width="1" x1="219" y1="587" x2="219" y2="591"/>
<line opacity="1" stroke="#3CB44B" stroke-width="1" x1="219" y1="589" x2="238" y2="589"/>
<rect x="238" y="584" width="12" height="10" opacity="1" fill="none" stroke="#3CB44B"/>
<line opacity="1" stroke="#3CB44B" stroke-width="1" x1="244" y1="584" x2="244" y2="594"/>
<line opacity="1" stroke="#3CB44B" stroke-width="1" x1="250" y1="589" x2="268" y2="589"/>
<line opacity="1" stroke="#3CB44B" stroke-width="1" x1="268" y1="587" x2="268" y2="591"/>
<line opacity="1" stroke="#3CB44B" stroke-width="1" x1="100" y1="67" x2="100" y2="71"/>
<line opacity="1" stroke="#3CB44B" stroke-width="1" x1="100" y1="69" x2="104" y2="69"/>
<rect x="104" y="64" width="35" height="10" opacity="1" fill="none" stroke="#3CB44B"/>
<line opacity="1" stroke="#3CB44B" stroke-width="1" x1="111" y1="64" x2="111" y2="74"/>
<line opacity="1" stroke="#3CB44B" stroke-width="1" x1="139" y1="69" x2="193" y2="69"/>
<line opacity="1" stroke="#3CB44B" stroke-width="1" x1="193" y1="67" x2="193" y2="71"/>
<line opacity="1" stroke="#3CB44B" stroke-width="1" x1="100" y1="267" x2="100" y2="271"/>
<line opacity="1" stroke="#3CB44B" stroke-width="1" x1="100" y1="269" x2="112" y2="269"/>
<rect x="112" y="264" width="23" height="10" opacity="1" fill="none" stroke="#3CB44B"/>
<line opacity="1" stroke="#3CB44B" stroke-width="1" x1="120" y1="264" x2="120" y2="274"/>
<line opacity="1" stroke="#3CB44B" stroke-width="1" x1="135" y1="269" x2="171" y2="269"/>
<line opacity="1" stroke="#3CB44B" stroke-width="1" x1="171" y1="267" x2="171" y2="271"/>
<line opacity="1" stroke="#3CB44B" stroke-width="1" x1="100" y1="507" x2="100" y2="511"/>
<line opacity="1" stroke="#3CB44B" stroke-width="1" x1="100" y1="509" x2="145" y2="509"/>
<rect x="145" y="504" width="129" height="10" opacity="1" fill="none" stroke="#3CB44B"/>
<line opacity="1" stroke="#3CB44B" stroke-width="1" x1="197" y1="504" x2="197" y2="514"/>
<line opacity="1" stroke="#3CB44B" stroke-width="1" x1="274" y1="509" x2="469" y2="509"/>
<line opacity="1" stroke="#3CB44B" stroke-width="1" x1="469" y1="507" x2="469" y2="511"/>
<line opacity="1" stroke="#3CB44B" stroke-width="1" x1="100" y1="27" x2="100" y2="31"/>
<line opacity="1" stroke="#3CB44B" stroke-width="1" x1="100" y1="29" x2="103" y2="29"/>
<rect x="103" y="24" width="15" height="10" opacity="1" fill="none" stroke="#3CB44B"/>
<line opacity="1" stroke="#3CB44B" stroke-width="1" x1="107" y1="24" x2="107" y2="34"/>
<line opacity="1" stroke="#3CB44B" stroke-width="1" x1="118" y1="29" x2="141" y2="29"/>
<line opacity="1" stroke="#3CB44B" stroke-width="1" x1="141" y1="27" x2="141" y2="31"/>
<line opacity="1" stroke="#3CB44B" stroke-width="1" x1="100" y1="307" x2="100" y2="311"/>
<line opacity="1" stroke="#3CB44B" stroke-width="1" x1="100" y1="309" x2="113" y2="309"/>
<rect x="113" y="304" width="23" height="10" opacity="1" fill="none" stroke="#3CB44B"/>
<line opacity="1" stroke="#3CB44B" stroke-width="1" x1="122" y1="304" x2="122" y2="314"/>
<line opacity="1" stroke="#3CB44B" stroke-width="1" x1="136" y1="309" x2="172" y2="309"/>
<line opacity="1" stroke="#3CB44B" stroke-width="1" x1="172" y1="307" x2="172" y2="311"/>
<line opacity="1" stroke="#3CB44B" stroke-width="1" x1="100" y1="387" x2="100" y2="391"/>
<line opacity="1" stroke="#3CB44B" stroke-width="1" x1="100" y1="389" x2="115" y2="389"/>
<rect x="115" y="384" width="33" height="10" opacity="1" fill="none" stroke="#3CB44B"/>
<line opacity="1" stroke="#3CB44B" stroke-width="1" x1="127" y1="384" x2="127" y2="394"/>
<line opacity="1" stroke="#3CB44B" stroke-width="1" x1="148" y1="389" x2="197" y2="389"/>
<line opacity="1" stroke="#3CB44B" stroke-width="1" x1="197" y1="387" x2="197" y2="391"/>
<rect x="334" y="5" width="141" height="44" opacity="1" fill="#FFFFFF" stroke="none"/>
<rect x="334" y="5" width="141" height="44" opacity="0.5" fill="none" stroke="#000000"/>
<text x="366" y="15" dy="0.76em" text-anchor="start" font-family="sans-serif" font-size="9.67741935483871" opacity="1" fill="#000000">
Index URL Request
</text>
<text x="366" y="30" dy="0.76em" text-anchor="start" font-family="sans-serif" font-size="9.67741935483871" opacity="1" fill="#000000">
Pattern URL Request
</text>
<rect x="344" y="12" width="12" height="12" opacity="1" fill="#E6194B" stroke="none"/>
<rect x="344" y="27" width="12" height="12" opacity="1" fill="#3CB44B" stroke="none"/>
</svg>
