<svg width="480" height="640" xmlns="http://www.w3.org/2000/svg">
<rect x="0" y="0" width="479" height="639" opacity="1" fill="#FFFFFF" stroke="none"/>
<line opacity="1" stroke="#FFFFFF" stroke-width="1" x1="107" y1="599" x2="107" y2="-1"/>
<line opacity="1" stroke="#FFFFFF" stroke-width="1" x1="115" y1="599" x2="115" y2="-1"/>
<line opacity="1" stroke="#FFFFFF" stroke-width="1" x1="122" y1="599" x2="122" y2="-1"/>
<line opacity="1" stroke="#FFFFFF" stroke-width="1" x1="130" y1="599" x2="130" y2="-1"/>
<line opacity="1" stroke="#FFFFFF" stroke-width="1" x1="138" y1="599" x2="138" y2="-1"/>
<line opacity="1" stroke="#FFFFFF" stroke-width="1" x1="145" y1="599" x2="145" y2="-1"/>
<line opacity="1" stroke="#FFFFFF" stroke-width="1" x1="153" y1="599" x2="153" y2="-1"/>
<line opacity="1" stroke="#FFFFFF" stroke-width="1" x1="161" y1="599" x2="161" y2="-1"/>
<line opacity="1" stroke="#FFFFFF" stroke-width="1" x1="168" y1="599" x2="168" y2="-1"/>
<line opacity="1" stroke="#FFFFFF" stroke-width="1" x1="176" y1="599" x2="176" y2="-1"/>
<line opacity="1" stroke="#FFFFFF" stroke-width="1" x1="184" y1="599" x2="184" y2="-1"/>
<line opacity="1" stroke="#FFFFFF" stroke-width="1" x1="191" y1="599" x2="191" y2="-1"/>
<line opacity="1" stroke="#FFFFFF" stroke-width="1" x1="199" y1="599" x2="199" y2="-1"/>
<line opacity="1" stroke="#FFFFFF" stroke-width="1" x1="207" y1="599" x2="207" y2="-1"/>
<line opacity="1" stroke="#FFFFFF" stroke-width="1" x1="214" y1="599" x2="214" y2="-1"/>
<line opacity="1" stroke="#FFFFFF" stroke-width="1" x1="222" y1="599" x2="222" y2="-1"/>
<line opacity="1" stroke="#FFFFFF" stroke-width="1" x1="229" y1="599" x2="229" y2="-1"/>
<line opacity="1" stroke="#FFFFFF" stroke-width="1" x1="237" y1="599" x2="237" y2="-1"/>
<line opacity="1" stroke="#FFFFFF" stroke-width="1" x1="245" y1="599" x2="245" y2="-1"/>
<line opacity="1" stroke="#FFFFFF" stroke-width="1" x1="252" y1="599" x2="252" y2="-1"/>
<line opacity="1" stroke="#FFFFFF" stroke-width="1" x1="260" y1="599" x2="260" y2="-1"/>
<line opacity="1" stroke="#FFFFFF" stroke-width="1" x1="268" y1="599" x2="268" y2="-1"/>
<line opacity="1" stroke="#FFFFFF" stroke-width="1" x1="275" y1="599" x2="275" y2="-1"/>
<line opacity="1" stroke="#FFFFFF" stroke-width="1" x1="283" y1="599" x2="283" y2="-1"/>
<line opacity="1" stroke="#FFFFFF" stroke-width="1" x1="291" y1="599" x2="291" y2="-1"/>
<line opacity="1" stroke="#FFFFFF" stroke-width="1" x1="298" y1="599" x2="298" y2="-1"/>
<line opacity="1" stroke="#FFFFFF" stroke-width="1" x1="306" y1="599" x2="306" y2="-1"/>
<line opacity="1" stroke="#FFFFFF" stroke-width="1" x1="314" y1="599" x2="314" y2="-1"/>
<line opacity="1" stroke="#FFFFFF" stroke-width="1" x1="321" y1="599" x2="321" y2="-1"/>
<line opacity="1" stroke="#FFFFFF" stroke-width="1" x1="329" y1="599" x2="329" y2="-1"/>
<line opacity="1" stroke="#FFFFFF" stroke-width="1" x1="337" y1="599" x2="337" y2="-1"/>
<line opacity="1" stroke="#FFFFFF" stroke-width="1" x1="344" y1="599" x2="344" y2="-1"/>
<line opacity="1" stroke="#FFFFFF" stroke-width="1" x1="352" y1="599" x2="352" y2="-1"/>
<line opacity="1" stroke="#FFFFFF" stroke-width="1" x1="359" y1="599" x2="359" y2="-1"/>
<line opacity="1" stroke="#FFFFFF" stroke-width="1" x1="367" y1="599" x2="367" y2="-1"/>
<line opacity="1" stroke="#FFFFFF" stroke-width="1" x1="375" y1="599" x2="375" y2="-1"/>
<line opacity="1" stroke="#FFFFFF" stroke-width="1" x1="382" y1="599" x2="382" y2="-1"/>
<line opacity="1" stroke="#FFFFFF" stroke-width="1" x1="390" y1="599" x2="390" y2="-1"/>
<line opacity="1" stroke="#FFFFFF" stroke-width="1" x1="398" y1="599" x2="398" y2="-1"/>
<line opacity="1" stroke="#FFFFFF" stroke-width="1" x1="405" y1="599" x2="405" y2="-1"/>
<line opacity="1" stroke="#FFFFFF" stroke-width="1" x1="413" y1="599" x2="413" y2="-1"/>
<line opacity="1" stroke="#FFFFFF" stroke-width="1" x1="421" y1="599" x2="421" y2="-1"/>
<line opacity="1" stroke="#FFFFFF" stroke-width="1" x1="428" y1="599" x2="428" y2="-1"/>
<line opacity="1" stroke="#FFFFFF" stroke-width="1" x1="436" y1="599" x2="436" y2="-1"/>
<line opacity="1" stroke="#FFFFFF" stroke-width="1" x1="444" y1="599" x2="444" y2="-1"/>
<line opacity="1" stroke="#FFFFFF" stroke-width="1" x1="451" y1="599" x2="451" y2="-1"/>
<line opacity="1" stroke="#FFFFFF" stroke-width="1" x1="459" y1="599" x2="459" y2="-1"/>
<line opacity="1" stroke="#FFFFFF" stroke-width="1" x1="467" y1="599" x2="467" y2="-1"/>
<line opacity="1" stroke="#FFFFFF" stroke-width="1" x1="474" y1="599" x2="474" y2="-1"/>
<line opacity="1" stroke="#FFFFFF" stroke-width="1" x1="100" y1="557" x2="480" y2="557"/>
<line opacity="1" stroke="#FFFFFF" stroke-width="1" x1="100" y1="514" x2="480" y2="514"/>
<line opacity="1" stroke="#FFFFFF" stroke-width="1" x1="100" y1="471" x2="480" y2="471"/>
<line opacity="1" stroke="#FFFFFF" stroke-width="1" x1="100" y1="428" x2="480" y2="428"/>
<line opacity="1" stroke="#FFFFFF" stroke-width="1" x1="100" y1="385" x2="480" y2="385"/>
<line opacity="1" stroke="#FFFFFF" stroke-width="1" x1="100" y1="342" x2="480" y2="342"/>
<line opacity="1" stroke="#FFFFFF" stroke-width="1" x1="100" y1="299" x2="480" y2="299"/>
<line opacity="1" stroke="#FFFFFF" stroke-width="1" x1="100" y1="257" x2="480" y2="257"/>
<line opacity="1" stroke="#FFFFFF" stroke-width="1" x1="100" y1="214" x2="480" y2="214"/>
<line opacity="1" stroke="#FFFFFF" stroke-width="1" x1="100" y1="171" x2="480" y2="171"/>
<line opacity="1" stroke="#FFFFFF" stroke-width="1" x1="100" y1="128" x2="480" y2="128"/>
<line opacity="1" stroke="#FFFFFF" stroke-width="1" x1="100" y1="85" x2="480" y2="85"/>
<line opacity="1" stroke="#FFFFFF" stroke-width="1" x1="100" y1="42" x2="480" y2="42"/>
<text x="0" y="300" dy="0.76em" text-anchor="middle" font-family="sans-serif" font-size="9.67741935483871" opacity="1" fill="#000000" transform="rotate(270, 0, 300)">
Language
</text>
<text x="290" y="640" dy="-0.5ex" text-anchor="middle" font-family="sans-serif" font-size="9.67741935483871" opacity="1" fill="#000000">
Response, ms
</text>
<line opacity="0.2" stroke="#000000" stroke-width="1" x1="176" y1="599" x2="176" y2="-1"/>
<line opacity="0.2" stroke="#000000" stroke-width="1" x1="252" y1="599" x2="252" y2="-1"/>
<line opacity="0.2" stroke="#000000" stroke-width="1" x1="329" y1="599" x2="329" y2="-1"/>
<line opacity="0.2" stroke="#000000" stroke-width="1" x1="405" y1="599" x2="405" y2="-1"/>
<line opacity="0.2" stroke="#000000" stroke-width="1" x1="100" y1="557" x2="480" y2="557"/>
<line opacity="0.2" stroke="#000000" stroke-width="1" x1="100" y1="514" x2="480" y2="514"/>
<line opacity="0.2" stroke="#000000" stroke-width="1" x1="100" y1="471" x2="480" y2="471"/>
<line opacity="0.2" stroke="#000000" stroke-width="1" x1="100" y1="428" x2="480" y2="428"/>
<line opacity="0.2" stroke="#000000" stroke-width="1" x1="100" y1="385" x2="480" y2="385"/>
<line opacity="0.2" stroke="#000000" stroke-width="1" x1="100" y1="342" x2="480" y2="342"/>
<line opacity="0.2" stroke="#000000" stroke-width="1" x1="100" y1="299" x2="480" y2="299"/>
<line opacity="0.2" stroke="#000000" stroke-width="1" x1="100" y1="257" x2="480" y2="257"/>
<line opacity="0.2" stroke="#000000" stroke-width="1" x1="100" y1="214" x2="480" y2="214"/>
<line opacity="0.2" stroke="#000000" stroke-width="1" x1="100" y1="171" x2="480" y2="171"/>
<line opacity="0.2" stroke="#000000" stroke-width="1" x1="100" y1="128" x2="480" y2="128"/>
<line opacity="0.2" stroke="#000000" stroke-width="1" x1="100" y1="85" x2="480" y2="85"/>
<line opacity="0.2" stroke="#000000" stroke-width="1" x1="100" y1="42" x2="480" y2="42"/>
<polyline fill="none" opacity="1" stroke="#000000" stroke-width="1" points="99,0 99,600 "/>
<text x="90" y="557" dy="0.5ex" text-anchor="end" font-family="sans-serif" font-size="9.67741935483871" opacity="1" fill="#000000">
Rust/rocket
</text>
<polyline fill="none" opacity="1" stroke="#000000" stroke-width="1" points="94,557 99,557 "/>
<text x="90" y="514" dy="0.5ex" text-anchor="end" font-family="sans-serif" font-size="9.67741935483871" opacity="1" fill="#000000">
PyPy3/Twisted
</text>
<polyline fill="none" opacity="1" stroke="#000000" stroke-width="1" points="94,514 99,514 "/>
<text x="90" y="471" dy="0.5ex" text-anchor="end" font-family="sans-serif" font-size="9.67741935483871" opacity="1" fill="#000000">
Java/Spring Boot
</text>
<polyline fill="none" opacity="1" stroke="#000000" stroke-width="1" points="94,471 99,471 "/>
<text x="90" y="428" dy="0.5ex" text-anchor="end" font-family="sans-serif" font-size="9.67741935483871" opacity="1" fill="#000000">
PHP/Swoole
</text>
<polyline fill="none" opacity="1" stroke="#000000" stroke-width="1" points="94,428 99,428 "/>
<text x="90" y="385" dy="0.5ex" text-anchor="end" font-family="sans-serif" font-size="9.67741935483871" opacity="1" fill="#000000">
Rust/hyper
</text>
<polyline fill="none" opacity="1" stroke="#000000" stroke-width="1" points="94,385 99,385 "/>
<text x="90" y="342" dy="0.5ex" text-anchor="end" font-family="sans-serif" font-size="9.67741935483871" opacity="1" fill="#000000">
Rust/warp
</text>
<polyline fill="none" opacity="1" stroke="#000000" stroke-width="1" points="94,342 99,342 "/>
<text x="90" y="299" dy="0.5ex" text-anchor="end" font-family="sans-serif" font-size="9.67741935483871" opacity="1" fill="#000000">
Node.js
</text>
<polyline fill="none" opacity="1" stroke="#000000" stroke-width="1" points="94,299 99,299 "/>
<text x="90" y="257" dy="0.5ex" text-anchor="end" font-family="sans-serif" font-size="9.67741935483871" opacity="1" fill="#000000">
D (LDC/vibe.d)
</text>
<polyline fill="none" opacity="1" stroke="#000000" stroke-width="1" points="94,257 99,257 "/>
<text x="90" y="214" dy="0.5ex" text-anchor="end" font-family="sans-serif" font-size="9.67741935483871" opacity="1" fill="#000000">
Scala/Akka
</text>
<polyline fill="none" opacity="1" stroke="#000000" stroke-width="1" points="94,214 99,214 "/>
<text x="90" y="171" dy="0.5ex" text-anchor="end" font-family="sans-serif" font-size="9.67741935483871" opacity="1" fill="#000000">
D (DMD/vibe.d)
</text>
<polyline fill="none" opacity="1" stroke="#000000" stroke-width="1" points="94,171 99,171 "/>
<text x="90" y="128" dy="0.5ex" text-anchor="end" font-family="sans-serif" font-size="9.67741935483871" opacity="1" fill="#000000">
Rust/Tide
</text>
<polyline fill="none" opacity="1" stroke="#000000" stroke-width="1" points="94,128 99,128 "/>
<text x="90" y="85" dy="0.5ex" text-anchor="end" font-family="sans-serif" font-size="9.67741935483871" opacity="1" fill="#000000">
Go
</text>
<polyline fill="none" opacity="1" stroke="#000000" stroke-width="1" points="94,85 99,85 "/>
<text x="90" y="42" dy="0.5ex" text-anchor="end" font-family="sans-serif" font-size="9.67741935483871" opacity="1" fill="#000000">
Crystal
</text>
<polyline fill="none" opacity="1" stroke="#000000" stroke-width="1" points="94,42 99,42 "/>
<polyline fill="none" opacity="1" stroke="#000000" stroke-width="1" points="100,600 480,600 "/>
<text x="176" y="610" dy="0.76em" text-anchor="middle" font-family="sans-serif" font-size="9.67741935483871" opacity="1" fill="#000000">
5.0
</text>
<polyline fill="none" opacity="1" stroke="#000000" stroke-width="1" points="176,600 176,605 "/>
<text x="252" y="610" dy="0.76em" text-anchor="middle" font-family="sans-serif" font-size="9.67741935483871" opacity="1" fill="#000000">
10.0
</text>
<polyline fill="none" opacity="1" stroke="#000000" stroke-width="1" points="252,600 252,605 "/>
<text x="329" y="610" dy="0.76em" text-anchor="middle" font-family="sans-serif" font-size="9.67741935483871" opacity="1" fill="#000000">
15.0
</text>
<polyline fill="none" opacity="1" stroke="#000000" stroke-width="1" points="329,600 329,605 "/>
<text x="405" y="610" dy="0.76em" text-anchor="middle" font-family="sans-serif" font-size="9.67741935483871" opacity="1" fill="#000000">
20.0
</text>
<polyline fill="none" opacity="1" stroke="#000000" stroke-width="1" points="405,600 405,605 "/>
<line opacity="1" stroke="#E6194B" stroke-width="1" x1="100" y1="30" x2="100" y2="34"/>
<line opacity="1" stroke="#E6194B" stroke-width="1" x1="100" y1="32" x2="101" y2="32"/>
<rect x="101" y="27" width="57" height="10" opacity="1" fill="none" stroke="#E6194B"/>
<line opacity="1" stroke="#E6194B" stroke-width="1" x1="107" y1="27" x2="107" y2="37"/>
<line opacity="1" stroke="#E6194B" stroke-width="1" x1="158" y1="32" x2="242" y2="32"/>
<line opacity="1" stroke="#E6194B" stroke-width="1" x1="242" y1="30" x2="242" y2="34"/>
<line opacity="1" stroke="#E6194B" stroke-width="1" x1="100" y1="159" x2="100" y2="163"/>
<line opacity="1" stroke="#E6194B" stroke-width="1" x1="100" y1="161" x2="104" y2="161"/>
<rect x="104" y="156" width="64" height="10" opacity="1" fill="none" stroke="#E6194B"/>
<line opacity="1" stroke="#E6194B" stroke-width="1" x1="138" y1="156" x2="138" y2="166"/>
<line opacity="1" stroke="#E6194B" stroke-width="1" x1="168" y1="161" x2="265" y2="161"/>
<line opacity="1" stroke="#E6194B" stroke-width="1" x1="265" y1="159" x2="265" y2="163"/>
<line opacity="1" stroke="#E6194B" stroke-width="1" x1="100" y1="73" x2="100" y2="77"/>
<line opacity="1" stroke="#E6194B" stroke-width="1" x1="100" y1="75" x2="103" y2="75"/>
<rect x="103" y="70" width="58" height="10" opacity="1" fill="none" stroke="#E6194B"/>
<line opacity="1" stroke="#E6194B" stroke-width="1" x1="129" y1="70" x2="129" y2="80"/>
<line opacity="1" stroke="#E6194B" stroke-width="1" x1="161" y1="75" x2="248" y2="75"/>
<line opacity="1" stroke="#E6194B" stroke-width="1" x1="248" y1="73" x2="248" y2="77"/>
<line opacity="1" stroke="#E6194B" stroke-width="1" x1="100" y1="459" x2="100" y2="463"/>
<line opacity="1" stroke="#E6194B" stroke-width="1" x1="100" y1="461" x2="171" y2="461"/>
<rect x="171" y="456" width="60" height="10" opacity="1" fill="none" stroke="#E6194B"/>
<line opacity="1" stroke="#E6194B" stroke-width="1" x1="199" y1="456" x2="199" y2="466"/>
<line opacity="1" stroke="#E6194B" stroke-width="1" x1="231" y1="461" x2="320" y2="461"/>
<line opacity="1" stroke="#E6194B" stroke-width="1" x1="320" y1="459" x2="320" y2="463"/>
<line opacity="1" stroke="#E6194B" stroke-width="1" x1="100" y1="245" x2="100" y2="249"/>
<line opacity="1" stroke="#E6194B" stroke-width="1" x1="100" y1="247" x2="104" y2="247"/>
<rect x="104" y="242" width="70" height="10" opacity="1" fill="none" stroke="#E6194B"/>
<line opacity="1" stroke="#E6194B" stroke-width="1" x1="142" y1="242" x2="142" y2="252"/>
<line opacity="1" stroke="#E6194B" stroke-width="1" x1="174" y1="247" x2="280" y2="247"/>
<line opacity="1" stroke="#E6194B" stroke-width="1" x1="280" y1="245" x2="280" y2="249"/>
<line opacity="1" stroke="#E6194B" stroke-width="1" x1="100" y1="287" x2="100" y2="291"/>
<line opacity="1" stroke="#E6194B" stroke-width="1" x1="100" y1="289" x2="104" y2="289"/>
<rect x="104" y="284" width="75" height="10" opacity="1" fill="none" stroke="#E6194B"/>
<line opacity="1" stroke="#E6194B" stroke-width="1" x1="144" y1="284" x2="144" y2="294"/>
<line opacity="1" stroke="#E6194B" stroke-width="1" x1="179" y1="289" x2="291" y2="289"/>
<line opacity="1" stroke="#E6194B" stroke-width="1" x1="291" y1="287" x2="291" y2="291"/>
<line opacity="1" stroke="#E6194B" stroke-width="1" x1="100" y1="416" x2="100" y2="420"/>
<line opacity="1" stroke="#E6194B" stroke-width="1" x1="100" y1="418" x2="104" y2="418"/>
<rect x="104" y="413" width="125" height="10" opacity="1" fill="none" stroke="#E6194B"/>
<line opacity="1" stroke="#E6194B" stroke-width="1" x1="176" y1="413" x2="176" y2="423"/>
<line opacity="1" stroke="#E6194B" stroke-width="1" x1="229" y1="418" x2="418" y2="418"/>
<line opacity="1" stroke="#E6194B" stroke-width="1" x1="418" y1="416" x2="418" y2="420"/>
<line opacity="1" stroke="#E6194B" stroke-width="1" x1="212" y1="502" x2="212" y2="506"/>
<line opacity="1" stroke="#E6194B" stroke-width="1" x1="212" y1="504" x2="228" y2="504"/>
<rect x="228" y="499" width="11" height="10" opacity="1" fill="none" stroke="#E6194B"/>
<line opacity="1" stroke="#E6194B" stroke-width="1" x1="231" y1="499" x2="231" y2="509"/>
<line opacity="1" stroke="#E6194B" stroke-width="1" x1="239" y1="504" x2="255" y2="504"/>
<line opacity="1" stroke="#E6194B" stroke-width="1" x1="255" y1="502" x2="255" y2="506"/>
<line opacity="1" stroke="#E6194B" stroke-width="1" x1="100" y1="373" x2="100" y2="377"/>
<line opacity="1" stroke="#E6194B" stroke-width="1" x1="100" y1="375" x2="118" y2="375"/>
<rect x="118" y="370" width="87" height="10" opacity="1" fill="none" stroke="#E6194B"/>
<line opacity="1" stroke="#E6194B" stroke-width="1" x1="155" y1="370" x2="155" y2="380"/>
<line opacity="1" stroke="#E6194B" stroke-width="1" x1="205" y1="375" x2="336" y2="375"/>
<line opacity="1" stroke="#E6194B" stroke-width="1" x1="336" y1="373" x2="336" y2="377"/>
<line opacity="1" stroke="#E6194B" stroke-width="1" x1="100" y1="545" x2="100" y2="549"/>
<line opacity="1" stroke="#E6194B" stroke-width="1" x1="100" y1="547" x2="176" y2="547"/>
<rect x="176" y="542" width="112" height="10" opacity="1" fill="none" stroke="#E6194B"/>
<line opacity="1" stroke="#E6194B" stroke-width="1" x1="242" y1="542" x2="242" y2="552"/>
<line opacity="1" stroke="#E6194B" stroke-width="1" x1="288" y1="547" x2="455" y2="547"/>
<line opacity="1" stroke="#E6194B" stroke-width="1" x1="455" y1="545" x2="455" y2="549"/>
<line opacity="1" stroke="#E6194B" stroke-width="1" x1="100" y1="116" x2="100" y2="120"/>
<line opacity="1" stroke="#E6194B" stroke-width="1" x1="100" y1="118" x2="104" y2="118"/>
<rect x="104" y="113" width="66" height="10" opacity="1" fill="none" stroke="#E6194B"/>
<line opacity="1" stroke="#E6194B" stroke-width="1" x1="136" y1="113" x2="136" y2="123"/>
<line opacity="1" stroke="#E6194B" stroke-width="1" x1="170" y1="118" x2="268" y2="118"/>
<line opacity="1" stroke="#E6194B" stroke-width="1" x1="268" y1="116" x2="268" y2="120"/>
<line opacity="1" stroke="#E6194B" stroke-width="1" x1="138" y1="330" x2="138" y2="334"/>
<line opacity="1" stroke="#E6194B" stroke-width="1" x1="138" y1="332" x2="147" y2="332"/>
<rect x="147" y="327" width="6" height="10" opacity="1" fill="none" stroke="#E6194B"/>
<line opacity="1" stroke="#E6194B" stroke-width="1" x1="148" y1="327" x2="148" y2="337"/>
<line opacity="1" stroke="#E6194B" stroke-width="1" x1="153" y1="332" x2="162" y2="332"/>
<line opacity="1" stroke="#E6194B" stroke-width="1" x1="162" y1="330" x2="162" y2="334"/>
<line opacity="1" stroke="#E6194B" stroke-width="1" x1="100" y1="202" x2="100" y2="206"/>
<line opacity="1" stroke="#E6194B" stroke-width="1" x1="100" y1="204" x2="116" y2="204"/>
<rect x="116" y="199" width="52" height="10" opacity="1" fill="none" stroke="#E6194B"/>
<line opacity="1" stroke="#E6194B" stroke-width="1" x1="141" y1="199" x2="141" y2="209"/>
<line opacity="1" stroke="#E6194B" stroke-width="1" x1="168" y1="204" x2="246" y2="204"/>
<line opacity="1" stroke="#E6194B" stroke-width="1" x1="246" y1="202" x2="246" y2="206"/>
<line opacity="1" stroke="#3CB44B" stroke-width="1" x1="100" y1="50" x2="100" y2="54"/>
<line opacity="1" stroke="#3CB44B" stroke-width="1" x1="100" y1="52" x2="101" y2="52"/>
<rect x="101" y="47" width="61" height="10" opacity="1" fill="none" stroke="#3CB44B"/>
<line opacity="1" stroke="#3CB44B" stroke-width="1" x1="106" y1="47" x2="106" y2="57"/>
<line opacity="1" stroke="#3CB44B" stroke-width="1" x1="162" y1="52" x2="254" y2="52"/>
<line opacity="1" stroke="#3CB44B" stroke-width="1" x1="254" y1="50" x2="254" y2="54"/>
<line opacity="1" stroke="#3CB44B" stroke-width="1" x1="100" y1="179" x2="100" y2="183"/>
<line opacity="1" stroke="#3CB44B" stroke-width="1" x1="100" y1="181" x2="104" y2="181"/>
<rect x="104" y="176" width="66" height="10" opacity="1" fill="none" stroke="#3CB44B"/>
<line opacity="1" stroke="#3CB44B" stroke-width="1" x1="138" y1="176" x2="138" y2="186"/>
<line opacity="1" stroke="#3CB44B" stroke-width="1" x1="170" y1="181" x2="268" y2="181"/>
<line opacity="1" stroke="#3CB44B" stroke-width="1" x1="268" y1="179" x2="268" y2="183"/>
<line opacity="1" stroke="#3CB44B" stroke-width="1" x1="100" y1="93" x2="100" y2="97"/>
<line opacity="1" stroke="#3CB44B" stroke-width="1" x1="100" y1="95" x2="103" y2="95"/>
<rect x="103" y="90" width="59" height="10" opacity="1" fill="none" stroke="#3CB44B"/>
<line opacity="1" stroke="#3CB44B" stroke-width="1" x1="133" y1="90" x2="133" y2="100"/>
<line opacity="1" stroke="#3CB44B" stroke-width="1" x1="162" y1="95" x2="252" y2="95"/>
<line opacity="1" stroke="#3CB44B" stroke-width="1" x1="252" y1="93" x2="252" y2="97"/>
<line opacity="1" stroke="#3CB44B" stroke-width="1" x1="100" y1="479" x2="100" y2="483"/>
<line opacity="1" stroke="#3CB44B" stroke-width="1" x1="100" y1="481" x2="150" y2="481"/>
<rect x="150" y="476" width="40" height="10" opacity="1" fill="none" stroke="#3CB44B"/>
<line opacity="1" stroke="#3CB44B" stroke-width="1" x1="167" y1="476" x2="167" y2="486"/>
<line opacity="1" stroke="#3CB44B" stroke-width="1" x1="190" y1="481" x2="249" y2="481"/>
<line opacity="1" stroke="#3CB44B" stroke-width="1" x1="249" y1="479" x2="249" y2="483"/>
<line opacity="1" stroke="#3CB44B" stroke-width="1" x1="100" y1="265" x2="100" y2="269"/>
<line opacity="1" stroke="#3CB44B" stroke-width="1" x1="100" y1="267" x2="106" y2="267"/>
<rect x="106" y="262" width="75" height="10" opacity="1" fill="none" stroke="#3CB44B"/>
<line opacity="1" stroke="#3CB44B" stroke-width="1" x1="144" y1="262" x2="144" y2="272"/>
<line opacity="1" stroke="#3CB44B" stroke-width="1" x1="181" y1="267" x2="293" y2="267"/>
<line opacity="1" stroke="#3CB44B" stroke-width="1" x1="293" y1="265" x2="293" y2="269"/>
<line opacity="1" stroke="#3CB44B" stroke-width="1" x1="100" y1="307" x2="100" y2="311"/>
<line opacity="1" stroke="#3CB44B" stroke-width="1" x1="100" y1="309" x2="104" y2="309"/>
<rect x="104" y="304" width="75" height="10" opacity="1" fill="none" stroke="#3CB44B"/>
<line opacity="1" stroke="#3CB44B" stroke-width="1" x1="144" y1="304" x2="144" y2="314"/>
<line opacity="1" stroke="#3CB44B" stroke-width="1" x1="179" y1="309" x2="291" y2="309"/>
<line opacity="1" stroke="#3CB44B" stroke-width="1" x1="291" y1="307" x2="291" y2="311"/>
<line opacity="1" stroke="#3CB44B" stroke-width="1" x1="100" y1="436" x2="100" y2="440"/>
<line opacity="1" stroke="#3CB44B" stroke-width="1" x1="100" y1="438" x2="106" y2="438"/>
<rect x="106" y="433" width="131" height="10" opacity="1" fill="none" stroke="#3CB44B"/>
<line opacity="1" stroke="#3CB44B" stroke-width="1" x1="177" y1="433" x2="177" y2="443"/>
<line opacity="1" stroke="#3CB44B" stroke-width="1" x1="237" y1="438" x2="434" y2="438"/>
<line opacity="1" stroke="#3CB44B" stroke-width="1" x1="434" y1="436" x2="434" y2="440"/>
<line opacity="1" stroke="#3CB44B" stroke-width="1" x1="220" y1="522" x2="220" y2="526"/>
<line opacity="1" stroke="#3CB44B" stroke-width="1" x1="220" y1="524" x2="229" y2="524"/>
<rect x="229" y="519" width="7" height="10" opacity="1" fill="none" stroke="#3CB44B"/>
<line opacity="1" stroke="#3CB44B" stroke-width="1" x1="231" y1="519" x2="231" y2="529"/>
<line opacity="1" stroke="#3CB44B" stroke-width="1" x1="236" y1="524" x2="245" y2="524"/>
<line opacity="1" stroke="#3CB44B" stroke-width="1" x1="245" y1="522" x2="245" y2="526"/>
<line opacity="1" stroke="#3CB44B" stroke-width="1" x1="100" y1="393" x2="100" y2="397"/>
<line opacity="1" stroke="#3CB44B" stroke-width="1" x1="100" y1="395" x2="110" y2="395"/>
<rect x="110" y="390" width="66" height="10" opacity="1" fill="none" stroke="#3CB44B"/>
<line opacity="1" stroke="#3CB44B" stroke-width="1" x1="135" y1="390" x2="135" y2="400"/>
<line opacity="1" stroke="#3CB44B" stroke-width="1" x1="176" y1="395" x2="275" y2="395"/>
<line opacity="1" stroke="#3CB44B" stroke-width="1" x1="275" y1="393" x2="275" y2="397"/>
<line opacity="1" stroke="#3CB44B" stroke-width="1" x1="100" y1="565" x2="100" y2="569"/>
<line opacity="1" stroke="#3CB44B" stroke-width="1" x1="100" y1="567" x2="177" y2="567"/>
<rect x="177" y="562" width="115" height="10" opacity="1" fill="none" stroke="#3CB44B"/>
<line opacity="1" stroke="#3CB44B" stroke-width="1" x1="248" y1="562" x2="248" y2="572"/>
<line opacity="1" stroke="#3CB44B" stroke-width="1" x1="292" y1="567" x2="464" y2="567"/>
<line opacity="1" stroke="#3CB44B" stroke-width="1" x1="464" y1="565" x2="464" y2="569"/>
<line opacity="1" stroke="#3CB44B" stroke-width="1" x1="100" y1="136" x2="100" y2="140"/>
<line opacity="1" stroke="#3CB44B" stroke-width="1" x1="100" y1="138" x2="104" y2="138"/>
<rect x="104" y="133" width="63" height="10" opacity="1" fill="none" stroke="#3CB44B"/>
<line opacity="1" stroke="#3CB44B" stroke-width="1" x1="138" y1="133" x2="138" y2="143"/>
<line opacity="1" stroke="#3CB44B" stroke-width="1" x1="167" y1="138" x2="261" y2="138"/>
<line opacity="1" stroke="#3CB44B" stroke-width="1" x1="261" y1="136" x2="261" y2="140"/>
<line opacity="1" stroke="#3CB44B" stroke-width="1" x1="138" y1="350" x2="138" y2="354"/>
<line opacity="1" stroke="#3CB44B" stroke-width="1" x1="138" y1="352" x2="150" y2="352"/>
<rect x="150" y="347" width="8" height="10" opacity="1" fill="none" stroke="#3CB44B"/>
<line opacity="1" stroke="#3CB44B" stroke-width="1" x1="155" y1="347" x2="155" y2="357"/>
<line opacity="1" stroke="#3CB44B" stroke-width="1" x1="158" y1="352" x2="169" y2="352"/>
<line opacity="1" stroke="#3CB44B" stroke-width="1" x1="169" y1="350" x2="169" y2="354"/>
<line opacity="1" stroke="#3CB44B" stroke-width="1" x1="100" y1="222" x2="100" y2="226"/>
<line opacity="1" stroke="#3CB44B" stroke-width="1" x1="100" y1="224" x2="112" y2="224"/>
<rect x="112" y="219" width="67" height="10" opacity="1" fill="none" stroke="#3CB44B"/>
<line opacity="1" stroke="#3CB44B" stroke-width="1" x1="145" y1="219" x2="145" y2="229"/>
<line opacity="1" stroke="#3CB44B" stroke-width="1" x1="179" y1="224" x2="280" y2="224"/>
<line opacity="1" stroke="#3CB44B" stroke-width="1" x1="280" y1="222" x2="280" y2="226"/>
<rect x="328" y="5" width="147" height="46" opacity="1" fill="#FFFFFF" stroke="none"/>
<rect x="328" y="5" width="147" height="46" opacity="0.5" fill="none" stroke="#000000"/>
<text x="360" y="15" dy="0.76em" text-anchor="start" font-family="sans-serif" font-size="9.67741935483871" opacity="1" fill="#000000">
Index URL Request
</text>
<text x="360" y="30" dy="0.76em" text-anchor="start" font-family="sans-serif" font-size="9.67741935483871" opacity="1" fill="#000000">
Pattern URL Request
</text>
<rect x="338" y="13" width="12" height="12" opacity="1" fill="#E6194B" stroke="none"/>
<rect x="338" y="28" width="12" height="12" opacity="1" fill="#3CB44B" stroke="none"/>
</svg>
