<svg width="480" height="640" viewBox="0 0 480 640" xmlns="http://www.w3.org/2000/svg">
<rect x="0" y="0" width="480" height="640" opacity="1" fill="#FFFFFF" stroke="none"/>
<line opacity="1" stroke="#FFFFFF" stroke-width="1" x1="100" y1="599" x2="100" y2="0"/>
<line opacity="1" stroke="#FFFFFF" stroke-width="1" x1="105" y1="599" x2="105" y2="0"/>
<line opacity="1" stroke="#FFFFFF" stroke-width="1" x1="110" y1="599" x2="110" y2="0"/>
<line opacity="1" stroke="#FFFFFF" stroke-width="1" x1="115" y1="599" x2="115" y2="0"/>
<line opacity="1" stroke="#FFFFFF" stroke-width="1" x1="120" y1="599" x2="120" y2="0"/>
<line opacity="1" stroke="#FFFFFF" stroke-width="1" x1="125" y1="599" x2="125" y2="0"/>
<line opacity="1" stroke="#FFFFFF" stroke-width="1" x1="131" y1="599" x2="131" y2="0"/>
<line opacity="1" stroke="#FFFFFF" stroke-width="1" x1="136" y1="599" x2="136" y2="0"/>
<line opacity="1" stroke="#FFFFFF" stroke-width="1" x1="141" y1="599" x2="141" y2="0"/>
<line opacity="1" stroke="#FFFFFF" stroke-width="1" x1="146" y1="599" x2="146" y2="0"/>
<line opacity="1" stroke="#FFFFFF" stroke-width="1" x1="151" y1="599" x2="151" y2="0"/>
<line opacity="1" stroke="#FFFFFF" stroke-width="1" x1="157" y1="599" x2="157" y2="0"/>
<line opacity="1" stroke="#FFFFFF" stroke-width="1" x1="162" y1="599" x2="162" y2="0"/>
<line opacity="1" stroke="#FFFFFF" stroke-width="1" x1="167" y1="599" x2="167" y2="0"/>
<line opacity="1" stroke="#FFFFFF" stroke-width="1" x1="172" y1="599" x2="172" y2="0"/>
<line opacity="1" stroke="#FFFFFF" stroke-width="1" x1="177" y1="599" x2="177" y2="0"/>
<line opacity="1" stroke="#FFFFFF" stroke-width="1" x1="183" y1="599" x2="183" y2="0"/>
<line opacity="1" stroke="#FFFFFF" stroke-width="1" x1="188" y1="599" x2="188" y2="0"/>
<line opacity="1" stroke="#FFFFFF" stroke-width="1" x1="193" y1="599" x2="193" y2="0"/>
<line opacity="1" stroke="#FFFFFF" stroke-width="1" x1="198" y1="599" x2="198" y2="0"/>
<line opacity="1" stroke="#FFFFFF" stroke-width="1" x1="203" y1="599" x2="203" y2="0"/>
<line opacity="1" stroke="#FFFFFF" stroke-width="1" x1="209" y1="599" x2="209" y2="0"/>
<line opacity="1" stroke="#FFFFFF" stroke-width="1" x1="214" y1="599" x2="214" y2="0"/>
<line opacity="1" stroke="#FFFFFF" stroke-width="1" x1="219" y1="599" x2="219" y2="0"/>
<line opacity="1" stroke="#FFFFFF" stroke-width="1" x1="224" y1="599" x2="224" y2="0"/>
<line opacity="1" stroke="#FFFFFF" stroke-width="1" x1="229" y1="599" x2="229" y2="0"/>
<line opacity="1" stroke="#FFFFFF" stroke-width="1" x1="234" y1="599" x2="234" y2="0"/>
<line opacity="1" stroke="#FFFFFF" stroke-width="1" x1="240" y1="599" x2="240" y2="0"/>
<line opacity="1" stroke="#FFFFFF" stroke-width="1" x1="245" y1="599" x2="245" y2="0"/>
<line opacity="1" stroke="#FFFFFF" stroke-width="1" x1="250" y1="599" x2="250" y2="0"/>
<line opacity="1" stroke="#FFFFFF" stroke-width="1" x1="255" y1="599" x2="255" y2="0"/>
<line opacity="1" stroke="#FFFFFF" stroke-width="1" x1="260" y1="599" x2="260" y2="0"/>
<line opacity="1" stroke="#FFFFFF" stroke-width="1" x1="266" y1="599" x2="266" y2="0"/>
<line opacity="1" stroke="#FFFFFF" stroke-width="1" x1="271" y1="599" x2="271" y2="0"/>
<line opacity="1" stroke="#FFFFFF" stroke-width="1" x1="276" y1="599" x2="276" y2="0"/>
<line opacity="1" stroke="#FFFFFF" stroke-width="1" x1="281" y1="599" x2="281" y2="0"/>
<line opacity="1" stroke="#FFFFFF" stroke-width="1" x1="286" y1="599" x2="286" y2="0"/>
<line opacity="1" stroke="#FFFFFF" stroke-width="1" x1="292" y1="599" x2="292" y2="0"/>
<line opacity="1" stroke="#FFFFFF" stroke-width="1" x1="297" y1="599" x2="297" y2="0"/>
<line opacity="1" stroke="#FFFFFF" stroke-width="1" x1="302" y1="599" x2="302" y2="0"/>
<line opacity="1" stroke="#FFFFFF" stroke-width="1" x1="307" y1="599" x2="307" y2="0"/>
<line opacity="1" stroke="#FFFFFF" stroke-width="1" x1="312" y1="599" x2="312" y2="0"/>
<line opacity="1" stroke="#FFFFFF" stroke-width="1" x1="318" y1="599" x2="318" y2="0"/>
<line opacity="1" stroke="#FFFFFF" stroke-width="1" x1="323" y1="599" x2="323" y2="0"/>
<line opacity="1" stroke="#FFFFFF" stroke-width="1" x1="328" y1="599" x2="328" y2="0"/>
<line opacity="1" stroke="#FFFFFF" stroke-width="1" x1="333" y1="599" x2="333" y2="0"/>
<line opacity="1" stroke="#FFFFFF" stroke-width="1" x1="338" y1="599" x2="338" y2="0"/>
<line opacity="1" stroke="#FFFFFF" stroke-width="1" x1="344" y1="599" x2="344" y2="0"/>
<line opacity="1" stroke="#FFFFFF" stroke-width="1" x1="349" y1="599" x2="349" y2="0"/>
<line opacity="1" stroke="#FFFFFF" stroke-width="1" x1="354" y1="599" x2="354" y2="0"/>
<line opacity="1" stroke="#FFFFFF" stroke-width="1" x1="359" y1="599" x2="359" y2="0"/>
<line opacity="1" stroke="#FFFFFF" stroke-width="1" x1="364" y1="599" x2="364" y2="0"/>
<line opacity="1" stroke="#FFFFFF" stroke-width="1" x1="369" y1="599" x2="369" y2="0"/>
<line opacity="1" stroke="#FFFFFF" stroke-width="1" x1="375" y1="599" x2="375" y2="0"/>
<line opacity="1" stroke="#FFFFFF" stroke-width="1" x1="380" y1="599" x2="380" y2="0"/>
<line opacity="1" stroke="#FFFFFF" stroke-width="1" x1="385" y1="599" x2="385" y2="0"/>
<line opacity="1" stroke="#FFFFFF" stroke-width="1" x1="390" y1="599" x2="390" y2="0"/>
<line opacity="1" stroke="#FFFFFF" stroke-width="1" x1="395" y1="599" x2="395" y2="0"/>
<line opacity="1" stroke="#FFFFFF" stroke-width="1" x1="401" y1="599" x2="401" y2="0"/>
<line opacity="1" stroke="#FFFFFF" stroke-width="1" x1="406" y1="599" x2="406" y2="0"/>
<line opacity="1" stroke="#FFFFFF" stroke-width="1" x1="411" y1="599" x2="411" y2="0"/>
<line opacity="1" stroke="#FFFFFF" stroke-width="1" x1="416" y1="599" x2="416" y2="0"/>
<line opacity="1" stroke="#FFFFFF" stroke-width="1" x1="421" y1="599" x2="421" y2="0"/>
<line opacity="1" stroke="#FFFFFF" stroke-width="1" x1="427" y1="599" x2="427" y2="0"/>
<line opacity="1" stroke="#FFFFFF" stroke-width="1" x1="432" y1="599" x2="432" y2="0"/>
<line opacity="1" stroke="#FFFFFF" stroke-width="1" x1="437" y1="599" x2="437" y2="0"/>
<line opacity="1" stroke="#FFFFFF" stroke-width="1" x1="442" y1="599" x2="442" y2="0"/>
<line opacity="1" stroke="#FFFFFF" stroke-width="1" x1="447" y1="599" x2="447" y2="0"/>
<line opacity="1" stroke="#FFFFFF" stroke-width="1" x1="453" y1="599" x2="453" y2="0"/>
<line opacity="1" stroke="#FFFFFF" stroke-width="1" x1="458" y1="599" x2="458" y2="0"/>
<line opacity="1" stroke="#FFFFFF" stroke-width="1" x1="463" y1="599" x2="463" y2="0"/>
<line opacity="1" stroke="#FFFFFF" stroke-width="1" x1="468" y1="599" x2="468" y2="0"/>
<line opacity="1" stroke="#FFFFFF" stroke-width="1" x1="473" y1="599" x2="473" y2="0"/>
<line opacity="1" stroke="#FFFFFF" stroke-width="1" x1="479" y1="599" x2="479" y2="0"/>
<line opacity="1" stroke="#FFFFFF" stroke-width="1" x1="100" y1="569" x2="479" y2="569"/>
<line opacity="1" stroke="#FFFFFF" stroke-width="1" x1="100" y1="509" x2="479" y2="509"/>
<line opacity="1" stroke="#FFFFFF" stroke-width="1" x1="100" y1="449" x2="479" y2="449"/>
<line opacity="1" stroke="#FFFFFF" stroke-width="1" x1="100" y1="389" x2="479" y2="389"/>
<line opacity="1" stroke="#FFFFFF" stroke-width="1" x1="100" y1="329" x2="479" y2="329"/>
<line opacity="1" stroke="#FFFFFF" stroke-width="1" x1="100" y1="270" x2="479" y2="270"/>
<line opacity="1" stroke="#FFFFFF" stroke-width="1" x1="100" y1="210" x2="479" y2="210"/>
<line opacity="1" stroke="#FFFFFF" stroke-width="1" x1="100" y1="150" x2="479" y2="150"/>
<line opacity="1" stroke="#FFFFFF" stroke-width="1" x1="100" y1="90" x2="479" y2="90"/>
<line opacity="1" stroke="#FFFFFF" stroke-width="1" x1="100" y1="30" x2="479" y2="30"/>
<text x="0" y="300" dy="0.76em" text-anchor="middle" font-family="sans-serif" font-size="9.67741935483871" opacity="1" fill="#000000" transform="rotate(270, 0, 300)">
Language
</text>
<text x="290" y="640" dy="-0.5ex" text-anchor="middle" font-family="sans-serif" font-size="9.67741935483871" opacity="1" fill="#000000">
Response, ms
</text>
<line opacity="0.2" stroke="#000000" stroke-width="1" x1="100" y1="599" x2="100" y2="0"/>
<line opacity="0.2" stroke="#000000" stroke-width="1" x1="151" y1="599" x2="151" y2="0"/>
<line opacity="0.2" stroke="#000000" stroke-width="1" x1="203" y1="599" x2="203" y2="0"/>
<line opacity="0.2" stroke="#000000" stroke-width="1" x1="255" y1="599" x2="255" y2="0"/>
<line opacity="0.2" stroke="#000000" stroke-width="1" x1="307" y1="599" x2="307" y2="0"/>
<line opacity="0.2" stroke="#000000" stroke-width="1" x1="359" y1="599" x2="359" y2="0"/>
<line opacity="0.2" stroke="#000000" stroke-width="1" x1="411" y1="599" x2="411" y2="0"/>
<line opacity="0.2" stroke="#000000" stroke-width="1" x1="463" y1="599" x2="463" y2="0"/>
<line opacity="0.2" stroke="#000000" stroke-width="1" x1="100" y1="569" x2="479" y2="569"/>
<line opacity="0.2" stroke="#000000" stroke-width="1" x1="100" y1="509" x2="479" y2="509"/>
<line opacity="0.2" stroke="#000000" stroke-width="1" x1="100" y1="449" x2="479" y2="449"/>
<line opacity="0.2" stroke="#000000" stroke-width="1" x1="100" y1="389" x2="479" y2="389"/>
<line opacity="0.2" stroke="#000000" stroke-width="1" x1="100" y1="329" x2="479" y2="329"/>
<line opacity="0.2" stroke="#000000" stroke-width="1" x1="100" y1="270" x2="479" y2="270"/>
<line opacity="0.2" stroke="#000000" stroke-width="1" x1="100" y1="210" x2="479" y2="210"/>
<line opacity="0.2" stroke="#000000" stroke-width="1" x1="100" y1="150" x2="479" y2="150"/>
<line opacity="0.2" stroke="#000000" stroke-width="1" x1="100" y1="90" x2="479" y2="90"/>
<line opacity="0.2" stroke="#000000" stroke-width="1" x1="100" y1="30" x2="479" y2="30"/>
<polyline fill="none" opacity="1" stroke="#000000" stroke-width="1" points="99,0 99,599 "/>
<text x="90" y="569" dy="0.5ex" text-anchor="end" font-family="sans-serif" font-size="9.67741935483871" opacity="1" fill="#000000">
&quot;PyPy3/Twisted&quot;
</text>
<polyline fill="none" opacity="1" stroke="#000000" stroke-width="1" points="94,569 99,569 "/>
<text x="90" y="509" dy="0.5ex" text-anchor="end" font-family="sans-serif" font-size="9.67741935483871" opacity="1" fill="#000000">
&quot;Go&quot;
</text>
<polyline fill="none" opacity="1" stroke="#000000" stroke-width="1" points="94,509 99,509 "/>
<text x="90" y="449" dy="0.5ex" text-anchor="end" font-family="sans-serif" font-size="9.67741935483871" opacity="1" fill="#000000">
&quot;Node.js&quot;
</text>
<polyline fill="none" opacity="1" stroke="#000000" stroke-width="1" points="94,449 99,449 "/>
<text x="90" y="389" dy="0.5ex" text-anchor="end" font-family="sans-serif" font-size="9.67741935483871" opacity="1" fill="#000000">
&quot;PHP/Swoole&quot;
</text>
<polyline fill="none" opacity="1" stroke="#000000" stroke-width="1" points="94,389 99,389 "/>
<text x="90" y="329" dy="0.5ex" text-anchor="end" font-family="sans-serif" font-size="9.67741935483871" opacity="1" fill="#000000">
&quot;Rust/Rocket&quot;
</text>
<polyline fill="none" opacity="1" stroke="#000000" stroke-width="1" points="94,329 99,329 "/>
<text x="90" y="270" dy="0.5ex" text-anchor="end" font-family="sans-serif" font-size="9.67741935483871" opacity="1" fill="#000000">
&quot;Rust/warp&quot;
</text>
<polyline fill="none" opacity="1" stroke="#000000" stroke-width="1" points="94,270 99,270 "/>
<text x="90" y="210" dy="0.5ex" text-anchor="end" font-family="sans-serif" font-size="9.67741935483871" opacity="1" fill="#000000">
&quot;Crystal&quot;
</text>
<polyline fill="none" opacity="1" stroke="#000000" stroke-width="1" points="94,210 99,210 "/>
<text x="90" y="150" dy="0.5ex" text-anchor="end" font-family="sans-serif" font-size="9.67741935483871" opacity="1" fill="#000000">
&quot;Rust/hyper-tokio&quot;
</text>
<polyline fill="none" opacity="1" stroke="#000000" stroke-width="1" points="94,150 99,150 "/>
<text x="90" y="90" dy="0.5ex" text-anchor="end" font-family="sans-serif" font-size="9.67741935483871" opacity="1" fill="#000000">
&quot;Rust/Actix&quot;
</text>
<polyline fill="none" opacity="1" stroke="#000000" stroke-width="1" points="94,90 99,90 "/>
<text x="90" y="30" dy="0.5ex" text-anchor="end" font-family="sans-serif" font-size="9.67741935483871" opacity="1" fill="#000000">
&quot;Rust/hyper-monoio&quot;
</text>
<polyline fill="none" opacity="1" stroke="#000000" stroke-width="1" points="94,30 99,30 "/>
<polyline fill="none" opacity="1" stroke="#000000" stroke-width="1" points="100,600 479,600 "/>
<text x="100" y="610" dy="0.76em" text-anchor="middle" font-family="sans-serif" font-size="9.67741935483871" opacity="1" fill="#000000">
0.0
</text>
<polyline fill="none" opacity="1" stroke="#000000" stroke-width="1" points="100,600 100,605 "/>
<text x="151" y="610" dy="0.76em" text-anchor="middle" font-family="sans-serif" font-size="9.67741935483871" opacity="1" fill="#000000">
2.0
</text>
<polyline fill="none" opacity="1" stroke="#000000" stroke-width="1" points="151,600 151,605 "/>
<text x="203" y="610" dy="0.76em" text-anchor="middle" font-family="sans-serif" font-size="9.67741935483871" opacity="1" fill="#000000">
4.0
</text>
<polyline fill="none" opacity="1" stroke="#000000" stroke-width="1" points="203,600 203,605 "/>
<text x="255" y="610" dy="0.76em" text-anchor="middle" font-family="sans-serif" font-size="9.67741935483871" opacity="1" fill="#000000">
6.0
</text>
<polyline fill="none" opacity="1" stroke="#000000" stroke-width="1" points="255,600 255,605 "/>
<text x="307" y="610" dy="0.76em" text-anchor="middle" font-family="sans-serif" font-size="9.67741935483871" opacity="1" fill="#000000">
8.0
</text>
<polyline fill="none" opacity="1" stroke="#000000" stroke-width="1" points="307,600 307,605 "/>
<text x="359" y="610" dy="0.76em" text-anchor="middle" font-family="sans-serif" font-size="9.67741935483871" opacity="1" fill="#000000">
10.0
</text>
<polyline fill="none" opacity="1" stroke="#000000" stroke-width="1" points="359,600 359,605 "/>
<text x="411" y="610" dy="0.76em" text-anchor="middle" font-family="sans-serif" font-size="9.67741935483871" opacity="1" fill="#000000">
12.0
</text>
<polyline fill="none" opacity="1" stroke="#000000" stroke-width="1" points="411,600 411,605 "/>
<text x="463" y="610" dy="0.76em" text-anchor="middle" font-family="sans-serif" font-size="9.67741935483871" opacity="1" fill="#000000">
14.0
</text>
<polyline fill="none" opacity="1" stroke="#000000" stroke-width="1" points="463,600 463,605 "/>
<line opacity="1" stroke="#E6194B" stroke-width="1" x1="100" y1="198" x2="100" y2="202"/>
<line opacity="1" stroke="#E6194B" stroke-width="1" x1="100" y1="200" x2="128" y2="200"/>
<rect x="128" y="195" width="36" height="10" opacity="1" fill="none" stroke="#E6194B"/>
<line opacity="1" stroke="#E6194B" stroke-width="1" x1="149" y1="195" x2="149" y2="205"/>
<line opacity="1" stroke="#E6194B" stroke-width="1" x1="164" y1="200" x2="219" y2="200"/>
<line opacity="1" stroke="#E6194B" stroke-width="1" x1="219" y1="198" x2="219" y2="202"/>
<line opacity="1" stroke="#E6194B" stroke-width="1" x1="100" y1="497" x2="100" y2="501"/>
<line opacity="1" stroke="#E6194B" stroke-width="1" x1="100" y1="499" x2="141" y2="499"/>
<rect x="141" y="494" width="125" height="10" opacity="1" fill="none" stroke="#E6194B"/>
<line opacity="1" stroke="#E6194B" stroke-width="1" x1="185" y1="494" x2="185" y2="504"/>
<line opacity="1" stroke="#E6194B" stroke-width="1" x1="266" y1="499" x2="453" y2="499"/>
<line opacity="1" stroke="#E6194B" stroke-width="1" x1="453" y1="497" x2="453" y2="501"/>
<line opacity="1" stroke="#E6194B" stroke-width="1" x1="100" y1="437" x2="100" y2="441"/>
<line opacity="1" stroke="#E6194B" stroke-width="1" x1="100" y1="439" x2="123" y2="439"/>
<rect x="123" y="434" width="88" height="10" opacity="1" fill="none" stroke="#E6194B"/>
<line opacity="1" stroke="#E6194B" stroke-width="1" x1="159" y1="434" x2="159" y2="444"/>
<line opacity="1" stroke="#E6194B" stroke-width="1" x1="211" y1="439" x2="344" y2="439"/>
<line opacity="1" stroke="#E6194B" stroke-width="1" x1="344" y1="437" x2="344" y2="441"/>
<line opacity="1" stroke="#E6194B" stroke-width="1" x1="100" y1="377" x2="100" y2="381"/>
<line opacity="1" stroke="#E6194B" stroke-width="1" x1="100" y1="379" x2="120" y2="379"/>
<rect x="120" y="374" width="78" height="10" opacity="1" fill="none" stroke="#E6194B"/>
<line opacity="1" stroke="#E6194B" stroke-width="1" x1="151" y1="374" x2="151" y2="384"/>
<line opacity="1" stroke="#E6194B" stroke-width="1" x1="198" y1="379" x2="315" y2="379"/>
<line opacity="1" stroke="#E6194B" stroke-width="1" x1="315" y1="377" x2="315" y2="381"/>
<line opacity="1" stroke="#E6194B" stroke-width="1" x1="210" y1="557" x2="210" y2="561"/>
<line opacity="1" stroke="#E6194B" stroke-width="1" x1="210" y1="559" x2="222" y2="559"/>
<rect x="222" y="554" width="7" height="10" opacity="1" fill="none" stroke="#E6194B"/>
<line opacity="1" stroke="#E6194B" stroke-width="1" x1="224" y1="554" x2="224" y2="564"/>
<line opacity="1" stroke="#E6194B" stroke-width="1" x1="229" y1="559" x2="241" y2="559"/>
<line opacity="1" stroke="#E6194B" stroke-width="1" x1="241" y1="557" x2="241" y2="561"/>
<line opacity="1" stroke="#E6194B" stroke-width="1" x1="100" y1="78" x2="100" y2="82"/>
<line opacity="1" stroke="#E6194B" stroke-width="1" x1="100" y1="80" x2="115" y2="80"/>
<rect x="115" y="75" width="70" height="10" opacity="1" fill="none" stroke="#E6194B"/>
<line opacity="1" stroke="#E6194B" stroke-width="1" x1="141" y1="75" x2="141" y2="85"/>
<line opacity="1" stroke="#E6194B" stroke-width="1" x1="185" y1="80" x2="290" y2="80"/>
<line opacity="1" stroke="#E6194B" stroke-width="1" x1="290" y1="78" x2="290" y2="82"/>
<line opacity="1" stroke="#E6194B" stroke-width="1" x1="100" y1="18" x2="100" y2="22"/>
<line opacity="1" stroke="#E6194B" stroke-width="1" x1="100" y1="20" x2="115" y2="20"/>
<rect x="115" y="15" width="65" height="10" opacity="1" fill="none" stroke="#E6194B"/>
<line opacity="1" stroke="#E6194B" stroke-width="1" x1="141" y1="15" x2="141" y2="25"/>
<line opacity="1" stroke="#E6194B" stroke-width="1" x1="180" y1="20" x2="277" y2="20"/>
<line opacity="1" stroke="#E6194B" stroke-width="1" x1="277" y1="18" x2="277" y2="22"/>
<line opacity="1" stroke="#E6194B" stroke-width="1" x1="100" y1="138" x2="100" y2="142"/>
<line opacity="1" stroke="#E6194B" stroke-width="1" x1="100" y1="140" x2="128" y2="140"/>
<rect x="128" y="135" width="49" height="10" opacity="1" fill="none" stroke="#E6194B"/>
<line opacity="1" stroke="#E6194B" stroke-width="1" x1="149" y1="135" x2="149" y2="145"/>
<line opacity="1" stroke="#E6194B" stroke-width="1" x1="177" y1="140" x2="251" y2="140"/>
<line opacity="1" stroke="#E6194B" stroke-width="1" x1="251" y1="138" x2="251" y2="142"/>
<line opacity="1" stroke="#E6194B" stroke-width="1" x1="100" y1="317" x2="100" y2="321"/>
<line opacity="1" stroke="#E6194B" stroke-width="1" x1="100" y1="319" x2="131" y2="319"/>
<rect x="131" y="314" width="62" height="10" opacity="1" fill="none" stroke="#E6194B"/>
<line opacity="1" stroke="#E6194B" stroke-width="1" x1="151" y1="314" x2="151" y2="324"/>
<line opacity="1" stroke="#E6194B" stroke-width="1" x1="193" y1="319" x2="286" y2="319"/>
<line opacity="1" stroke="#E6194B" stroke-width="1" x1="286" y1="317" x2="286" y2="321"/>
<line opacity="1" stroke="#E6194B" stroke-width="1" x1="100" y1="258" x2="100" y2="262"/>
<line opacity="1" stroke="#E6194B" stroke-width="1" x1="100" y1="260" x2="128" y2="260"/>
<rect x="128" y="255" width="57" height="10" opacity="1" fill="none" stroke="#E6194B"/>
<line opacity="1" stroke="#E6194B" stroke-width="1" x1="151" y1="255" x2="151" y2="265"/>
<line opacity="1" stroke="#E6194B" stroke-width="1" x1="185" y1="260" x2="271" y2="260"/>
<line opacity="1" stroke="#E6194B" stroke-width="1" x1="271" y1="258" x2="271" y2="262"/>
<line opacity="1" stroke="#3CB44B" stroke-width="1" x1="100" y1="218" x2="100" y2="222"/>
<line opacity="1" stroke="#3CB44B" stroke-width="1" x1="100" y1="220" x2="128" y2="220"/>
<rect x="128" y="215" width="29" height="10" opacity="1" fill="none" stroke="#3CB44B"/>
<line opacity="1" stroke="#3CB44B" stroke-width="1" x1="146" y1="215" x2="146" y2="225"/>
<line opacity="1" stroke="#3CB44B" stroke-width="1" x1="157" y1="220" x2="199" y2="220"/>
<line opacity="1" stroke="#3CB44B" stroke-width="1" x1="199" y1="218" x2="199" y2="222"/>
<line opacity="1" stroke="#3CB44B" stroke-width="1" x1="100" y1="517" x2="100" y2="521"/>
<line opacity="1" stroke="#3CB44B" stroke-width="1" x1="100" y1="519" x2="125" y2="519"/>
<rect x="125" y="514" width="63" height="10" opacity="1" fill="none" stroke="#3CB44B"/>
<line opacity="1" stroke="#3CB44B" stroke-width="1" x1="154" y1="514" x2="154" y2="524"/>
<line opacity="1" stroke="#3CB44B" stroke-width="1" x1="188" y1="519" x2="281" y2="519"/>
<line opacity="1" stroke="#3CB44B" stroke-width="1" x1="281" y1="517" x2="281" y2="521"/>
<line opacity="1" stroke="#3CB44B" stroke-width="1" x1="100" y1="457" x2="100" y2="461"/>
<line opacity="1" stroke="#3CB44B" stroke-width="1" x1="100" y1="459" x2="123" y2="459"/>
<rect x="123" y="454" width="88" height="10" opacity="1" fill="none" stroke="#3CB44B"/>
<line opacity="1" stroke="#3CB44B" stroke-width="1" x1="157" y1="454" x2="157" y2="464"/>
<line opacity="1" stroke="#3CB44B" stroke-width="1" x1="211" y1="459" x2="344" y2="459"/>
<line opacity="1" stroke="#3CB44B" stroke-width="1" x1="344" y1="457" x2="344" y2="461"/>
<line opacity="1" stroke="#3CB44B" stroke-width="1" x1="100" y1="397" x2="100" y2="401"/>
<line opacity="1" stroke="#3CB44B" stroke-width="1" x1="100" y1="399" x2="123" y2="399"/>
<rect x="123" y="394" width="83" height="10" opacity="1" fill="none" stroke="#3CB44B"/>
<line opacity="1" stroke="#3CB44B" stroke-width="1" x1="154" y1="394" x2="154" y2="404"/>
<line opacity="1" stroke="#3CB44B" stroke-width="1" x1="206" y1="399" x2="331" y2="399"/>
<line opacity="1" stroke="#3CB44B" stroke-width="1" x1="331" y1="397" x2="331" y2="401"/>
<line opacity="1" stroke="#3CB44B" stroke-width="1" x1="215" y1="577" x2="215" y2="581"/>
<line opacity="1" stroke="#3CB44B" stroke-width="1" x1="215" y1="579" x2="227" y2="579"/>
<rect x="227" y="574" width="7" height="10" opacity="1" fill="none" stroke="#3CB44B"/>
<line opacity="1" stroke="#3CB44B" stroke-width="1" x1="229" y1="574" x2="229" y2="584"/>
<line opacity="1" stroke="#3CB44B" stroke-width="1" x1="234" y1="579" x2="246" y2="579"/>
<line opacity="1" stroke="#3CB44B" stroke-width="1" x1="246" y1="577" x2="246" y2="581"/>
<line opacity="1" stroke="#3CB44B" stroke-width="1" x1="100" y1="98" x2="100" y2="102"/>
<line opacity="1" stroke="#3CB44B" stroke-width="1" x1="100" y1="100" x2="118" y2="100"/>
<rect x="118" y="95" width="67" height="10" opacity="1" fill="none" stroke="#3CB44B"/>
<line opacity="1" stroke="#3CB44B" stroke-width="1" x1="146" y1="95" x2="146" y2="105"/>
<line opacity="1" stroke="#3CB44B" stroke-width="1" x1="185" y1="100" x2="286" y2="100"/>
<line opacity="1" stroke="#3CB44B" stroke-width="1" x1="286" y1="98" x2="286" y2="102"/>
<line opacity="1" stroke="#3CB44B" stroke-width="1" x1="100" y1="38" x2="100" y2="42"/>
<line opacity="1" stroke="#3CB44B" stroke-width="1" x1="100" y1="40" x2="115" y2="40"/>
<rect x="115" y="35" width="65" height="10" opacity="1" fill="none" stroke="#3CB44B"/>
<line opacity="1" stroke="#3CB44B" stroke-width="1" x1="141" y1="35" x2="141" y2="45"/>
<line opacity="1" stroke="#3CB44B" stroke-width="1" x1="180" y1="40" x2="277" y2="40"/>
<line opacity="1" stroke="#3CB44B" stroke-width="1" x1="277" y1="38" x2="277" y2="42"/>
<line opacity="1" stroke="#3CB44B" stroke-width="1" x1="100" y1="158" x2="100" y2="162"/>
<line opacity="1" stroke="#3CB44B" stroke-width="1" x1="100" y1="160" x2="125" y2="160"/>
<rect x="125" y="155" width="42" height="10" opacity="1" fill="none" stroke="#3CB44B"/>
<line opacity="1" stroke="#3CB44B" stroke-width="1" x1="144" y1="155" x2="144" y2="165"/>
<line opacity="1" stroke="#3CB44B" stroke-width="1" x1="167" y1="160" x2="229" y2="160"/>
<line opacity="1" stroke="#3CB44B" stroke-width="1" x1="229" y1="158" x2="229" y2="162"/>
<line opacity="1" stroke="#3CB44B" stroke-width="1" x1="100" y1="337" x2="100" y2="341"/>
<line opacity="1" stroke="#3CB44B" stroke-width="1" x1="100" y1="339" x2="136" y2="339"/>
<rect x="136" y="334" width="60" height="10" opacity="1" fill="none" stroke="#3CB44B"/>
<line opacity="1" stroke="#3CB44B" stroke-width="1" x1="157" y1="334" x2="157" y2="344"/>
<line opacity="1" stroke="#3CB44B" stroke-width="1" x1="196" y1="339" x2="285" y2="339"/>
<line opacity="1" stroke="#3CB44B" stroke-width="1" x1="285" y1="337" x2="285" y2="341"/>
<line opacity="1" stroke="#3CB44B" stroke-width="1" x1="100" y1="278" x2="100" y2="282"/>
<line opacity="1" stroke="#3CB44B" stroke-width="1" x1="100" y1="280" x2="125" y2="280"/>
<rect x="125" y="275" width="45" height="10" opacity="1" fill="none" stroke="#3CB44B"/>
<line opacity="1" stroke="#3CB44B" stroke-width="1" x1="144" y1="275" x2="144" y2="285"/>
<line opacity="1" stroke="#3CB44B" stroke-width="1" x1="170" y1="280" x2="236" y2="280"/>
<line opacity="1" stroke="#3CB44B" stroke-width="1" x1="236" y1="278" x2="236" y2="282"/>
<rect x="334" y="5" width="141" height="44" opacity="1" fill="#FFFFFF" stroke="none"/>
<rect x="334" y="5" width="141" height="44" opacity="0.5" fill="none" stroke="#000000"/>
<text x="366" y="15" dy="0.76em" text-anchor="start" font-family="sans-serif" font-size="9.67741935483871" opacity="1" fill="#000000">
Index URL Request
</text>
<text x="366" y="30" dy="0.76em" text-anchor="start" font-family="sans-serif" font-size="9.67741935483871" opacity="1" fill="#000000">
Pattern URL Request
</text>
<rect x="344" y="12" width="12" height="12" opacity="1" fill="#E6194B" stroke="none"/>
<rect x="344" y="27" width="12" height="12" opacity="1" fill="#3CB44B" stroke="none"/>
</svg>
