<svg width="480" height="640" viewBox="0 0 480 640" xmlns="http://www.w3.org/2000/svg">
<rect x="0" y="0" width="479" height="639" opacity="1" fill="#FFFFFF" stroke="none"/>
<line opacity="1" stroke="#FFFFFF" stroke-width="1" x1="109" y1="599" x2="109" y2="-1"/>
<line opacity="1" stroke="#FFFFFF" stroke-width="1" x1="118" y1="599" x2="118" y2="-1"/>
<line opacity="1" stroke="#FFFFFF" stroke-width="1" x1="127" y1="599" x2="127" y2="-1"/>
<line opacity="1" stroke="#FFFFFF" stroke-width="1" x1="136" y1="599" x2="136" y2="-1"/>
<line opacity="1" stroke="#FFFFFF" stroke-width="1" x1="145" y1="599" x2="145" y2="-1"/>
<line opacity="1" stroke="#FFFFFF" stroke-width="1" x1="154" y1="599" x2="154" y2="-1"/>
<line opacity="1" stroke="#FFFFFF" stroke-width="1" x1="164" y1="599" x2="164" y2="-1"/>
<line opacity="1" stroke="#FFFFFF" stroke-width="1" x1="173" y1="599" x2="173" y2="-1"/>
<line opacity="1" stroke="#FFFFFF" stroke-width="1" x1="182" y1="599" x2="182" y2="-1"/>
<line opacity="1" stroke="#FFFFFF" stroke-width="1" x1="191" y1="599" x2="191" y2="-1"/>
<line opacity="1" stroke="#FFFFFF" stroke-width="1" x1="200" y1="599" x2="200" y2="-1"/>
<line opacity="1" stroke="#FFFFFF" stroke-width="1" x1="209" y1="599" x2="209" y2="-1"/>
<line opacity="1" stroke="#FFFFFF" stroke-width="1" x1="219" y1="599" x2="219" y2="-1"/>
<line opacity="1" stroke="#FFFFFF" stroke-width="1" x1="228" y1="599" x2="228" y2="-1"/>
<line opacity="1" stroke="#FFFFFF" stroke-width="1" x1="237" y1="599" x2="237" y2="-1"/>
<line opacity="1" stroke="#FFFFFF" stroke-width="1" x1="246" y1="599" x2="246" y2="-1"/>
<line opacity="1" stroke="#FFFFFF" stroke-width="1" x1="255" y1="599" x2="255" y2="-1"/>
<line opacity="1" stroke="#FFFFFF" stroke-width="1" x1="264" y1="599" x2="264" y2="-1"/>
<line opacity="1" stroke="#FFFFFF" stroke-width="1" x1="273" y1="599" x2="273" y2="-1"/>
<line opacity="1" stroke="#FFFFFF" stroke-width="1" x1="283" y1="599" x2="283" y2="-1"/>
<line opacity="1" stroke="#FFFFFF" stroke-width="1" x1="292" y1="599" x2="292" y2="-1"/>
<line opacity="1" stroke="#FFFFFF" stroke-width="1" x1="301" y1="599" x2="301" y2="-1"/>
<line opacity="1" stroke="#FFFFFF" stroke-width="1" x1="310" y1="599" x2="310" y2="-1"/>
<line opacity="1" stroke="#FFFFFF" stroke-width="1" x1="319" y1="599" x2="319" y2="-1"/>
<line opacity="1" stroke="#FFFFFF" stroke-width="1" x1="328" y1="599" x2="328" y2="-1"/>
<line opacity="1" stroke="#FFFFFF" stroke-width="1" x1="338" y1="599" x2="338" y2="-1"/>
<line opacity="1" stroke="#FFFFFF" stroke-width="1" x1="347" y1="599" x2="347" y2="-1"/>
<line opacity="1" stroke="#FFFFFF" stroke-width="1" x1="356" y1="599" x2="356" y2="-1"/>
<line opacity="1" stroke="#FFFFFF" stroke-width="1" x1="365" y1="599" x2="365" y2="-1"/>
<line opacity="1" stroke="#FFFFFF" stroke-width="1" x1="374" y1="599" x2="374" y2="-1"/>
<line opacity="1" stroke="#FFFFFF" stroke-width="1" x1="383" y1="599" x2="383" y2="-1"/>
<line opacity="1" stroke="#FFFFFF" stroke-width="1" x1="393" y1="599" x2="393" y2="-1"/>
<line opacity="1" stroke="#FFFFFF" stroke-width="1" x1="402" y1="599" x2="402" y2="-1"/>
<line opacity="1" stroke="#FFFFFF" stroke-width="1" x1="411" y1="599" x2="411" y2="-1"/>
<line opacity="1" stroke="#FFFFFF" stroke-width="1" x1="420" y1="599" x2="420" y2="-1"/>
<line opacity="1" stroke="#FFFFFF" stroke-width="1" x1="429" y1="599" x2="429" y2="-1"/>
<line opacity="1" stroke="#FFFFFF" stroke-width="1" x1="438" y1="599" x2="438" y2="-1"/>
<line opacity="1" stroke="#FFFFFF" stroke-width="1" x1="447" y1="599" x2="447" y2="-1"/>
<line opacity="1" stroke="#FFFFFF" stroke-width="1" x1="457" y1="599" x2="457" y2="-1"/>
<line opacity="1" stroke="#FFFFFF" stroke-width="1" x1="466" y1="599" x2="466" y2="-1"/>
<line opacity="1" stroke="#FFFFFF" stroke-width="1" x1="475" y1="599" x2="475" y2="-1"/>
<line opacity="1" stroke="#FFFFFF" stroke-width="1" x1="100" y1="579" x2="480" y2="579"/>
<line opacity="1" stroke="#FFFFFF" stroke-width="1" x1="100" y1="539" x2="480" y2="539"/>
<line opacity="1" stroke="#FFFFFF" stroke-width="1" x1="100" y1="499" x2="480" y2="499"/>
<line opacity="1" stroke="#FFFFFF" stroke-width="1" x1="100" y1="459" x2="480" y2="459"/>
<line opacity="1" stroke="#FFFFFF" stroke-width="1" x1="100" y1="419" x2="480" y2="419"/>
<line opacity="1" stroke="#FFFFFF" stroke-width="1" x1="100" y1="379" x2="480" y2="379"/>
<line opacity="1" stroke="#FFFFFF" stroke-width="1" x1="100" y1="339" x2="480" y2="339"/>
<line opacity="1" stroke="#FFFFFF" stroke-width="1" x1="100" y1="299" x2="480" y2="299"/>
<line opacity="1" stroke="#FFFFFF" stroke-width="1" x1="100" y1="259" x2="480" y2="259"/>
<line opacity="1" stroke="#FFFFFF" stroke-width="1" x1="100" y1="219" x2="480" y2="219"/>
<line opacity="1" stroke="#FFFFFF" stroke-width="1" x1="100" y1="179" x2="480" y2="179"/>
<line opacity="1" stroke="#FFFFFF" stroke-width="1" x1="100" y1="139" x2="480" y2="139"/>
<line opacity="1" stroke="#FFFFFF" stroke-width="1" x1="100" y1="99" x2="480" y2="99"/>
<line opacity="1" stroke="#FFFFFF" stroke-width="1" x1="100" y1="59" x2="480" y2="59"/>
<line opacity="1" stroke="#FFFFFF" stroke-width="1" x1="100" y1="19" x2="480" y2="19"/>
<text x="0" y="300" dy="0.76em" text-anchor="middle" font-family="sans-serif" font-size="9.67741935483871" opacity="1" fill="#000000" transform="rotate(270, 0, 300)">
Language
</text>
<text x="290" y="640" dy="-0.5ex" text-anchor="middle" font-family="sans-serif" font-size="9.67741935483871" opacity="1" fill="#000000">
Response, ms
</text>
<line opacity="0.2" stroke="#000000" stroke-width="1" x1="136" y1="599" x2="136" y2="-1"/>
<line opacity="0.2" stroke="#000000" stroke-width="1" x1="173" y1="599" x2="173" y2="-1"/>
<line opacity="0.2" stroke="#000000" stroke-width="1" x1="209" y1="599" x2="209" y2="-1"/>
<line opacity="0.2" stroke="#000000" stroke-width="1" x1="246" y1="599" x2="246" y2="-1"/>
<line opacity="0.2" stroke="#000000" stroke-width="1" x1="283" y1="599" x2="283" y2="-1"/>
<line opacity="0.2" stroke="#000000" stroke-width="1" x1="319" y1="599" x2="319" y2="-1"/>
<line opacity="0.2" stroke="#000000" stroke-width="1" x1="356" y1="599" x2="356" y2="-1"/>
<line opacity="0.2" stroke="#000000" stroke-width="1" x1="393" y1="599" x2="393" y2="-1"/>
<line opacity="0.2" stroke="#000000" stroke-width="1" x1="429" y1="599" x2="429" y2="-1"/>
<line opacity="0.2" stroke="#000000" stroke-width="1" x1="466" y1="599" x2="466" y2="-1"/>
<line opacity="0.2" stroke="#000000" stroke-width="1" x1="100" y1="579" x2="480" y2="579"/>
<line opacity="0.2" stroke="#000000" stroke-width="1" x1="100" y1="539" x2="480" y2="539"/>
<line opacity="0.2" stroke="#000000" stroke-width="1" x1="100" y1="499" x2="480" y2="499"/>
<line opacity="0.2" stroke="#000000" stroke-width="1" x1="100" y1="459" x2="480" y2="459"/>
<line opacity="0.2" stroke="#000000" stroke-width="1" x1="100" y1="419" x2="480" y2="419"/>
<line opacity="0.2" stroke="#000000" stroke-width="1" x1="100" y1="379" x2="480" y2="379"/>
<line opacity="0.2" stroke="#000000" stroke-width="1" x1="100" y1="339" x2="480" y2="339"/>
<line opacity="0.2" stroke="#000000" stroke-width="1" x1="100" y1="299" x2="480" y2="299"/>
<line opacity="0.2" stroke="#000000" stroke-width="1" x1="100" y1="259" x2="480" y2="259"/>
<line opacity="0.2" stroke="#000000" stroke-width="1" x1="100" y1="219" x2="480" y2="219"/>
<line opacity="0.2" stroke="#000000" stroke-width="1" x1="100" y1="179" x2="480" y2="179"/>
<line opacity="0.2" stroke="#000000" stroke-width="1" x1="100" y1="139" x2="480" y2="139"/>
<line opacity="0.2" stroke="#000000" stroke-width="1" x1="100" y1="99" x2="480" y2="99"/>
<line opacity="0.2" stroke="#000000" stroke-width="1" x1="100" y1="59" x2="480" y2="59"/>
<line opacity="0.2" stroke="#000000" stroke-width="1" x1="100" y1="19" x2="480" y2="19"/>
<polyline fill="none" opacity="1" stroke="#000000" stroke-width="1" points="99,0 99,600 "/>
<text x="90" y="579" dy="0.5ex" text-anchor="end" font-family="sans-serif" font-size="9.67741935483871" opacity="1" fill="#000000">
&quot;PyPy3/Twisted&quot;
</text>
<polyline fill="none" opacity="1" stroke="#000000" stroke-width="1" points="94,579 99,579 "/>
<text x="90" y="539" dy="0.5ex" text-anchor="end" font-family="sans-serif" font-size="9.67741935483871" opacity="1" fill="#000000">
&quot;Rust/rocket&quot;
</text>
<polyline fill="none" opacity="1" stroke="#000000" stroke-width="1" points="94,539 99,539 "/>
<text x="90" y="499" dy="0.5ex" text-anchor="end" font-family="sans-serif" font-size="9.67741935483871" opacity="1" fill="#000000">
&quot;Java/Spring Boot&quot;
</text>
<polyline fill="none" opacity="1" stroke="#000000" stroke-width="1" points="94,499 99,499 "/>
<text x="90" y="459" dy="0.5ex" text-anchor="end" font-family="sans-serif" font-size="9.67741935483871" opacity="1" fill="#000000">
&quot;Rust/warp&quot;
</text>
<polyline fill="none" opacity="1" stroke="#000000" stroke-width="1" points="94,459 99,459 "/>
<text x="90" y="419" dy="0.5ex" text-anchor="end" font-family="sans-serif" font-size="9.67741935483871" opacity="1" fill="#000000">
&quot;Scala/Akka&quot;
</text>
<polyline fill="none" opacity="1" stroke="#000000" stroke-width="1" points="94,419 99,419 "/>
<text x="90" y="379" dy="0.5ex" text-anchor="end" font-family="sans-serif" font-size="9.67741935483871" opacity="1" fill="#000000">
&quot;Rust/Actix&quot;
</text>
<polyline fill="none" opacity="1" stroke="#000000" stroke-width="1" points="94,379 99,379 "/>
<text x="90" y="339" dy="0.5ex" text-anchor="end" font-family="sans-serif" font-size="9.67741935483871" opacity="1" fill="#000000">
&quot;D (LDC/vibe.d)&quot;
</text>
<polyline fill="none" opacity="1" stroke="#000000" stroke-width="1" points="94,339 99,339 "/>
<text x="90" y="299" dy="0.5ex" text-anchor="end" font-family="sans-serif" font-size="9.67741935483871" opacity="1" fill="#000000">
&quot;Rust/hyper&quot;
</text>
<polyline fill="none" opacity="1" stroke="#000000" stroke-width="1" points="94,299 99,299 "/>
<text x="90" y="259" dy="0.5ex" text-anchor="end" font-family="sans-serif" font-size="9.67741935483871" opacity="1" fill="#000000">
&quot;C++/Boost.Beast&quot;
</text>
<polyline fill="none" opacity="1" stroke="#000000" stroke-width="1" points="94,259 99,259 "/>
<text x="90" y="219" dy="0.5ex" text-anchor="end" font-family="sans-serif" font-size="9.67741935483871" opacity="1" fill="#000000">
&quot;D (DMD/vibe.d)&quot;
</text>
<polyline fill="none" opacity="1" stroke="#000000" stroke-width="1" points="94,219 99,219 "/>
<text x="90" y="179" dy="0.5ex" text-anchor="end" font-family="sans-serif" font-size="9.67741935483871" opacity="1" fill="#000000">
&quot;Go&quot;
</text>
<polyline fill="none" opacity="1" stroke="#000000" stroke-width="1" points="94,179 99,179 "/>
<text x="90" y="139" dy="0.5ex" text-anchor="end" font-family="sans-serif" font-size="9.67741935483871" opacity="1" fill="#000000">
&quot;Node.js&quot;
</text>
<polyline fill="none" opacity="1" stroke="#000000" stroke-width="1" points="94,139 99,139 "/>
<text x="90" y="99" dy="0.5ex" text-anchor="end" font-family="sans-serif" font-size="9.67741935483871" opacity="1" fill="#000000">
&quot;PHP/Swoole&quot;
</text>
<polyline fill="none" opacity="1" stroke="#000000" stroke-width="1" points="94,99 99,99 "/>
<text x="90" y="59" dy="0.5ex" text-anchor="end" font-family="sans-serif" font-size="9.67741935483871" opacity="1" fill="#000000">
&quot;Crystal&quot;
</text>
<polyline fill="none" opacity="1" stroke="#000000" stroke-width="1" points="94,59 99,59 "/>
<text x="90" y="19" dy="0.5ex" text-anchor="end" font-family="sans-serif" font-size="9.67741935483871" opacity="1" fill="#000000">
&quot;Rust/Tide&quot;
</text>
<polyline fill="none" opacity="1" stroke="#000000" stroke-width="1" points="94,19 99,19 "/>
<polyline fill="none" opacity="1" stroke="#000000" stroke-width="1" points="100,600 480,600 "/>
<text x="136" y="610" dy="0.76em" text-anchor="middle" font-family="sans-serif" font-size="9.67741935483871" opacity="1" fill="#000000">
2.0
</text>
<polyline fill="none" opacity="1" stroke="#000000" stroke-width="1" points="136,600 136,605 "/>
<text x="173" y="610" dy="0.76em" text-anchor="middle" font-family="sans-serif" font-size="9.67741935483871" opacity="1" fill="#000000">
4.0
</text>
<polyline fill="none" opacity="1" stroke="#000000" stroke-width="1" points="173,600 173,605 "/>
<text x="209" y="610" dy="0.76em" text-anchor="middle" font-family="sans-serif" font-size="9.67741935483871" opacity="1" fill="#000000">
6.0
</text>
<polyline fill="none" opacity="1" stroke="#000000" stroke-width="1" points="209,600 209,605 "/>
<text x="246" y="610" dy="0.76em" text-anchor="middle" font-family="sans-serif" font-size="9.67741935483871" opacity="1" fill="#000000">
8.0
</text>
<polyline fill="none" opacity="1" stroke="#000000" stroke-width="1" points="246,600 246,605 "/>
<text x="283" y="610" dy="0.76em" text-anchor="middle" font-family="sans-serif" font-size="9.67741935483871" opacity="1" fill="#000000">
10.0
</text>
<polyline fill="none" opacity="1" stroke="#000000" stroke-width="1" points="283,600 283,605 "/>
<text x="319" y="610" dy="0.76em" text-anchor="middle" font-family="sans-serif" font-size="9.67741935483871" opacity="1" fill="#000000">
12.0
</text>
<polyline fill="none" opacity="1" stroke="#000000" stroke-width="1" points="319,600 319,605 "/>
<text x="356" y="610" dy="0.76em" text-anchor="middle" font-family="sans-serif" font-size="9.67741935483871" opacity="1" fill="#000000">
14.0
</text>
<polyline fill="none" opacity="1" stroke="#000000" stroke-width="1" points="356,600 356,605 "/>
<text x="393" y="610" dy="0.76em" text-anchor="middle" font-family="sans-serif" font-size="9.67741935483871" opacity="1" fill="#000000">
16.0
</text>
<polyline fill="none" opacity="1" stroke="#000000" stroke-width="1" points="393,600 393,605 "/>
<text x="429" y="610" dy="0.76em" text-anchor="middle" font-family="sans-serif" font-size="9.67741935483871" opacity="1" fill="#000000">
18.0
</text>
<polyline fill="none" opacity="1" stroke="#000000" stroke-width="1" points="429,600 429,605 "/>
<text x="466" y="610" dy="0.76em" text-anchor="middle" font-family="sans-serif" font-size="9.67741935483871" opacity="1" fill="#000000">
20.0
</text>
<polyline fill="none" opacity="1" stroke="#000000" stroke-width="1" points="466,600 466,605 "/>
<line opacity="1" stroke="#E6194B" stroke-width="1" x1="100" y1="247" x2="100" y2="251"/>
<line opacity="1" stroke="#E6194B" stroke-width="1" x1="100" y1="249" x2="105" y2="249"/>
<rect x="105" y="244" width="68" height="10" opacity="1" fill="none" stroke="#E6194B"/>
<line opacity="1" stroke="#E6194B" stroke-width="1" x1="121" y1="244" x2="121" y2="254"/>
<line opacity="1" stroke="#E6194B" stroke-width="1" x1="173" y1="249" x2="274" y2="249"/>
<line opacity="1" stroke="#E6194B" stroke-width="1" x1="274" y1="247" x2="274" y2="251"/>
<line opacity="1" stroke="#E6194B" stroke-width="1" x1="100" y1="47" x2="100" y2="51"/>
<line opacity="1" stroke="#E6194B" stroke-width="1" x1="100" y1="49" x2="105" y2="49"/>
<rect x="105" y="44" width="40" height="10" opacity="1" fill="none" stroke="#E6194B"/>
<line opacity="1" stroke="#E6194B" stroke-width="1" x1="114" y1="44" x2="114" y2="54"/>
<line opacity="1" stroke="#E6194B" stroke-width="1" x1="145" y1="49" x2="206" y2="49"/>
<line opacity="1" stroke="#E6194B" stroke-width="1" x1="206" y1="47" x2="206" y2="51"/>
<line opacity="1" stroke="#E6194B" stroke-width="1" x1="100" y1="207" x2="100" y2="211"/>
<line opacity="1" stroke="#E6194B" stroke-width="1" x1="100" y1="209" x2="110" y2="209"/>
<rect x="110" y="204" width="50" height="10" opacity="1" fill="none" stroke="#E6194B"/>
<line opacity="1" stroke="#E6194B" stroke-width="1" x1="121" y1="204" x2="121" y2="214"/>
<line opacity="1" stroke="#E6194B" stroke-width="1" x1="160" y1="209" x2="234" y2="209"/>
<line opacity="1" stroke="#E6194B" stroke-width="1" x1="234" y1="207" x2="234" y2="211"/>
<line opacity="1" stroke="#E6194B" stroke-width="1" x1="100" y1="167" x2="100" y2="171"/>
<line opacity="1" stroke="#E6194B" stroke-width="1" x1="100" y1="169" x2="110" y2="169"/>
<rect x="110" y="164" width="37" height="10" opacity="1" fill="none" stroke="#E6194B"/>
<line opacity="1" stroke="#E6194B" stroke-width="1" x1="121" y1="164" x2="121" y2="174"/>
<line opacity="1" stroke="#E6194B" stroke-width="1" x1="147" y1="169" x2="202" y2="169"/>
<line opacity="1" stroke="#E6194B" stroke-width="1" x1="202" y1="167" x2="202" y2="171"/>
<line opacity="1" stroke="#E6194B" stroke-width="1" x1="100" y1="487" x2="100" y2="491"/>
<line opacity="1" stroke="#E6194B" stroke-width="1" x1="100" y1="489" x2="153" y2="489"/>
<rect x="153" y="484" width="111" height="10" opacity="1" fill="none" stroke="#E6194B"/>
<line opacity="1" stroke="#E6194B" stroke-width="1" x1="197" y1="484" x2="197" y2="494"/>
<line opacity="1" stroke="#E6194B" stroke-width="1" x1="264" y1="489" x2="432" y2="489"/>
<line opacity="1" stroke="#E6194B" stroke-width="1" x1="432" y1="487" x2="432" y2="491"/>
<line opacity="1" stroke="#E6194B" stroke-width="1" x1="100" y1="327" x2="100" y2="331"/>
<line opacity="1" stroke="#E6194B" stroke-width="1" x1="100" y1="329" x2="112" y2="329"/>
<rect x="112" y="324" width="52" height="10" opacity="1" fill="none" stroke="#E6194B"/>
<line opacity="1" stroke="#E6194B" stroke-width="1" x1="125" y1="324" x2="125" y2="334"/>
<line opacity="1" stroke="#E6194B" stroke-width="1" x1="164" y1="329" x2="241" y2="329"/>
<line opacity="1" stroke="#E6194B" stroke-width="1" x1="241" y1="327" x2="241" y2="331"/>
<line opacity="1" stroke="#E6194B" stroke-width="1" x1="100" y1="127" x2="100" y2="131"/>
<line opacity="1" stroke="#E6194B" stroke-width="1" x1="100" y1="129" x2="112" y2="129"/>
<rect x="112" y="124" width="41" height="10" opacity="1" fill="none" stroke="#E6194B"/>
<line opacity="1" stroke="#E6194B" stroke-width="1" x1="121" y1="124" x2="121" y2="134"/>
<line opacity="1" stroke="#E6194B" stroke-width="1" x1="153" y1="129" x2="213" y2="129"/>
<line opacity="1" stroke="#E6194B" stroke-width="1" x1="213" y1="127" x2="213" y2="131"/>
<line opacity="1" stroke="#E6194B" stroke-width="1" x1="100" y1="87" x2="100" y2="91"/>
<line opacity="1" stroke="#E6194B" stroke-width="1" x1="100" y1="89" x2="109" y2="89"/>
<rect x="109" y="84" width="45" height="10" opacity="1" fill="none" stroke="#E6194B"/>
<line opacity="1" stroke="#E6194B" stroke-width="1" x1="121" y1="84" x2="121" y2="94"/>
<line opacity="1" stroke="#E6194B" stroke-width="1" x1="154" y1="89" x2="223" y2="89"/>
<line opacity="1" stroke="#E6194B" stroke-width="1" x1="223" y1="87" x2="223" y2="91"/>
<line opacity="1" stroke="#E6194B" stroke-width="1" x1="264" y1="567" x2="264" y2="571"/>
<line opacity="1" stroke="#E6194B" stroke-width="1" x1="264" y1="569" x2="275" y2="569"/>
<rect x="275" y="564" width="8" height="10" opacity="1" fill="none" stroke="#E6194B"/>
<line opacity="1" stroke="#E6194B" stroke-width="1" x1="279" y1="564" x2="279" y2="574"/>
<line opacity="1" stroke="#E6194B" stroke-width="1" x1="283" y1="569" x2="294" y2="569"/>
<line opacity="1" stroke="#E6194B" stroke-width="1" x1="294" y1="567" x2="294" y2="571"/>
<line opacity="1" stroke="#E6194B" stroke-width="1" x1="100" y1="367" x2="100" y2="371"/>
<line opacity="1" stroke="#E6194B" stroke-width="1" x1="100" y1="369" x2="109" y2="369"/>
<rect x="109" y="364" width="89" height="10" opacity="1" fill="none" stroke="#E6194B"/>
<line opacity="1" stroke="#E6194B" stroke-width="1" x1="131" y1="364" x2="131" y2="374"/>
<line opacity="1" stroke="#E6194B" stroke-width="1" x1="198" y1="369" x2="333" y2="369"/>
<line opacity="1" stroke="#E6194B" stroke-width="1" x1="333" y1="367" x2="333" y2="371"/>
<line opacity="1" stroke="#E6194B" stroke-width="1" x1="100" y1="287" x2="100" y2="291"/>
<line opacity="1" stroke="#E6194B" stroke-width="1" x1="100" y1="289" x2="114" y2="289"/>
<rect x="114" y="284" width="29" height="10" opacity="1" fill="none" stroke="#E6194B"/>
<line opacity="1" stroke="#E6194B" stroke-width="1" x1="123" y1="284" x2="123" y2="294"/>
<line opacity="1" stroke="#E6194B" stroke-width="1" x1="143" y1="289" x2="187" y2="289"/>
<line opacity="1" stroke="#E6194B" stroke-width="1" x1="187" y1="287" x2="187" y2="291"/>
<line opacity="1" stroke="#E6194B" stroke-width="1" x1="100" y1="527" x2="100" y2="531"/>
<line opacity="1" stroke="#E6194B" stroke-width="1" x1="100" y1="529" x2="153" y2="529"/>
<rect x="153" y="524" width="120" height="10" opacity="1" fill="none" stroke="#E6194B"/>
<line opacity="1" stroke="#E6194B" stroke-width="1" x1="204" y1="524" x2="204" y2="534"/>
<line opacity="1" stroke="#E6194B" stroke-width="1" x1="273" y1="529" x2="455" y2="529"/>
<line opacity="1" stroke="#E6194B" stroke-width="1" x1="455" y1="527" x2="455" y2="531"/>
<line opacity="1" stroke="#E6194B" stroke-width="1" x1="100" y1="7" x2="100" y2="11"/>
<line opacity="1" stroke="#E6194B" stroke-width="1" x1="100" y1="9" x2="105" y2="9"/>
<rect x="105" y="4" width="35" height="10" opacity="1" fill="none" stroke="#E6194B"/>
<line opacity="1" stroke="#E6194B" stroke-width="1" x1="112" y1="4" x2="112" y2="14"/>
<line opacity="1" stroke="#E6194B" stroke-width="1" x1="140" y1="9" x2="192" y2="9"/>
<line opacity="1" stroke="#E6194B" stroke-width="1" x1="192" y1="7" x2="192" y2="11"/>
<line opacity="1" stroke="#E6194B" stroke-width="1" x1="100" y1="447" x2="100" y2="451"/>
<line opacity="1" stroke="#E6194B" stroke-width="1" x1="100" y1="449" x2="136" y2="449"/>
<rect x="136" y="444" width="62" height="10" opacity="1" fill="none" stroke="#E6194B"/>
<line opacity="1" stroke="#E6194B" stroke-width="1" x1="160" y1="444" x2="160" y2="454"/>
<line opacity="1" stroke="#E6194B" stroke-width="1" x1="198" y1="449" x2="292" y2="449"/>
<line opacity="1" stroke="#E6194B" stroke-width="1" x1="292" y1="447" x2="292" y2="451"/>
<line opacity="1" stroke="#E6194B" stroke-width="1" x1="100" y1="407" x2="100" y2="411"/>
<line opacity="1" stroke="#E6194B" stroke-width="1" x1="100" y1="409" x2="118" y2="409"/>
<rect x="118" y="404" width="53" height="10" opacity="1" fill="none" stroke="#E6194B"/>
<line opacity="1" stroke="#E6194B" stroke-width="1" x1="142" y1="404" x2="142" y2="414"/>
<line opacity="1" stroke="#E6194B" stroke-width="1" x1="171" y1="409" x2="251" y2="409"/>
<line opacity="1" stroke="#E6194B" stroke-width="1" x1="251" y1="407" x2="251" y2="411"/>
<line opacity="1" stroke="#3CB44B" stroke-width="1" x1="100" y1="267" x2="100" y2="271"/>
<line opacity="1" stroke="#3CB44B" stroke-width="1" x1="100" y1="269" x2="109" y2="269"/>
<rect x="109" y="264" width="77" height="10" opacity="1" fill="none" stroke="#3CB44B"/>
<line opacity="1" stroke="#3CB44B" stroke-width="1" x1="132" y1="264" x2="132" y2="274"/>
<line opacity="1" stroke="#3CB44B" stroke-width="1" x1="186" y1="269" x2="301" y2="269"/>
<line opacity="1" stroke="#3CB44B" stroke-width="1" x1="301" y1="267" x2="301" y2="271"/>
<line opacity="1" stroke="#3CB44B" stroke-width="1" x1="100" y1="67" x2="100" y2="71"/>
<line opacity="1" stroke="#3CB44B" stroke-width="1" x1="100" y1="69" x2="105" y2="69"/>
<rect x="105" y="64" width="42" height="10" opacity="1" fill="none" stroke="#3CB44B"/>
<line opacity="1" stroke="#3CB44B" stroke-width="1" x1="114" y1="64" x2="114" y2="74"/>
<line opacity="1" stroke="#3CB44B" stroke-width="1" x1="147" y1="69" x2="210" y2="69"/>
<line opacity="1" stroke="#3CB44B" stroke-width="1" x1="210" y1="67" x2="210" y2="71"/>
<line opacity="1" stroke="#3CB44B" stroke-width="1" x1="100" y1="227" x2="100" y2="231"/>
<line opacity="1" stroke="#3CB44B" stroke-width="1" x1="100" y1="229" x2="112" y2="229"/>
<rect x="112" y="224" width="48" height="10" opacity="1" fill="none" stroke="#3CB44B"/>
<line opacity="1" stroke="#3CB44B" stroke-width="1" x1="125" y1="224" x2="125" y2="234"/>
<line opacity="1" stroke="#3CB44B" stroke-width="1" x1="160" y1="229" x2="231" y2="229"/>
<line opacity="1" stroke="#3CB44B" stroke-width="1" x1="231" y1="227" x2="231" y2="231"/>
<line opacity="1" stroke="#3CB44B" stroke-width="1" x1="100" y1="187" x2="100" y2="191"/>
<line opacity="1" stroke="#3CB44B" stroke-width="1" x1="100" y1="189" x2="109" y2="189"/>
<rect x="109" y="184" width="42" height="10" opacity="1" fill="none" stroke="#3CB44B"/>
<line opacity="1" stroke="#3CB44B" stroke-width="1" x1="123" y1="184" x2="123" y2="194"/>
<line opacity="1" stroke="#3CB44B" stroke-width="1" x1="151" y1="189" x2="214" y2="189"/>
<line opacity="1" stroke="#3CB44B" stroke-width="1" x1="214" y1="187" x2="214" y2="191"/>
<line opacity="1" stroke="#3CB44B" stroke-width="1" x1="100" y1="507" x2="100" y2="511"/>
<line opacity="1" stroke="#3CB44B" stroke-width="1" x1="100" y1="509" x2="129" y2="509"/>
<rect x="129" y="504" width="84" height="10" opacity="1" fill="none" stroke="#3CB44B"/>
<line opacity="1" stroke="#3CB44B" stroke-width="1" x1="162" y1="504" x2="162" y2="514"/>
<line opacity="1" stroke="#3CB44B" stroke-width="1" x1="213" y1="509" x2="339" y2="509"/>
<line opacity="1" stroke="#3CB44B" stroke-width="1" x1="339" y1="507" x2="339" y2="511"/>
<line opacity="1" stroke="#3CB44B" stroke-width="1" x1="100" y1="347" x2="100" y2="351"/>
<line opacity="1" stroke="#3CB44B" stroke-width="1" x1="100" y1="349" x2="114" y2="349"/>
<rect x="114" y="344" width="51" height="10" opacity="1" fill="none" stroke="#3CB44B"/>
<line opacity="1" stroke="#3CB44B" stroke-width="1" x1="127" y1="344" x2="127" y2="354"/>
<line opacity="1" stroke="#3CB44B" stroke-width="1" x1="165" y1="349" x2="242" y2="349"/>
<line opacity="1" stroke="#3CB44B" stroke-width="1" x1="242" y1="347" x2="242" y2="351"/>
<line opacity="1" stroke="#3CB44B" stroke-width="1" x1="100" y1="147" x2="100" y2="151"/>
<line opacity="1" stroke="#3CB44B" stroke-width="1" x1="100" y1="149" x2="110" y2="149"/>
<rect x="110" y="144" width="43" height="10" opacity="1" fill="none" stroke="#3CB44B"/>
<line opacity="1" stroke="#3CB44B" stroke-width="1" x1="120" y1="144" x2="120" y2="154"/>
<line opacity="1" stroke="#3CB44B" stroke-width="1" x1="153" y1="149" x2="216" y2="149"/>
<line opacity="1" stroke="#3CB44B" stroke-width="1" x1="216" y1="147" x2="216" y2="151"/>
<line opacity="1" stroke="#3CB44B" stroke-width="1" x1="100" y1="107" x2="100" y2="111"/>
<line opacity="1" stroke="#3CB44B" stroke-width="1" x1="100" y1="109" x2="109" y2="109"/>
<rect x="109" y="104" width="51" height="10" opacity="1" fill="none" stroke="#3CB44B"/>
<line opacity="1" stroke="#3CB44B" stroke-width="1" x1="123" y1="104" x2="123" y2="114"/>
<line opacity="1" stroke="#3CB44B" stroke-width="1" x1="160" y1="109" x2="237" y2="109"/>
<line opacity="1" stroke="#3CB44B" stroke-width="1" x1="237" y1="107" x2="237" y2="111"/>
<line opacity="1" stroke="#3CB44B" stroke-width="1" x1="255" y1="587" x2="255" y2="591"/>
<line opacity="1" stroke="#3CB44B" stroke-width="1" x1="255" y1="589" x2="272" y2="589"/>
<rect x="272" y="584" width="11" height="10" opacity="1" fill="none" stroke="#3CB44B"/>
<line opacity="1" stroke="#3CB44B" stroke-width="1" x1="277" y1="584" x2="277" y2="594"/>
<line opacity="1" stroke="#3CB44B" stroke-width="1" x1="283" y1="589" x2="299" y2="589"/>
<line opacity="1" stroke="#3CB44B" stroke-width="1" x1="299" y1="587" x2="299" y2="591"/>
<line opacity="1" stroke="#3CB44B" stroke-width="1" x1="100" y1="387" x2="100" y2="391"/>
<line opacity="1" stroke="#3CB44B" stroke-width="1" x1="100" y1="389" x2="112" y2="389"/>
<rect x="112" y="384" width="110" height="10" opacity="1" fill="none" stroke="#3CB44B"/>
<line opacity="1" stroke="#3CB44B" stroke-width="1" x1="138" y1="384" x2="138" y2="394"/>
<line opacity="1" stroke="#3CB44B" stroke-width="1" x1="222" y1="389" x2="387" y2="389"/>
<line opacity="1" stroke="#3CB44B" stroke-width="1" x1="387" y1="387" x2="387" y2="391"/>
<line opacity="1" stroke="#3CB44B" stroke-width="1" x1="100" y1="307" x2="100" y2="311"/>
<line opacity="1" stroke="#3CB44B" stroke-width="1" x1="100" y1="309" x2="114" y2="309"/>
<rect x="114" y="304" width="31" height="10" opacity="1" fill="none" stroke="#3CB44B"/>
<line opacity="1" stroke="#3CB44B" stroke-width="1" x1="125" y1="304" x2="125" y2="314"/>
<line opacity="1" stroke="#3CB44B" stroke-width="1" x1="145" y1="309" x2="192" y2="309"/>
<line opacity="1" stroke="#3CB44B" stroke-width="1" x1="192" y1="307" x2="192" y2="311"/>
<line opacity="1" stroke="#3CB44B" stroke-width="1" x1="100" y1="547" x2="100" y2="551"/>
<line opacity="1" stroke="#3CB44B" stroke-width="1" x1="100" y1="549" x2="154" y2="549"/>
<rect x="154" y="544" width="123" height="10" opacity="1" fill="none" stroke="#3CB44B"/>
<line opacity="1" stroke="#3CB44B" stroke-width="1" x1="206" y1="544" x2="206" y2="554"/>
<line opacity="1" stroke="#3CB44B" stroke-width="1" x1="277" y1="549" x2="461" y2="549"/>
<line opacity="1" stroke="#3CB44B" stroke-width="1" x1="461" y1="547" x2="461" y2="551"/>
<line opacity="1" stroke="#3CB44B" stroke-width="1" x1="100" y1="27" x2="100" y2="31"/>
<line opacity="1" stroke="#3CB44B" stroke-width="1" x1="100" y1="29" x2="109" y2="29"/>
<rect x="109" y="24" width="44" height="10" opacity="1" fill="none" stroke="#3CB44B"/>
<line opacity="1" stroke="#3CB44B" stroke-width="1" x1="118" y1="24" x2="118" y2="34"/>
<line opacity="1" stroke="#3CB44B" stroke-width="1" x1="153" y1="29" x2="219" y2="29"/>
<line opacity="1" stroke="#3CB44B" stroke-width="1" x1="219" y1="27" x2="219" y2="31"/>
<line opacity="1" stroke="#3CB44B" stroke-width="1" x1="100" y1="467" x2="100" y2="471"/>
<line opacity="1" stroke="#3CB44B" stroke-width="1" x1="100" y1="469" x2="136" y2="469"/>
<rect x="136" y="464" width="66" height="10" opacity="1" fill="none" stroke="#3CB44B"/>
<line opacity="1" stroke="#3CB44B" stroke-width="1" x1="162" y1="464" x2="162" y2="474"/>
<line opacity="1" stroke="#3CB44B" stroke-width="1" x1="202" y1="469" x2="301" y2="469"/>
<line opacity="1" stroke="#3CB44B" stroke-width="1" x1="301" y1="467" x2="301" y2="471"/>
<line opacity="1" stroke="#3CB44B" stroke-width="1" x1="100" y1="427" x2="100" y2="431"/>
<line opacity="1" stroke="#3CB44B" stroke-width="1" x1="100" y1="429" x2="118" y2="429"/>
<rect x="118" y="424" width="47" height="10" opacity="1" fill="none" stroke="#3CB44B"/>
<line opacity="1" stroke="#3CB44B" stroke-width="1" x1="136" y1="424" x2="136" y2="434"/>
<line opacity="1" stroke="#3CB44B" stroke-width="1" x1="165" y1="429" x2="237" y2="429"/>
<line opacity="1" stroke="#3CB44B" stroke-width="1" x1="237" y1="427" x2="237" y2="431"/>
<rect x="328" y="5" width="147" height="46" opacity="1" fill="#FFFFFF" stroke="none"/>
<rect x="328" y="5" width="147" height="46" opacity="0.5" fill="none" stroke="#000000"/>
<text x="360" y="15" dy="0.76em" text-anchor="start" font-family="sans-serif" font-size="9.67741935483871" opacity="1" fill="#000000">
Index URL Request
</text>
<text x="360" y="30" dy="0.76em" text-anchor="start" font-family="sans-serif" font-size="9.67741935483871" opacity="1" fill="#000000">
Pattern URL Request
</text>
<rect x="338" y="13" width="12" height="12" opacity="1" fill="#E6194B" stroke="none"/>
<rect x="338" y="28" width="12" height="12" opacity="1" fill="#3CB44B" stroke="none"/>
</svg>
