<svg width="480" height="640" viewBox="0 0 480 640" xmlns="http://www.w3.org/2000/svg">
<rect x="0" y="0" width="479" height="639" opacity="1" fill="#FFFFFF" stroke="none"/>
<line opacity="1" stroke="#FFFFFF" stroke-width="1" x1="109" y1="599" x2="109" y2="-1"/>
<line opacity="1" stroke="#FFFFFF" stroke-width="1" x1="118" y1="599" x2="118" y2="-1"/>
<line opacity="1" stroke="#FFFFFF" stroke-width="1" x1="127" y1="599" x2="127" y2="-1"/>
<line opacity="1" stroke="#FFFFFF" stroke-width="1" x1="136" y1="599" x2="136" y2="-1"/>
<line opacity="1" stroke="#FFFFFF" stroke-width="1" x1="146" y1="599" x2="146" y2="-1"/>
<line opacity="1" stroke="#FFFFFF" stroke-width="1" x1="155" y1="599" x2="155" y2="-1"/>
<line opacity="1" stroke="#FFFFFF" stroke-width="1" x1="164" y1="599" x2="164" y2="-1"/>
<line opacity="1" stroke="#FFFFFF" stroke-width="1" x1="173" y1="599" x2="173" y2="-1"/>
<line opacity="1" stroke="#FFFFFF" stroke-width="1" x1="182" y1="599" x2="182" y2="-1"/>
<line opacity="1" stroke="#FFFFFF" stroke-width="1" x1="192" y1="599" x2="192" y2="-1"/>
<line opacity="1" stroke="#FFFFFF" stroke-width="1" x1="201" y1="599" x2="201" y2="-1"/>
<line opacity="1" stroke="#FFFFFF" stroke-width="1" x1="210" y1="599" x2="210" y2="-1"/>
<line opacity="1" stroke="#FFFFFF" stroke-width="1" x1="219" y1="599" x2="219" y2="-1"/>
<line opacity="1" stroke="#FFFFFF" stroke-width="1" x1="228" y1="599" x2="228" y2="-1"/>
<line opacity="1" stroke="#FFFFFF" stroke-width="1" x1="238" y1="599" x2="238" y2="-1"/>
<line opacity="1" stroke="#FFFFFF" stroke-width="1" x1="247" y1="599" x2="247" y2="-1"/>
<line opacity="1" stroke="#FFFFFF" stroke-width="1" x1="256" y1="599" x2="256" y2="-1"/>
<line opacity="1" stroke="#FFFFFF" stroke-width="1" x1="265" y1="599" x2="265" y2="-1"/>
<line opacity="1" stroke="#FFFFFF" stroke-width="1" x1="274" y1="599" x2="274" y2="-1"/>
<line opacity="1" stroke="#FFFFFF" stroke-width="1" x1="284" y1="599" x2="284" y2="-1"/>
<line opacity="1" stroke="#FFFFFF" stroke-width="1" x1="293" y1="599" x2="293" y2="-1"/>
<line opacity="1" stroke="#FFFFFF" stroke-width="1" x1="302" y1="599" x2="302" y2="-1"/>
<line opacity="1" stroke="#FFFFFF" stroke-width="1" x1="311" y1="599" x2="311" y2="-1"/>
<line opacity="1" stroke="#FFFFFF" stroke-width="1" x1="320" y1="599" x2="320" y2="-1"/>
<line opacity="1" stroke="#FFFFFF" stroke-width="1" x1="330" y1="599" x2="330" y2="-1"/>
<line opacity="1" stroke="#FFFFFF" stroke-width="1" x1="339" y1="599" x2="339" y2="-1"/>
<line opacity="1" stroke="#FFFFFF" stroke-width="1" x1="348" y1="599" x2="348" y2="-1"/>
<line opacity="1" stroke="#FFFFFF" stroke-width="1" x1="357" y1="599" x2="357" y2="-1"/>
<line opacity="1" stroke="#FFFFFF" stroke-width="1" x1="366" y1="599" x2="366" y2="-1"/>
<line opacity="1" stroke="#FFFFFF" stroke-width="1" x1="376" y1="599" x2="376" y2="-1"/>
<line opacity="1" stroke="#FFFFFF" stroke-width="1" x1="385" y1="599" x2="385" y2="-1"/>
<line opacity="1" stroke="#FFFFFF" stroke-width="1" x1="394" y1="599" x2="394" y2="-1"/>
<line opacity="1" stroke="#FFFFFF" stroke-width="1" x1="403" y1="599" x2="403" y2="-1"/>
<line opacity="1" stroke="#FFFFFF" stroke-width="1" x1="412" y1="599" x2="412" y2="-1"/>
<line opacity="1" stroke="#FFFFFF" stroke-width="1" x1="422" y1="599" x2="422" y2="-1"/>
<line opacity="1" stroke="#FFFFFF" stroke-width="1" x1="431" y1="599" x2="431" y2="-1"/>
<line opacity="1" stroke="#FFFFFF" stroke-width="1" x1="440" y1="599" x2="440" y2="-1"/>
<line opacity="1" stroke="#FFFFFF" stroke-width="1" x1="449" y1="599" x2="449" y2="-1"/>
<line opacity="1" stroke="#FFFFFF" stroke-width="1" x1="458" y1="599" x2="458" y2="-1"/>
<line opacity="1" stroke="#FFFFFF" stroke-width="1" x1="468" y1="599" x2="468" y2="-1"/>
<line opacity="1" stroke="#FFFFFF" stroke-width="1" x1="477" y1="599" x2="477" y2="-1"/>
<line opacity="1" stroke="#FFFFFF" stroke-width="1" x1="100" y1="577" x2="480" y2="577"/>
<line opacity="1" stroke="#FFFFFF" stroke-width="1" x1="100" y1="534" x2="480" y2="534"/>
<line opacity="1" stroke="#FFFFFF" stroke-width="1" x1="100" y1="491" x2="480" y2="491"/>
<line opacity="1" stroke="#FFFFFF" stroke-width="1" x1="100" y1="449" x2="480" y2="449"/>
<line opacity="1" stroke="#FFFFFF" stroke-width="1" x1="100" y1="406" x2="480" y2="406"/>
<line opacity="1" stroke="#FFFFFF" stroke-width="1" x1="100" y1="363" x2="480" y2="363"/>
<line opacity="1" stroke="#FFFFFF" stroke-width="1" x1="100" y1="320" x2="480" y2="320"/>
<line opacity="1" stroke="#FFFFFF" stroke-width="1" x1="100" y1="277" x2="480" y2="277"/>
<line opacity="1" stroke="#FFFFFF" stroke-width="1" x1="100" y1="234" x2="480" y2="234"/>
<line opacity="1" stroke="#FFFFFF" stroke-width="1" x1="100" y1="192" x2="480" y2="192"/>
<line opacity="1" stroke="#FFFFFF" stroke-width="1" x1="100" y1="149" x2="480" y2="149"/>
<line opacity="1" stroke="#FFFFFF" stroke-width="1" x1="100" y1="106" x2="480" y2="106"/>
<line opacity="1" stroke="#FFFFFF" stroke-width="1" x1="100" y1="63" x2="480" y2="63"/>
<line opacity="1" stroke="#FFFFFF" stroke-width="1" x1="100" y1="21" x2="480" y2="21"/>
<text x="0" y="300" dy="0.76em" text-anchor="middle" font-family="sans-serif" font-size="9.67741935483871" opacity="1" fill="#000000" transform="rotate(270, 0, 300)">
Language
</text>
<text x="290" y="640" dy="-0.5ex" text-anchor="middle" font-family="sans-serif" font-size="9.67741935483871" opacity="1" fill="#000000">
Response, ms
</text>
<line opacity="0.2" stroke="#000000" stroke-width="1" x1="136" y1="599" x2="136" y2="-1"/>
<line opacity="0.2" stroke="#000000" stroke-width="1" x1="173" y1="599" x2="173" y2="-1"/>
<line opacity="0.2" stroke="#000000" stroke-width="1" x1="210" y1="599" x2="210" y2="-1"/>
<line opacity="0.2" stroke="#000000" stroke-width="1" x1="247" y1="599" x2="247" y2="-1"/>
<line opacity="0.2" stroke="#000000" stroke-width="1" x1="284" y1="599" x2="284" y2="-1"/>
<line opacity="0.2" stroke="#000000" stroke-width="1" x1="320" y1="599" x2="320" y2="-1"/>
<line opacity="0.2" stroke="#000000" stroke-width="1" x1="357" y1="599" x2="357" y2="-1"/>
<line opacity="0.2" stroke="#000000" stroke-width="1" x1="394" y1="599" x2="394" y2="-1"/>
<line opacity="0.2" stroke="#000000" stroke-width="1" x1="431" y1="599" x2="431" y2="-1"/>
<line opacity="0.2" stroke="#000000" stroke-width="1" x1="468" y1="599" x2="468" y2="-1"/>
<line opacity="0.2" stroke="#000000" stroke-width="1" x1="100" y1="577" x2="480" y2="577"/>
<line opacity="0.2" stroke="#000000" stroke-width="1" x1="100" y1="534" x2="480" y2="534"/>
<line opacity="0.2" stroke="#000000" stroke-width="1" x1="100" y1="491" x2="480" y2="491"/>
<line opacity="0.2" stroke="#000000" stroke-width="1" x1="100" y1="449" x2="480" y2="449"/>
<line opacity="0.2" stroke="#000000" stroke-width="1" x1="100" y1="406" x2="480" y2="406"/>
<line opacity="0.2" stroke="#000000" stroke-width="1" x1="100" y1="363" x2="480" y2="363"/>
<line opacity="0.2" stroke="#000000" stroke-width="1" x1="100" y1="320" x2="480" y2="320"/>
<line opacity="0.2" stroke="#000000" stroke-width="1" x1="100" y1="277" x2="480" y2="277"/>
<line opacity="0.2" stroke="#000000" stroke-width="1" x1="100" y1="234" x2="480" y2="234"/>
<line opacity="0.2" stroke="#000000" stroke-width="1" x1="100" y1="192" x2="480" y2="192"/>
<line opacity="0.2" stroke="#000000" stroke-width="1" x1="100" y1="149" x2="480" y2="149"/>
<line opacity="0.2" stroke="#000000" stroke-width="1" x1="100" y1="106" x2="480" y2="106"/>
<line opacity="0.2" stroke="#000000" stroke-width="1" x1="100" y1="63" x2="480" y2="63"/>
<line opacity="0.2" stroke="#000000" stroke-width="1" x1="100" y1="21" x2="480" y2="21"/>
<polyline fill="none" opacity="1" stroke="#000000" stroke-width="1" points="99,0 99,600 "/>
<text x="90" y="577" dy="0.5ex" text-anchor="end" font-family="sans-serif" font-size="9.67741935483871" opacity="1" fill="#000000">
&quot;PyPy3/Twisted&quot;
</text>
<polyline fill="none" opacity="1" stroke="#000000" stroke-width="1" points="94,577 99,577 "/>
<text x="90" y="534" dy="0.5ex" text-anchor="end" font-family="sans-serif" font-size="9.67741935483871" opacity="1" fill="#000000">
&quot;Rust/rocket&quot;
</text>
<polyline fill="none" opacity="1" stroke="#000000" stroke-width="1" points="94,534 99,534 "/>
<text x="90" y="491" dy="0.5ex" text-anchor="end" font-family="sans-serif" font-size="9.67741935483871" opacity="1" fill="#000000">
&quot;Java/Spring Boot&quot;
</text>
<polyline fill="none" opacity="1" stroke="#000000" stroke-width="1" points="94,491 99,491 "/>
<text x="90" y="449" dy="0.5ex" text-anchor="end" font-family="sans-serif" font-size="9.67741935483871" opacity="1" fill="#000000">
&quot;Scala/Akka&quot;
</text>
<polyline fill="none" opacity="1" stroke="#000000" stroke-width="1" points="94,449 99,449 "/>
<text x="90" y="406" dy="0.5ex" text-anchor="end" font-family="sans-serif" font-size="9.67741935483871" opacity="1" fill="#000000">
&quot;D (LDC/vibe.d)&quot;
</text>
<polyline fill="none" opacity="1" stroke="#000000" stroke-width="1" points="94,406 99,406 "/>
<text x="90" y="363" dy="0.5ex" text-anchor="end" font-family="sans-serif" font-size="9.67741935483871" opacity="1" fill="#000000">
&quot;Rust/warp&quot;
</text>
<polyline fill="none" opacity="1" stroke="#000000" stroke-width="1" points="94,363 99,363 "/>
<text x="90" y="320" dy="0.5ex" text-anchor="end" font-family="sans-serif" font-size="9.67741935483871" opacity="1" fill="#000000">
&quot;Go&quot;
</text>
<polyline fill="none" opacity="1" stroke="#000000" stroke-width="1" points="94,320 99,320 "/>
<text x="90" y="277" dy="0.5ex" text-anchor="end" font-family="sans-serif" font-size="9.67741935483871" opacity="1" fill="#000000">
&quot;Node.js&quot;
</text>
<polyline fill="none" opacity="1" stroke="#000000" stroke-width="1" points="94,277 99,277 "/>
<text x="90" y="234" dy="0.5ex" text-anchor="end" font-family="sans-serif" font-size="9.67741935483871" opacity="1" fill="#000000">
&quot;PHP/Swoole&quot;
</text>
<polyline fill="none" opacity="1" stroke="#000000" stroke-width="1" points="94,234 99,234 "/>
<text x="90" y="192" dy="0.5ex" text-anchor="end" font-family="sans-serif" font-size="9.67741935483871" opacity="1" fill="#000000">
&quot;Rust/hyper&quot;
</text>
<polyline fill="none" opacity="1" stroke="#000000" stroke-width="1" points="94,192 99,192 "/>
<text x="90" y="149" dy="0.5ex" text-anchor="end" font-family="sans-serif" font-size="9.67741935483871" opacity="1" fill="#000000">
&quot;D (DMD/vibe.d)&quot;
</text>
<polyline fill="none" opacity="1" stroke="#000000" stroke-width="1" points="94,149 99,149 "/>
<text x="90" y="106" dy="0.5ex" text-anchor="end" font-family="sans-serif" font-size="9.67741935483871" opacity="1" fill="#000000">
&quot;Crystal&quot;
</text>
<polyline fill="none" opacity="1" stroke="#000000" stroke-width="1" points="94,106 99,106 "/>
<text x="90" y="63" dy="0.5ex" text-anchor="end" font-family="sans-serif" font-size="9.67741935483871" opacity="1" fill="#000000">
&quot;Rust/Actix&quot;
</text>
<polyline fill="none" opacity="1" stroke="#000000" stroke-width="1" points="94,63 99,63 "/>
<text x="90" y="21" dy="0.5ex" text-anchor="end" font-family="sans-serif" font-size="9.67741935483871" opacity="1" fill="#000000">
&quot;Rust/Tide&quot;
</text>
<polyline fill="none" opacity="1" stroke="#000000" stroke-width="1" points="94,21 99,21 "/>
<polyline fill="none" opacity="1" stroke="#000000" stroke-width="1" points="100,600 480,600 "/>
<text x="136" y="610" dy="0.76em" text-anchor="middle" font-family="sans-serif" font-size="9.67741935483871" opacity="1" fill="#000000">
2.0
</text>
<polyline fill="none" opacity="1" stroke="#000000" stroke-width="1" points="136,600 136,605 "/>
<text x="173" y="610" dy="0.76em" text-anchor="middle" font-family="sans-serif" font-size="9.67741935483871" opacity="1" fill="#000000">
4.0
</text>
<polyline fill="none" opacity="1" stroke="#000000" stroke-width="1" points="173,600 173,605 "/>
<text x="210" y="610" dy="0.76em" text-anchor="middle" font-family="sans-serif" font-size="9.67741935483871" opacity="1" fill="#000000">
6.0
</text>
<polyline fill="none" opacity="1" stroke="#000000" stroke-width="1" points="210,600 210,605 "/>
<text x="247" y="610" dy="0.76em" text-anchor="middle" font-family="sans-serif" font-size="9.67741935483871" opacity="1" fill="#000000">
8.0
</text>
<polyline fill="none" opacity="1" stroke="#000000" stroke-width="1" points="247,600 247,605 "/>
<text x="284" y="610" dy="0.76em" text-anchor="middle" font-family="sans-serif" font-size="9.67741935483871" opacity="1" fill="#000000">
10.0
</text>
<polyline fill="none" opacity="1" stroke="#000000" stroke-width="1" points="284,600 284,605 "/>
<text x="320" y="610" dy="0.76em" text-anchor="middle" font-family="sans-serif" font-size="9.67741935483871" opacity="1" fill="#000000">
12.0
</text>
<polyline fill="none" opacity="1" stroke="#000000" stroke-width="1" points="320,600 320,605 "/>
<text x="357" y="610" dy="0.76em" text-anchor="middle" font-family="sans-serif" font-size="9.67741935483871" opacity="1" fill="#000000">
14.0
</text>
<polyline fill="none" opacity="1" stroke="#000000" stroke-width="1" points="357,600 357,605 "/>
<text x="394" y="610" dy="0.76em" text-anchor="middle" font-family="sans-serif" font-size="9.67741935483871" opacity="1" fill="#000000">
16.0
</text>
<polyline fill="none" opacity="1" stroke="#000000" stroke-width="1" points="394,600 394,605 "/>
<text x="431" y="610" dy="0.76em" text-anchor="middle" font-family="sans-serif" font-size="9.67741935483871" opacity="1" fill="#000000">
18.0
</text>
<polyline fill="none" opacity="1" stroke="#000000" stroke-width="1" points="431,600 431,605 "/>
<text x="468" y="610" dy="0.76em" text-anchor="middle" font-family="sans-serif" font-size="9.67741935483871" opacity="1" fill="#000000">
20.0
</text>
<polyline fill="none" opacity="1" stroke="#000000" stroke-width="1" points="468,600 468,605 "/>
<line opacity="1" stroke="#E6194B" stroke-width="1" x1="100" y1="94" x2="100" y2="98"/>
<line opacity="1" stroke="#E6194B" stroke-width="1" x1="100" y1="96" x2="105" y2="96"/>
<rect x="105" y="91" width="37" height="10" opacity="1" fill="none" stroke="#E6194B"/>
<line opacity="1" stroke="#E6194B" stroke-width="1" x1="112" y1="91" x2="112" y2="101"/>
<line opacity="1" stroke="#E6194B" stroke-width="1" x1="142" y1="96" x2="197" y2="96"/>
<line opacity="1" stroke="#E6194B" stroke-width="1" x1="197" y1="94" x2="197" y2="98"/>
<line opacity="1" stroke="#E6194B" stroke-width="1" x1="100" y1="137" x2="100" y2="141"/>
<line opacity="1" stroke="#E6194B" stroke-width="1" x1="100" y1="139" x2="111" y2="139"/>
<rect x="111" y="134" width="46" height="10" opacity="1" fill="none" stroke="#E6194B"/>
<line opacity="1" stroke="#E6194B" stroke-width="1" x1="122" y1="134" x2="122" y2="144"/>
<line opacity="1" stroke="#E6194B" stroke-width="1" x1="157" y1="139" x2="226" y2="139"/>
<line opacity="1" stroke="#E6194B" stroke-width="1" x1="226" y1="137" x2="226" y2="141"/>
<line opacity="1" stroke="#E6194B" stroke-width="1" x1="100" y1="308" x2="100" y2="312"/>
<line opacity="1" stroke="#E6194B" stroke-width="1" x1="100" y1="310" x2="111" y2="310"/>
<rect x="111" y="305" width="38" height="10" opacity="1" fill="none" stroke="#E6194B"/>
<line opacity="1" stroke="#E6194B" stroke-width="1" x1="123" y1="305" x2="123" y2="315"/>
<line opacity="1" stroke="#E6194B" stroke-width="1" x1="149" y1="310" x2="207" y2="310"/>
<line opacity="1" stroke="#E6194B" stroke-width="1" x1="207" y1="308" x2="207" y2="312"/>
<line opacity="1" stroke="#E6194B" stroke-width="1" x1="100" y1="479" x2="100" y2="483"/>
<line opacity="1" stroke="#E6194B" stroke-width="1" x1="100" y1="481" x2="153" y2="481"/>
<rect x="153" y="476" width="51" height="10" opacity="1" fill="none" stroke="#E6194B"/>
<line opacity="1" stroke="#E6194B" stroke-width="1" x1="177" y1="476" x2="177" y2="486"/>
<line opacity="1" stroke="#E6194B" stroke-width="1" x1="204" y1="481" x2="282" y2="481"/>
<line opacity="1" stroke="#E6194B" stroke-width="1" x1="282" y1="479" x2="282" y2="483"/>
<line opacity="1" stroke="#E6194B" stroke-width="1" x1="100" y1="394" x2="100" y2="398"/>
<line opacity="1" stroke="#E6194B" stroke-width="1" x1="100" y1="396" x2="112" y2="396"/>
<rect x="112" y="391" width="52" height="10" opacity="1" fill="none" stroke="#E6194B"/>
<line opacity="1" stroke="#E6194B" stroke-width="1" x1="125" y1="391" x2="125" y2="401"/>
<line opacity="1" stroke="#E6194B" stroke-width="1" x1="164" y1="396" x2="241" y2="396"/>
<line opacity="1" stroke="#E6194B" stroke-width="1" x1="241" y1="394" x2="241" y2="398"/>
<line opacity="1" stroke="#E6194B" stroke-width="1" x1="100" y1="265" x2="100" y2="269"/>
<line opacity="1" stroke="#E6194B" stroke-width="1" x1="100" y1="267" x2="112" y2="267"/>
<rect x="112" y="262" width="50" height="10" opacity="1" fill="none" stroke="#E6194B"/>
<line opacity="1" stroke="#E6194B" stroke-width="1" x1="123" y1="262" x2="123" y2="272"/>
<line opacity="1" stroke="#E6194B" stroke-width="1" x1="162" y1="267" x2="237" y2="267"/>
<line opacity="1" stroke="#E6194B" stroke-width="1" x1="237" y1="265" x2="237" y2="269"/>
<line opacity="1" stroke="#E6194B" stroke-width="1" x1="100" y1="222" x2="100" y2="226"/>
<line opacity="1" stroke="#E6194B" stroke-width="1" x1="100" y1="224" x2="109" y2="224"/>
<rect x="109" y="219" width="48" height="10" opacity="1" fill="none" stroke="#E6194B"/>
<line opacity="1" stroke="#E6194B" stroke-width="1" x1="123" y1="219" x2="123" y2="229"/>
<line opacity="1" stroke="#E6194B" stroke-width="1" x1="157" y1="224" x2="228" y2="224"/>
<line opacity="1" stroke="#E6194B" stroke-width="1" x1="228" y1="222" x2="228" y2="226"/>
<line opacity="1" stroke="#E6194B" stroke-width="1" x1="268" y1="565" x2="268" y2="569"/>
<line opacity="1" stroke="#E6194B" stroke-width="1" x1="268" y1="567" x2="282" y2="567"/>
<rect x="282" y="562" width="9" height="10" opacity="1" fill="none" stroke="#E6194B"/>
<line opacity="1" stroke="#E6194B" stroke-width="1" x1="285" y1="562" x2="285" y2="572"/>
<line opacity="1" stroke="#E6194B" stroke-width="1" x1="291" y1="567" x2="305" y2="567"/>
<line opacity="1" stroke="#E6194B" stroke-width="1" x1="305" y1="565" x2="305" y2="569"/>
<line opacity="1" stroke="#E6194B" stroke-width="1" x1="100" y1="51" x2="100" y2="55"/>
<line opacity="1" stroke="#E6194B" stroke-width="1" x1="100" y1="53" x2="103" y2="53"/>
<rect x="103" y="48" width="44" height="10" opacity="1" fill="none" stroke="#E6194B"/>
<line opacity="1" stroke="#E6194B" stroke-width="1" x1="111" y1="48" x2="111" y2="58"/>
<line opacity="1" stroke="#E6194B" stroke-width="1" x1="147" y1="53" x2="214" y2="53"/>
<line opacity="1" stroke="#E6194B" stroke-width="1" x1="214" y1="51" x2="214" y2="55"/>
<line opacity="1" stroke="#E6194B" stroke-width="1" x1="100" y1="180" x2="100" y2="184"/>
<line opacity="1" stroke="#E6194B" stroke-width="1" x1="100" y1="182" x2="114" y2="182"/>
<rect x="114" y="177" width="26" height="10" opacity="1" fill="none" stroke="#E6194B"/>
<line opacity="1" stroke="#E6194B" stroke-width="1" x1="123" y1="177" x2="123" y2="187"/>
<line opacity="1" stroke="#E6194B" stroke-width="1" x1="140" y1="182" x2="179" y2="182"/>
<line opacity="1" stroke="#E6194B" stroke-width="1" x1="179" y1="180" x2="179" y2="184"/>
<line opacity="1" stroke="#E6194B" stroke-width="1" x1="100" y1="522" x2="100" y2="526"/>
<line opacity="1" stroke="#E6194B" stroke-width="1" x1="100" y1="524" x2="153" y2="524"/>
<rect x="153" y="519" width="118" height="10" opacity="1" fill="none" stroke="#E6194B"/>
<line opacity="1" stroke="#E6194B" stroke-width="1" x1="203" y1="519" x2="203" y2="529"/>
<line opacity="1" stroke="#E6194B" stroke-width="1" x1="271" y1="524" x2="447" y2="524"/>
<line opacity="1" stroke="#E6194B" stroke-width="1" x1="447" y1="522" x2="447" y2="526"/>
<line opacity="1" stroke="#E6194B" stroke-width="1" x1="100" y1="9" x2="100" y2="13"/>
<line opacity="1" stroke="#E6194B" stroke-width="1" x1="100" y1="11" x2="103" y2="11"/>
<rect x="103" y="6" width="20" height="10" opacity="1" fill="none" stroke="#E6194B"/>
<line opacity="1" stroke="#E6194B" stroke-width="1" x1="111" y1="6" x2="111" y2="16"/>
<line opacity="1" stroke="#E6194B" stroke-width="1" x1="123" y1="11" x2="154" y2="11"/>
<line opacity="1" stroke="#E6194B" stroke-width="1" x1="154" y1="9" x2="154" y2="13"/>
<line opacity="1" stroke="#E6194B" stroke-width="1" x1="100" y1="351" x2="100" y2="355"/>
<line opacity="1" stroke="#E6194B" stroke-width="1" x1="100" y1="353" x2="114" y2="353"/>
<rect x="114" y="348" width="30" height="10" opacity="1" fill="none" stroke="#E6194B"/>
<line opacity="1" stroke="#E6194B" stroke-width="1" x1="125" y1="348" x2="125" y2="358"/>
<line opacity="1" stroke="#E6194B" stroke-width="1" x1="144" y1="353" x2="188" y2="353"/>
<line opacity="1" stroke="#E6194B" stroke-width="1" x1="188" y1="351" x2="188" y2="355"/>
<line opacity="1" stroke="#E6194B" stroke-width="1" x1="100" y1="437" x2="100" y2="441"/>
<line opacity="1" stroke="#E6194B" stroke-width="1" x1="100" y1="439" x2="116" y2="439"/>
<rect x="116" y="434" width="53" height="10" opacity="1" fill="none" stroke="#E6194B"/>
<line opacity="1" stroke="#E6194B" stroke-width="1" x1="136" y1="434" x2="136" y2="444"/>
<line opacity="1" stroke="#E6194B" stroke-width="1" x1="169" y1="439" x2="249" y2="439"/>
<line opacity="1" stroke="#E6194B" stroke-width="1" x1="249" y1="437" x2="249" y2="441"/>
<line opacity="1" stroke="#3CB44B" stroke-width="1" x1="100" y1="114" x2="100" y2="118"/>
<line opacity="1" stroke="#3CB44B" stroke-width="1" x1="100" y1="116" x2="105" y2="116"/>
<rect x="105" y="111" width="42" height="10" opacity="1" fill="none" stroke="#3CB44B"/>
<line opacity="1" stroke="#3CB44B" stroke-width="1" x1="114" y1="111" x2="114" y2="121"/>
<line opacity="1" stroke="#3CB44B" stroke-width="1" x1="147" y1="116" x2="211" y2="116"/>
<line opacity="1" stroke="#3CB44B" stroke-width="1" x1="211" y1="114" x2="211" y2="118"/>
<line opacity="1" stroke="#3CB44B" stroke-width="1" x1="100" y1="157" x2="100" y2="161"/>
<line opacity="1" stroke="#3CB44B" stroke-width="1" x1="100" y1="159" x2="112" y2="159"/>
<rect x="112" y="154" width="45" height="10" opacity="1" fill="none" stroke="#3CB44B"/>
<line opacity="1" stroke="#3CB44B" stroke-width="1" x1="125" y1="154" x2="125" y2="164"/>
<line opacity="1" stroke="#3CB44B" stroke-width="1" x1="157" y1="159" x2="223" y2="159"/>
<line opacity="1" stroke="#3CB44B" stroke-width="1" x1="223" y1="157" x2="223" y2="161"/>
<line opacity="1" stroke="#3CB44B" stroke-width="1" x1="100" y1="328" x2="100" y2="332"/>
<line opacity="1" stroke="#3CB44B" stroke-width="1" x1="100" y1="330" x2="111" y2="330"/>
<rect x="111" y="325" width="42" height="10" opacity="1" fill="none" stroke="#3CB44B"/>
<line opacity="1" stroke="#3CB44B" stroke-width="1" x1="125" y1="325" x2="125" y2="335"/>
<line opacity="1" stroke="#3CB44B" stroke-width="1" x1="153" y1="330" x2="216" y2="330"/>
<line opacity="1" stroke="#3CB44B" stroke-width="1" x1="216" y1="328" x2="216" y2="332"/>
<line opacity="1" stroke="#3CB44B" stroke-width="1" x1="100" y1="499" x2="100" y2="503"/>
<line opacity="1" stroke="#3CB44B" stroke-width="1" x1="100" y1="501" x2="153" y2="501"/>
<rect x="153" y="496" width="46" height="10" opacity="1" fill="none" stroke="#3CB44B"/>
<line opacity="1" stroke="#3CB44B" stroke-width="1" x1="171" y1="496" x2="171" y2="506"/>
<line opacity="1" stroke="#3CB44B" stroke-width="1" x1="199" y1="501" x2="268" y2="501"/>
<line opacity="1" stroke="#3CB44B" stroke-width="1" x1="268" y1="499" x2="268" y2="503"/>
<line opacity="1" stroke="#3CB44B" stroke-width="1" x1="100" y1="414" x2="100" y2="418"/>
<line opacity="1" stroke="#3CB44B" stroke-width="1" x1="100" y1="416" x2="116" y2="416"/>
<rect x="116" y="411" width="50" height="10" opacity="1" fill="none" stroke="#3CB44B"/>
<line opacity="1" stroke="#3CB44B" stroke-width="1" x1="129" y1="411" x2="129" y2="421"/>
<line opacity="1" stroke="#3CB44B" stroke-width="1" x1="166" y1="416" x2="240" y2="416"/>
<line opacity="1" stroke="#3CB44B" stroke-width="1" x1="240" y1="414" x2="240" y2="418"/>
<line opacity="1" stroke="#3CB44B" stroke-width="1" x1="100" y1="285" x2="100" y2="289"/>
<line opacity="1" stroke="#3CB44B" stroke-width="1" x1="100" y1="287" x2="112" y2="287"/>
<rect x="112" y="282" width="50" height="10" opacity="1" fill="none" stroke="#3CB44B"/>
<line opacity="1" stroke="#3CB44B" stroke-width="1" x1="123" y1="282" x2="123" y2="292"/>
<line opacity="1" stroke="#3CB44B" stroke-width="1" x1="162" y1="287" x2="237" y2="287"/>
<line opacity="1" stroke="#3CB44B" stroke-width="1" x1="237" y1="285" x2="237" y2="289"/>
<line opacity="1" stroke="#3CB44B" stroke-width="1" x1="100" y1="242" x2="100" y2="246"/>
<line opacity="1" stroke="#3CB44B" stroke-width="1" x1="100" y1="244" x2="109" y2="244"/>
<rect x="109" y="239" width="48" height="10" opacity="1" fill="none" stroke="#3CB44B"/>
<line opacity="1" stroke="#3CB44B" stroke-width="1" x1="123" y1="239" x2="123" y2="249"/>
<line opacity="1" stroke="#3CB44B" stroke-width="1" x1="157" y1="244" x2="228" y2="244"/>
<line opacity="1" stroke="#3CB44B" stroke-width="1" x1="228" y1="242" x2="228" y2="246"/>
<line opacity="1" stroke="#3CB44B" stroke-width="1" x1="276" y1="585" x2="276" y2="589"/>
<line opacity="1" stroke="#3CB44B" stroke-width="1" x1="276" y1="587" x2="293" y2="587"/>
<rect x="293" y="582" width="11" height="10" opacity="1" fill="none" stroke="#3CB44B"/>
<line opacity="1" stroke="#3CB44B" stroke-width="1" x1="298" y1="582" x2="298" y2="592"/>
<line opacity="1" stroke="#3CB44B" stroke-width="1" x1="304" y1="587" x2="320" y2="587"/>
<line opacity="1" stroke="#3CB44B" stroke-width="1" x1="320" y1="585" x2="320" y2="589"/>
<line opacity="1" stroke="#3CB44B" stroke-width="1" x1="100" y1="71" x2="100" y2="75"/>
<line opacity="1" stroke="#3CB44B" stroke-width="1" x1="100" y1="73" x2="105" y2="73"/>
<rect x="105" y="68" width="42" height="10" opacity="1" fill="none" stroke="#3CB44B"/>
<line opacity="1" stroke="#3CB44B" stroke-width="1" x1="114" y1="68" x2="114" y2="78"/>
<line opacity="1" stroke="#3CB44B" stroke-width="1" x1="147" y1="73" x2="211" y2="73"/>
<line opacity="1" stroke="#3CB44B" stroke-width="1" x1="211" y1="71" x2="211" y2="75"/>
<line opacity="1" stroke="#3CB44B" stroke-width="1" x1="100" y1="200" x2="100" y2="204"/>
<line opacity="1" stroke="#3CB44B" stroke-width="1" x1="100" y1="202" x2="114" y2="202"/>
<rect x="114" y="197" width="30" height="10" opacity="1" fill="none" stroke="#3CB44B"/>
<line opacity="1" stroke="#3CB44B" stroke-width="1" x1="125" y1="197" x2="125" y2="207"/>
<line opacity="1" stroke="#3CB44B" stroke-width="1" x1="144" y1="202" x2="188" y2="202"/>
<line opacity="1" stroke="#3CB44B" stroke-width="1" x1="188" y1="200" x2="188" y2="204"/>
<line opacity="1" stroke="#3CB44B" stroke-width="1" x1="100" y1="542" x2="100" y2="546"/>
<line opacity="1" stroke="#3CB44B" stroke-width="1" x1="100" y1="544" x2="153" y2="544"/>
<rect x="153" y="539" width="123" height="10" opacity="1" fill="none" stroke="#3CB44B"/>
<line opacity="1" stroke="#3CB44B" stroke-width="1" x1="206" y1="539" x2="206" y2="549"/>
<line opacity="1" stroke="#3CB44B" stroke-width="1" x1="276" y1="544" x2="461" y2="544"/>
<line opacity="1" stroke="#3CB44B" stroke-width="1" x1="461" y1="542" x2="461" y2="546"/>
<line opacity="1" stroke="#3CB44B" stroke-width="1" x1="100" y1="29" x2="100" y2="33"/>
<line opacity="1" stroke="#3CB44B" stroke-width="1" x1="100" y1="31" x2="103" y2="31"/>
<rect x="103" y="26" width="17" height="10" opacity="1" fill="none" stroke="#3CB44B"/>
<line opacity="1" stroke="#3CB44B" stroke-width="1" x1="109" y1="26" x2="109" y2="36"/>
<line opacity="1" stroke="#3CB44B" stroke-width="1" x1="120" y1="31" x2="145" y2="31"/>
<line opacity="1" stroke="#3CB44B" stroke-width="1" x1="145" y1="29" x2="145" y2="33"/>
<line opacity="1" stroke="#3CB44B" stroke-width="1" x1="100" y1="371" x2="100" y2="375"/>
<line opacity="1" stroke="#3CB44B" stroke-width="1" x1="100" y1="373" x2="114" y2="373"/>
<rect x="114" y="368" width="32" height="10" opacity="1" fill="none" stroke="#3CB44B"/>
<line opacity="1" stroke="#3CB44B" stroke-width="1" x1="127" y1="368" x2="127" y2="378"/>
<line opacity="1" stroke="#3CB44B" stroke-width="1" x1="146" y1="373" x2="192" y2="373"/>
<line opacity="1" stroke="#3CB44B" stroke-width="1" x1="192" y1="371" x2="192" y2="375"/>
<line opacity="1" stroke="#3CB44B" stroke-width="1" x1="100" y1="457" x2="100" y2="461"/>
<line opacity="1" stroke="#3CB44B" stroke-width="1" x1="100" y1="459" x2="118" y2="459"/>
<rect x="118" y="454" width="55" height="10" opacity="1" fill="none" stroke="#3CB44B"/>
<line opacity="1" stroke="#3CB44B" stroke-width="1" x1="138" y1="454" x2="138" y2="464"/>
<line opacity="1" stroke="#3CB44B" stroke-width="1" x1="173" y1="459" x2="256" y2="459"/>
<line opacity="1" stroke="#3CB44B" stroke-width="1" x1="256" y1="457" x2="256" y2="461"/>
<rect x="328" y="5" width="147" height="46" opacity="1" fill="#FFFFFF" stroke="none"/>
<rect x="328" y="5" width="147" height="46" opacity="0.5" fill="none" stroke="#000000"/>
<text x="360" y="15" dy="0.76em" text-anchor="start" font-family="sans-serif" font-size="9.67741935483871" opacity="1" fill="#000000">
Index URL Request
</text>
<text x="360" y="30" dy="0.76em" text-anchor="start" font-family="sans-serif" font-size="9.67741935483871" opacity="1" fill="#000000">
Pattern URL Request
</text>
<rect x="338" y="13" width="12" height="12" opacity="1" fill="#E6194B" stroke="none"/>
<rect x="338" y="28" width="12" height="12" opacity="1" fill="#3CB44B" stroke="none"/>
</svg>
