<svg width="480" height="640" viewBox="0 0 480 640" xmlns="http://www.w3.org/2000/svg">
<rect x="0" y="0" width="480" height="640" opacity="1" fill="#FFFFFF" stroke="none"/>
<line opacity="1" stroke="#FFFFFF" stroke-width="1" x1="100" y1="599" x2="100" y2="0"/>
<line opacity="1" stroke="#FFFFFF" stroke-width="1" x1="103" y1="599" x2="103" y2="0"/>
<line opacity="1" stroke="#FFFFFF" stroke-width="1" x1="107" y1="599" x2="107" y2="0"/>
<line opacity="1" stroke="#FFFFFF" stroke-width="1" x1="111" y1="599" x2="111" y2="0"/>
<line opacity="1" stroke="#FFFFFF" stroke-width="1" x1="114" y1="599" x2="114" y2="0"/>
<line opacity="1" stroke="#FFFFFF" stroke-width="1" x1="118" y1="599" x2="118" y2="0"/>
<line opacity="1" stroke="#FFFFFF" stroke-width="1" x1="122" y1="599" x2="122" y2="0"/>
<line opacity="1" stroke="#FFFFFF" stroke-width="1" x1="126" y1="599" x2="126" y2="0"/>
<line opacity="1" stroke="#FFFFFF" stroke-width="1" x1="129" y1="599" x2="129" y2="0"/>
<line opacity="1" stroke="#FFFFFF" stroke-width="1" x1="133" y1="599" x2="133" y2="0"/>
<line opacity="1" stroke="#FFFFFF" stroke-width="1" x1="137" y1="599" x2="137" y2="0"/>
<line opacity="1" stroke="#FFFFFF" stroke-width="1" x1="141" y1="599" x2="141" y2="0"/>
<line opacity="1" stroke="#FFFFFF" stroke-width="1" x1="144" y1="599" x2="144" y2="0"/>
<line opacity="1" stroke="#FFFFFF" stroke-width="1" x1="148" y1="599" x2="148" y2="0"/>
<line opacity="1" stroke="#FFFFFF" stroke-width="1" x1="152" y1="599" x2="152" y2="0"/>
<line opacity="1" stroke="#FFFFFF" stroke-width="1" x1="156" y1="599" x2="156" y2="0"/>
<line opacity="1" stroke="#FFFFFF" stroke-width="1" x1="159" y1="599" x2="159" y2="0"/>
<line opacity="1" stroke="#FFFFFF" stroke-width="1" x1="163" y1="599" x2="163" y2="0"/>
<line opacity="1" stroke="#FFFFFF" stroke-width="1" x1="167" y1="599" x2="167" y2="0"/>
<line opacity="1" stroke="#FFFFFF" stroke-width="1" x1="170" y1="599" x2="170" y2="0"/>
<line opacity="1" stroke="#FFFFFF" stroke-width="1" x1="174" y1="599" x2="174" y2="0"/>
<line opacity="1" stroke="#FFFFFF" stroke-width="1" x1="178" y1="599" x2="178" y2="0"/>
<line opacity="1" stroke="#FFFFFF" stroke-width="1" x1="182" y1="599" x2="182" y2="0"/>
<line opacity="1" stroke="#FFFFFF" stroke-width="1" x1="185" y1="599" x2="185" y2="0"/>
<line opacity="1" stroke="#FFFFFF" stroke-width="1" x1="189" y1="599" x2="189" y2="0"/>
<line opacity="1" stroke="#FFFFFF" stroke-width="1" x1="193" y1="599" x2="193" y2="0"/>
<line opacity="1" stroke="#FFFFFF" stroke-width="1" x1="197" y1="599" x2="197" y2="0"/>
<line opacity="1" stroke="#FFFFFF" stroke-width="1" x1="200" y1="599" x2="200" y2="0"/>
<line opacity="1" stroke="#FFFFFF" stroke-width="1" x1="204" y1="599" x2="204" y2="0"/>
<line opacity="1" stroke="#FFFFFF" stroke-width="1" x1="208" y1="599" x2="208" y2="0"/>
<line opacity="1" stroke="#FFFFFF" stroke-width="1" x1="212" y1="599" x2="212" y2="0"/>
<line opacity="1" stroke="#FFFFFF" stroke-width="1" x1="215" y1="599" x2="215" y2="0"/>
<line opacity="1" stroke="#FFFFFF" stroke-width="1" x1="219" y1="599" x2="219" y2="0"/>
<line opacity="1" stroke="#FFFFFF" stroke-width="1" x1="223" y1="599" x2="223" y2="0"/>
<line opacity="1" stroke="#FFFFFF" stroke-width="1" x1="226" y1="599" x2="226" y2="0"/>
<line opacity="1" stroke="#FFFFFF" stroke-width="1" x1="230" y1="599" x2="230" y2="0"/>
<line opacity="1" stroke="#FFFFFF" stroke-width="1" x1="234" y1="599" x2="234" y2="0"/>
<line opacity="1" stroke="#FFFFFF" stroke-width="1" x1="238" y1="599" x2="238" y2="0"/>
<line opacity="1" stroke="#FFFFFF" stroke-width="1" x1="241" y1="599" x2="241" y2="0"/>
<line opacity="1" stroke="#FFFFFF" stroke-width="1" x1="245" y1="599" x2="245" y2="0"/>
<line opacity="1" stroke="#FFFFFF" stroke-width="1" x1="249" y1="599" x2="249" y2="0"/>
<line opacity="1" stroke="#FFFFFF" stroke-width="1" x1="253" y1="599" x2="253" y2="0"/>
<line opacity="1" stroke="#FFFFFF" stroke-width="1" x1="256" y1="599" x2="256" y2="0"/>
<line opacity="1" stroke="#FFFFFF" stroke-width="1" x1="260" y1="599" x2="260" y2="0"/>
<line opacity="1" stroke="#FFFFFF" stroke-width="1" x1="264" y1="599" x2="264" y2="0"/>
<line opacity="1" stroke="#FFFFFF" stroke-width="1" x1="268" y1="599" x2="268" y2="0"/>
<line opacity="1" stroke="#FFFFFF" stroke-width="1" x1="271" y1="599" x2="271" y2="0"/>
<line opacity="1" stroke="#FFFFFF" stroke-width="1" x1="275" y1="599" x2="275" y2="0"/>
<line opacity="1" stroke="#FFFFFF" stroke-width="1" x1="279" y1="599" x2="279" y2="0"/>
<line opacity="1" stroke="#FFFFFF" stroke-width="1" x1="282" y1="599" x2="282" y2="0"/>
<line opacity="1" stroke="#FFFFFF" stroke-width="1" x1="286" y1="599" x2="286" y2="0"/>
<line opacity="1" stroke="#FFFFFF" stroke-width="1" x1="290" y1="599" x2="290" y2="0"/>
<line opacity="1" stroke="#FFFFFF" stroke-width="1" x1="294" y1="599" x2="294" y2="0"/>
<line opacity="1" stroke="#FFFFFF" stroke-width="1" x1="297" y1="599" x2="297" y2="0"/>
<line opacity="1" stroke="#FFFFFF" stroke-width="1" x1="301" y1="599" x2="301" y2="0"/>
<line opacity="1" stroke="#FFFFFF" stroke-width="1" x1="305" y1="599" x2="305" y2="0"/>
<line opacity="1" stroke="#FFFFFF" stroke-width="1" x1="309" y1="599" x2="309" y2="0"/>
<line opacity="1" stroke="#FFFFFF" stroke-width="1" x1="312" y1="599" x2="312" y2="0"/>
<line opacity="1" stroke="#FFFFFF" stroke-width="1" x1="316" y1="599" x2="316" y2="0"/>
<line opacity="1" stroke="#FFFFFF" stroke-width="1" x1="320" y1="599" x2="320" y2="0"/>
<line opacity="1" stroke="#FFFFFF" stroke-width="1" x1="324" y1="599" x2="324" y2="0"/>
<line opacity="1" stroke="#FFFFFF" stroke-width="1" x1="327" y1="599" x2="327" y2="0"/>
<line opacity="1" stroke="#FFFFFF" stroke-width="1" x1="331" y1="599" x2="331" y2="0"/>
<line opacity="1" stroke="#FFFFFF" stroke-width="1" x1="335" y1="599" x2="335" y2="0"/>
<line opacity="1" stroke="#FFFFFF" stroke-width="1" x1="338" y1="599" x2="338" y2="0"/>
<line opacity="1" stroke="#FFFFFF" stroke-width="1" x1="342" y1="599" x2="342" y2="0"/>
<line opacity="1" stroke="#FFFFFF" stroke-width="1" x1="346" y1="599" x2="346" y2="0"/>
<line opacity="1" stroke="#FFFFFF" stroke-width="1" x1="350" y1="599" x2="350" y2="0"/>
<line opacity="1" stroke="#FFFFFF" stroke-width="1" x1="353" y1="599" x2="353" y2="0"/>
<line opacity="1" stroke="#FFFFFF" stroke-width="1" x1="357" y1="599" x2="357" y2="0"/>
<line opacity="1" stroke="#FFFFFF" stroke-width="1" x1="361" y1="599" x2="361" y2="0"/>
<line opacity="1" stroke="#FFFFFF" stroke-width="1" x1="365" y1="599" x2="365" y2="0"/>
<line opacity="1" stroke="#FFFFFF" stroke-width="1" x1="368" y1="599" x2="368" y2="0"/>
<line opacity="1" stroke="#FFFFFF" stroke-width="1" x1="372" y1="599" x2="372" y2="0"/>
<line opacity="1" stroke="#FFFFFF" stroke-width="1" x1="376" y1="599" x2="376" y2="0"/>
<line opacity="1" stroke="#FFFFFF" stroke-width="1" x1="380" y1="599" x2="380" y2="0"/>
<line opacity="1" stroke="#FFFFFF" stroke-width="1" x1="383" y1="599" x2="383" y2="0"/>
<line opacity="1" stroke="#FFFFFF" stroke-width="1" x1="387" y1="599" x2="387" y2="0"/>
<line opacity="1" stroke="#FFFFFF" stroke-width="1" x1="391" y1="599" x2="391" y2="0"/>
<line opacity="1" stroke="#FFFFFF" stroke-width="1" x1="394" y1="599" x2="394" y2="0"/>
<line opacity="1" stroke="#FFFFFF" stroke-width="1" x1="398" y1="599" x2="398" y2="0"/>
<line opacity="1" stroke="#FFFFFF" stroke-width="1" x1="402" y1="599" x2="402" y2="0"/>
<line opacity="1" stroke="#FFFFFF" stroke-width="1" x1="406" y1="599" x2="406" y2="0"/>
<line opacity="1" stroke="#FFFFFF" stroke-width="1" x1="409" y1="599" x2="409" y2="0"/>
<line opacity="1" stroke="#FFFFFF" stroke-width="1" x1="413" y1="599" x2="413" y2="0"/>
<line opacity="1" stroke="#FFFFFF" stroke-width="1" x1="417" y1="599" x2="417" y2="0"/>
<line opacity="1" stroke="#FFFFFF" stroke-width="1" x1="421" y1="599" x2="421" y2="0"/>
<line opacity="1" stroke="#FFFFFF" stroke-width="1" x1="424" y1="599" x2="424" y2="0"/>
<line opacity="1" stroke="#FFFFFF" stroke-width="1" x1="428" y1="599" x2="428" y2="0"/>
<line opacity="1" stroke="#FFFFFF" stroke-width="1" x1="432" y1="599" x2="432" y2="0"/>
<line opacity="1" stroke="#FFFFFF" stroke-width="1" x1="436" y1="599" x2="436" y2="0"/>
<line opacity="1" stroke="#FFFFFF" stroke-width="1" x1="439" y1="599" x2="439" y2="0"/>
<line opacity="1" stroke="#FFFFFF" stroke-width="1" x1="443" y1="599" x2="443" y2="0"/>
<line opacity="1" stroke="#FFFFFF" stroke-width="1" x1="447" y1="599" x2="447" y2="0"/>
<line opacity="1" stroke="#FFFFFF" stroke-width="1" x1="450" y1="599" x2="450" y2="0"/>
<line opacity="1" stroke="#FFFFFF" stroke-width="1" x1="454" y1="599" x2="454" y2="0"/>
<line opacity="1" stroke="#FFFFFF" stroke-width="1" x1="458" y1="599" x2="458" y2="0"/>
<line opacity="1" stroke="#FFFFFF" stroke-width="1" x1="462" y1="599" x2="462" y2="0"/>
<line opacity="1" stroke="#FFFFFF" stroke-width="1" x1="465" y1="599" x2="465" y2="0"/>
<line opacity="1" stroke="#FFFFFF" stroke-width="1" x1="469" y1="599" x2="469" y2="0"/>
<line opacity="1" stroke="#FFFFFF" stroke-width="1" x1="473" y1="599" x2="473" y2="0"/>
<line opacity="1" stroke="#FFFFFF" stroke-width="1" x1="477" y1="599" x2="477" y2="0"/>
<line opacity="1" stroke="#FFFFFF" stroke-width="1" x1="100" y1="572" x2="479" y2="572"/>
<line opacity="1" stroke="#FFFFFF" stroke-width="1" x1="100" y1="517" x2="479" y2="517"/>
<line opacity="1" stroke="#FFFFFF" stroke-width="1" x1="100" y1="463" x2="479" y2="463"/>
<line opacity="1" stroke="#FFFFFF" stroke-width="1" x1="100" y1="408" x2="479" y2="408"/>
<line opacity="1" stroke="#FFFFFF" stroke-width="1" x1="100" y1="354" x2="479" y2="354"/>
<line opacity="1" stroke="#FFFFFF" stroke-width="1" x1="100" y1="299" x2="479" y2="299"/>
<line opacity="1" stroke="#FFFFFF" stroke-width="1" x1="100" y1="245" x2="479" y2="245"/>
<line opacity="1" stroke="#FFFFFF" stroke-width="1" x1="100" y1="190" x2="479" y2="190"/>
<line opacity="1" stroke="#FFFFFF" stroke-width="1" x1="100" y1="136" x2="479" y2="136"/>
<line opacity="1" stroke="#FFFFFF" stroke-width="1" x1="100" y1="81" x2="479" y2="81"/>
<line opacity="1" stroke="#FFFFFF" stroke-width="1" x1="100" y1="27" x2="479" y2="27"/>
<text x="0" y="300" dy="0.76em" text-anchor="middle" font-family="sans-serif" font-size="9.67741935483871" opacity="1" fill="#000000" transform="rotate(270, 0, 300)">
Language
</text>
<text x="290" y="640" dy="-0.5ex" text-anchor="middle" font-family="sans-serif" font-size="9.67741935483871" opacity="1" fill="#000000">
Response, ms
</text>
<line opacity="0.2" stroke="#000000" stroke-width="1" x1="100" y1="599" x2="100" y2="0"/>
<line opacity="0.2" stroke="#000000" stroke-width="1" x1="137" y1="599" x2="137" y2="0"/>
<line opacity="0.2" stroke="#000000" stroke-width="1" x1="174" y1="599" x2="174" y2="0"/>
<line opacity="0.2" stroke="#000000" stroke-width="1" x1="212" y1="599" x2="212" y2="0"/>
<line opacity="0.2" stroke="#000000" stroke-width="1" x1="249" y1="599" x2="249" y2="0"/>
<line opacity="0.2" stroke="#000000" stroke-width="1" x1="286" y1="599" x2="286" y2="0"/>
<line opacity="0.2" stroke="#000000" stroke-width="1" x1="324" y1="599" x2="324" y2="0"/>
<line opacity="0.2" stroke="#000000" stroke-width="1" x1="361" y1="599" x2="361" y2="0"/>
<line opacity="0.2" stroke="#000000" stroke-width="1" x1="398" y1="599" x2="398" y2="0"/>
<line opacity="0.2" stroke="#000000" stroke-width="1" x1="436" y1="599" x2="436" y2="0"/>
<line opacity="0.2" stroke="#000000" stroke-width="1" x1="473" y1="599" x2="473" y2="0"/>
<line opacity="0.2" stroke="#000000" stroke-width="1" x1="100" y1="572" x2="479" y2="572"/>
<line opacity="0.2" stroke="#000000" stroke-width="1" x1="100" y1="517" x2="479" y2="517"/>
<line opacity="0.2" stroke="#000000" stroke-width="1" x1="100" y1="463" x2="479" y2="463"/>
<line opacity="0.2" stroke="#000000" stroke-width="1" x1="100" y1="408" x2="479" y2="408"/>
<line opacity="0.2" stroke="#000000" stroke-width="1" x1="100" y1="354" x2="479" y2="354"/>
<line opacity="0.2" stroke="#000000" stroke-width="1" x1="100" y1="299" x2="479" y2="299"/>
<line opacity="0.2" stroke="#000000" stroke-width="1" x1="100" y1="245" x2="479" y2="245"/>
<line opacity="0.2" stroke="#000000" stroke-width="1" x1="100" y1="190" x2="479" y2="190"/>
<line opacity="0.2" stroke="#000000" stroke-width="1" x1="100" y1="136" x2="479" y2="136"/>
<line opacity="0.2" stroke="#000000" stroke-width="1" x1="100" y1="81" x2="479" y2="81"/>
<line opacity="0.2" stroke="#000000" stroke-width="1" x1="100" y1="27" x2="479" y2="27"/>
<polyline fill="none" opacity="1" stroke="#000000" stroke-width="1" points="99,0 99,599 "/>
<text x="90" y="572" dy="0.5ex" text-anchor="end" font-family="sans-serif" font-size="9.67741935483871" opacity="1" fill="#000000">
&quot;PyPy3/Twisted&quot;
</text>
<polyline fill="none" opacity="1" stroke="#000000" stroke-width="1" points="94,572 99,572 "/>
<text x="90" y="517" dy="0.5ex" text-anchor="end" font-family="sans-serif" font-size="9.67741935483871" opacity="1" fill="#000000">
&quot;D&quot;
</text>
<polyline fill="none" opacity="1" stroke="#000000" stroke-width="1" points="94,517 99,517 "/>
<text x="90" y="463" dy="0.5ex" text-anchor="end" font-family="sans-serif" font-size="9.67741935483871" opacity="1" fill="#000000">
&quot;Node.js&quot;
</text>
<polyline fill="none" opacity="1" stroke="#000000" stroke-width="1" points="94,463 99,463 "/>
<text x="90" y="408" dy="0.5ex" text-anchor="end" font-family="sans-serif" font-size="9.67741935483871" opacity="1" fill="#000000">
&quot;PHP/Swoole&quot;
</text>
<polyline fill="none" opacity="1" stroke="#000000" stroke-width="1" points="94,408 99,408 "/>
<text x="90" y="354" dy="0.5ex" text-anchor="end" font-family="sans-serif" font-size="9.67741935483871" opacity="1" fill="#000000">
&quot;Rust/Rocket&quot;
</text>
<polyline fill="none" opacity="1" stroke="#000000" stroke-width="1" points="94,354 99,354 "/>
<text x="90" y="299" dy="0.5ex" text-anchor="end" font-family="sans-serif" font-size="9.67741935483871" opacity="1" fill="#000000">
&quot;Go&quot;
</text>
<polyline fill="none" opacity="1" stroke="#000000" stroke-width="1" points="94,299 99,299 "/>
<text x="90" y="245" dy="0.5ex" text-anchor="end" font-family="sans-serif" font-size="9.67741935483871" opacity="1" fill="#000000">
&quot;Crystal&quot;
</text>
<polyline fill="none" opacity="1" stroke="#000000" stroke-width="1" points="94,245 99,245 "/>
<text x="90" y="190" dy="0.5ex" text-anchor="end" font-family="sans-serif" font-size="9.67741935483871" opacity="1" fill="#000000">
&quot;Rust/warp&quot;
</text>
<polyline fill="none" opacity="1" stroke="#000000" stroke-width="1" points="94,190 99,190 "/>
<text x="90" y="136" dy="0.5ex" text-anchor="end" font-family="sans-serif" font-size="9.67741935483871" opacity="1" fill="#000000">
&quot;Rust/Actix&quot;
</text>
<polyline fill="none" opacity="1" stroke="#000000" stroke-width="1" points="94,136 99,136 "/>
<text x="90" y="81" dy="0.5ex" text-anchor="end" font-family="sans-serif" font-size="9.67741935483871" opacity="1" fill="#000000">
&quot;Rust/hyper-tokio&quot;
</text>
<polyline fill="none" opacity="1" stroke="#000000" stroke-width="1" points="94,81 99,81 "/>
<text x="90" y="27" dy="0.5ex" text-anchor="end" font-family="sans-serif" font-size="9.67741935483871" opacity="1" fill="#000000">
&quot;Rust/hyper-monoio&quot;
</text>
<polyline fill="none" opacity="1" stroke="#000000" stroke-width="1" points="94,27 99,27 "/>
<polyline fill="none" opacity="1" stroke="#000000" stroke-width="1" points="100,600 479,600 "/>
<text x="100" y="610" dy="0.76em" text-anchor="middle" font-family="sans-serif" font-size="9.67741935483871" opacity="1" fill="#000000">
0.0
</text>
<polyline fill="none" opacity="1" stroke="#000000" stroke-width="1" points="100,600 100,605 "/>
<text x="137" y="610" dy="0.76em" text-anchor="middle" font-family="sans-serif" font-size="9.67741935483871" opacity="1" fill="#000000">
1.0
</text>
<polyline fill="none" opacity="1" stroke="#000000" stroke-width="1" points="137,600 137,605 "/>
<text x="174" y="610" dy="0.76em" text-anchor="middle" font-family="sans-serif" font-size="9.67741935483871" opacity="1" fill="#000000">
2.0
</text>
<polyline fill="none" opacity="1" stroke="#000000" stroke-width="1" points="174,600 174,605 "/>
<text x="212" y="610" dy="0.76em" text-anchor="middle" font-family="sans-serif" font-size="9.67741935483871" opacity="1" fill="#000000">
3.0
</text>
<polyline fill="none" opacity="1" stroke="#000000" stroke-width="1" points="212,600 212,605 "/>
<text x="249" y="610" dy="0.76em" text-anchor="middle" font-family="sans-serif" font-size="9.67741935483871" opacity="1" fill="#000000">
4.0
</text>
<polyline fill="none" opacity="1" stroke="#000000" stroke-width="1" points="249,600 249,605 "/>
<text x="286" y="610" dy="0.76em" text-anchor="middle" font-family="sans-serif" font-size="9.67741935483871" opacity="1" fill="#000000">
5.0
</text>
<polyline fill="none" opacity="1" stroke="#000000" stroke-width="1" points="286,600 286,605 "/>
<text x="324" y="610" dy="0.76em" text-anchor="middle" font-family="sans-serif" font-size="9.67741935483871" opacity="1" fill="#000000">
6.0
</text>
<polyline fill="none" opacity="1" stroke="#000000" stroke-width="1" points="324,600 324,605 "/>
<text x="361" y="610" dy="0.76em" text-anchor="middle" font-family="sans-serif" font-size="9.67741935483871" opacity="1" fill="#000000">
7.0
</text>
<polyline fill="none" opacity="1" stroke="#000000" stroke-width="1" points="361,600 361,605 "/>
<text x="398" y="610" dy="0.76em" text-anchor="middle" font-family="sans-serif" font-size="9.67741935483871" opacity="1" fill="#000000">
8.0
</text>
<polyline fill="none" opacity="1" stroke="#000000" stroke-width="1" points="398,600 398,605 "/>
<text x="436" y="610" dy="0.76em" text-anchor="middle" font-family="sans-serif" font-size="9.67741935483871" opacity="1" fill="#000000">
9.0
</text>
<polyline fill="none" opacity="1" stroke="#000000" stroke-width="1" points="436,600 436,605 "/>
<text x="473" y="610" dy="0.76em" text-anchor="middle" font-family="sans-serif" font-size="9.67741935483871" opacity="1" fill="#000000">
10.0
</text>
<polyline fill="none" opacity="1" stroke="#000000" stroke-width="1" points="473,600 473,605 "/>
<line opacity="1" stroke="#E6194B" stroke-width="1" x1="101" y1="233" x2="101" y2="237"/>
<line opacity="1" stroke="#E6194B" stroke-width="1" x1="101" y1="235" x2="152" y2="235"/>
<rect x="152" y="230" width="33" height="10" opacity="1" fill="none" stroke="#E6194B"/>
<line opacity="1" stroke="#E6194B" stroke-width="1" x1="163" y1="230" x2="163" y2="240"/>
<line opacity="1" stroke="#E6194B" stroke-width="1" x1="185" y1="235" x2="236" y2="235"/>
<line opacity="1" stroke="#E6194B" stroke-width="1" x1="236" y1="233" x2="236" y2="237"/>
<line opacity="1" stroke="#E6194B" stroke-width="1" x1="139" y1="505" x2="139" y2="509"/>
<line opacity="1" stroke="#E6194B" stroke-width="1" x1="139" y1="507" x2="189" y2="507"/>
<rect x="189" y="502" width="34" height="10" opacity="1" fill="none" stroke="#E6194B"/>
<line opacity="1" stroke="#E6194B" stroke-width="1" x1="204" y1="502" x2="204" y2="512"/>
<line opacity="1" stroke="#E6194B" stroke-width="1" x1="223" y1="507" x2="273" y2="507"/>
<line opacity="1" stroke="#E6194B" stroke-width="1" x1="273" y1="505" x2="273" y2="509"/>
<line opacity="1" stroke="#E6194B" stroke-width="1" x1="100" y1="287" x2="100" y2="291"/>
<line opacity="1" stroke="#E6194B" stroke-width="1" x1="100" y1="289" x2="137" y2="289"/>
<rect x="137" y="284" width="82" height="10" opacity="1" fill="none" stroke="#E6194B"/>
<line opacity="1" stroke="#E6194B" stroke-width="1" x1="174" y1="284" x2="174" y2="294"/>
<line opacity="1" stroke="#E6194B" stroke-width="1" x1="219" y1="289" x2="342" y2="289"/>
<line opacity="1" stroke="#E6194B" stroke-width="1" x1="342" y1="287" x2="342" y2="291"/>
<line opacity="1" stroke="#E6194B" stroke-width="1" x1="100" y1="451" x2="100" y2="455"/>
<line opacity="1" stroke="#E6194B" stroke-width="1" x1="100" y1="453" x2="133" y2="453"/>
<rect x="133" y="448" width="123" height="10" opacity="1" fill="none" stroke="#E6194B"/>
<line opacity="1" stroke="#E6194B" stroke-width="1" x1="185" y1="448" x2="185" y2="458"/>
<line opacity="1" stroke="#E6194B" stroke-width="1" x1="256" y1="453" x2="441" y2="453"/>
<line opacity="1" stroke="#E6194B" stroke-width="1" x1="441" y1="451" x2="441" y2="455"/>
<line opacity="1" stroke="#E6194B" stroke-width="1" x1="100" y1="396" x2="100" y2="400"/>
<line opacity="1" stroke="#E6194B" stroke-width="1" x1="100" y1="398" x2="133" y2="398"/>
<rect x="133" y="393" width="112" height="10" opacity="1" fill="none" stroke="#E6194B"/>
<line opacity="1" stroke="#E6194B" stroke-width="1" x1="178" y1="393" x2="178" y2="403"/>
<line opacity="1" stroke="#E6194B" stroke-width="1" x1="245" y1="398" x2="413" y2="398"/>
<line opacity="1" stroke="#E6194B" stroke-width="1" x1="413" y1="396" x2="413" y2="400"/>
<line opacity="1" stroke="#E6194B" stroke-width="1" x1="243" y1="560" x2="243" y2="564"/>
<line opacity="1" stroke="#E6194B" stroke-width="1" x1="243" y1="562" x2="271" y2="562"/>
<rect x="271" y="557" width="19" height="10" opacity="1" fill="none" stroke="#E6194B"/>
<line opacity="1" stroke="#E6194B" stroke-width="1" x1="279" y1="557" x2="279" y2="567"/>
<line opacity="1" stroke="#E6194B" stroke-width="1" x1="290" y1="562" x2="318" y2="562"/>
<line opacity="1" stroke="#E6194B" stroke-width="1" x1="318" y1="560" x2="318" y2="564"/>
<line opacity="1" stroke="#E6194B" stroke-width="1" x1="100" y1="124" x2="100" y2="128"/>
<line opacity="1" stroke="#E6194B" stroke-width="1" x1="100" y1="126" x2="122" y2="126"/>
<rect x="122" y="121" width="97" height="10" opacity="1" fill="none" stroke="#E6194B"/>
<line opacity="1" stroke="#E6194B" stroke-width="1" x1="159" y1="121" x2="159" y2="131"/>
<line opacity="1" stroke="#E6194B" stroke-width="1" x1="219" y1="126" x2="365" y2="126"/>
<line opacity="1" stroke="#E6194B" stroke-width="1" x1="365" y1="124" x2="365" y2="128"/>
<line opacity="1" stroke="#E6194B" stroke-width="1" x1="100" y1="15" x2="100" y2="19"/>
<line opacity="1" stroke="#E6194B" stroke-width="1" x1="100" y1="17" x2="122" y2="17"/>
<rect x="122" y="12" width="86" height="10" opacity="1" fill="none" stroke="#E6194B"/>
<line opacity="1" stroke="#E6194B" stroke-width="1" x1="156" y1="12" x2="156" y2="22"/>
<line opacity="1" stroke="#E6194B" stroke-width="1" x1="208" y1="17" x2="337" y2="17"/>
<line opacity="1" stroke="#E6194B" stroke-width="1" x1="337" y1="15" x2="337" y2="19"/>
<line opacity="1" stroke="#E6194B" stroke-width="1" x1="100" y1="69" x2="100" y2="73"/>
<line opacity="1" stroke="#E6194B" stroke-width="1" x1="100" y1="71" x2="137" y2="71"/>
<rect x="137" y="66" width="52" height="10" opacity="1" fill="none" stroke="#E6194B"/>
<line opacity="1" stroke="#E6194B" stroke-width="1" x1="159" y1="66" x2="159" y2="76"/>
<line opacity="1" stroke="#E6194B" stroke-width="1" x1="189" y1="71" x2="268" y2="71"/>
<line opacity="1" stroke="#E6194B" stroke-width="1" x1="268" y1="69" x2="268" y2="73"/>
<line opacity="1" stroke="#E6194B" stroke-width="1" x1="100" y1="342" x2="100" y2="346"/>
<line opacity="1" stroke="#E6194B" stroke-width="1" x1="100" y1="344" x2="148" y2="344"/>
<rect x="148" y="339" width="86" height="10" opacity="1" fill="none" stroke="#E6194B"/>
<line opacity="1" stroke="#E6194B" stroke-width="1" x1="178" y1="339" x2="178" y2="349"/>
<line opacity="1" stroke="#E6194B" stroke-width="1" x1="234" y1="344" x2="363" y2="344"/>
<line opacity="1" stroke="#E6194B" stroke-width="1" x1="363" y1="342" x2="363" y2="346"/>
<line opacity="1" stroke="#E6194B" stroke-width="1" x1="100" y1="178" x2="100" y2="182"/>
<line opacity="1" stroke="#E6194B" stroke-width="1" x1="100" y1="180" x2="141" y2="180"/>
<rect x="141" y="175" width="56" height="10" opacity="1" fill="none" stroke="#E6194B"/>
<line opacity="1" stroke="#E6194B" stroke-width="1" x1="163" y1="175" x2="163" y2="185"/>
<line opacity="1" stroke="#E6194B" stroke-width="1" x1="197" y1="180" x2="281" y2="180"/>
<line opacity="1" stroke="#E6194B" stroke-width="1" x1="281" y1="178" x2="281" y2="182"/>
<line opacity="1" stroke="#3CB44B" stroke-width="1" x1="100" y1="253" x2="100" y2="257"/>
<line opacity="1" stroke="#3CB44B" stroke-width="1" x1="100" y1="255" x2="144" y2="255"/>
<rect x="144" y="250" width="41" height="10" opacity="1" fill="none" stroke="#3CB44B"/>
<line opacity="1" stroke="#3CB44B" stroke-width="1" x1="163" y1="250" x2="163" y2="260"/>
<line opacity="1" stroke="#3CB44B" stroke-width="1" x1="185" y1="255" x2="247" y2="255"/>
<line opacity="1" stroke="#3CB44B" stroke-width="1" x1="247" y1="253" x2="247" y2="257"/>
<line opacity="1" stroke="#3CB44B" stroke-width="1" x1="122" y1="525" x2="122" y2="529"/>
<line opacity="1" stroke="#3CB44B" stroke-width="1" x1="122" y1="527" x2="178" y2="527"/>
<rect x="178" y="522" width="37" height="10" opacity="1" fill="none" stroke="#3CB44B"/>
<line opacity="1" stroke="#3CB44B" stroke-width="1" x1="200" y1="522" x2="200" y2="532"/>
<line opacity="1" stroke="#3CB44B" stroke-width="1" x1="215" y1="527" x2="271" y2="527"/>
<line opacity="1" stroke="#3CB44B" stroke-width="1" x1="271" y1="525" x2="271" y2="529"/>
<line opacity="1" stroke="#3CB44B" stroke-width="1" x1="100" y1="307" x2="100" y2="311"/>
<line opacity="1" stroke="#3CB44B" stroke-width="1" x1="100" y1="309" x2="137" y2="309"/>
<rect x="137" y="304" width="86" height="10" opacity="1" fill="none" stroke="#3CB44B"/>
<line opacity="1" stroke="#3CB44B" stroke-width="1" x1="170" y1="304" x2="170" y2="314"/>
<line opacity="1" stroke="#3CB44B" stroke-width="1" x1="223" y1="309" x2="352" y2="309"/>
<line opacity="1" stroke="#3CB44B" stroke-width="1" x1="352" y1="307" x2="352" y2="311"/>
<line opacity="1" stroke="#3CB44B" stroke-width="1" x1="100" y1="471" x2="100" y2="475"/>
<line opacity="1" stroke="#3CB44B" stroke-width="1" x1="100" y1="473" x2="133" y2="473"/>
<rect x="133" y="468" width="123" height="10" opacity="1" fill="none" stroke="#3CB44B"/>
<line opacity="1" stroke="#3CB44B" stroke-width="1" x1="182" y1="468" x2="182" y2="478"/>
<line opacity="1" stroke="#3CB44B" stroke-width="1" x1="256" y1="473" x2="441" y2="473"/>
<line opacity="1" stroke="#3CB44B" stroke-width="1" x1="441" y1="471" x2="441" y2="475"/>
<line opacity="1" stroke="#3CB44B" stroke-width="1" x1="100" y1="416" x2="100" y2="420"/>
<line opacity="1" stroke="#3CB44B" stroke-width="1" x1="100" y1="418" x2="137" y2="418"/>
<rect x="137" y="413" width="101" height="10" opacity="1" fill="none" stroke="#3CB44B"/>
<line opacity="1" stroke="#3CB44B" stroke-width="1" x1="182" y1="413" x2="182" y2="423"/>
<line opacity="1" stroke="#3CB44B" stroke-width="1" x1="238" y1="418" x2="389" y2="418"/>
<line opacity="1" stroke="#3CB44B" stroke-width="1" x1="389" y1="416" x2="389" y2="420"/>
<line opacity="1" stroke="#3CB44B" stroke-width="1" x1="266" y1="580" x2="266" y2="584"/>
<line opacity="1" stroke="#3CB44B" stroke-width="1" x1="266" y1="582" x2="282" y2="582"/>
<rect x="282" y="577" width="12" height="10" opacity="1" fill="none" stroke="#3CB44B"/>
<line opacity="1" stroke="#3CB44B" stroke-width="1" x1="286" y1="577" x2="286" y2="587"/>
<line opacity="1" stroke="#3CB44B" stroke-width="1" x1="294" y1="582" x2="310" y2="582"/>
<line opacity="1" stroke="#3CB44B" stroke-width="1" x1="310" y1="580" x2="310" y2="584"/>
<line opacity="1" stroke="#3CB44B" stroke-width="1" x1="100" y1="144" x2="100" y2="148"/>
<line opacity="1" stroke="#3CB44B" stroke-width="1" x1="100" y1="146" x2="122" y2="146"/>
<rect x="122" y="141" width="93" height="10" opacity="1" fill="none" stroke="#3CB44B"/>
<line opacity="1" stroke="#3CB44B" stroke-width="1" x1="156" y1="141" x2="156" y2="151"/>
<line opacity="1" stroke="#3CB44B" stroke-width="1" x1="215" y1="146" x2="355" y2="146"/>
<line opacity="1" stroke="#3CB44B" stroke-width="1" x1="355" y1="144" x2="355" y2="148"/>
<line opacity="1" stroke="#3CB44B" stroke-width="1" x1="100" y1="35" x2="100" y2="39"/>
<line opacity="1" stroke="#3CB44B" stroke-width="1" x1="100" y1="37" x2="122" y2="37"/>
<rect x="122" y="32" width="90" height="10" opacity="1" fill="none" stroke="#3CB44B"/>
<line opacity="1" stroke="#3CB44B" stroke-width="1" x1="156" y1="32" x2="156" y2="42"/>
<line opacity="1" stroke="#3CB44B" stroke-width="1" x1="212" y1="37" x2="346" y2="37"/>
<line opacity="1" stroke="#3CB44B" stroke-width="1" x1="346" y1="35" x2="346" y2="39"/>
<line opacity="1" stroke="#3CB44B" stroke-width="1" x1="100" y1="89" x2="100" y2="93"/>
<line opacity="1" stroke="#3CB44B" stroke-width="1" x1="100" y1="91" x2="141" y2="91"/>
<rect x="141" y="86" width="56" height="10" opacity="1" fill="none" stroke="#3CB44B"/>
<line opacity="1" stroke="#3CB44B" stroke-width="1" x1="163" y1="86" x2="163" y2="96"/>
<line opacity="1" stroke="#3CB44B" stroke-width="1" x1="197" y1="91" x2="281" y2="91"/>
<line opacity="1" stroke="#3CB44B" stroke-width="1" x1="281" y1="89" x2="281" y2="93"/>
<line opacity="1" stroke="#3CB44B" stroke-width="1" x1="100" y1="362" x2="100" y2="366"/>
<line opacity="1" stroke="#3CB44B" stroke-width="1" x1="100" y1="364" x2="152" y2="364"/>
<rect x="152" y="359" width="82" height="10" opacity="1" fill="none" stroke="#3CB44B"/>
<line opacity="1" stroke="#3CB44B" stroke-width="1" x1="182" y1="359" x2="182" y2="369"/>
<line opacity="1" stroke="#3CB44B" stroke-width="1" x1="234" y1="364" x2="357" y2="364"/>
<line opacity="1" stroke="#3CB44B" stroke-width="1" x1="357" y1="362" x2="357" y2="366"/>
<line opacity="1" stroke="#3CB44B" stroke-width="1" x1="100" y1="198" x2="100" y2="202"/>
<line opacity="1" stroke="#3CB44B" stroke-width="1" x1="100" y1="200" x2="137" y2="200"/>
<rect x="137" y="195" width="60" height="10" opacity="1" fill="none" stroke="#3CB44B"/>
<line opacity="1" stroke="#3CB44B" stroke-width="1" x1="163" y1="195" x2="163" y2="205"/>
<line opacity="1" stroke="#3CB44B" stroke-width="1" x1="197" y1="200" x2="286" y2="200"/>
<line opacity="1" stroke="#3CB44B" stroke-width="1" x1="286" y1="198" x2="286" y2="202"/>
<rect x="334" y="5" width="141" height="44" opacity="1" fill="#FFFFFF" stroke="none"/>
<rect x="334" y="5" width="141" height="44" opacity="0.5" fill="none" stroke="#000000"/>
<text x="366" y="15" dy="0.76em" text-anchor="start" font-family="sans-serif" font-size="9.67741935483871" opacity="1" fill="#000000">
Index URL Request
</text>
<text x="366" y="30" dy="0.76em" text-anchor="start" font-family="sans-serif" font-size="9.67741935483871" opacity="1" fill="#000000">
Pattern URL Request
</text>
<rect x="344" y="12" width="12" height="12" opacity="1" fill="#E6194B" stroke="none"/>
<rect x="344" y="27" width="12" height="12" opacity="1" fill="#3CB44B" stroke="none"/>
</svg>
